<?xml version="1.0" encoding="utf-8"?>
<!-- Generator: Adobe Illustrator 23.0.3, SVG Export Plug-In . SVG Version: 6.00 Build 0)  -->
<svg version="1.1" xmlns="http://www.w3.org/2000/svg" xmlns:xlink="http://www.w3.org/1999/xlink" x="0px" y="0px"
	 viewBox="0 0 650 211" style="enable-background:new 0 0 650 211;" xml:space="preserve">
<style type="text/css">
	.st0{fill:#00AE22;}
	.st1{fill:#FFFFFF;}
</style>
<g id="レイヤー_1">
</g>
<g id="レイヤー_2">
</g>
<g id="レイヤー_3">
	<g>
		<g>
			<path class="st0" d="M123.22,85.26h22.33v3.86h-7.42v1.95h6.6v17.04h-3.75v-1.06h-13.22v1.06h-3.72V91.07h5.7v-1.95h-6.53V85.26z
				 M127.77,100.05v3.24h13.22v-2.03c-0.35,0.3-0.83,0.47-1.27,0.47h-3.27c-0.83,0-1.7-0.64-1.7-1.88v-5.07h-1.67
				c-0.19,4.72-2.31,6.9-3.2,7.84L127.77,100.05z M127.77,94.78v4.55c1.74-1.88,1.91-3.59,1.98-4.55H127.77z M133.14,89.12v1.95h1.6
				v-1.95H133.14z M140.99,96.51v-1.73h-2.85v2.84c0,0.49,0,0.74,0.4,0.74c0.75,0,0.9,0,0.99-2.15L140.99,96.51z"/>
			<path class="st0" d="M159.11,106.18v0.27c-2.59,0.67-7.96,1.41-9.26,1.56l-0.33-3.83c0.97-0.07,1.93-0.15,3.58-0.35v-5.86h-3.39
				v-3.39h3.39v-1.04h-1.81v-1.01c-0.64,0.54-0.85,0.67-1.22,0.89l-0.97-4.08c0.75-0.54,2.69-1.9,4.1-4.72h3.75
				c0.64,1.29,1.74,2.67,2.9,3.49c0.16-1.46,0.14-2.2,0.12-2.77l3.37,0.37c-0.02,0.72-0.02,1.41-0.17,2.87h0.9v-3.96h3.51v3.96h3.91
				v3.69h-3.91v1.66c0,0.32-0.02,0.59-0.05,0.79h4.38v3.83h-3.82c1.27,3.49,3.44,5.22,4.29,5.91l-2.24,3.71
				c-2.62-2.35-3.58-4.65-4.17-6.53c-1.79,4.28-4.55,6.04-5.49,6.63L159.11,106.18z M151.81,98.54c0.42,1.29,0.75,3.59,0.82,4.21
				l-2.59,0.79c-0.02-1.21-0.28-2.99-0.61-4.25L151.81,98.54z M156.76,90.06c-0.87-1.01-1.25-1.66-1.58-2.23
				c-0.35,0.62-0.66,1.11-1.56,2.23H156.76z M159.44,98.54v-3.83h4.59c0.02-0.27,0.02-0.37,0.02-0.57v-1.88h-1.48
				c-0.26,1.06-0.45,1.53-0.66,2.1l-3.16-1.51c0.68-1.91,0.87-3.24,1.08-4.7l-1.74,3.07v2.33h-1.79v1.04h2.45v3.39h-2.45v5.42
				c1.37-0.2,2-0.32,2.78-0.45l0.02,1.34c1.13-0.69,3.18-2.33,4.22-5.74H159.44z M159.8,99.06c-0.26,1.46-0.87,3.22-0.99,3.59
				l-2.26-0.54c0.49-1.21,0.75-3.21,0.8-3.59L159.8,99.06z"/>
			<path class="st0" d="M176.08,103.74c1.11-1.56,4.05-5.59,4.48-17.56l4.08,0.57c-0.8,11.72-2.59,16.75-5.11,20.28L176.08,103.74z
				 M191.94,86.3c0.42,1.31,0.71,3.07,0.8,3.61l0.5-0.12c0.92,6.08,1.84,9.62,4.9,13.9l-3.79,3.14c-2.9-4.5-4.71-10.09-5.4-20.08
				L191.94,86.3z M193.4,89.17c-0.28-1.41-0.59-2.7-1.06-4.01l1.86-0.47c0.54,1.24,0.87,2.3,1.23,3.88L193.4,89.17z M196.53,88.85
				c-0.19-0.82-0.78-2.97-1.2-3.98l2.03-0.37c0.59,1.39,0.85,2.25,1.2,3.88L196.53,88.85z"/>
			<path class="st0" d="M202.79,103.71c5.84-2.52,10.32-7.05,12.6-13.11h-11.17V86.5h16.66c-0.68,4.21-1.86,7.22-4.12,10.71
				c4.15,3.14,6.29,5.37,7.59,6.75l-3.51,3.59c-2.26-2.77-5.33-5.91-6.62-7.1c-4.52,4.87-7.47,6.18-9.12,6.9L202.79,103.71z"/>
			<path class="st0" d="M248.86,82.1h-7.25v26.37h-5.39V76.45h12.63V82.1z"/>
			<path class="st0" d="M262.03,97.58c-0.55,3.39-1.7,7.02-3.62,10.65l-4.67-3.94c2.32-3.39,3.2-7.09,3.56-8.7L262.03,97.58z
				 M266.9,93.1h-11.1v-5.58h11.23v-2.53h-12.66V79.4h12.66v-2.91h5.68v2.91h12.66v5.58h-12.66v2.53h11.2v5.58h-13.42
				c2.58,1.68,3.66,2.74,4.34,3.42l-3.53,4.28c-1.11-1.2-2.32-2.23-3.59-3.18v4.72c0,0.65,0,0.99,0.82,0.99h3.72
				c0.69,0,1.01-0.27,1.21-2.84l5.22,0.82c-0.59-1.51-1.11-2.6-1.83-3.97l4.77-2.36c2.15,3.25,3.49,6.95,4.47,10.13l-5.29,2.81
				c-0.42-1.82-0.95-3.6-2.09-6.54c-0.56,7.36-2.45,7.36-4.18,7.36h-9.5c-0.16,0-2.48-0.17-2.48-2.74v-8.66h4.8
				c-1.37-0.96-2.02-1.37-2.58-1.71L266.9,93.1z"/>
			<path class="st0" d="M292.35,89.23c-0.23,0.1-0.36,0.14-0.88,0.34l-1.3-6.57c5.88-2.09,7.7-4.9,8.84-6.85l7.08,0.24
				c-0.33,0.65-0.46,0.92-0.69,1.37h10.67v5.31c-0.59,0.75-0.95,1.13-1.76,1.92h6.3v13.59h-7.83v3.36c0,0.86,0.13,1.03,0.88,1.03
				h1.86c0.75,0,0.78-0.34,0.91-3.39l5.71,0.99c-0.46,7.57-1.99,8.22-4.96,8.22h-6.23c-2.29,0-3.75-1.1-3.75-3.56v-6.64h-2.77
				c-1.4,6.85-4.93,9.42-11.62,10.89l-2.64-6.03c6.2-0.68,7.57-3.46,8.29-4.86h-6.1V89.23z M297.73,90.36v2.94h6.07v-2.94H297.73z
				 M307.33,84.98c0.55-0.65,0.85-1.06,1.34-1.92h-7.38c-0.91,0.92-1.53,1.47-2.06,1.92H307.33z M309.15,90.36v2.94h6.13v-2.94
				H309.15z"/>
			<path class="st0" d="M340.06,109.05h-12.63v-5.65h7.25V77.04h5.38V109.05z"/>
			<path class="st0" d="M354.61,94.64c-0.49,0.58-0.69,0.79-1.21,1.37l-1.24-8.22c3.1-4.14,3.82-9.07,4.08-11.5l5.19,0.48
				c-0.03,0.21-0.16,1.16-0.2,1.4h8.13v-1.71h5.19v1.71h9.04v4.14h-22.52v-3.05c-0.16,0.89-0.52,2.88-1.37,5.72v24.07h-5.09V94.64z
				 M381.34,99.02v2.74h-6.33v3.84c0,3.25-1.83,3.46-3.59,3.46h-6.07l-0.75-4.73h4.37c0.69,0,0.82-0.34,0.82-0.89v-1.68h-6.98v-2.74
				h-2.02v-6.64h22.42v6.64H381.34z M381.66,83.37v7.84h-19.42v-7.84H381.66z M378.3,96.24h-12.7v1.37h12.7V96.24z M367.47,86.56
				v1.51h8.88v-1.51H367.47z"/>
			<path class="st0" d="M388.77,81.49c2.12-1.4,3.98-3.46,4.83-5.31l5.06,1.54c-1.79,3.66-4.8,7.23-7.77,9.59L388.77,81.49z
				 M396.8,105.7v3.32h-5.16v-11.4c-0.59,0.55-0.91,0.82-1.5,1.33l-1.34-7.19c2.35-1.61,5.29-5.31,6.53-7.6l4.01,2.64h7.64v-2.36
				h-7.21v-5.21h7.21v-2.84h5.29v2.84h7.21v5.21h-7.21v2.36h8V92h-8v2.33h6.76v5.2h-6.76v3.42c0.65,0.03,1.8,0.1,3.53,0.1
				c2.09,0,3.49-0.07,4.86-0.14l-1.08,5.41c-10.31,0.1-13.12-0.17-16.55-4.21c-1.24,2.94-2.55,4.42-3.23,5.2L396.8,105.7z
				 M405.25,93.75c-0.1,1.13-0.2,2.71-0.65,5c0.26,0.48,0.88,1.54,2.38,2.6V92h-7.93v-3.83c-0.39,0.75-0.98,1.85-2.25,3.59v12.74
				c1.21-1.37,3.13-4.08,3.62-11.2L405.25,93.75z"/>
			<path class="st0" d="M426.92,103.61c2.09,0,10.8-0.07,15.41-2.43c-0.2,0.07-0.49,0.14-0.98,0.14h-6.27l-0.85-4.62
				c-1.67,1.75-3.33,3.12-5.16,4.11l-3.43-4.52c3.72-2.02,5.91-4.14,6.85-5.44h-6.53v-5.17h4.41v-7.7h5.35v7.7h3.3v-9.11h5.32v2.16
				h10.12v5.03h-10.12v1.92h12.5v5.17h-6.1c0.82,0.92,3.56,3.77,6.69,5.62l-3.43,4.45c-1.99-1.16-5.32-4.28-7.9-7.67l3.46-2.4h-5.22
				v7.19c0,0.44,0,1.71-0.78,2.4c2.22-1.51,3.43-3.15,4.11-4.14l3.85,3.77c-2.42,3.22-7.25,8.8-22.85,9.21L426.92,103.61z
				 M437.13,93.23c-0.36,0.58-0.91,1.47-2.54,3.08h3.46c0.98,0,0.98-0.92,0.98-1.23v-4.25h-5.55L437.13,93.23z"/>
			<path class="st0" d="M471.95,96.76c-1.7,0.21-2.74,0.51-2.74,2.53v0.86h17.27v5.62h-23.11v-5.38c0-2.6,0-8.22,6.36-9.01
				l8.36-1.03c1.89-0.24,2.78-0.58,2.78-2.88c0-2.4-0.72-3.36-5.55-3.36c-5.45,0-5.65,0.72-5.71,4.08h-5.75
				c0-5.75,0.29-9.69,11-9.69c6.79,0,11.81,0.48,11.81,8.63c0,3.49-0.85,5.27-1.99,6.33c-2.09,1.92-3.98,2.16-4.8,2.26L471.95,96.76
				z"/>
			<path class="st0" d="M497.86,91.21c-0.78,0.72-1.27,1.13-1.99,1.75l-3.53-5.27c6.37-4.21,8.23-9.07,9.01-11.4l5.35,1.06
				c-0.55,1.64-1.89,5.75-5.52,10.31h14.52c-2.71-3.56-4.44-7.53-5.45-10.14l5.35-1.3c1.73,4.07,4.31,8.59,8.98,11.81l-3.62,4.93
				c-0.69-0.51-1.21-0.92-1.79-1.47c-0.23,5.82-0.46,12.16-1.54,14.79c-0.72,1.75-1.6,2.81-4.14,2.81h-6.1l-1.08-5.68h4.83
				c0.72,0,1.27-0.38,1.47-0.79c0.26-0.55,0.78-3.63,0.98-9.52h-5.55c-0.98,8.59-5.48,12.98-12.17,16.09l-3.17-5.44
				c8.55-3.05,9.56-7.81,9.79-10.65h-4.63V91.21z"/>
		</g>
	</g>
	<path class="st0" d="M569.66,180.51H80.34c-13.05,0-23.62-10.58-23.62-23.62v-5.97c0-13.05,10.58-23.62,23.62-23.62h489.32
		c13.05,0,23.62,10.58,23.62,23.62v5.97C593.29,169.93,582.71,180.51,569.66,180.51z"/>
	<g>
		<path class="st0" d="M242.57,50.09c-0.23,1.37-1.02,5.97-3.76,10.61l-3.82-2.61c2.41-3.36,3.33-7.18,3.76-9.2L242.57,50.09z
			 M248.69,45.53h-11.67v-4.19h11.73v-4.15h-13.35v-4.19h13.35v-3.57h4.19v3.57h13.32v4.19h-13.32v4.15h11.67v4.19h-15.33
			c0.66,0.34,3.89,2.4,6.16,4.6l-2.74,3.33c-1.32-1.41-3.03-2.99-6.39-5.18L248.69,45.53z M243.92,50.02h3.99v6.28
			c0,0.82,0.1,0.96,0.76,0.96h5.47c0.89,0,1.19-0.24,1.52-3.81l4.09,0.89c-0.66,6.18-1.78,6.9-4.25,6.9h-9
			c-1.09,0-2.57-0.65-2.57-2.51V50.02z M262.08,48.17c2.14,3.02,3.92,7.07,4.94,10.2l-4.09,1.99c-1.19-4.12-2.9-7.66-4.51-10.33
			L262.08,48.17z"/>
		<path class="st0" d="M273.71,40.96c-0.3,0.14-0.46,0.21-1.22,0.51l-1.52-4.33c6.69-2.37,9-6.01,10.05-7.97l5.11,0.28
			c-0.36,0.75-0.63,1.24-1.05,1.89h10.88v3.81c-0.79,1.17-2.47,2.78-2.7,2.99h7.78V50.3h-8.11v5.87c0,0.58,0.13,1,0.82,1h3.69
			c0.56,0,0.86-0.27,0.99-0.82c0.13-0.65,0.16-0.96,0.33-3.64l4.35,0.93c-0.56,7.07-1.52,7.72-4.42,7.72H292
			c-2.93,0-3.2-2.09-3.2-3.02V50.3h-4.15c-1.29,8.14-5.83,10.57-11.44,11.81l-2.04-4.26c6.26-0.93,8.08-3.47,9.23-7.55h-6.69V40.96z
			 M277.7,41.96v4.57h7.58v-4.57H277.7z M288.02,38.14c0.92-0.89,1.68-1.75,2.57-2.99h-8.54c-1.22,1.27-2.6,2.33-3.49,2.99H288.02z
			 M289.17,41.96v4.57h7.84v-4.57H289.17z"/>
		<path class="st0" d="M308.65,30.69h16.51v26.75h-12.72v2.78h-3.79V30.69z M312.44,34.68v7.21h2.77v-7.21H312.44z M312.44,45.63
			v7.83h2.77v-7.83H312.44z M318.64,34.68v7.21h2.93v-7.21H318.64z M318.64,45.63v7.83h2.93v-7.83H318.64z M331.95,37.15h-6.23
			v-4.39h13.22v4.39h-2.87v21.77c0,0.79-0.23,2.88-2.8,2.88h-6.82l-0.69-4.33h5.27c0.92,0,0.92-0.62,0.92-0.96V37.15z"/>
		<path class="st0" d="M351.33,50.09c-0.23,1.37-1.02,5.97-3.76,10.61l-3.82-2.61c2.41-3.36,3.33-7.18,3.76-9.2L351.33,50.09z
			 M357.46,45.53H345.8v-4.19h11.73v-4.15h-13.35v-4.19h13.35v-3.57h4.19v3.57h13.32v4.19h-13.32v4.15h11.67v4.19h-15.33
			c0.66,0.34,3.89,2.4,6.16,4.6l-2.74,3.33c-1.32-1.41-3.03-2.99-6.39-5.18L357.46,45.53z M352.69,50.02h3.99v6.28
			c0,0.82,0.1,0.96,0.76,0.96h5.47c0.89,0,1.19-0.24,1.52-3.81l4.09,0.89c-0.66,6.18-1.78,6.9-4.25,6.9h-9
			c-1.09,0-2.57-0.65-2.57-2.51V50.02z M370.85,48.17c2.14,3.02,3.92,7.07,4.94,10.2l-4.09,1.99c-1.19-4.12-2.9-7.66-4.51-10.33
			L370.85,48.17z"/>
		<path class="st0" d="M382.48,40.96c-0.3,0.14-0.46,0.21-1.22,0.51l-1.52-4.33c6.69-2.37,9-6.01,10.05-7.97l5.11,0.28
			c-0.36,0.75-0.63,1.24-1.05,1.89h10.88v3.81c-0.79,1.17-2.47,2.78-2.7,2.99h7.78V50.3h-8.11v5.87c0,0.58,0.13,1,0.82,1h3.69
			c0.56,0,0.86-0.27,0.99-0.82c0.13-0.65,0.16-0.96,0.33-3.64l4.35,0.93c-0.56,7.07-1.52,7.72-4.42,7.72h-6.69
			c-2.93,0-3.2-2.09-3.2-3.02V50.3h-4.15c-1.29,8.14-5.83,10.57-11.44,11.81l-2.04-4.26c6.26-0.93,8.08-3.47,9.23-7.55h-6.69V40.96z
			 M386.47,41.96v4.57h7.58v-4.57H386.47z M396.79,38.14c0.92-0.89,1.68-1.75,2.57-2.99h-8.54c-1.22,1.27-2.6,2.33-3.49,2.99H396.79
			z M397.94,41.96v4.57h7.84v-4.57H397.94z"/>
	</g>
	<g>
		<g>
			<path class="st1" d="M166.61,165.4c2.14-1.51,4.61-3.33,6.69-6.42h-5.74v-3.16h6.69v-3.19h-6.86v-3.13h3.66
				c-0.03-0.27-0.36-3.05-0.99-4.91h-2.01v-3.12h6.2v-2.85h3.16v2.85h5.7v3.12h-1.55c-0.69,3.16-0.76,3.54-1.19,4.91h3.23v3.13h-6.2
				v3.19h5.44v3.16h-4.81c0.76,0.96,2.14,2.68,4.05,3.91l-1.65,3.09c-1.71-1.72-2.11-2.27-3.03-3.67v8.62h-3.16v-8.55
				c-2.7,3.74-4.58,5.25-5.83,6.18L166.61,165.4z M173.07,144.59c0.5,1.65,0.99,4.5,1.02,4.91h3.33c0.39-1.37,0.86-3.67,1.02-4.91
				H173.07z M198.21,141.85c-3,1.48-6.66,2.44-10.18,2.58v5.22h10.18v3.3h-3.23v17.99h-3.43v-17.99h-3.53v0.93
				c0,9.58-1.81,13.25-4.42,17.06l-3.2-2.3c2.87-3.57,4.32-7.07,4.32-14.66v-12.77c5.8,0.1,9.46-1.51,11.6-2.58L198.21,141.85z"/>
			<path class="st1" d="M215.68,155.41c-2.27,0.51-9.46,1.68-11.67,1.96l-0.53-3.16c0.3-0.03,4.68-0.48,5.47-0.58v-3.43h-3.92v-2.75
				h0.23l-2.08-2.23c0.89-0.79,3.69-3.09,4.98-6.7l3.23,0.62c-0.13,0.45-0.17,0.55-0.53,1.44h7.71v2.75h-5.01
				c0.36,0.65,0.63,1.17,0.89,1.79l-3.23,1.24c-0.2-0.82-0.66-2.23-1.05-3.02h-0.86c-0.23,0.41-1.55,2.4-3.49,4.12h10.08v2.75h-3.86
				v3.09c2.24-0.28,2.93-0.41,3.86-0.58v1.99c2.67-1.75,3-3.64,3.13-7.76h11.87v6.39c0,0.62,0.13,0.75,0.4,0.75
				c0.73,0,0.79,0,0.86-0.93c0-0.27,0.03-1.61,0.03-1.92l2.83,0.79c-0.17,3.64-0.26,4.81-2.08,4.81h-3.07
				c-1.05,0-2.04-0.65-2.04-2.33v-4.88h-5.93c-0.07,1.27-0.36,5.25-4.05,7.79h2.83v1.41h13.91v2.95h-11.24
				c1.55,1.27,3.72,3.02,11.73,5.01l-1.48,3.23c-4.75-1.37-9.23-3.5-12.92-6.9v7.72h-3.2v-7.76c-3.92,4.05-9.36,6.01-12.79,6.94
				l-1.35-3.26c4.25-0.75,8.96-2.85,11.6-4.98h-11.27v-2.95h13.81v-1.17L215.68,155.41z M223.03,143.32
				c-1.02,1.75-1.62,2.4-2.34,3.13l-2.8-2.03c2.14-1.99,3.03-3.85,3.66-5.73l3.33,0.52c-0.2,0.58-0.3,0.89-0.46,1.37h10.18v2.75
				h-6.53c0.36,0.58,0.63,1.13,0.86,1.75l-2.97,1.27c-0.26-0.69-0.92-2.27-1.29-3.02H223.03z M224.12,150.19
				c1.61,1.44,2.64,2.47,3.46,3.57l-2.14,2.09c-0.53-0.65-1.85-2.3-3.36-3.6L224.12,150.19z"/>
			<path class="st1" d="M244.82,151.25c-1.55,1.44-2.5,2.2-3.39,2.88l-2.37-3.12c4.19-2.4,8.37-7.52,9.89-12.5l3.43,0.93
				c-1.19,3.26-2.9,7.11-7.18,11.4h20.3c0,3.47-0.1,12.39-1.35,16.93c-0.86,3.09-3.1,3.19-4.55,3.19h-5.04l-0.66-3.64h5.04
				c1.88,0,2.17-1.72,2.44-3.23c0.26-1.54,0.69-4.77,0.66-9.79h-7.65c-0.86,9.27-5.44,13.66-12.26,16.65l-2.01-3.3
				c7.15-3.12,9.92-6.25,10.74-13.36h-6.03V151.25z M269.14,153.86c-2.7-1.89-8.4-7.93-10.68-14.32l3.43-1.03
				c1.71,4.29,5.24,9.61,9.66,12.36L269.14,153.86z"/>
			<path class="st1" d="M276.1,144.45h10.91v3.06H276.1V144.45z M276.92,139.37h9.03v3.09h-9.03V139.37z M276.92,149.43h9.03v3.13
				h-9.03V149.43z M276.92,154.55h9.03v3.06h-9.03V154.55z M276.92,159.8h9.03v9.78h-6.06v1.44h-2.97V159.8z M279.89,162.75v4.02
				h3.1v-4.02H279.89z M306.92,162.07c-0.72,0.72-1.09,1.06-3.59,3.09c1.55,1.41,2.93,2.09,3.96,2.64l-1.68,3.23
				c-4.22-2.4-7.88-6.01-9-10.85c-0.13,0.17-1.12,1.24-2.34,2.13v4.6c2.6-0.21,3.66-0.38,4.91-0.55v3.23
				c-2.47,0.38-7.65,0.96-10.98,1.06l-0.56-3.47c0.99,0,1.81,0,3.56-0.07v-2.82c-1.29,0.72-2.34,1.13-3.69,1.65l-1.35-2.99
				c1.15-0.34,4.28-1.17,6.86-3.3h-6v-2.58h4.68v-1.75h-3.49v-2.37h3.49v-1.51h-4.05v-2.44h4.05v-1.13h2.97v1.13h4.98v-1.13h3v1.13
				h4.28v2.44h-4.28v1.51h3.63v2.37h-3.63v1.75h4.48v2.58h-7.78c0.4,0.82,0.92,1.82,1.81,3.09c1.32-1.03,1.91-1.61,3.1-2.85
				L306.92,162.07z M287.6,145.62c1.71-0.38,3.33-0.76,6.06-2.06h-6.39v-2.88h8.17v-1.92h3.33v1.92h8.34v2.88h-6.33
				c1.52,0.86,3.59,1.58,6.33,2.16l-1.35,2.44c-1.12-0.17-4.25-0.79-6.99-2.44l1.68-2.16h-6.59l1.98,2.16
				c-2.57,1.51-6.13,2.44-6.92,2.64L287.6,145.62z M294.66,151.46v1.51h4.98v-1.51H294.66z M294.66,155.34v1.75h4.98v-1.75H294.66z"
				/>
			<path class="st1" d="M315.49,154.41c-1.09,1.54-1.65,2.16-2.27,2.85l-1.48-4.39c1.78-1.99,4.91-7.38,5.7-14.14l3.43,0.45
				c-0.1,1.3-0.36,4.15-2.01,8.55v23.17h-3.36V154.41z M333.81,145.55c-1.95-1.75-4.15-3.13-6.46-4.33l2.11-2.88
				c2.14,1.06,4.55,2.58,6.62,4.12l-2.04,3.09h8.54v3.4h-8.83v6.49h7.61v3.4h-7.61v7.62h9.59v3.33h-22.64v-3.33h9.56v-7.62h-7.65
				v-3.4h7.65v-6.49h-8.73v-3.4H333.81z"/>
			<path class="st1" d="M363.64,156.2l15.66-1.72l0.26,3.4l-15.92,1.75v6.8c0,0.65,0.46,0.65,0.69,0.65h9.06
				c0.53,0,0.92-0.21,1.05-0.89c0.13-0.58,0.23-3.43,0.23-4.6l3.59,0.93c-0.13,5.18-0.3,8.14-3.59,8.14h-11.34
				c-0.86,0-3.16,0-3.16-2.54v-8.1l-11.34,1.27l-0.23-3.43l11.57-1.27v-4.15c-1.91,0.24-4.05,0.38-5.93,0.51l-1.09-3.5
				c2.54-0.1,11.96-0.45,19.51-3.23l1.71,3.23c-3.82,1.44-6.79,1.96-10.74,2.54V156.2z M362.42,138.65h3.43v3.02h12.82v8.21h-3.43
				v-4.77h-22.21v4.77h-3.46v-8.21h12.85V138.65z"/>
			<path class="st1" d="M390.11,150.53c-1.48,0.89-2.7,1.48-4.02,2.13l-1.68-3.47c5.11-1.89,10.84-6.15,14.04-10.57h3.69
				c3.16,4.19,7.78,8.27,14.24,10.47l-1.85,3.5c-1.02-0.45-2.04-0.89-3.96-2.06v2.58h-8.54v4.63h10.42v3.09h-10.42v5.56h13.35v3.5
				h-30.26v-3.5h13.38v-5.56h-10.35v-3.09h10.35v-4.63h-8.4V150.53z M409.36,149.74c-2.77-1.85-6-4.39-9.1-8.1
				c-1.65,2.03-4.55,5.32-8.9,8.1H409.36z"/>
			<path class="st1" d="M429.99,158.19c-2.27,0.38-4.09,0.89-4.09,5.18v0.75h17.3v3.71h-21.23v-2.99c0-4.26,0.33-9.27,6.66-10.23
				l6.46-1c2.9-0.45,4.32-1.27,4.32-4.63c0-3.33-1.52-4.77-6.39-4.77c-5.5,0-6.69,1.34-6.72,5.63h-3.89
				c0.07-5.84,1.68-9.34,10.38-9.34c4.98,0,10.51,0.65,10.51,8.48c0,3.6-1.09,5.32-2.87,6.52c-1.05,0.69-2.34,1.34-4.19,1.65
				L429.99,158.19z"/>
			<path class="st1" d="M448.94,159.32c0.79-1.2,3.49-5.12,4.75-11.09h-4.25v-3.3h4.35v-6.25h3.16v6.25h3.66v3.3h-3.66v1.2
				c1.62,3.85,3.16,5.49,4.05,6.42l-1.68,3.16c-0.49-0.69-1.55-2.27-2.37-4.29v16.17h-3.16v-15.11c-1.42,5.08-2.74,6.87-3.63,8.1
				L448.94,159.32z M458.73,166.56c5.5-3.02,7.98-6.9,8.37-7.55h-5.67v-12.39h7.42v-1.96h-8.24v-3.37h8.24v-2.61h3.1v2.61h8.5v3.37
				h-8.5v1.96h7.45v12.39h-5.44c0.49,0.79,2.83,4.46,7.02,7.24l-1.91,3.06c-2.87-2.2-4.94-4.39-7.12-8.51v10.09h-3.1v-9.65
				c-3.13,5.08-6.43,7.28-8.24,8.41L458.73,166.56z M464.5,149.33v2.27h4.35v-2.27H464.5z M464.5,154.03v2.23h4.35v-2.23H464.5z
				 M471.95,149.33v2.27h4.45v-2.27H471.95z M471.95,154.03v2.23h4.45v-2.23H471.95z"/>
		</g>
	</g>
</g>
</svg>
