<?xml version="1.0" encoding="utf-8"?>
<!-- Generator: Adobe Illustrator 23.0.3, SVG Export Plug-In . SVG Version: 6.00 Build 0)  -->
<svg version="1.1" xmlns="http://www.w3.org/2000/svg" xmlns:xlink="http://www.w3.org/1999/xlink" x="0px" y="0px"
	 viewBox="0 0 650 206" style="enable-background:new 0 0 650 206;" xml:space="preserve">
<style type="text/css">
	.st0{fill:#00AE22;}
	.st1{fill:#FFFFFF;}
</style>
<g id="レイヤー_1">
</g>
<g id="レイヤー_2">
</g>
<g id="レイヤー_3">
	<g>
		<g>
			<path class="st0" d="M126.78,85.26h22.33v3.86h-7.42v1.95h6.6v17.04h-3.75v-1.06h-13.22v1.06h-3.72V91.07h5.7v-1.95h-6.53V85.26z
				 M131.32,100.05v3.24h13.22v-2.03c-0.35,0.3-0.82,0.47-1.27,0.47h-3.27c-0.82,0-1.7-0.64-1.7-1.88v-5.07h-1.67
				c-0.19,4.72-2.31,6.9-3.2,7.84L131.32,100.05z M131.32,94.78v4.55c1.74-1.88,1.91-3.59,1.98-4.55H131.32z M136.7,89.12v1.95h1.6
				v-1.95H136.7z M144.54,96.51v-1.73h-2.85v2.84c0,0.49,0,0.74,0.4,0.74c0.75,0,0.9,0,0.99-2.15L144.54,96.51z"/>
			<path class="st0" d="M162.2,106.18v0.27c-2.59,0.67-7.96,1.41-9.26,1.56l-0.33-3.83c0.97-0.07,1.93-0.15,3.58-0.35v-5.86h-3.39
				v-3.39h3.39v-1.04h-1.81v-1.01c-0.64,0.54-0.85,0.67-1.23,0.89l-0.97-4.08c0.75-0.54,2.69-1.9,4.1-4.72h3.75
				c0.64,1.29,1.74,2.67,2.9,3.49c0.17-1.46,0.14-2.2,0.12-2.77l3.37,0.37c-0.02,0.72-0.02,1.41-0.17,2.87h0.9v-3.96h3.51v3.96h3.91
				v3.69h-3.91v1.66c0,0.32-0.02,0.59-0.05,0.79h4.38v3.83h-3.82c1.27,3.49,3.44,5.22,4.29,5.91l-2.24,3.71
				c-2.62-2.35-3.58-4.65-4.17-6.53c-1.79,4.28-4.55,6.04-5.49,6.63L162.2,106.18z M154.89,98.54c0.42,1.29,0.75,3.59,0.82,4.21
				l-2.59,0.79c-0.02-1.21-0.28-2.99-0.61-4.25L154.89,98.54z M159.84,90.06c-0.87-1.01-1.25-1.66-1.58-2.23
				c-0.35,0.62-0.66,1.11-1.56,2.23H159.84z M162.53,98.54v-3.83h4.59c0.02-0.27,0.02-0.37,0.02-0.57v-1.88h-1.48
				c-0.26,1.06-0.45,1.53-0.66,2.1l-3.16-1.51c0.68-1.91,0.87-3.24,1.08-4.7l-1.74,3.07v2.33h-1.79v1.04h2.45v3.39h-2.45v5.42
				c1.37-0.2,2-0.32,2.78-0.45l0.02,1.34c1.13-0.69,3.18-2.33,4.22-5.74H162.53z M162.88,99.06c-0.26,1.46-0.87,3.22-0.99,3.59
				l-2.26-0.54c0.49-1.21,0.75-3.21,0.8-3.59L162.88,99.06z"/>
			<path class="st0" d="M178.69,103.74c1.11-1.56,4.05-5.59,4.48-17.56l4.08,0.57c-0.8,11.72-2.59,16.75-5.11,20.28L178.69,103.74z
				 M194.55,86.3c0.42,1.31,0.71,3.07,0.8,3.61l0.49-0.12c0.92,6.08,1.84,9.62,4.9,13.9l-3.79,3.14c-2.9-4.5-4.71-10.09-5.4-20.08
				L194.55,86.3z M196.01,89.17c-0.28-1.41-0.59-2.7-1.06-4.01l1.86-0.47c0.54,1.24,0.87,2.3,1.23,3.88L196.01,89.17z M199.14,88.85
				c-0.19-0.82-0.78-2.97-1.2-3.98l2.03-0.37c0.59,1.39,0.85,2.25,1.2,3.88L199.14,88.85z"/>
			<path class="st0" d="M204.93,103.71c5.84-2.52,10.32-7.05,12.6-13.11h-11.17V86.5h16.66c-0.68,4.21-1.86,7.22-4.12,10.71
				c4.15,3.14,6.29,5.37,7.59,6.75l-3.51,3.59c-2.26-2.77-5.32-5.91-6.62-7.1c-4.52,4.87-7.47,6.18-9.12,6.9L204.93,103.71z"/>
			<path class="st0" d="M250.52,82.1h-7.25v26.37h-5.39V76.45h12.63V82.1z"/>
			<path class="st0" d="M256.91,77.55h26.31v5.62c-6.95,3.53-12.57,7.94-13.64,8.8c-4.11,3.25-7.18,6.06-7.18,8.73
				c0,2.43,2.35,2.43,3.82,2.43h11c1.24,0,1.86-0.48,2.35-1.81c0.23-0.65,0.29-1.3,0.78-5.99l5.84,1.92
				c-0.13,2.23-0.59,6.61-1.44,8.56c-1.27,2.94-4.99,2.98-5.39,2.98h-14.59c-6.92,0-8.85-4.52-8.85-7.36c0-3.36,2.35-6.23,3.13-7.19
				c4.7-5.75,12.08-10.07,13.68-11.03h-15.83V77.55z"/>
			<path class="st0" d="M320.32,89.91c-1.44-0.68-2.84-1.34-4.15-2.09v2.09h-6.72v1.85h11.65v5.38h-8l5.39,1.54
				c-0.23,0.68-0.59,1.68-1.6,4.11h4.93v5.38H291.7v-5.38h4.86c-0.56-1.88-1.18-3.25-1.5-4.07l5.25-1.58h-7.8v-5.38h11.62v-1.85
				h-6.59v-2.12c-2.15,1.1-3.07,1.47-4.11,1.95l-2.51-5.75c4.24-1.33,9.73-3.83,13.12-7.7h5.78c3.2,3.01,7.02,5.65,13.06,7.7
				L320.32,89.91z M304.13,97.14h-3.79c1.11,2.43,1.7,4.93,1.89,5.65h1.89V97.14z M306.91,80.7c-0.91,1.06-2.02,2.26-4.44,4.08h9.01
				C309.42,83.27,307.92,81.73,306.91,80.7z M309.45,97.14v5.65h1.89c0.69-1.85,1.24-3.87,1.66-5.65H309.45z"/>
			<path class="st0" d="M339.77,109.05h-12.63v-5.65h7.25V77.04h5.39V109.05z"/>
			<path class="st0" d="M353.66,94.64c-0.49,0.58-0.69,0.79-1.21,1.37l-1.24-8.22c3.1-4.14,3.82-9.07,4.08-11.5l5.19,0.48
				c-0.03,0.21-0.16,1.16-0.2,1.4h8.13v-1.71h5.19v1.71h9.04v4.14h-22.52v-3.05c-0.16,0.89-0.52,2.88-1.37,5.72v24.07h-5.09V94.64z
				 M380.4,99.02v2.74h-6.33v3.84c0,3.25-1.83,3.46-3.59,3.46h-6.07l-0.75-4.73h4.37c0.69,0,0.82-0.34,0.82-0.89v-1.68h-6.98v-2.74
				h-2.02v-6.64h22.42v6.64H380.4z M380.72,83.37v7.84H361.3v-7.84H380.72z M377.36,96.24h-12.7v1.37h12.7V96.24z M366.52,86.56
				v1.51h8.88v-1.51H366.52z"/>
			<path class="st0" d="M387.18,81.49c2.12-1.4,3.98-3.46,4.83-5.31l5.06,1.54c-1.8,3.66-4.8,7.23-7.77,9.59L387.18,81.49z
				 M395.21,105.7v3.32h-5.16v-11.4c-0.59,0.55-0.91,0.82-1.5,1.33l-1.34-7.19c2.35-1.61,5.29-5.31,6.53-7.6l4.01,2.64h7.64v-2.36
				h-7.21v-5.21h7.21v-2.84h5.29v2.84h7.21v5.21h-7.21v2.36h8V92h-8v2.33h6.76v5.2h-6.76v3.42c0.65,0.03,1.8,0.1,3.53,0.1
				c2.09,0,3.49-0.07,4.86-0.14l-1.08,5.41c-10.31,0.1-13.12-0.17-16.55-4.21c-1.24,2.94-2.55,4.42-3.23,5.2L395.21,105.7z
				 M403.66,93.75c-0.1,1.13-0.2,2.71-0.65,5c0.26,0.48,0.88,1.54,2.38,2.6V92h-7.93v-3.83c-0.39,0.75-0.98,1.85-2.25,3.59v12.74
				c1.21-1.37,3.13-4.08,3.62-11.2L403.66,93.75z"/>
			<path class="st0" d="M424.67,103.61c2.09,0,10.8-0.07,15.41-2.43c-0.2,0.07-0.49,0.14-0.98,0.14h-6.27l-0.85-4.62
				c-1.66,1.75-3.33,3.12-5.16,4.11l-3.43-4.52c3.72-2.02,5.91-4.14,6.85-5.44h-6.53v-5.17h4.41v-7.7h5.35v7.7h3.3v-9.11h5.32v2.16
				h10.12v5.03H442.1v1.92h12.5v5.17h-6.1c0.82,0.92,3.56,3.77,6.69,5.62l-3.43,4.45c-1.99-1.16-5.32-4.28-7.9-7.67l3.46-2.4h-5.22
				v7.19c0,0.44,0,1.71-0.78,2.4c2.22-1.51,3.43-3.15,4.11-4.14l3.85,3.77c-2.42,3.22-7.25,8.8-22.85,9.21L424.67,103.61z
				 M434.89,93.23c-0.36,0.58-0.91,1.47-2.55,3.08h3.46c0.98,0,0.98-0.92,0.98-1.23v-4.25h-5.55L434.89,93.23z"/>
			<path class="st0" d="M469.05,96.76c-1.7,0.21-2.74,0.51-2.74,2.53v0.86h17.27v5.62h-23.11v-5.38c0-2.6,0-8.22,6.36-9.01
				l8.36-1.03c1.89-0.24,2.77-0.58,2.77-2.88c0-2.4-0.72-3.36-5.55-3.36c-5.45,0-5.65,0.72-5.71,4.08h-5.74
				c0-5.75,0.29-9.69,11-9.69c6.79,0,11.81,0.48,11.81,8.63c0,3.49-0.85,5.27-1.99,6.33c-2.09,1.92-3.98,2.16-4.8,2.26L469.05,96.76
				z"/>
			<path class="st0" d="M494.31,91.21c-0.78,0.72-1.27,1.13-1.99,1.75l-3.52-5.27c6.36-4.21,8.23-9.07,9.01-11.4l5.35,1.06
				c-0.55,1.64-1.89,5.75-5.52,10.31h14.52c-2.71-3.56-4.44-7.53-5.45-10.14l5.35-1.3c1.73,4.07,4.31,8.59,8.98,11.81l-3.62,4.93
				c-0.69-0.51-1.21-0.92-1.79-1.47c-0.23,5.82-0.46,12.16-1.53,14.79c-0.72,1.75-1.6,2.81-4.15,2.81h-6.1l-1.08-5.68h4.83
				c0.72,0,1.27-0.38,1.47-0.79c0.26-0.55,0.78-3.63,0.98-9.52h-5.55c-0.98,8.59-5.48,12.98-12.17,16.09l-3.17-5.44
				c8.55-3.05,9.56-7.81,9.79-10.65h-4.63V91.21z"/>
		</g>
	</g>
	<path class="st0" d="M569.66,180.51H80.34c-13.05,0-23.62-10.58-23.62-23.62v-5.97c0-13.05,10.58-23.62,23.62-23.62h489.32
		c13.05,0,23.62,10.58,23.62,23.62v5.97C593.29,169.93,582.71,180.51,569.66,180.51z"/>
	<g>
		<path class="st0" d="M198.69,57.23c2.41-0.93,11.17-4.26,13.15-15.48h-12.69v-4.39h12.99v-7.93h4.42v7.24
			c0,0.1-0.03,0.52-0.03,0.69h13.48v4.39h-12.89c1.91,9.2,7.15,13.08,13.61,15.62l-2.54,4.43c-3.16-1.34-10.55-4.91-13.48-14.66
			c-3.53,10.16-10.98,13.42-13.41,14.49L198.69,57.23z"/>
		<path class="st0" d="M235.21,56.2c2.14-0.1,3.66-0.21,6.92-0.48v-3.16h-6.1v-3.71h6.1v-2.61h-5.97V30.63h15.59v15.62h-6v2.61h6.23
			v3.71h-6.23v2.78c1.05-0.1,3.66-0.41,6.53-0.82v3.84c-6.2,1.1-10.91,1.65-16.68,1.99L235.21,56.2z M239.63,34.09v2.75h2.67v-2.75
			H239.63z M239.63,39.96v2.88h2.67v-2.88H239.63z M245.66,34.09v2.75h2.67v-2.75H245.66z M245.66,39.96v2.88h2.67v-2.88H245.66z
			 M256.51,35.05c0.76,0.41,1.38,0.72,2.83,1.72c1.09-1.13,1.45-1.51,2.11-2.44h-8.6v-3.71h12.92v3.6
			c-1.05,1.99-3.06,3.98-3.72,4.67c0.76,0.69,1.15,1.1,1.68,1.72l-1.25,1.37h3.92v3.84c-0.23,1.79-0.92,4.77-1.71,6.56l-3.2-1.06
			c0.36-0.82,1.12-2.51,1.65-5.49h-2.27v12.88c0,2.4-0.79,2.95-3.06,2.95h-4.45l-0.56-4.33h2.97c0.73,0,1.12,0,1.12-0.93V45.83
			h-4.58v-3.84h7.22c-0.96-1-2.8-2.71-5.41-4.33L256.51,35.05z"/>
		<path class="st0" d="M277.31,59.19c1.42-1.61,2.44-3.09,3.13-5.25c-1.78,0.96-5.77,2.54-8.96,3.5l-0.4-4.46
			c0.99-0.21,1.78-0.38,3.43-0.89V41.61h-3.1v-4.12h3.1v-8h3.86v8h2.41v4.12h-2.41v9.17c1.29-0.52,1.52-0.62,2.14-0.89l0.23,2.95
			c0.59-2.75,0.79-6.42,0.79-7.35V34.2h10.84c-0.1-3.47-0.1-3.88-0.1-4.7h3.92c-0.03,1.79-0.07,2.71-0.07,4.7h3.33
			c-0.76-1.24-1.42-1.99-2.67-3.33l2.74-1.85c1.48,1.27,2.93,3.4,3.07,3.6l-2.34,1.58h2.44v3.95h-6.49
			c0.07,3.74,0.23,6.25,0.59,9.34c1.22-2.88,1.78-5.46,2.21-7.59l3.49,1.24c-1.65,6.63-3.3,9.65-4.68,12.02
			c0.73,3.43,0.92,3.43,1.15,3.43c0.76,0,1.94-3.3,2.14-3.91l2.08,3.54c-0.43,1.27-1.94,5.63-4.32,5.63c-2.27,0-3.23-2.37-3.99-4.77
			c-2.41,2.58-4.42,3.78-6,4.74l-2.34-3.57c1.55-0.76,4.55-2.16,7.22-5.46c-0.89-4.57-1.22-9.92-1.32-14.63h-7.12v3.61h6.29
			c0,4.12,0,10.71-0.89,13.01c-0.53,1.37-1.12,1.92-3.03,1.92h-1.91l-0.53-3.81h1.75c0.56,0,0.73-0.24,0.82-0.51
			c0.23-0.65,0.36-1.92,0.53-6.87h-3.03v0.62c0,4.19-1.02,12.05-4.52,15.72L277.31,59.19z"/>
		<path class="st0" d="M338.87,36.98h-13.51v3.3h10.98v15.35c0,3.12-1.98,3.64-2.97,3.64h-5.01l-0.76-4.43h3.89
			c0.73,0,0.76-0.31,0.76-0.93v-9.51h-6.89v17.44h-4.15V44.39h-6.62v15.17h-4.15V40.27h10.78v-3.3h-13.35v-4.19h13.35v-3.3h4.15v3.3
			h13.51V36.98z"/>
		<path class="st0" d="M345.5,30.97h25.97v4.15c-5.08,2.95-9.79,6.52-14.27,10.33c-3.72,3.13-7.88,6.83-7.88,9.41
			c0,2.09,1.88,2.37,4.52,2.37h13.25c2.41,0,3.06-0.27,3.66-7.66l4.35,1.54c-0.13,2.78-0.82,6.52-1.71,8.07
			c-0.96,1.65-2.41,2.3-5.14,2.3h-14.5c-2.93,0-3.99-0.21-5.41-0.75c-1.88-0.72-3.69-2.92-3.69-5.46c0-3.16,1.88-5.73,4.75-8.65
			c6.1-6.25,13.12-10.61,14.37-11.4H345.5V30.97z"/>
		<path class="st0" d="M386.27,40.31c-1.75,0.96-3,1.54-4.19,2.09l-2.14-4.09c5.21-1.92,9.89-4.43,13.91-8.82h3.96
			c5.6,5.6,11.54,8,13.97,8.93l-2.14,4.19c-0.86-0.41-1.78-0.86-4.12-2.16v2.16h-7.65v3.09h12.23v3.88h-12.23v7.35h2.47
			c1.02-2.51,1.45-3.85,2.27-6.8l4.19,1.13c-0.49,1.51-1.05,3.19-2.21,5.67h6.23v3.91H380.9v-3.91h5.93
			c-0.53-1.92-1.09-3.33-2.08-5.49l4.02-1.24c1.38,2.82,2.31,6.46,2.37,6.73h2.7v-7.35h-12.26V45.7h12.26v-3.09h-7.58V40.31z
			 M402.72,38.76c-1.55-1.03-3.53-2.37-6.95-5.73c-3.03,3.16-5.57,4.91-6.86,5.73H402.72z"/>
		<path class="st0" d="M447.58,35.88h-13.41v1.68h11.4v13.46h-8.44c4.45,3.91,9.1,5.53,10.98,6.08l-2.37,4.26
			c-3.46-1.41-8.11-4.5-11.57-8.55v9.03h-4.02v-8.96c-2.18,2.88-6.2,6.21-11.67,8.65l-2.37-4.19c7.22-2.71,9.76-5.08,11.11-6.32
			h-8.37V37.56h11.3v-1.68h-13.48v-3.81h13.48v-2.58h4.02v2.58h13.41V35.88z M422.69,42.85h7.45v-2.09h-7.45V42.85z M422.69,47.86
			h7.45v-2.09h-7.45V47.86z M434.16,40.75v2.09h7.51v-2.09H434.16z M434.16,45.77v2.09h7.51v-2.09H434.16z"/>
	</g>
	<g>
		<g>
			<path class="st1" d="M166.61,165.4c2.14-1.51,4.61-3.33,6.69-6.42h-5.74v-3.16h6.69v-3.19h-6.86v-3.13h3.66
				c-0.03-0.27-0.36-3.05-0.99-4.91h-2.01v-3.12h6.2v-2.85h3.16v2.85h5.7v3.12h-1.55c-0.69,3.16-0.76,3.54-1.19,4.91h3.23v3.13h-6.2
				v3.19h5.44v3.16h-4.81c0.76,0.96,2.14,2.68,4.05,3.91l-1.65,3.09c-1.71-1.72-2.11-2.27-3.03-3.67v8.62h-3.16v-8.55
				c-2.7,3.74-4.58,5.25-5.83,6.18L166.61,165.4z M173.07,144.59c0.49,1.65,0.99,4.5,1.02,4.91h3.33c0.4-1.37,0.86-3.67,1.02-4.91
				H173.07z M198.21,141.85c-3,1.48-6.66,2.44-10.18,2.58v5.22h10.18v3.3h-3.23v17.99h-3.43v-17.99h-3.53v0.93
				c0,9.58-1.81,13.25-4.42,17.06l-3.2-2.3c2.87-3.57,4.32-7.07,4.32-14.66v-12.77c5.8,0.1,9.46-1.51,11.6-2.58L198.21,141.85z"/>
			<path class="st1" d="M215.68,155.41c-2.27,0.51-9.46,1.68-11.67,1.96l-0.53-3.16c0.3-0.03,4.68-0.48,5.47-0.58v-3.43h-3.92v-2.75
				h0.23l-2.08-2.23c0.89-0.79,3.69-3.09,4.98-6.7l3.23,0.62c-0.13,0.45-0.16,0.55-0.53,1.44h7.71v2.75h-5.01
				c0.36,0.65,0.63,1.17,0.89,1.79l-3.23,1.24c-0.2-0.82-0.66-2.23-1.05-3.02h-0.86c-0.23,0.41-1.55,2.4-3.49,4.12h10.09v2.75h-3.86
				v3.09c2.24-0.28,2.93-0.41,3.86-0.58v1.99c2.67-1.75,3-3.64,3.13-7.76h11.87v6.39c0,0.62,0.13,0.75,0.4,0.75
				c0.73,0,0.79,0,0.86-0.93c0-0.27,0.03-1.61,0.03-1.92l2.83,0.79c-0.17,3.64-0.26,4.81-2.08,4.81h-3.07
				c-1.05,0-2.04-0.65-2.04-2.33v-4.88h-5.93c-0.07,1.27-0.36,5.25-4.05,7.79h2.83v1.41h13.91v2.95h-11.24
				c1.55,1.27,3.72,3.02,11.73,5.01l-1.48,3.23c-4.75-1.37-9.23-3.5-12.92-6.9v7.72h-3.2v-7.76c-3.92,4.05-9.36,6.01-12.79,6.94
				l-1.35-3.26c4.25-0.75,8.96-2.85,11.6-4.98h-11.27v-2.95h13.81v-1.17L215.68,155.41z M223.03,143.32
				c-1.02,1.75-1.62,2.4-2.34,3.13l-2.8-2.03c2.14-1.99,3.03-3.85,3.66-5.73l3.33,0.52c-0.2,0.58-0.3,0.89-0.46,1.37h10.18v2.75
				h-6.53c0.36,0.58,0.63,1.13,0.86,1.75l-2.97,1.27c-0.26-0.69-0.92-2.27-1.29-3.02H223.03z M224.12,150.19
				c1.61,1.44,2.64,2.47,3.46,3.57l-2.14,2.09c-0.53-0.65-1.85-2.3-3.36-3.6L224.12,150.19z"/>
			<path class="st1" d="M244.82,151.25c-1.55,1.44-2.5,2.2-3.4,2.88l-2.37-3.12c4.19-2.4,8.37-7.52,9.89-12.5l3.43,0.93
				c-1.19,3.26-2.9,7.11-7.19,11.4h20.3c0,3.47-0.1,12.39-1.35,16.93c-0.86,3.09-3.1,3.19-4.55,3.19h-5.04l-0.66-3.64h5.04
				c1.88,0,2.17-1.72,2.44-3.23c0.26-1.54,0.69-4.77,0.66-9.79h-7.65c-0.86,9.27-5.44,13.66-12.26,16.65l-2.01-3.3
				c7.15-3.12,9.92-6.25,10.74-13.36h-6.03V151.25z M269.14,153.86c-2.7-1.89-8.4-7.93-10.68-14.32l3.43-1.03
				c1.71,4.29,5.24,9.61,9.66,12.36L269.14,153.86z"/>
			<path class="st1" d="M276.1,144.45h10.91v3.06H276.1V144.45z M276.92,139.37h9.03v3.09h-9.03V139.37z M276.92,149.43h9.03v3.13
				h-9.03V149.43z M276.92,154.55h9.03v3.06h-9.03V154.55z M276.92,159.8h9.03v9.78h-6.06v1.44h-2.97V159.8z M279.89,162.75v4.02
				h3.1v-4.02H279.89z M306.92,162.07c-0.72,0.72-1.09,1.06-3.59,3.09c1.55,1.41,2.93,2.09,3.96,2.64l-1.68,3.23
				c-4.22-2.4-7.88-6.01-9-10.85c-0.13,0.17-1.12,1.24-2.34,2.13v4.6c2.6-0.21,3.66-0.38,4.91-0.55v3.23
				c-2.47,0.38-7.65,0.96-10.98,1.06l-0.56-3.47c0.99,0,1.81,0,3.56-0.07v-2.82c-1.29,0.72-2.34,1.13-3.69,1.65l-1.35-2.99
				c1.15-0.34,4.28-1.17,6.86-3.3h-6v-2.58h4.68v-1.75h-3.49v-2.37h3.49v-1.51h-4.05v-2.44h4.05v-1.13h2.97v1.13h4.98v-1.13h3v1.13
				h4.28v2.44h-4.28v1.51h3.63v2.37h-3.63v1.75h4.48v2.58h-7.78c0.4,0.82,0.92,1.82,1.81,3.09c1.32-1.03,1.91-1.61,3.1-2.85
				L306.92,162.07z M287.6,145.62c1.71-0.38,3.33-0.76,6.06-2.06h-6.39v-2.88h8.17v-1.92h3.33v1.92h8.34v2.88h-6.33
				c1.52,0.86,3.59,1.58,6.33,2.16l-1.35,2.44c-1.12-0.17-4.25-0.79-6.99-2.44l1.68-2.16h-6.59l1.98,2.16
				c-2.57,1.51-6.13,2.44-6.92,2.64L287.6,145.62z M294.66,151.46v1.51h4.98v-1.51H294.66z M294.66,155.34v1.75h4.98v-1.75H294.66z"
				/>
			<path class="st1" d="M315.49,154.41c-1.09,1.54-1.65,2.16-2.27,2.85l-1.48-4.39c1.78-1.99,4.91-7.38,5.7-14.14l3.43,0.45
				c-0.1,1.3-0.36,4.15-2.01,8.55v23.17h-3.36V154.41z M333.81,145.55c-1.94-1.75-4.15-3.13-6.46-4.33l2.11-2.88
				c2.14,1.06,4.55,2.58,6.62,4.12l-2.04,3.09h8.54v3.4h-8.83v6.49h7.61v3.4h-7.61v7.62h9.59v3.33h-22.64v-3.33h9.56v-7.62h-7.65
				v-3.4h7.65v-6.49h-8.73v-3.4H333.81z"/>
			<path class="st1" d="M363.64,156.2l15.66-1.72l0.26,3.4l-15.92,1.75v6.8c0,0.65,0.46,0.65,0.69,0.65h9.06
				c0.53,0,0.92-0.21,1.05-0.89c0.13-0.58,0.23-3.43,0.23-4.6l3.59,0.93c-0.13,5.18-0.3,8.14-3.59,8.14h-11.34
				c-0.86,0-3.16,0-3.16-2.54v-8.1l-11.34,1.27l-0.23-3.43l11.57-1.27v-4.15c-1.91,0.24-4.05,0.38-5.93,0.51l-1.09-3.5
				c2.54-0.1,11.96-0.45,19.51-3.23l1.71,3.23c-3.82,1.44-6.79,1.96-10.74,2.54V156.2z M362.42,138.65h3.43v3.02h12.82v8.21h-3.43
				v-4.77h-22.21v4.77h-3.46v-8.21h12.85V138.65z"/>
			<path class="st1" d="M390.11,150.53c-1.48,0.89-2.7,1.48-4.02,2.13l-1.68-3.47c5.11-1.89,10.84-6.15,14.04-10.57h3.69
				c3.16,4.19,7.78,8.27,14.24,10.47l-1.85,3.5c-1.02-0.45-2.04-0.89-3.96-2.06v2.58h-8.54v4.63h10.42v3.09h-10.42v5.56h13.35v3.5
				h-30.26v-3.5h13.38v-5.56h-10.35v-3.09h10.35v-4.63h-8.4V150.53z M409.36,149.74c-2.77-1.85-6-4.39-9.1-8.1
				c-1.65,2.03-4.55,5.32-8.9,8.1H409.36z"/>
			<path class="st1" d="M440.04,140.78v17.44h4.35v3.71h-4.35v5.91h-3.89v-5.91h-15.23v-4.46l13.71-16.69H440.04z M436.16,144.28
				l-11.31,13.94h11.31V144.28z"/>
			<path class="st1" d="M448.94,159.32c0.79-1.2,3.49-5.12,4.75-11.09h-4.25v-3.3h4.35v-6.25h3.16v6.25h3.66v3.3h-3.66v1.2
				c1.62,3.85,3.16,5.49,4.05,6.42l-1.68,3.16c-0.49-0.69-1.55-2.27-2.37-4.29v16.17h-3.16v-15.11c-1.42,5.08-2.74,6.87-3.63,8.1
				L448.94,159.32z M458.73,166.56c5.5-3.02,7.98-6.9,8.37-7.55h-5.67v-12.39h7.42v-1.96h-8.24v-3.37h8.24v-2.61h3.1v2.61h8.5v3.37
				h-8.5v1.96h7.45v12.39h-5.44c0.49,0.79,2.83,4.46,7.02,7.24l-1.91,3.06c-2.87-2.2-4.94-4.39-7.12-8.51v10.09h-3.1v-9.65
				c-3.13,5.08-6.43,7.28-8.24,8.41L458.73,166.56z M464.5,149.33v2.27h4.35v-2.27H464.5z M464.5,154.03v2.23h4.35v-2.23H464.5z
				 M471.95,149.33v2.27h4.45v-2.27H471.95z M471.95,154.03v2.23h4.45v-2.23H471.95z"/>
		</g>
	</g>
</g>
</svg>
