<?xml version="1.0" encoding="utf-8"?>
<!-- Generator: Adobe Illustrator 23.0.3, SVG Export Plug-In . SVG Version: 6.00 Build 0)  -->
<svg version="1.1" xmlns="http://www.w3.org/2000/svg" xmlns:xlink="http://www.w3.org/1999/xlink" x="0px" y="0px"
	 viewBox="0 0 650 295" style="enable-background:new 0 0 650 295;" xml:space="preserve">
<style type="text/css">
	.st0{fill:#00AE22;}
	.st1{fill:#FFFFFF;}
</style>
<g id="レイヤー_1">
</g>
<g id="レイヤー_2">
</g>
<g id="レイヤー_3">
	<g>
		<g>
			<path class="st0" d="M141.07,92.28c0.66-0.17,2.54-0.72,4.03-2.15l-1.81-1.24h-1.37c0.38,0.94,0.42,1.04,0.47,1.26l-3.56,0.37
				c-0.14-0.52-0.33-1.06-0.61-1.63h-0.21c-0.26,0.3-0.54,0.64-1.18,1.26l2.8,0.77c-0.14,0.47-0.26,0.79-0.57,1.68h2.07v11.55
				c1.91-0.59,3.53-1.76,3.86-2h-3.3v-2.77h5.11v-0.99h3.49v0.99h5.07v2.77h-3.23c0.82,0.64,2.05,1.58,3.72,2.2l-2,3.74
				c-0.78-0.5-2.26-1.48-3.56-3.22v3.31h-3.49v-3.36c-1.23,1.31-2.24,2.1-4.31,3.29l-1.39-2.52h-2.38V93.45
				c-0.38,0.89-0.57,1.29-0.73,1.61v13.13h-3.32v-8.14c-0.26,0.35-0.49,0.59-0.99,1.11l-1.06-5c1.53-1.46,2.71-3.81,3.2-5.12
				c-0.12,0.12-0.19,0.17-0.31,0.27l-2.61-2.94c1.46-1.01,2.71-2.4,3.56-3.93l4.12,0.32c-0.12,0.3-0.21,0.47-0.38,0.82h3.75v2.35
				c0.21-0.22,1.25-1.41,2.07-3.46l3.91,0.3c-0.17,0.47-0.19,0.59-0.28,0.82h5.7v3.31h-2.78c0.17,0.32,0.33,0.69,0.45,1.04
				l-3.79,0.3c-0.21-0.62-0.54-1.19-0.61-1.34h-0.68c-0.17,0.27-0.31,0.5-0.71,1.01l1.93,0.27c-0.17,0.22-0.33,0.45-0.4,0.54h6.38
				v2.67h-0.97c-0.4,0.59-0.82,1.24-2.14,2.28c1.34,0.22,2.45,0.35,3.86,0.42l-1.27,3.19c-1.27-0.15-3.25-0.42-6.05-1.68
				c-2.66,0.99-4.67,1.46-6.05,1.73l-1.32-3.34c0.9,0,2.24,0,4.15-0.42c-0.45-0.37-0.73-0.64-1.04-0.96
				c-0.52,0.27-0.82,0.42-1.44,0.69L141.07,92.28z M146.82,93.4c0.64,0.57,1.18,0.92,1.65,1.16c0.87-0.42,1.18-0.77,1.53-1.16
				H146.82z"/>
			<path class="st0" d="M169.25,96.22h-8.25v-6.6h5.77v-0.96h-6.83v-3.39h22.38v3.39h-6.74v0.96h5.73v6.6h-8.22v1.26h9.24v3.49
				h-5.84c1.88,1.53,3.91,2.62,6.24,3.19l-2.14,3.61c-4.41-1.61-6.97-4.55-7.49-5.14v5.52h-3.84v-5.37
				c-2.99,3.04-6.08,4.45-7.4,5.05l-2.17-3.61c0.94-0.27,3.25-0.92,6.2-3.24h-5.94v-3.49h9.31V96.22z M164.75,92.28v1.29h2.03v-1.29
				H164.75z M170.22,88.65v0.96h1.91v-0.96H170.22z M170.22,92.28v1.29h1.91v-1.29H170.22z M175.59,92.28v1.29h2v-1.29H175.59z"/>
			<path class="st0" d="M189.52,99.38c0,1.51-0.12,4.75-0.8,7.69l-2.31-2c0.49-1.76,0.52-2.05,0.73-5.94L189.52,99.38z
				 M195.88,98.02l-2.1,0.74c-0.05-0.62-0.07-0.72-0.12-1.01c-0.21,0.03-0.42,0.05-0.66,0.1v10.24h-2.94v-9.82
				c-1.98,0.25-2.43,0.27-3.06,0.3l-0.28-3.59c0.17,0,1.11-0.05,1.32-0.05c0.33-0.45,0.71-0.99,0.97-1.36
				c-0.24-0.3-1.2-1.58-2.57-2.82l1.46-3.64c0.12,0.12,0.28,0.25,0.45,0.42c0.9-1.88,1.06-2.4,1.27-3.04l3.18,0.74
				c-0.85,1.98-1.96,3.88-2.36,4.53c0.19,0.2,0.4,0.47,0.57,0.67c1.3-2.1,1.6-2.75,1.96-3.46l2.95,1.29
				c-0.87,1.56-1.48,2.5-3.13,4.85l2.14-0.72c0.49,1.04,0.94,2.55,1.11,3.12v-9.25h3.98c0.09-0.27,0.21-0.57,0.47-1.71l4.12,0.22
				c-0.21,0.59-0.38,1.06-0.54,1.48h4.55v9.92h-4.62c0.31,0.89,0.52,1.41,0.99,2.25c0.94-0.94,1.46-1.78,1.7-2.15l2.8,2.33
				c-0.8,0.92-1.7,1.73-2.64,2.5c1.37,1.56,1.98,2,2.73,2.55l-1.86,3.88c-2.45-1.98-3.32-4.13-3.72-5.12v3.41
				c0,1.43-0.26,2.28-1.91,2.28h-3.37l-0.47-2.97c-0.9,1.56-1.48,2.05-2.1,2.57l-2.03-2.6c0.09-0.07,0.14-0.1,0.21-0.17l-0.59,0.15
				c0-0.87-0.05-4.01-0.28-5.69l2.24-0.4c0.12,0.96,0.31,2.55,0.38,3.98c0.68-1.01,0.99-1.88,1.18-2.45h-1.37V98.02z M191.53,94.73
				c0.24-0.02,1.41-0.1,1.53-0.1c-0.07-0.22-0.35-1.19-0.4-1.38C191.95,94.19,191.71,94.48,191.53,94.73z M200.48,97.13v-0.96h-4.26
				c0.14,0.54,0.19,0.72,0.24,0.96H200.48z M199.75,104.23c0.59,0,0.73-0.17,0.73-0.74v-5.24c-0.31,2.7-1.18,4.8-1.77,5.99H199.75z
				 M199.68,89.07v1.09h5.21v-1.09H199.68z M199.68,92.36v1.16h5.21v-1.16H199.68z"/>
			<path class="st0" d="M233.75,82.1h-7.25v26.37h-5.39V76.45h12.63V82.1z"/>
			<path class="st0" d="M245.89,105.22c2.25-2.16,3.79-5.14,4.37-6.61h-1.57V83.95h6.79c0.16-0.55,0.29-1.47,0.33-1.61h-8.55v11.16
				c0,9.45-2.12,13.25-3.33,15.44l-4.7-4.49c1.89-3.18,2.71-7.6,2.71-11.37V77.28h29.02v5.07h-9.24c-0.1,0.41-0.42,1.27-0.52,1.61
				h8.19v14.66h-1.86c1.08,2.29,2.35,4.52,4.01,6.37l-4.24,3.83c-1.83-1.95-3.72-5.48-4.63-8.29l4.15-1.92h-4.9v7.02
				c0,1.58-0.42,3.36-3.36,3.36h-4.31l-1.01-4.45c-1.47,2.5-2.45,3.53-3.2,4.31L245.89,105.22z M255.12,100.52
				c-0.36,0.96-0.72,1.85-1.4,3.12h1.96c0.59,0,0.62-0.14,0.62-0.99v-4.04h-5.58L255.12,100.52z M253.88,88.1v1.51h10.38V88.1
				H253.88z M253.88,92.89v1.54h10.38v-1.54H253.88z"/>
			<path class="st0" d="M305.87,84.84v20.68c0,3.42-3,3.46-3.85,3.46h-6.36l-0.62-4.25h-12.24v2.77h-5.03V77.55h17.27v1.61h13.12
				v5.68H305.87z M282.79,82.75v5.65h1.79v-5.65H282.79z M282.79,93.3v6.03h1.79V93.3H282.79z M288.77,82.75v5.65h1.96v-5.65H288.77
				z M288.77,93.3v6.03h1.96V93.3H288.77z M295.03,84.84v18.28h4.18c1.14,0,1.14-0.51,1.14-1.2V84.84H295.03z"/>
			<path class="st0" d="M326.91,109.05h-12.63v-5.65h7.25V77.04h5.39V109.05z"/>
			<path class="st0" d="M342.97,98.54c0.07,2.77-0.16,6.92-1.04,9.52l-2.35-1.99c0.55-1.75,0.95-3.25,1.08-7.64L342.97,98.54z
				 M350.08,98.13c0.39,1.58,0.56,3.05,0.62,3.97c0.1-1.03,0.16-4.25,0.2-5.03h-9.69V77.34h13.77v4.28h-3.46v1.44h2.91v3.32h-2.91
				v1.51h2.91v3.6h-2.91v1.61h3.46c-0.07,0.75-0.13,4.52-0.16,5.38c-0.03,0.55-0.13,2.88-0.42,5.27c1.21-2.88,1.93-7.02,1.93-10.07
				V77.34h14.33v16.61h-3.13c0.75,5.03,3.17,8.29,4.24,9.62l-3.2,5.72c-2.55-2.81-4.73-6.3-5.84-15.34h-1.53v0.65
				c0,8.97-2.12,12.7-3.33,14.69l-3.79-3.53c-0.55,2.09-1.6,3.32-4.67,3.32h-2.45l-1.08-4.35h3.1c1.37,0,1.44-0.27,1.63-1.92
				l-1.37,0.31c-0.06-1.06-0.26-3.32-0.49-4.76L350.08,98.13z M345.51,98.54c0.1,2.05,0.13,2.91,0.13,3.66
				c0,0.79-0.03,2.12-0.1,3.29l-2.12,0.24c0.26-2.26,0.39-4.14,0.39-5.51c0-0.75-0.03-1.13-0.1-1.61L345.51,98.54z M345.84,81.62
				v1.44h1.79v-1.44H345.84z M345.84,86.38v1.51h1.79v-1.51H345.84z M345.84,91.49v1.61h1.79v-1.61H345.84z M347.96,98.4
				c0.36,2.16,0.42,4.18,0.42,5.24l-1.96,0.27c0.07-0.58,0.13-1.3,0.13-2.33c0-1.47-0.13-2.29-0.23-3.01L347.96,98.4z M361.34,82.82
				v6.03h4.21v-6.03H361.34z"/>
			<path class="st0" d="M376.93,81.49c2.12-1.4,3.98-3.46,4.83-5.31l5.06,1.54c-1.8,3.66-4.8,7.23-7.77,9.59L376.93,81.49z
				 M384.96,105.7v3.32h-5.16v-11.4c-0.59,0.55-0.91,0.82-1.5,1.33l-1.34-7.19c2.35-1.61,5.29-5.31,6.53-7.6l4.01,2.64h7.64v-2.36
				h-7.21v-5.21h7.21v-2.84h5.29v2.84h7.21v5.21h-7.21v2.36h8V92h-8v2.33h6.76v5.2h-6.76v3.42c0.65,0.03,1.8,0.1,3.53,0.1
				c2.09,0,3.49-0.07,4.86-0.14l-1.08,5.41c-10.31,0.1-13.12-0.17-16.55-4.21c-1.24,2.94-2.55,4.42-3.23,5.2L384.96,105.7z
				 M393.42,93.75c-0.1,1.13-0.2,2.71-0.65,5c0.26,0.48,0.88,1.54,2.38,2.6V92h-7.93v-3.83c-0.39,0.75-0.98,1.85-2.25,3.59v12.74
				c1.21-1.37,3.13-4.08,3.62-11.2L393.42,93.75z"/>
			<path class="st0" d="M415.73,103.61c2.09,0,10.8-0.07,15.41-2.43c-0.2,0.07-0.49,0.14-0.98,0.14h-6.27l-0.85-4.62
				c-1.66,1.75-3.33,3.12-5.16,4.11l-3.43-4.52c3.72-2.02,5.91-4.14,6.85-5.44h-6.53v-5.17h4.41v-7.7h5.35v7.7h3.3v-9.11h5.32v2.16
				h10.12v5.03h-10.12v1.92h12.5v5.17h-6.1c0.82,0.92,3.56,3.77,6.69,5.62l-3.43,4.45c-1.99-1.16-5.32-4.28-7.9-7.67l3.46-2.4h-5.22
				v7.19c0,0.44,0,1.71-0.78,2.4c2.22-1.51,3.43-3.15,4.11-4.14l3.85,3.77c-2.42,3.22-7.25,8.8-22.85,9.21L415.73,103.61z
				 M425.95,93.23c-0.36,0.58-0.91,1.47-2.55,3.08h3.46c0.98,0,0.98-0.92,0.98-1.23v-4.25h-5.55L425.95,93.23z"/>
			<path class="st0" d="M472.81,78.78v16.33h3.92v5.62h-3.92v5.03h-5.84v-5.03h-14.92v-5.96l12.57-15.99H472.81z M466.97,83.61
				l-8.91,11.5h8.91V83.61z"/>
			<path class="st0" d="M487.98,91.21c-0.78,0.72-1.27,1.13-1.99,1.75l-3.52-5.27c6.36-4.21,8.23-9.07,9.01-11.4l5.35,1.06
				c-0.55,1.64-1.89,5.75-5.52,10.31h14.52c-2.71-3.56-4.44-7.53-5.45-10.14l5.35-1.3c1.73,4.07,4.31,8.59,8.98,11.81l-3.62,4.93
				c-0.69-0.51-1.21-0.92-1.79-1.47c-0.23,5.82-0.46,12.16-1.53,14.79c-0.72,1.75-1.6,2.81-4.15,2.81h-6.1l-1.08-5.68h4.83
				c0.72,0,1.27-0.38,1.47-0.79c0.26-0.55,0.78-3.63,0.98-9.52h-5.55c-0.98,8.59-5.48,12.98-12.17,16.09l-3.17-5.44
				c8.55-3.05,9.56-7.81,9.79-10.65h-4.63V91.21z"/>
		</g>
	</g>
	<path class="st0" d="M569.66,180.51H80.34c-13.05,0-23.62-10.58-23.62-23.62v-5.97c0-13.05,10.58-23.62,23.62-23.62h489.32
		c13.05,0,23.62,10.58,23.62,23.62v5.97C593.29,169.93,582.71,180.51,569.66,180.51z"/>
	<g>
		<path class="st0" d="M239.8,51.12c-1.19,2.54-1.78,3.78-3.43,6.08l-1.55-4.94c0.86-1.1,2.9-3.64,4.61-8.17h-4.09v-3.95h4.45V29.53
			h3.82v10.61h4.05v3.95h-3.89c0.56,1.17,2.44,4.29,4.45,6.35l-2.04,3.81c-1.45-2.27-1.48-2.3-2.57-4.5V61.8h-3.82V51.12z
			 M238.05,31c0.66,2.23,1.09,4.29,1.29,7.31l-3.13,0.82c-0.26-4.39-0.76-6.21-1.05-7.28L238.05,31z M248.5,31.59
			c-0.56,4.22-1.29,6.38-1.65,7.48l-2.83-0.93c0.36-1.13,0.92-2.95,1.29-7.17L248.5,31.59z M248.96,34.13h5.01
			c0.49-1.3,0.89-2.51,1.15-4.6l4.35,0.21c-0.1,0.48-0.53,2.37-1.29,4.39h7.22V61.8h-4.02v-1.89h-8.44v1.89h-3.99V34.13z
			 M252.95,38.08v6.66h8.44v-6.66H252.95z M252.95,48.55v7.35h8.44v-7.35H252.95z"/>
		<path class="st0" d="M287.72,49.71c-1.22,0.07-7.15,0.27-8.5,0.31l-0.4-3.6h2.44c0.72-1.27,0.92-1.58,1.38-2.78h-4.52v1.37
			c0,9.54-1.42,13.18-3.36,16.69l-3.59-2.99c1.85-3.23,2.8-6.35,2.8-13.73V30.52h27.22v8.17h-23.07v1.65h24.52v3.3h-5.01
			c1.52,1.72,3,3.43,4.25,5.32l-3.43,2.27c-0.46-0.76-0.49-0.82-1.35-2.13c-1.65,0.21-4.12,0.38-5.34,0.45v2.37h9.59v3.12h-9.59
			v2.68h10.88v3.37h-24.72v-3.37h9.79v-2.68h-8.37v-3.12h8.37V49.71z M297.08,33.65h-18.95v2.06h18.95V33.65z M294.61,43.64h-7.42
			c-0.26,0.45-1.32,2.4-1.58,2.78c4.32-0.03,6.36-0.03,9.23-0.27c-0.69-0.82-1.09-1.17-1.65-1.72L294.61,43.64z"/>
		<path class="st0" d="M308.65,30.69h16.51v26.75h-12.72v2.78h-3.79V30.69z M312.44,34.68v7.21h2.77v-7.21H312.44z M312.44,45.63
			v7.83h2.77v-7.83H312.44z M318.64,34.68v7.21h2.93v-7.21H318.64z M318.64,45.63v7.83h2.93v-7.83H318.64z M331.95,37.15h-6.23
			v-4.39h13.22v4.39h-2.87v21.77c0,0.79-0.23,2.88-2.8,2.88h-6.82l-0.69-4.33h5.27c0.92,0,0.92-0.62,0.92-0.96V37.15z"/>
		<path class="st0" d="M360.56,51.09h-8.01V36.98h7.09c0.2-0.72,0.4-1.75,0.49-2.37h-9.59v11.78c0,2.03-0.26,5.08-0.82,8.21
			c-0.59,3.5-1.98,5.8-2.7,7.04l-3.46-3.19c2.93-4.81,2.93-10.33,2.93-12.81V30.76h28.48v3.84h-10.42c-0.4,1.41-0.46,1.61-0.73,2.37
			h9.1v14.11h-8.17v7.9c0,2.44-1.29,2.75-2.74,2.75h-4.48l-0.96-4.05h3.23c0.59,0,0.76-0.24,0.76-0.96V51.09z M358.29,53.73
			c-0.89,1.85-2.74,4.98-5.64,7.62l-3.13-2.95c1.71-1.3,3.96-3.98,5.17-6.42L358.29,53.73z M356.48,40.38v2.16H369v-2.16H356.48z
			 M356.48,45.49v2.16H369v-2.16H356.48z M370.42,52.01c1.58,2.44,2.8,4.15,5.04,6.35l-3.26,2.85c-2.04-2.03-4.12-4.94-5.37-7.48
			L370.42,52.01z"/>
		<path class="st0" d="M381.16,30.69h16.51v26.75h-12.72v2.78h-3.79V30.69z M384.95,34.68v7.21h2.77v-7.21H384.95z M384.95,45.63
			v7.83h2.77v-7.83H384.95z M391.15,34.68v7.21h2.93v-7.21H391.15z M391.15,45.63v7.83h2.93v-7.83H391.15z M404.47,37.15h-6.23
			v-4.39h13.22v4.39h-2.87v21.77c0,0.79-0.23,2.88-2.8,2.88h-6.82l-0.69-4.33h5.27c0.92,0,0.92-0.62,0.92-0.96V37.15z"/>
	</g>
	<g>
		<path d="M238.75,206.3h1.43v17.77h3.95v1.12h-3.95v4.06c0,1.54,0.77,2.13,2.45,2.13h0.56v1.12h-8.89v-1.12h0.56
			c1.64,0,2.45-0.56,2.45-2.13v-4.06h-9.41v-1.22L238.75,206.3z M237.32,210.92l-8.08,13.16h8.08V210.92z"/>
		<path d="M258.03,208.12h-1.22c-1.5,0-2.48,0.84-2.48,2.42v18.44c0,1.47,0.87,2.41,2.48,2.41h0.94c2.13,0,4.2-0.74,5.42-1.47
			c2.31-1.4,3.32-3.08,4.06-4.3l0.91,0.46l-2.48,6.44h-17.81v-1.12h1.19c1.43,0,2.52-0.77,2.52-2.41v-18.44
			c0-1.58-0.98-2.42-2.52-2.42h-1.19v-1.15h10.18V208.12z"/>
		<path d="M272.41,206.96h10.04c8.19,0,13.26,4.2,13.26,12.6c0,5.98-3.15,12.95-12.95,12.95h-10.36v-1.12h1.19
			c1.5,0,2.52-0.8,2.52-2.41v-18.44c0-1.58-0.98-2.42-2.52-2.42h-1.19V206.96z M278.89,228.97c0,1.47,0.87,2.41,2.48,2.41h1.68
			c6.33,0,9.52-5.67,9.52-12.11c0-4.44-1.82-11.16-9.38-11.16h-1.82c-1.5,0-2.48,0.84-2.48,2.42V228.97z"/>
		<path d="M312.72,216.76l7.77,12.42c0.81,1.29,2.41,2.2,4.13,2.2h0.49v1.12h-9.9v-1.12h0.84c0.67,0,1.4-0.38,1.4-1.15
			c0-0.53-0.24-1.05-0.49-1.43l-6.19-9.9l-3.32,3.6v6.47c0,1.54,0.98,2.41,2.52,2.41h0.98v1.12h-9.73v-1.12h0.98
			c1.43,0,2.48-0.77,2.48-2.41v-18.44c0-1.58-0.98-2.42-2.48-2.42h-0.98v-1.15h9.73v1.15h-0.98c-1.5,0-2.52,0.84-2.52,2.42v10.32
			l9.55-10.43c0.35-0.38,0.45-0.84,0.45-1.12c0-1.02-1.08-1.19-1.85-1.19h-0.91v-1.15h9.87v1.15h-0.63c-3.18,0-4.69,1.5-5.6,2.52
			L312.72,216.76z"/>
		<path d="M330.04,222.95h6.05v-6.02h1.25v6.02h6.07v1.25h-6.07v6.02h-1.25v-6.02h-6.05V222.95z"/>
		<path d="M363.01,218.47l-0.73,0.29c-0.78-1.37-2.2-3.8-5.34-3.8c-2.77,0-3.35,2.18-3.35,3.23c0,2.03,1.47,2.79,4.68,3.92
			c0.83,0.29,1.64,0.64,2.4,1.03c1.91,0.98,3.21,2.13,3.21,4.53c0,3.31-2.6,5.29-5.31,5.29c-0.86,0-1.71-0.2-2.62-0.49
			c-0.69-0.24-0.86-0.24-1-0.24c-0.78,0-1.67,0.51-1.96,0.69l-1.81-4.73l0.93-0.44c0.66,1.15,1.05,1.76,1.93,2.55
			c1.03,0.91,2.6,1.81,4.41,1.81c1.64,0,3.62-1.1,3.62-3.7c0-2.25-1.44-3.04-4.56-4.12c-3.45-1.18-5.68-2.45-5.68-5.39
			c0-2.57,1.79-4.75,4.92-4.75c0.47,0,1.08,0.05,1.74,0.2c0.27,0.07,1.27,0.27,1.47,0.27c0.86,0,1.13-0.24,1.37-0.46L363.01,218.47z
			"/>
		<path d="M372.9,231.55c0.02,0.81-0.66,1.42-1.42,1.42c-0.81,0-1.42-0.64-1.42-1.42c0-0.78,0.61-1.42,1.42-1.42
			C372.24,230.13,372.9,230.77,372.9,231.55z"/>
		<path d="M386.82,215.44h-1.18c-1,0-1.74,0.54-1.74,1.69v12.91c0,1.1,0.69,1.69,1.74,1.69h1.18v0.78h-7.76v-0.78h1.15
			c1,0,1.76-0.54,1.76-1.69v-12.91c0-1.1-0.69-1.69-1.76-1.69h-1.15v-0.81h7.76V215.44z"/>
		<path d="M395.81,231.55c0.02,0.81-0.66,1.42-1.42,1.42c-0.81,0-1.42-0.64-1.42-1.42c0-0.78,0.61-1.42,1.42-1.42
			C395.14,230.13,395.81,230.77,395.81,231.55z"/>
		<path d="M416.11,219.01c-0.91-1.37-2.67-4.04-5.95-4.04c-3.92,0-5.85,3.99-5.85,8.25c0,4.75,2.3,8.62,6.42,8.62
			c3.48,0,5.19-3.18,5.83-4.43l0.66,0.39c-0.96,1.89-2.67,5.17-7.23,5.17c-5.17,0-7.69-4.19-7.69-9.01c0-5.73,3.55-9.8,7.69-9.8
			c0.61,0,1.32,0.07,2.06,0.29c0.2,0.05,1.35,0.37,1.49,0.37c0.51,0,1.18-0.29,1.64-0.59l1.74,4.41L416.11,219.01z"/>
	</g>
	<g>
		<g>
			<path d="M144.03,256.72l0.85-1.12c0.12-0.17,0.19-0.25,0.31-0.25s0.15,0.04,0.39,0.23l1.39,1.1c0.1,0.08,0.21,0.19,0.21,0.33
				c0,0.19-0.19,0.21-0.33,0.21h-6.91c0,0.68-0.02,3.67-0.02,4.27c0,0.21,0.02,4.52,0,5.12h5.5l1.04-1.12
				c0.15-0.17,0.21-0.25,0.31-0.25c0.12,0,0.19,0.06,0.39,0.23l1.37,1.1c0.1,0.08,0.21,0.19,0.21,0.31c0,0.19-0.19,0.23-0.31,0.23
				h-15.59c-0.21,0-1.49,0-2.45,0.19l-0.41-0.83c1.39,0.12,2.8,0.15,3.19,0.15h5.29c-0.02-0.19-0.02-4.58-0.02-5.06v-4.33h-4.38
				c-0.27,0-1.43,0-2.45,0.19l-0.42-0.81c1.39,0.1,2.8,0.12,3.19,0.12h4.04c-0.04-4.71-0.04-5.25-0.52-6.76l2.51,0.66
				c0.21,0.06,0.33,0.1,0.33,0.29c0,0.17-0.1,0.25-0.19,0.31c-0.08,0.08-0.48,0.39-0.6,0.48c0,1.68-0.02,3.34-0.02,5.02H144.03z"/>
			<path d="M160.39,256.85h-2.43v6.68c1.68-0.5,2.16-0.68,2.63-0.85l0.08,0.17c-0.73,0.54-1.7,1.1-2.99,1.76
				c-0.85,0.44-1.93,0.97-2.55,1.29c-0.19,0.44-0.27,0.66-0.52,0.66c-0.15,0-0.27-0.15-0.33-0.25l-1.08-1.85
				c0.71,0.04,1.06,0.08,3.4-0.56c0-0.71,0.02-3.86,0.02-4.5v-2.55h-0.42c-0.37,0-1.43,0-2.45,0.19l-0.39-0.83
				c1.22,0.1,2.47,0.14,3.26,0.14c0-1.04,0-2.07-0.02-3.11c-0.02-1.74-0.06-2.2-0.27-3.07l2.09,0.71c0.1,0.04,0.29,0.12,0.29,0.31
				c0,0.25-0.41,0.56-0.71,0.75c-0.04,1.45-0.04,2.16-0.06,4.42h0.5l0.62-0.68c0.19-0.21,0.25-0.27,0.35-0.27
				c0.12,0,0.25,0.14,0.35,0.23l0.73,0.68c0.1,0.1,0.19,0.19,0.19,0.31C160.7,256.83,160.52,256.85,160.39,256.85z M169.66,267.46
				c-0.48,0.08-4.15,0.08-4.73,0.08c-3.4,0-4-0.17-4-2.43c0-0.81,0.06-4.38,0.06-5.1c0-0.21-0.02-1.14-0.02-1.33
				c-0.83,0.37-1.29,0.6-2.01,1.1l-0.71-0.58c1.12-0.37,2.41-0.93,2.72-1.08v-3.67c0-0.97-0.04-1.43-0.23-2.41l1.93,0.66
				c0.15,0.04,0.31,0.13,0.31,0.29c0,0.19-0.17,0.33-0.66,0.68c-0.02,0.62-0.04,3.32-0.04,3.86l2.26-1.02
				c0.02-2.07,0.02-3.55-0.04-5c-0.04-0.77-0.19-1.49-0.25-1.82l1.99,0.66c0.21,0.06,0.35,0.17,0.35,0.31
				c0,0.19-0.29,0.44-0.73,0.77c-0.04,1.87-0.04,2.14-0.04,4.5l2.01-0.89l0.5-0.83c0.1-0.17,0.21-0.35,0.35-0.35
				s0.27,0.08,0.39,0.17l0.97,0.6c0.08,0.04,0.21,0.19,0.21,0.33c0,0.25-0.23,0.46-0.52,0.73c0,6.22-0.04,7.65-2.47,8.29
				c-0.19-1.04-0.95-1.55-1.24-1.74v-0.1c0.35,0.04,0.48,0.04,0.64,0.04c1.45,0,1.68-0.19,1.68-4.56c0-1.41-0.02-1.64-0.04-2.24
				l-2.47,1.12c0.02,3.05,0.04,5.04,0.06,5.6c0,0.27,0.06,1.49,0.06,1.74c0,1-0.87,1.04-1.06,1.04c-0.29,0-0.5-0.1-0.5-0.54
				c0-0.23,0.06-1.29,0.06-1.49c0.04-1.33,0.04-2.12,0.06-5.76l-2.26,1.02c-0.02,0.83,0,7.2,0.02,7.44c0.02,0.27,0.23,0.5,0.5,0.58
				s3.23,0.08,3.63,0.08c2.14,0,2.78,0,3.21-0.77c0.39-0.73,0.83-2.26,0.91-2.51h0.15c0.04,0.75,0.1,1.97,0.39,2.47
				c0.12,0.21,0.48,0.39,0.48,0.6C171.57,266.3,171.22,267.19,169.66,267.46z"/>
			<path d="M183.43,254.81c0.48-1,1.02-2.61,1.22-3.46h-5.41c-0.56,0-1.53,0.02-2.45,0.19l-0.41-0.83c1.06,0.08,2.12,0.15,3.19,0.15
				h12.36l0.91-0.89c0.17-0.17,0.33-0.31,0.39-0.31c0.1,0,0.19,0.06,0.39,0.23l1.16,0.93c0.08,0.06,0.21,0.19,0.21,0.31
				c0,0.21-0.21,0.23-0.33,0.23h-8.07c-0.58,0.95-2.14,2.84-2.68,3.46h7.55l0.58-0.6c0.21-0.21,0.27-0.27,0.39-0.27
				c0.1,0,0.27,0.12,0.37,0.21l0.95,0.81c0.12,0.1,0.17,0.21,0.17,0.27c0,0.19-0.08,0.25-0.83,0.66c0,2.34,0.02,5.31,0.04,7.65
				c0.02,0.97,0.1,2.51,0.1,3.46c0,0.89-0.75,0.97-1.04,0.97c-0.62,0-0.62-0.33-0.58-1.51h-11.8c0,0.08,0.02,0.56,0.02,0.66
				c0,0.75-0.66,0.95-1.02,0.95c-0.66,0-0.66-0.46-0.66-0.64c0-0.08,0.06-1.1,0.06-1.26c0.04-2.26,0.15-7.03,0.15-9
				c0-1.49-0.04-2.14-0.29-3.4l2.14,1.04H183.43z M179.85,255.31v10.66h2.76v-10.66H179.85z M187.17,258.46v-3.15h-3.17v3.15H187.17
				z M187.17,262.09v-3.13h-3.17v3.13H187.17z M187.17,265.97v-3.38h-3.17v3.38H187.17z M191.65,265.97v-10.66h-3.07v10.66H191.65z"
				/>
			<path d="M198.82,263.67c1.58-1.99,3.23-5.68,3.86-7.94h-0.48c-0.19,0-1.47,0-2.45,0.19l-0.39-0.83c1.18,0.1,2.38,0.15,3.46,0.15
				c0-1-0.04-2.47-0.04-3.36c-1.22,0.25-2.28,0.33-3.38,0.37v-0.17c0.42-0.14,4.52-1.51,5.6-2.32c0.27-0.21,0.35-0.35,0.44-0.5
				l1.43,1.2c0.08,0.06,0.15,0.17,0.15,0.29c0,0.21-0.21,0.21-0.39,0.21c0,0-0.25,0-0.6-0.02c-0.44,0.17-0.91,0.35-1.93,0.62
				c0,0.95,0.02,2.86,0.02,3.67h0.39l0.5-0.75c0.08-0.13,0.19-0.27,0.31-0.27s0.29,0.14,0.39,0.23l0.89,0.75
				c0.1,0.08,0.21,0.19,0.21,0.33c0,0.21-0.21,0.21-0.31,0.21h-2.38c0,0.39,0.02,1.33,0.02,1.82c2.03,0.73,2.72,1.97,2.72,2.61
				c0,0.44-0.31,0.83-0.77,0.83c-0.5,0-0.56-0.21-0.97-1.37c-0.27-0.79-0.48-1.39-0.97-1.8c0.04,3.61,0.04,4.02,0.08,5.6
				c0.04,1.41,0.08,3.05,0.08,3.79c0,0.37,0,1.2-1.04,1.2c-0.54,0-0.6-0.31-0.6-0.71c0-0.68,0.17-3.73,0.19-4.35
				c0.04-2.03,0.02-2.84,0.02-4.65c-0.91,1.97-2.22,3.73-3.92,5.06L198.82,263.67z M205.48,268.05c1.45-0.71,3.79-2.07,4.29-2.99
				l1.49,1.1c0.12,0.08,0.19,0.19,0.19,0.31c0,0.29-0.48,0.27-1,0.27c-1.33,0.68-3.75,1.35-4.94,1.43L205.48,268.05z M214.69,251.54
				l0.52-0.83c0.1-0.17,0.21-0.29,0.31-0.29c0.1,0,0.27,0.14,0.39,0.25l1.02,0.83c0.1,0.08,0.21,0.19,0.21,0.33
				c0,0.19-0.17,0.21-0.31,0.21h-4.4v1.7h1.66l0.5-0.75c0.08-0.12,0.17-0.25,0.31-0.25c0.1,0,0.25,0.12,0.37,0.23l0.85,0.72
				c0.12,0.1,0.21,0.21,0.21,0.33c0,0.19-0.19,0.21-0.31,0.21h-3.59v1.87h3.44l0.6-0.85c0.1-0.17,0.23-0.27,0.33-0.27
				c0.12,0,0.25,0.12,0.37,0.25l0.89,0.83c0.1,0.1,0.21,0.21,0.21,0.33c0,0.21-0.17,0.21-0.31,0.21h-8.63c-0.35,0-1.45,0-2.45,0.19
				l-0.41-0.83c1.06,0.08,2.14,0.15,3.19,0.15h1.35v-1.87h-0.5c-0.27,0-1.43,0-2.45,0.21l-0.39-0.83c0.62,0.04,1.53,0.12,3.34,0.12
				c0-0.81-0.02-1.31-0.02-1.7h-1.37c-0.37,0-1.45,0-2.45,0.19l-0.41-0.83c1.51,0.12,2.84,0.14,3.19,0.14h1.02
				c-0.02-0.93-0.04-1.16-0.37-2.22l2.12,0.64c0.1,0.02,0.29,0.08,0.29,0.31c0,0.27-0.48,0.5-0.58,0.54v0.73H214.69z M214.21,258.03
				l0.48-0.52c0.08-0.08,0.21-0.21,0.29-0.21c0.1,0,0.25,0.12,0.33,0.19l0.81,0.68c0.12,0.1,0.23,0.23,0.23,0.37
				c0,0.21-0.25,0.37-0.6,0.54c-0.02,0.21-0.02,0.35-0.02,0.77c0,0.71,0.17,3.79,0.17,4.42c0,0.29-0.04,0.95-0.95,0.95
				c-0.54,0-0.54-0.27-0.52-0.71h-4.94c0.04,0.48,0.06,0.95-0.93,0.95c-0.35,0-0.54-0.1-0.54-0.48c0-0.04,0.02-0.21,0.04-0.5
				c0.04-0.77,0.04-3.01,0.04-3.92c0-1.82,0-2.01-0.23-3.28l1.64,0.72H214.21z M209.48,258.53V260h4.94v-1.47H209.48z M209.48,260.5
				v1.49h4.94v-1.49H209.48z M209.48,262.49v1.53h4.94v-1.53H209.48z M212.97,265.31c1.87,0.17,4.5,1.1,4.5,2.34
				c0,0.5-0.46,0.81-0.83,0.81c-0.48,0-0.95-0.52-1.31-0.91c-0.12-0.17-1.26-1.47-2.36-2.09V265.31z"/>
			<path d="M224.87,254.79c0,0.66-0.56,1.2-1.2,1.2c-0.66,0-1.2-0.54-1.2-1.2s0.52-1.2,1.2-1.2
				C224.33,253.59,224.87,254.11,224.87,254.79z M224.87,262.96c0,0.68-0.56,1.2-1.2,1.2c-0.66,0-1.2-0.52-1.2-1.2
				c0-0.64,0.52-1.2,1.2-1.2C224.33,261.76,224.87,262.3,224.87,262.96z"/>
			<path d="M229.83,266.1h1.14c1.08,0,1.45-0.42,1.45-1.26v-11.22c0-0.64-0.6-0.75-1-0.75h-1.58v-0.64h0.37
				c1.6,0,3.13-0.73,3.38-0.87c0.15-0.08,0.21-0.12,0.29-0.12c0.19,0,0.23,0.12,0.23,0.29v13.31c0,0.89,0.44,1.26,1.45,1.26h1.14
				v0.66h-6.88V266.1z"/>
			<path d="M250.81,262.59c0,2.41-1.89,4.56-4.89,4.56c-2.36,0-4.48-1.37-4.48-3.73c0-2.24,1.78-3.3,3.69-4.42
				c-1.1-0.64-3.09-1.8-3.09-4.06c0-2.05,1.62-3.71,4.15-3.71c2.84,0,3.79,2.12,3.79,3.28c0,1.76-1.7,3.05-2.59,3.71
				C249.34,259.42,250.81,260.46,250.81,262.59z M243.18,263.36c0,1.82,1.37,3.09,2.99,3.09c1.8,0,3.15-1.6,3.15-3.13
				c0-1.97-2.05-3.13-3.57-3.98C244.82,260.04,243.18,261.31,243.18,263.36z M248.47,254.73c0-1.58-1.06-2.8-2.57-2.8
				c-1.47,0-2.45,1.12-2.45,2.47c0,1.45,1.18,2.18,3.34,3.46C247.39,257.35,248.47,256.45,248.47,254.73z"/>
			<path d="M260.6,251.23h0.85v10.53h2.34v0.66h-2.34v2.41c0,0.91,0.46,1.26,1.45,1.26h0.33v0.66h-5.27v-0.66h0.33
				c0.97,0,1.45-0.33,1.45-1.26v-2.41h-5.58v-0.73L260.6,251.23z M259.75,253.97l-4.79,7.8h4.79V253.97z"/>
			<path d="M269.79,265.95c0.02,0.68-0.56,1.2-1.2,1.2c-0.68,0-1.2-0.54-1.2-1.2s0.52-1.2,1.2-1.2
				C269.23,264.75,269.79,265.29,269.79,265.95z"/>
			<path d="M279.79,251.23h0.85v10.53h2.34v0.66h-2.34v2.41c0,0.91,0.46,1.26,1.45,1.26h0.33v0.66h-5.27v-0.66h0.33
				c0.97,0,1.45-0.33,1.45-1.26v-2.41h-5.58v-0.73L279.79,251.23z M278.94,253.97l-4.79,7.8h4.79V253.97z"/>
			<path d="M291.94,260.75c-0.44,0.27-1.08,0.54-1.8,0.54c-2.05,0-3.71-2.07-3.71-4.6c0-2.86,2.05-5.45,4.44-5.45
				c2.36,0,4.77,2.7,4.77,7.15c0,4.79-2.7,8.77-5.87,8.77c-1.39,0-2.36-0.83-2.36-1.8c0-0.75,0.58-1.08,1.06-1.08
				c0.41,0,1.1,0.27,1.14,1.43c0.02,0.46,0.06,0.75,0.62,0.75s1.12-0.27,1.51-0.73c1.85-2.03,1.95-5.1,2.03-6.95
				C293.37,259.42,292.94,260.12,291.94,260.75z M292.63,253.05c-0.35-0.56-0.89-1.12-1.68-1.12c-1.1,0-2.65,1.16-2.65,4.56
				c0,0.95,0.23,3.86,2.36,3.86c0.79,0,2.12-0.58,3.09-2.82C293.66,256.39,293.5,254.4,292.63,253.05z"/>
			<path d="M302.6,256.56v1.64c0.56-0.56,1.62-1.64,3.42-1.64c1.93,0,2.3,1.26,2.49,1.87c0.68-0.68,1.85-1.87,3.71-1.87
				c1.82,0,2.65,1.1,2.65,3.4v4.89c0,0.79,0.41,1.24,1.04,1.24h0.37v0.66h-4.33v-0.66h0.39c0.73,0,1.04-0.56,1.04-1.24v-4.77
				c0-0.58-0.08-2.63-1.8-2.63c-0.58,0-1.89,0.33-2.94,1.8c0.02,0.17,0.04,0.33,0.04,0.71v4.89c0,0.87,0.48,1.24,1.04,1.24h0.6v0.66
				h-4.77v-0.66h0.6c0.58,0,1.06-0.39,1.06-1.24v-4.77c0-0.44-0.06-2.63-1.8-2.63c-0.5,0-1.82,0.27-2.8,1.64v5.76
				c0,0.87,0.48,1.24,1.04,1.24h0.37v0.66h-4.31v-0.66h0.37c0.62,0,1.04-0.44,1.04-1.24v-6.24c0-0.64-0.37-0.97-0.85-0.97
				c-0.25,0-0.46,0.02-0.62,0.08l-0.1-0.39L302.6,256.56z M313.32,255.33c0.31-0.41,0.48-0.58,1.2-1.33
				c0.44-0.48,1.18-1.29,1.18-2.01c0-0.27-0.17-0.77-0.64-0.77c-0.37,0-0.71,0.29-0.71,0.56c0,0.08,0.19,0.46,0.19,0.54
				c0,0.25-0.23,0.54-0.58,0.54c-0.41,0-0.62-0.35-0.62-0.71c0-0.71,0.79-1.49,1.83-1.49c0.85,0,1.51,0.54,1.51,1.41
				c0,0.77-0.39,1.12-0.64,1.35c-0.23,0.23-1.51,1.27-1.72,1.56h1.29c0.54,0,0.71-0.42,0.81-0.71l0.33,0.1l-0.44,1.43h-2.99V255.33z
				"/>
			<path d="M361.4,267.67c-7.53-0.1-10.76-0.14-13.56-2.86c-1.26,1.87-2.45,2.7-4.23,3.59l-0.12-0.13c1.64-1.41,2.67-2.51,3.59-4.31
				c-1.33-1.66-1.74-3.26-1.93-4l0.21-0.17c0.66,1.89,1.76,3.07,2.09,3.4c0.64-1.49,1.16-3.4,1.16-5.64h-1.74
				c-0.41,1.16-0.52,1.47-1.2,1.47c-0.15,0-0.75-0.02-0.75-0.48c0-0.13,0.31-0.97,0.5-1.47c1.08-2.78,1.93-5.04,2.18-5.95h-0.75
				c-0.35,0-1.51,0-2.45,0.19l-0.39-0.83c1.06,0.08,2.11,0.15,3.17,0.15h0.37l0.54-0.44c0.19-0.15,0.29-0.21,0.39-0.21
				c0.08,0,0.21,0.08,0.35,0.21l0.81,0.68c0.17,0.12,0.21,0.25,0.21,0.37c0,0.25-0.42,0.44-0.95,0.66
				c-0.46,1.16-0.73,1.87-1.87,5.14h1.41l0.56-0.43c0.17-0.13,0.29-0.21,0.39-0.21c0.15,0,0.25,0.08,0.39,0.23l0.64,0.66
				c0.17,0.17,0.25,0.31,0.25,0.43c0,0.19-0.21,0.31-0.64,0.58c-0.19,1.99-0.71,3.92-1.7,5.7c1.99,1.6,4.67,2.05,7.22,2.05
				c2.47,0,5.37-0.27,7.3-0.6l0.04,0.17C361.69,266.24,361.52,267.09,361.4,267.67z M362.62,254.75h-2.86
				c0.08,2.47,0.08,2.47,0.08,2.61c0,0.42,0,1.06-1,1.06c-0.56,0-0.54-0.33-0.52-0.68h-2.55v2.16h3.11l0.62-0.79
				c0.15-0.17,0.23-0.27,0.35-0.27s0.23,0.1,0.39,0.23l0.93,0.79c0.1,0.1,0.21,0.23,0.21,0.31c0,0.19-0.15,0.23-0.31,0.23h-5.31
				l0.02,2.2h3.69l0.79-0.91c0.17-0.19,0.25-0.27,0.35-0.27c0.12,0,0.23,0.08,0.37,0.23l0.97,0.91c0.15,0.12,0.21,0.25,0.21,0.35
				c0,0.12-0.12,0.19-0.31,0.19h-6.08c0,0.25,0.04,1.47,0,1.74c-0.02,0.27-0.39,0.75-0.91,0.75c-0.66,0-0.66-0.37-0.66-0.6
				c0-0.27,0.1-1.58,0.1-1.89h-1.41c-0.15,0-1.47,0-2.43,0.19l-0.41-0.81c1.62,0.12,3.15,0.12,3.19,0.12h1.08
				c0.02-0.56,0.02-1.08,0.04-2.2h-0.62c-0.54,0-1.53,0.02-2.43,0.19l-0.42-0.81c0.62,0.04,1.78,0.13,3.48,0.13v-2.16h-0.41
				c-0.17,0-1.47,0-2.45,0.19l-0.41-0.81c1.49,0.1,3.07,0.13,3.28,0.13l0.02-2.49h-1.93c-0.54,0-1.53,0.02-2.43,0.19l-0.41-0.83
				c1.06,0.1,2.11,0.15,3.17,0.15h1.6l-0.02-2.43h-0.5c-0.35,0-1.47,0.02-2.45,0.19l-0.39-0.83c1.45,0.13,2.8,0.15,3.32,0.15
				c0-1.04-0.02-1.27-0.31-1.93l1.99,0.48c0.23,0.06,0.35,0.14,0.35,0.33c0,0.21-0.25,0.37-0.58,0.56v0.56h2.41l0.52-0.46
				c0.15-0.13,0.25-0.21,0.37-0.21s0.23,0.1,0.37,0.23l0.58,0.56c0.15,0.13,0.25,0.27,0.25,0.39c0,0.17-0.17,0.29-0.58,0.58
				c-0.04,0.39-0.04,0.42,0,1.83h0.75l0.6-0.77c0.12-0.17,0.23-0.25,0.33-0.25c0.12,0,0.25,0.08,0.39,0.21l0.89,0.77
				c0.1,0.1,0.21,0.21,0.21,0.31C362.93,254.65,362.83,254.75,362.62,254.75z M358.37,254.75h-2.57l-0.02,2.49h2.59V254.75z
				 M358.37,251.83h-2.53l-0.04,2.43h2.57V251.83z"/>
			<path d="M372.64,260.64c0,2.51,0,2.95,0.04,4.15c0.02,0.73,0.08,1.89,0.08,2.61c0,0.85-0.89,0.95-1.08,0.95
				c-0.46,0-0.56-0.27-0.56-0.58c0-0.08,0.04-0.85,0.04-1c0.08-1.56,0.08-2.12,0.12-5.43c-1.51,0.79-2.11,1.02-2.55,1.18
				c-0.02,0.37-0.06,0.73-0.39,0.73c-0.23,0-0.35-0.23-0.42-0.35l-0.97-1.87c1.29,0.06,1.64,0.04,4.35-0.79c0-1.83,0.02-3.88,0-5.45
				h-1.87c-0.62,2.51-1.51,4.02-1.85,4.58l-0.12-0.04c0.79-3.07,0.93-6.3,0.93-7.2c0-0.77-0.08-1.04-0.21-1.41l1.99,0.48
				c0.17,0.04,0.35,0.08,0.35,0.31c0,0.29-0.29,0.42-0.62,0.54c-0.1,0.97-0.21,1.6-0.35,2.24h1.72c-0.04-2.92-0.1-3.77-0.56-4.81
				l2.28,0.66c0.12,0.04,0.31,0.14,0.31,0.29c0,0.25-0.35,0.44-0.66,0.6c-0.02,0.44-0.02,2.63-0.02,3.26h0.41l0.58-0.79
				c0.1-0.13,0.21-0.27,0.31-0.27c0.12,0,0.27,0.12,0.37,0.23l0.83,0.79c0.08,0.08,0.19,0.19,0.19,0.31c0,0.19-0.19,0.23-0.31,0.23
				h-2.38c0,1.33-0.02,3.65,0,4.98c0.41-0.14,2.34-0.81,2.72-0.95l0.06,0.14C374.84,259.38,374.19,259.79,372.64,260.64z
				 M384.87,255.02c-0.17,4.33-0.33,8.27-1.64,10.97c-0.79,1.64-2.28,1.91-3.21,2.09c-0.15-0.93-0.48-1.51-1.76-2.45l0.06-0.15
				c1.37,0.39,2.16,0.44,2.51,0.44c0.5,0,0.83,0,1.41-1.47c0.73-1.91,1.31-6.45,1.16-10.04h-1.18c-0.6,4.69-2.59,10.72-8.58,12.98
				l-0.06-0.14c4.4-3.3,6.26-6.8,7.13-12.84h-1.16c-0.85,4.37-3.19,8.15-6.2,9.56l-0.06-0.12c2.55-2.55,4.19-6.06,4.75-9.44h-1.04
				c-0.66,1.49-1.58,2.94-2.8,4.13l-0.1-0.1c2.03-3.82,2.67-7.59,2.67-8.46c0-0.23-0.02-0.39-0.1-0.71l2.07,0.83
				c0.21,0.08,0.31,0.21,0.31,0.33c0,0.27-0.39,0.37-0.73,0.46c-0.54,1.66-0.89,2.51-1.1,3.03h5.97l0.5-0.52
				c0.12-0.14,0.23-0.23,0.31-0.23s0.23,0.08,0.37,0.19l0.97,0.73c0.15,0.1,0.23,0.17,0.23,0.29
				C385.58,254.69,385.1,254.92,384.87,255.02z"/>
			<path d="M397.65,254.81c0.48-1,1.02-2.61,1.22-3.46h-5.41c-0.56,0-1.53,0.02-2.45,0.19l-0.41-0.83c1.06,0.08,2.12,0.15,3.19,0.15
				h12.36l0.91-0.89c0.17-0.17,0.33-0.31,0.39-0.31c0.1,0,0.19,0.06,0.39,0.23l1.16,0.93c0.08,0.06,0.21,0.19,0.21,0.31
				c0,0.21-0.21,0.23-0.33,0.23h-8.07c-0.58,0.95-2.14,2.84-2.68,3.46h7.55l0.58-0.6c0.21-0.21,0.27-0.27,0.39-0.27
				c0.1,0,0.27,0.12,0.37,0.21l0.95,0.81c0.12,0.1,0.17,0.21,0.17,0.27c0,0.19-0.08,0.25-0.83,0.66c0,2.34,0.02,5.31,0.04,7.65
				c0.02,0.97,0.1,2.51,0.1,3.46c0,0.89-0.75,0.97-1.04,0.97c-0.62,0-0.62-0.33-0.58-1.51h-11.8c0,0.08,0.02,0.56,0.02,0.66
				c0,0.75-0.66,0.95-1.02,0.95c-0.66,0-0.66-0.46-0.66-0.64c0-0.08,0.06-1.1,0.06-1.26c0.04-2.26,0.15-7.03,0.15-9
				c0-1.49-0.04-2.14-0.29-3.4l2.14,1.04H397.65z M394.06,255.31v10.66h2.76v-10.66H394.06z M401.38,258.46v-3.15h-3.17v3.15H401.38
				z M401.38,262.09v-3.13h-3.17v3.13H401.38z M401.38,265.97v-3.38h-3.17v3.38H401.38z M405.86,265.97v-10.66h-3.07v10.66H405.86z"
				/>
			<path d="M413.04,263.67c1.58-1.99,3.23-5.68,3.86-7.94h-0.48c-0.19,0-1.47,0-2.45,0.19l-0.39-0.83c1.18,0.1,2.38,0.15,3.46,0.15
				c0-1-0.04-2.47-0.04-3.36c-1.22,0.25-2.28,0.33-3.38,0.37v-0.17c0.42-0.14,4.52-1.51,5.6-2.32c0.27-0.21,0.35-0.35,0.44-0.5
				l1.43,1.2c0.08,0.06,0.15,0.17,0.15,0.29c0,0.21-0.21,0.21-0.39,0.21c0,0-0.25,0-0.6-0.02c-0.44,0.17-0.91,0.35-1.93,0.62
				c0,0.95,0.02,2.86,0.02,3.67h0.39l0.5-0.75c0.08-0.13,0.19-0.27,0.31-0.27s0.29,0.14,0.39,0.23l0.89,0.75
				c0.1,0.08,0.21,0.19,0.21,0.33c0,0.21-0.21,0.21-0.31,0.21h-2.38c0,0.39,0.02,1.33,0.02,1.82c2.03,0.73,2.72,1.97,2.72,2.61
				c0,0.44-0.31,0.83-0.77,0.83c-0.5,0-0.56-0.21-0.97-1.37c-0.27-0.79-0.48-1.39-0.97-1.8c0.04,3.61,0.04,4.02,0.08,5.6
				c0.04,1.41,0.08,3.05,0.08,3.79c0,0.37,0,1.2-1.04,1.2c-0.54,0-0.6-0.31-0.6-0.71c0-0.68,0.17-3.73,0.19-4.35
				c0.04-2.03,0.02-2.84,0.02-4.65c-0.91,1.97-2.22,3.73-3.92,5.06L413.04,263.67z M419.69,268.05c1.45-0.71,3.79-2.07,4.29-2.99
				l1.49,1.1c0.12,0.08,0.19,0.19,0.19,0.31c0,0.29-0.48,0.27-1,0.27c-1.33,0.68-3.75,1.35-4.94,1.43L419.69,268.05z M428.9,251.54
				l0.52-0.83c0.1-0.17,0.21-0.29,0.31-0.29c0.1,0,0.27,0.14,0.39,0.25l1.02,0.83c0.1,0.08,0.21,0.19,0.21,0.33
				c0,0.19-0.17,0.21-0.31,0.21h-4.4v1.7h1.66l0.5-0.75c0.08-0.12,0.17-0.25,0.31-0.25c0.1,0,0.25,0.12,0.37,0.23l0.85,0.72
				c0.12,0.1,0.21,0.21,0.21,0.33c0,0.19-0.19,0.21-0.31,0.21h-3.59v1.87h3.44l0.6-0.85c0.1-0.17,0.23-0.27,0.33-0.27
				c0.12,0,0.25,0.12,0.37,0.25l0.89,0.83c0.1,0.1,0.21,0.21,0.21,0.33c0,0.21-0.17,0.21-0.31,0.21h-8.63c-0.35,0-1.45,0-2.45,0.19
				l-0.41-0.83c1.06,0.08,2.14,0.15,3.19,0.15h1.35v-1.87h-0.5c-0.27,0-1.43,0-2.45,0.21l-0.39-0.83c0.62,0.04,1.53,0.12,3.34,0.12
				c0-0.81-0.02-1.31-0.02-1.7h-1.37c-0.37,0-1.45,0-2.45,0.19l-0.41-0.83c1.51,0.12,2.84,0.14,3.19,0.14h1.02
				c-0.02-0.93-0.04-1.16-0.37-2.22l2.12,0.64c0.1,0.02,0.29,0.08,0.29,0.31c0,0.27-0.48,0.5-0.58,0.54v0.73H428.9z M428.43,258.03
				l0.48-0.52c0.08-0.08,0.21-0.21,0.29-0.21c0.1,0,0.25,0.12,0.33,0.19l0.81,0.68c0.12,0.1,0.23,0.23,0.23,0.37
				c0,0.21-0.25,0.37-0.6,0.54c-0.02,0.21-0.02,0.35-0.02,0.77c0,0.71,0.17,3.79,0.17,4.42c0,0.29-0.04,0.95-0.95,0.95
				c-0.54,0-0.54-0.27-0.52-0.71h-4.94c0.04,0.48,0.06,0.95-0.93,0.95c-0.35,0-0.54-0.1-0.54-0.48c0-0.04,0.02-0.21,0.04-0.5
				c0.04-0.77,0.04-3.01,0.04-3.92c0-1.82,0-2.01-0.23-3.28l1.64,0.72H428.43z M423.7,258.53V260h4.94v-1.47H423.7z M423.7,260.5
				v1.49h4.94v-1.49H423.7z M423.7,262.49v1.53h4.94v-1.53H423.7z M427.18,265.31c1.87,0.17,4.5,1.1,4.5,2.34
				c0,0.5-0.46,0.81-0.83,0.81c-0.48,0-0.95-0.52-1.31-0.91c-0.12-0.17-1.26-1.47-2.36-2.09V265.31z"/>
			<path d="M439.09,254.79c0,0.66-0.56,1.2-1.2,1.2c-0.66,0-1.2-0.54-1.2-1.2s0.52-1.2,1.2-1.2
				C438.55,253.59,439.09,254.11,439.09,254.79z M439.09,262.96c0,0.68-0.56,1.2-1.2,1.2c-0.66,0-1.2-0.52-1.2-1.2
				c0-0.64,0.52-1.2,1.2-1.2C438.55,261.76,439.09,262.3,439.09,262.96z"/>
			<path d="M448.4,260.75c-0.44,0.27-1.08,0.54-1.8,0.54c-2.05,0-3.71-2.07-3.71-4.6c0-2.86,2.05-5.45,4.44-5.45
				c2.36,0,4.77,2.7,4.77,7.15c0,4.79-2.7,8.77-5.87,8.77c-1.39,0-2.36-0.83-2.36-1.8c0-0.75,0.58-1.08,1.06-1.08
				c0.41,0,1.1,0.27,1.14,1.43c0.02,0.46,0.06,0.75,0.62,0.75s1.12-0.27,1.51-0.73c1.85-2.03,1.95-5.1,2.03-6.95
				C449.83,259.42,449.39,260.12,448.4,260.75z M449.08,253.05c-0.35-0.56-0.89-1.12-1.68-1.12c-1.1,0-2.65,1.16-2.65,4.56
				c0,0.95,0.23,3.86,2.36,3.86c0.79,0,2.12-0.58,3.09-2.82C450.12,256.39,449.95,254.4,449.08,253.05z"/>
			<path d="M461.26,260.75c-0.44,0.27-1.08,0.54-1.8,0.54c-2.05,0-3.71-2.07-3.71-4.6c0-2.86,2.05-5.45,4.44-5.45
				c2.36,0,4.77,2.7,4.77,7.15c0,4.79-2.7,8.77-5.87,8.77c-1.39,0-2.36-0.83-2.36-1.8c0-0.75,0.58-1.08,1.06-1.08
				c0.41,0,1.1,0.27,1.14,1.43c0.02,0.46,0.06,0.75,0.62,0.75s1.12-0.27,1.51-0.73c1.85-2.03,1.95-5.1,2.03-6.95
				C462.69,259.42,462.25,260.12,461.26,260.75z M461.94,253.05c-0.35-0.56-0.89-1.12-1.68-1.12c-1.1,0-2.65,1.16-2.65,4.56
				c0,0.95,0.23,3.86,2.36,3.86c0.79,0,2.12-0.58,3.09-2.82C462.98,256.39,462.81,254.4,461.94,253.05z"/>
			<path d="M471.15,265.95c0.02,0.68-0.56,1.2-1.2,1.2c-0.68,0-1.2-0.54-1.2-1.2s0.52-1.2,1.2-1.2
				C470.59,264.75,471.15,265.29,471.15,265.95z"/>
			<path d="M478.62,257.66c0.44-0.27,1.08-0.54,1.8-0.54c2.05,0,3.71,2.07,3.71,4.58c0,2.88-2.05,5.45-4.44,5.45
				c-2.36,0-4.77-2.68-4.77-7.15c0-4.79,2.7-8.77,5.87-8.77c1.39,0,2.36,0.83,2.36,1.82c0,0.75-0.58,1.08-1.06,1.08
				c-0.41,0-1.1-0.27-1.14-1.45c-0.02-0.46-0.06-0.75-0.62-0.75c-0.56,0-1.12,0.31-1.51,0.75c-1.85,2.03-1.95,5.08-2.03,6.95
				C477.19,258.98,477.62,258.26,478.62,257.66z M477.93,265.33c0.35,0.56,0.89,1.12,1.68,1.12c1.1,0,2.65-1.14,2.65-4.56
				c0-0.93-0.23-3.84-2.36-3.84c-0.79,0-2.12,0.58-3.09,2.82C476.9,262.01,477.06,264,477.93,265.33z"/>
			<path d="M495.46,259.71c0.95,0.81,1.41,1.85,1.41,3.07c0,2.55-2.09,4.38-4.83,4.38c-2.24,0-4.13-1.27-4.13-2.92
				c0-0.91,0.6-1.33,1.18-1.33c0.71,0,1.02,0.6,1.02,1.04c0,0.31-0.06,0.5-0.12,0.66c-0.04,0.12-0.06,0.27-0.06,0.48
				c0,0.79,0.89,1.37,1.87,1.37c1.6,0,3.21-1.58,3.21-3.67c0-2.14-1.58-3.79-3.23-3.79c-0.12,0-0.71,0.08-0.83,0.08
				c-0.31,0-0.46-0.19-0.46-0.44c0-0.27,0.21-0.48,0.48-0.48c0.12,0,0.75,0.13,0.89,0.13c1.74,0,2.84-1.56,2.84-3.24
				c0-1.62-0.97-3.11-2.61-3.11c-1.1,0-1.68,0.79-1.68,1.39c0,0.1,0.04,0.21,0.06,0.31c0.04,0.15,0.06,0.35,0.06,0.5
				c0,0.64-0.48,1.14-1.06,1.14c-0.68,0-1.04-0.6-1.04-1.14c0-1.14,1.33-2.9,3.98-2.9c2.55,0,4.15,1.66,4.15,3.48
				c0,0.73-0.27,1.43-0.77,2.12c-0.85,1.12-1.78,1.47-2.63,1.76C494.11,258.88,494.73,259.09,495.46,259.71z"/>
			<path d="M503.96,256.56v1.64c0.56-0.56,1.62-1.64,3.42-1.64c1.93,0,2.3,1.26,2.49,1.87c0.68-0.68,1.85-1.87,3.71-1.87
				c1.82,0,2.65,1.1,2.65,3.4v4.89c0,0.79,0.41,1.24,1.04,1.24h0.37v0.66h-4.33v-0.66h0.39c0.73,0,1.04-0.56,1.04-1.24v-4.77
				c0-0.58-0.08-2.63-1.8-2.63c-0.58,0-1.89,0.33-2.94,1.8c0.02,0.17,0.04,0.33,0.04,0.71v4.89c0,0.87,0.48,1.24,1.04,1.24h0.6v0.66
				h-4.77v-0.66h0.6c0.58,0,1.06-0.39,1.06-1.24v-4.77c0-0.44-0.06-2.63-1.8-2.63c-0.5,0-1.82,0.27-2.8,1.64v5.76
				c0,0.87,0.48,1.24,1.04,1.24h0.37v0.66h-4.31v-0.66h0.37c0.62,0,1.04-0.44,1.04-1.24v-6.24c0-0.64-0.37-0.97-0.85-0.97
				c-0.25,0-0.46,0.02-0.62,0.08l-0.1-0.39L503.96,256.56z M514.68,255.33c0.31-0.41,0.48-0.58,1.2-1.33
				c0.44-0.48,1.18-1.29,1.18-2.01c0-0.27-0.17-0.77-0.64-0.77c-0.37,0-0.71,0.29-0.71,0.56c0,0.08,0.19,0.46,0.19,0.54
				c0,0.25-0.23,0.54-0.58,0.54c-0.41,0-0.62-0.35-0.62-0.71c0-0.71,0.79-1.49,1.83-1.49c0.85,0,1.51,0.54,1.51,1.41
				c0,0.77-0.39,1.12-0.64,1.35c-0.23,0.23-1.51,1.27-1.72,1.56h1.29c0.54,0,0.71-0.42,0.81-0.71l0.33,0.1l-0.44,1.43h-2.99V255.33z
				"/>
		</g>
	</g>
	<g>
		<g>
			<path class="st1" d="M110.54,165.4c2.14-1.51,4.61-3.33,6.69-6.42h-5.73v-3.16h6.69v-3.19h-6.86v-3.13h3.66
				c-0.03-0.27-0.36-3.05-0.99-4.91h-2.01v-3.12h6.2v-2.85h3.16v2.85h5.7v3.12h-1.55c-0.69,3.16-0.76,3.54-1.19,4.91h3.23v3.13h-6.2
				v3.19h5.44v3.16h-4.81c0.76,0.96,2.14,2.68,4.05,3.91l-1.65,3.09c-1.71-1.72-2.11-2.27-3.03-3.67v8.62h-3.16v-8.55
				c-2.7,3.74-4.58,5.25-5.83,6.18L110.54,165.4z M117,144.59c0.49,1.65,0.99,4.5,1.02,4.91h3.33c0.4-1.37,0.86-3.67,1.02-4.91H117z
				 M142.15,141.85c-3,1.48-6.66,2.44-10.18,2.58v5.22h10.18v3.3h-3.23v17.99h-3.43v-17.99h-3.53v0.93c0,9.58-1.81,13.25-4.42,17.06
				l-3.2-2.3c2.87-3.57,4.32-7.07,4.32-14.66v-12.77c5.8,0.1,9.46-1.51,11.6-2.58L142.15,141.85z"/>
			<path class="st1" d="M159.62,155.41c-2.27,0.51-9.46,1.68-11.67,1.96l-0.53-3.16c0.3-0.03,4.68-0.48,5.47-0.58v-3.43h-3.92v-2.75
				h0.23l-2.08-2.23c0.89-0.79,3.69-3.09,4.98-6.7l3.23,0.62c-0.13,0.45-0.16,0.55-0.53,1.44h7.71v2.75h-5.01
				c0.36,0.65,0.63,1.17,0.89,1.79l-3.23,1.24c-0.2-0.82-0.66-2.23-1.05-3.02h-0.86c-0.23,0.41-1.55,2.4-3.49,4.12h10.09v2.75h-3.86
				v3.09c2.24-0.28,2.93-0.41,3.86-0.58v1.99c2.67-1.75,3-3.64,3.13-7.76h11.87v6.39c0,0.62,0.13,0.75,0.4,0.75
				c0.73,0,0.79,0,0.86-0.93c0-0.27,0.03-1.61,0.03-1.92l2.83,0.79c-0.17,3.64-0.26,4.81-2.08,4.81h-3.07
				c-1.05,0-2.04-0.65-2.04-2.33v-4.88h-5.93c-0.07,1.27-0.36,5.25-4.05,7.79h2.83v1.41h13.91v2.95H167.3
				c1.55,1.27,3.72,3.02,11.73,5.01l-1.48,3.23c-4.75-1.37-9.23-3.5-12.92-6.9v7.72h-3.2v-7.76c-3.92,4.05-9.36,6.01-12.79,6.94
				l-1.35-3.26c4.25-0.75,8.96-2.85,11.6-4.98h-11.27v-2.95h13.81v-1.17L159.62,155.41z M166.97,143.32
				c-1.02,1.75-1.62,2.4-2.34,3.13l-2.8-2.03c2.14-1.99,3.03-3.85,3.66-5.73l3.33,0.52c-0.2,0.58-0.3,0.89-0.46,1.37h10.18v2.75
				h-6.53c0.36,0.58,0.63,1.13,0.86,1.75l-2.97,1.27c-0.26-0.69-0.92-2.27-1.29-3.02H166.97z M168.06,150.19
				c1.61,1.44,2.64,2.47,3.46,3.57l-2.14,2.09c-0.53-0.65-1.85-2.3-3.36-3.6L168.06,150.19z"/>
			<path class="st1" d="M188.76,151.25c-1.55,1.44-2.5,2.2-3.4,2.88l-2.37-3.12c4.19-2.4,8.37-7.52,9.89-12.5l3.43,0.93
				c-1.19,3.26-2.9,7.11-7.19,11.4h20.3c0,3.47-0.1,12.39-1.35,16.93c-0.86,3.09-3.1,3.19-4.55,3.19h-5.04l-0.66-3.64h5.04
				c1.88,0,2.17-1.72,2.44-3.23c0.26-1.54,0.69-4.77,0.66-9.79h-7.65c-0.86,9.27-5.44,13.66-12.26,16.65l-2.01-3.3
				c7.15-3.12,9.92-6.25,10.74-13.36h-6.03V151.25z M213.08,153.86c-2.7-1.89-8.4-7.93-10.68-14.32l3.43-1.03
				c1.71,4.29,5.24,9.61,9.66,12.36L213.08,153.86z"/>
			<path class="st1" d="M220.04,144.45h10.91v3.06h-10.91V144.45z M220.86,139.37h9.03v3.09h-9.03V139.37z M220.86,149.43h9.03v3.13
				h-9.03V149.43z M220.86,154.55h9.03v3.06h-9.03V154.55z M220.86,159.8h9.03v9.78h-6.06v1.44h-2.97V159.8z M223.83,162.75v4.02
				h3.1v-4.02H223.83z M250.85,162.07c-0.72,0.72-1.09,1.06-3.59,3.09c1.55,1.41,2.93,2.09,3.96,2.64l-1.68,3.23
				c-4.22-2.4-7.88-6.01-9-10.85c-0.13,0.17-1.12,1.24-2.34,2.13v4.6c2.6-0.21,3.66-0.38,4.91-0.55v3.23
				c-2.47,0.38-7.65,0.96-10.98,1.06l-0.56-3.47c0.99,0,1.81,0,3.56-0.07v-2.82c-1.29,0.72-2.34,1.13-3.69,1.65l-1.35-2.99
				c1.15-0.34,4.28-1.17,6.86-3.3h-6v-2.58h4.68v-1.75h-3.49v-2.37h3.49v-1.51h-4.05v-2.44h4.05v-1.13h2.97v1.13h4.98v-1.13h3v1.13
				h4.28v2.44h-4.28v1.51h3.63v2.37h-3.63v1.75h4.48v2.58h-7.78c0.4,0.82,0.92,1.82,1.81,3.09c1.32-1.03,1.91-1.61,3.1-2.85
				L250.85,162.07z M231.54,145.62c1.71-0.38,3.33-0.76,6.06-2.06h-6.39v-2.88h8.17v-1.92h3.33v1.92h8.34v2.88h-6.33
				c1.52,0.86,3.59,1.58,6.33,2.16l-1.35,2.44c-1.12-0.17-4.25-0.79-6.99-2.44l1.68-2.16h-6.59l1.98,2.16
				c-2.57,1.51-6.13,2.44-6.92,2.64L231.54,145.62z M238.59,151.46v1.51h4.98v-1.51H238.59z M238.59,155.34v1.75h4.98v-1.75H238.59z
				"/>
			<path class="st1" d="M259.42,154.41c-1.09,1.54-1.65,2.16-2.27,2.85l-1.48-4.39c1.78-1.99,4.91-7.38,5.7-14.14l3.43,0.45
				c-0.1,1.3-0.36,4.15-2.01,8.55v23.17h-3.36V154.41z M277.75,145.55c-1.94-1.75-4.15-3.13-6.46-4.33l2.11-2.88
				c2.14,1.06,4.55,2.58,6.63,4.12l-2.04,3.09h8.54v3.4h-8.83v6.49h7.61v3.4h-7.61v7.62h9.59v3.33h-22.64v-3.33h9.56v-7.62h-7.65
				v-3.4h7.65v-6.49h-8.73v-3.4H277.75z"/>
			<path class="st1" d="M307.58,156.2l15.66-1.72l0.26,3.4l-15.92,1.75v6.8c0,0.65,0.46,0.65,0.69,0.65h9.06
				c0.53,0,0.92-0.21,1.05-0.89c0.13-0.58,0.23-3.43,0.23-4.6l3.59,0.93c-0.13,5.18-0.3,8.14-3.59,8.14h-11.34
				c-0.86,0-3.16,0-3.16-2.54v-8.1l-11.34,1.27l-0.23-3.43l11.57-1.27v-4.15c-1.91,0.24-4.05,0.38-5.93,0.51l-1.09-3.5
				c2.54-0.1,11.96-0.45,19.51-3.23l1.71,3.23c-3.82,1.44-6.79,1.96-10.74,2.54V156.2z M306.36,138.65h3.43v3.02h12.82v8.21h-3.43
				v-4.77h-22.21v4.77h-3.46v-8.21h12.85V138.65z"/>
			<path class="st1" d="M334.05,150.53c-1.48,0.89-2.7,1.48-4.02,2.13l-1.68-3.47c5.11-1.89,10.84-6.15,14.04-10.57h3.69
				c3.16,4.19,7.78,8.27,14.24,10.47l-1.85,3.5c-1.02-0.45-2.04-0.89-3.96-2.06v2.58h-8.54v4.63h10.42v3.09h-10.42v5.56h13.35v3.5
				h-30.26v-3.5h13.38v-5.56H332.1v-3.09h10.35v-4.63h-8.4V150.53z M353.29,149.74c-2.77-1.85-6-4.39-9.1-8.1
				c-1.65,2.03-4.55,5.32-8.9,8.1H353.29z"/>
			<path class="st1" d="M383.98,140.78v17.44h4.35v3.71h-4.35v5.91h-3.89v-5.91h-15.23v-4.46l13.71-16.69H383.98z M380.09,144.28
				l-11.3,13.94h11.3V144.28z"/>
			<path class="st1" d="M392.88,159.32c0.79-1.2,3.49-5.12,4.75-11.09h-4.25v-3.3h4.35v-6.25h3.16v6.25h3.66v3.3h-3.66v1.2
				c1.62,3.85,3.16,5.49,4.05,6.42l-1.68,3.16c-0.49-0.69-1.55-2.27-2.37-4.29v16.17h-3.16v-15.11c-1.42,5.08-2.74,6.87-3.63,8.1
				L392.88,159.32z M402.67,166.56c5.5-3.02,7.98-6.9,8.37-7.55h-5.67v-12.39h7.42v-1.96h-8.24v-3.37h8.24v-2.61h3.1v2.61h8.5v3.37
				h-8.5v1.96h7.45v12.39h-5.44c0.49,0.79,2.83,4.46,7.02,7.24l-1.91,3.06c-2.87-2.2-4.94-4.39-7.12-8.51v10.09h-3.1v-9.65
				c-3.13,5.08-6.43,7.28-8.24,8.41L402.67,166.56z M408.44,149.33v2.27h4.35v-2.27H408.44z M408.44,154.03v2.23h4.35v-2.23H408.44z
				 M415.89,149.33v2.27h4.45v-2.27H415.89z M415.89,154.03v2.23h4.45v-2.23H415.89z"/>
			<path class="st1" d="M452.77,158.19c-2.27,0.38-4.09,0.89-4.09,5.18v0.75h17.3v3.71h-21.23v-2.99c0-4.26,0.33-9.27,6.66-10.23
				l6.46-1c2.9-0.45,4.32-1.27,4.32-4.63c0-3.33-1.52-4.77-6.39-4.77c-5.5,0-6.69,1.34-6.72,5.63h-3.89
				c0.07-5.84,1.68-9.34,10.38-9.34c4.98,0,10.51,0.65,10.51,8.48c0,3.6-1.09,5.32-2.87,6.52c-1.05,0.69-2.34,1.34-4.19,1.65
				L452.77,158.19z"/>
			<path class="st1" d="M479.3,161.79c-0.33,0.62-0.66,1.17-1.29,2.13l-3.43-1.37c0.76-1.17,1.71-2.64,3.76-7.24h-6v-3.26h30.92
				v3.26h-21.13c-0.26,0.69-1.09,2.71-1.35,3.26h19.48c-0.2,2.64-0.66,7.96-1.71,9.99c-0.73,1.37-1.91,2.37-3.82,2.37h-5.8
				l-0.76-3.6h5.93c1.19,0,2.08-0.62,2.44-5.53H479.3z M500.5,139.79v9.79h-25.18v-9.79H500.5z M478.61,142.91v3.57h18.59v-3.57
				H478.61z"/>
			<path class="st1" d="M507.65,159.32c0.79-1.2,3.49-5.12,4.75-11.09h-4.25v-3.3h4.35v-6.25h3.16v6.25h3.66v3.3h-3.66v1.2
				c1.62,3.85,3.16,5.49,4.05,6.42l-1.68,3.16c-0.49-0.69-1.55-2.27-2.37-4.29v16.17h-3.16v-15.11c-1.42,5.08-2.74,6.87-3.63,8.1
				L507.65,159.32z M517.44,166.56c5.5-3.02,7.98-6.9,8.37-7.55h-5.67v-12.39h7.42v-1.96h-8.24v-3.37h8.24v-2.61h3.1v2.61h8.5v3.37
				h-8.5v1.96h7.45v12.39h-5.44c0.49,0.79,2.83,4.46,7.02,7.24l-1.91,3.06c-2.87-2.2-4.94-4.39-7.12-8.51v10.09h-3.1v-9.65
				c-3.13,5.08-6.43,7.28-8.24,8.41L517.44,166.56z M523.21,149.33v2.27h4.35v-2.27H523.21z M523.21,154.03v2.23h4.35v-2.23H523.21z
				 M530.65,149.33v2.27h4.45v-2.27H530.65z M530.65,154.03v2.23h4.45v-2.23H530.65z"/>
		</g>
	</g>
</g>
</svg>
