<svg xmlns="http://www.w3.org/2000/svg" viewBox="0 0 230.15 45.63"><defs><style>.cls-1{fill:#00a5cd;}.cls-2{fill:#532600;}.cls-3{fill:#210000;}</style></defs><title>anestone2019_LP</title><g id="レイアウト"><path class="cls-1" d="M28.86,31.18a13.6,13.6,0,0,1-4,9.82A13.15,13.15,0,0,1,15,45.15,13.11,13.11,0,0,1,5.28,41a13.64,13.64,0,0,1-4-9.84,13.77,13.77,0,0,1,4-9.93A13.08,13.08,0,0,1,15,17.13a13.18,13.18,0,0,1,9.8,4.14A13.7,13.7,0,0,1,28.86,31.18Zm-6.82,0a7,7,0,0,0-2-5A6.67,6.67,0,0,0,15,24a6.61,6.61,0,0,0-4.95,2.1,7,7,0,0,0-2,5.06,6.93,6.93,0,0,0,2,5,6.61,6.61,0,0,0,5,2.08,6.71,6.71,0,0,0,5-2.08A6.88,6.88,0,0,0,22,31.18Z"/><path class="cls-2" d="M51.66,26.28a9.68,9.68,0,0,1-2.47,6.92,8.87,8.87,0,0,1-6.8,2.63H40.67V29.56A6.08,6.08,0,0,0,43.75,29a3,3,0,0,0,1.13-2.73,3,3,0,0,0-.74-2.06,2.62,2.62,0,0,0-2.06-.82,2.38,2.38,0,0,0-1.86.76,2.93,2.93,0,0,0-.68,2V44.72h-6.7V27.18c0-3.19.86-5.67,2.59-7.42a9.41,9.41,0,0,1,7-2.63A9,9,0,0,1,49,19.7,8.68,8.68,0,0,1,51.66,26.28Z"/><path class="cls-2" d="M70.8,44.72H66.94a11.38,11.38,0,0,1-8.87-3.92,13.93,13.93,0,0,1-3.48-9.6,14.06,14.06,0,0,1,3.48-9.69,11.38,11.38,0,0,1,8.87-3.92H70.8v6.28q-4.64,0-6.18.76c-1,.5-2,1.71-2.86,3.6h9v5.89h-9q1.32,2.88,2.86,3.6t6.18.73Z"/><path class="cls-2" d="M97.15,41.22a3.87,3.87,0,0,1-1.09,2.84,3.43,3.43,0,0,1-2.5,1.09,3.66,3.66,0,0,1-2.38-.82,11.5,11.5,0,0,1-2.45-3.42l-6.28-12-.08,15.86h-6.7V20.87a3.53,3.53,0,0,1,1.13-2.69,4,4,0,0,1,2.85-1.05A4.88,4.88,0,0,1,84.28,20l6,11.93.08-14.35h6.78Z"/><path class="cls-2" d="M131.05,44.72h-6.78V33.61h-5.34V44.72h-6.7V17.59h6.7V27.1h5.34V17.59h6.78Z"/><path class="cls-1" d="M163.21,31.18a13.61,13.61,0,0,1-4,9.82,13.6,13.6,0,0,1-19.54,0,13.61,13.61,0,0,1-4-9.84,13.74,13.74,0,0,1,4-9.93,13.64,13.64,0,0,1,19.56,0A13.71,13.71,0,0,1,163.21,31.18Zm-6.82,0a7,7,0,0,0-2-5,6.88,6.88,0,0,0-9.92,0,7,7,0,0,0-2,5.06,6.92,6.92,0,0,0,2,5,7,7,0,0,0,9.94,0A6.85,6.85,0,0,0,156.39,31.18Z"/><path class="cls-2" d="M187,34.91a10.39,10.39,0,0,1-2.63,7.46,10.84,10.84,0,0,1-14.5,0,10.44,10.44,0,0,1-2.63-7.46V17.59h6.71V35.45a3.34,3.34,0,0,0,.76,2.35,3.78,3.78,0,0,0,4.75,0,3.34,3.34,0,0,0,.76-2.35V17.59H187Z"/><path class="cls-2" d="M208,36.61A8.27,8.27,0,0,1,206.43,42q-2.27,2.77-8.07,2.77h-7.21V38.45h7c1.69,0,2.53-.5,2.53-1.49,0-.72-.83-1.67-2.49-2.84a42.23,42.23,0,0,1-4.68-3.55,7.39,7.39,0,0,1-2.53-5.3,7.16,7.16,0,0,1,2.49-6,8.87,8.87,0,0,1,5.69-1.72h7.06v6.28h-6.82a2.18,2.18,0,0,0-1.13.25.93.93,0,0,0-.43.88q0,.86,2.61,2.61a39.85,39.85,0,0,1,4.87,3.62A7.51,7.51,0,0,1,208,36.61Z"/><path class="cls-2" d="M227.48,44.72h-3.86a11.36,11.36,0,0,1-8.87-3.92,13.94,13.94,0,0,1-3.49-9.6,14.06,14.06,0,0,1,3.49-9.69,11.36,11.36,0,0,1,8.87-3.92h3.86v6.28c-3.1,0-5.15.25-6.18.76s-2,1.71-2.87,3.6h9v5.89h-9c.89,1.92,1.84,3.12,2.87,3.6s3.08.73,6.18.73Z"/><path class="cls-3" d="M13.78,9.77c.22-.33.52-.72.69-.72s1,.62,1,.89-.17.24-.58.24H6.51c-.13,0-.22,0-.22-.2s.09-.21.22-.21h3.9c0-.51,0-1.42,0-2.92V5.77H7.11c-.14,0-.23,0-.23-.2s.09-.2.23-.2h3.32a31.7,31.7,0,0,0-.11-3.27c0-.1,0-.15.14-.15.64,0,1.23.06,1.23.31s-.2.28-.51.35c0,.4,0,1.71,0,2.76h1.94c.23-.33.52-.72.68-.72s1,.62,1,.88-.18.24-.59.24h-3v1c0,.56,0,2.31,0,3.05Z"/><path class="cls-3" d="M20.55,8.25c.43-.18.82-.35,1.17-.52s.52.1.17.34a12.2,12.2,0,0,1-3,1.52c0,.25-.12.5-.29.5s-.4-.43-.48-1A.12.12,0,0,1,18.23,9a16.49,16.49,0,0,0,1.61-.47c0-.8,0-2.18,0-3.49H18.62c-.13,0-.22,0-.22-.2s.09-.2.22-.2h1.23c0-1.14,0-2.15-.08-2.54,0-.09.05-.14.14-.14s1.17,0,1.17.29-.22.3-.53.37v2h.24c.2-.33.44-.66.58-.67a1.59,1.59,0,0,1,.78.85c0,.15-.23.22-.43.22H20.55ZM23.06,5.7c0,1.52,0,3.25,0,3.49,0,.57.12.65,2,.65,1.54,0,1.85-.15,2-.38a6.33,6.33,0,0,0,.22-.66c.06-.19.25-.18.28,0s0,.41,0,.58.23.25.23.48-.44.65-2.71.65-2.69-.25-2.69-1.23c0-.22,0-1.77,0-3.31l-1.11.48c-.12,0-.22,0-.28-.1a.19.19,0,0,1,.12-.28l1.27-.54c0-1.18,0-2.27-.09-2.67,0-.14,0-.18.18-.18.68,0,1.12.09,1.12.31s-.25.31-.5.34c0,.18,0,1,0,1.91l1.29-.54a25.4,25.4,0,0,0-.12-2.94c0-.09,0-.14.13-.14.61,0,1.18.05,1.18.31s-.21.28-.52.34c0,.38,0,1.38,0,2.14L26.14,4c.12-.26.31-.57.46-.58s.81.47.81.64-.12.2-.3.29A26,26,0,0,1,27,7.39a1.06,1.06,0,0,1-1.06,1,.28.28,0,0,1-.32-.27c0-.14-.12-.23-.31-.31s-.14-.28,0-.27a4.34,4.34,0,0,0,.53,0c.26,0,.37-.15.41-.42a17.72,17.72,0,0,0,.08-2.89L25,4.88v.47c0,.62,0,3.21,0,3.57s-.16.34-.48.34a.27.27,0,0,1-.3-.29c0-.4.09-2.81.09-3.45V5.15Z"/><path class="cls-3" d="M32.56,10.39c0,.22-.15.33-.47.33a.25.25,0,0,1-.29-.29c0-.65.06-3.68,0-5.15A10.94,10.94,0,0,1,30.5,6.72c-.21.21-.45,0-.26-.23a11.7,11.7,0,0,0,2.4-4.7c0-.11.06-.16.17-.15.38.06,1.09.4,1.09.62s-.2.22-.48.18a15.27,15.27,0,0,1-1,2c.25.1.57.28.57.42s-.18.21-.4.25c0,.49,0,2.09,0,2.38Zm5.6-6.09c.22-.34.5-.72.66-.72a1.61,1.61,0,0,1,.84.88c0,.16-.21.25-.47.25H37.74c0,1.61,0,3.52,0,5.08a.82.82,0,0,1-.82.9c-.34,0-.22-.36-1-.59-.23-.08-.19-.36,0-.35s.51.06.68.06.38-.09.4-.4c0-.71,0-2.61,0-3.66v-1H33.44c-.14,0-.23,0-.23-.21s.09-.2.23-.2H37c0-.77,0-1.65-.12-2.29,0-.12,0-.15.21-.15.53,0,1.19.08,1.19.31s-.17.26-.52.35c0,.5,0,1.11,0,1.78ZM35.33,7.92c-.33,0-.47-.31-.69-.76s-.37-.62-.56-.9,0-.43.27-.34c.7.23,1.48.82,1.49,1.44A.5.5,0,0,1,35.33,7.92Z"/><path class="cls-3" d="M46,7.6a5.35,5.35,0,0,1,1.53.22c.26.06.28,0,.13-.23s-.41-.65-.72-1.24a7.08,7.08,0,0,1-1.8.23,2,2,0,0,1-1.85-.71c-.14-.21,0-.37.22-.24h0A2.82,2.82,0,0,0,45,5.94a6.69,6.69,0,0,0,1.59-.22c-.06-.12-.11-.24-.16-.37s-.22-.54-.31-.8a4.86,4.86,0,0,1-1.09.14,1.28,1.28,0,0,1-1.29-.9c-.07-.19.08-.27.23-.14h0A1.67,1.67,0,0,0,45.12,4a2.56,2.56,0,0,0,.81-.11c-.09-.28-.17-.57-.26-.91s-.15-.28-.42-.38-.48-.16-.48-.28.32-.34.61-.34a1.46,1.46,0,0,1,.75.21c.21.12.25.22.27.51a7.12,7.12,0,0,0,.11.95,1.38,1.38,0,0,1,.51-.2c.31,0,.49.1.53.25s0,.26-.2.37a2.93,2.93,0,0,1-.67.29,6,6,0,0,0,.27.78c.06.14.12.26.18.39a4.57,4.57,0,0,0,.79-.34c.15-.1.18-.17.1-.28a2.2,2.2,0,0,0-.22-.28c-.13-.16,0-.31.19-.21a2.43,2.43,0,0,0,.67.23c.24,0,.39,0,.49.19s0,.42-.23.57a5.71,5.71,0,0,1-1.46.74,10.06,10.06,0,0,0,.78,1.16c.3.4.35.52.35.81s-.2.61-.45.61-.39-.13-.74-.3a3.65,3.65,0,0,0-1.55-.39c-.83,0-1.38.32-1.38.82s.64.77,1.2.77c.78,0,1.63-.34,1.63.25,0,.39-.56.55-1.62.55-.65,0-1.85-.31-1.85-1.45,0-.9.9-1.42,2.15-1.42Z"/><path class="cls-1" d="M55.63,8.36v2.07c0,.22-.15.29-.43.29a.24.24,0,0,1-.25-.27c0-.17,0-1.65,0-2.11A5,5,0,0,1,53,10c-.27.13-.45-.12-.22-.3a5.53,5.53,0,0,0,1.9-2.18H53c-.13,0-.22,0-.22-.2s.09-.2.22-.2h2a10.17,10.17,0,0,0-.05-1.06.12.12,0,0,1,.13-.14c.18,0,1,0,1,.24s-.13.21-.38.24c0,.13,0,.41,0,.72h.9c.17-.25.38-.51.5-.51s.78.51.78.72-.14.19-.47.19H55.64ZM52.88,5.85c-.13,0-.22,0-.22-.2s.09-.2.22-.2h3.85c.17-.24.37-.5.49-.5s.77.51.77.71-.13.19-.46.19Zm.24-2.6c-.13,0-.22,0-.22-.2s.09-.2.22-.2h1.82V2.67a5.1,5.1,0,0,0-.07-.9c0-.1,0-.14.13-.14s1.08,0,1.08.28-.17.22-.41.26a3.37,3.37,0,0,0,0,.5v.18h.83c.18-.28.42-.58.55-.58s.83.56.83.78-.16.2-.5.2Zm1,.32c.47.33.87.76.76,1.19a.43.43,0,0,1-.54.34c-.25-.06-.27-.33-.35-.65s-.13-.42-.2-.63S53.89,3.4,54.14,3.57Zm2.26-.22c.35.08.84.31.84.48s-.12.2-.43.21a4.21,4.21,0,0,1-.92,1.3c-.21.17-.41,0-.29-.21a5.09,5.09,0,0,0,.58-1.65A.17.17,0,0,1,56.4,3.35Zm0,5.47c-.12-.15-.27-.32-.4-.46s-.07-.39.2-.34c.51.12,1,.34,1.06.74a.39.39,0,0,1-.35.48C56.66,9.28,56.54,9.06,56.38,8.82Zm4.27-3.65c.2-.31.45-.64.58-.64a1.5,1.5,0,0,1,.78.82c0,.15-.21.22-.44.22H61q0,.18-.36.24v2c0,1.4,0,2.28,0,2.59s-.15.36-.47.36-.27-.11-.27-.3c0-.35,0-1.22,0-2.65V5.57H58.91v.15c0,1.56-.24,3.55-2.21,4.84-.24.16-.46-.05-.23-.28C57.69,9.05,58.22,8,58.22,5.43a26.92,26.92,0,0,0-.15-3c0-.15,0-.2.18-.18a2.46,2.46,0,0,1,.8.36,8.27,8.27,0,0,0,1.83-.76c.23-.13.28-.13.48,0a2.27,2.27,0,0,1,.47.53c.12.22-.08.35-.46.15a12.17,12.17,0,0,1-2.45.5c0,.71,0,1.4,0,2.13Z"/><path class="cls-1" d="M66.5,3.24a6,6,0,0,1-1.4,1.45c-.23.17-.42,0-.25-.26a6.53,6.53,0,0,0,1.51-2.66.16.16,0,0,1,.2-.13c.34.05.93.27.94.46s-.14.22-.44.23l-.29.51h1.6c.19-.3.42-.61.56-.61s.8.58.8.8-.18.21-.46.21ZM70.13,8.3a6.18,6.18,0,0,0,3.69,1.23c.3,0,.28.24.07.31a1,1,0,0,0-.41.3.38.38,0,0,1-.47.21,5.12,5.12,0,0,1-3.28-1.89v2c0,.21-.17.27-.45.27a.23.23,0,0,1-.26-.26c0-.15,0-1.44,0-1.64a8,8,0,0,1-3.92,1.8c-.33.08-.43-.2-.12-.32a8.36,8.36,0,0,0,3.56-2H65.23c-.13,0-.22,0-.22-.21s.09-.2.22-.2H69c0-.23,0-.46,0-.62a4.63,4.63,0,0,1-.89.41c-.31.12-.42-.16-.15-.32,1.19-.57,1.55-1.23,1.36-2.87,0-.11,0-.18.18-.14a2,2,0,0,1,.76.4h1a1.76,1.76,0,0,1,.43-.46l-.11-.21c-.08-.15-.2-.3-.3-.45s0-.39.24-.3c.46.14.9.37.91.77a.41.41,0,0,1-.24.4c.21.18.4.41.4.53s-.24.24-.47.29c0,.35,0,.86,0,1.16s0,.26.53.26.57-.09.63-.22A3.2,3.2,0,0,0,73.5,6c.07-.23.32-.21.32,0,0,.62.19.63.19.85s-.44.43-1.32.43c-1,0-1.17-.09-1.17-.71V5.15H70a2.17,2.17,0,0,1-.83,2c.27,0,.91,0,.91.24s-.13.2-.39.23v.3h2.64c.19-.27.42-.57.55-.57s.85.54.85.76-.13.22-.5.22ZM67.61,5.16a.29.29,0,0,1-.21.19v1l1-.27c.37-.1.46.17.13.35a13.37,13.37,0,0,1-2.93.88c0,.24-.11.45-.27.45s-.36-.33-.45-.87c0-.09,0-.12.11-.13.61-.07,1.18-.17,1.69-.27V5.16H65.48c-.13,0-.22,0-.22-.2s.09-.2.22-.2H68c.16-.26.36-.51.47-.51s.71.52.71.72-.16.19-.41.19Zm-.32-1.1A3.35,3.35,0,0,0,67,3.61c-.12-.2,0-.39.26-.3.45.14.89.38.88.79a.42.42,0,0,1-.45.43C67.47,4.53,67.4,4.28,67.29,4.06Zm3.15-.82a4.58,4.58,0,0,1-1.09,1.11c-.23.18-.42,0-.26-.24a5.94,5.94,0,0,0,1.25-2.33.15.15,0,0,1,.2-.12c.34.08.91.33.91.51s-.15.21-.46.2l-.28.47h1.78c.2-.31.45-.65.6-.65s.83.6.83.83-.2.22-.48.22Zm.06,2.35c.43.19.86.5.81.9a.38.38,0,0,1-.46.35c-.22,0-.28-.25-.37-.49a3.38,3.38,0,0,0-.22-.52C70.17,5.65,70.28,5.49,70.5,5.59Z"/><path class="cls-3" d="M84.11,5.91c.26-.38.6-.83.81-.83S86,5.8,86,6.07s-.19.25-.7.25H77.26c-.14,0-.23-.05-.23-.21s.09-.2.23-.2Z"/><path class="cls-3" d="M95.85,4.26c.16-.21.39-.49.52-.49s.83.45.83.67-.17.24-.36.31c0,.81,0,2.46,0,2.87s-.17.38-.46.38a.31.31,0,0,1-.32-.34V7.18H91.26a4.6,4.6,0,0,1-2.1,3.53c-.25.2-.48-.06-.26-.27a5.29,5.29,0,0,0,1.68-3.82c0-.77,0-1.94-.06-2.66,0-.14,0-.19.18-.17a2.37,2.37,0,0,1,.88.47Zm.48-1.85c.23-.33.52-.72.68-.72s1,.63,1,.88-.17.25-.59.25H89.57c-.13,0-.22,0-.22-.21s.09-.2.22-.2Zm-.25,4.37c0-.71,0-1.63,0-2.11H91.31c0,.59,0,1.26,0,2.07v0Z"/><path class="cls-3" d="M103.33,4.91c.14-.2.32-.44.45-.44s.78.52.78.73-.19.24-.41.3a7.5,7.5,0,0,1-.8,3.28,2.68,2.68,0,0,0,1.47.84,18.72,18.72,0,0,0,5.3.12c.29,0,.29.27,0,.33a.33.33,0,0,0-.29.25c-.08.15-.14.22-.41.23-1.21,0-4,.15-5.17-.35a2.91,2.91,0,0,1-1.23-1,4.68,4.68,0,0,1-1.92,1.43c-.26.11-.4-.17-.16-.31a4.86,4.86,0,0,0,1.75-1.67,6.44,6.44,0,0,1-.48-1.62l-.07.1c-.17.24-.38.61-.48.76s-.19.13-.28,0-.22-.31-.32-.43-.07-.19.08-.28a3.5,3.5,0,0,0,.71-.54,2.56,2.56,0,0,0,.36-.51c.09-.14.15-.17.32,0s.19.19.08.36l-.15.21A6.88,6.88,0,0,0,103,8.2a7.3,7.3,0,0,0,.51-2.89H102.4l-.14.24c-.08.17-.22.19-.44.17-.38,0-.38-.19-.26-.39a22.66,22.66,0,0,0,1.49-2.58h-1.6c-.13,0-.22,0-.22-.21s.09-.2.22-.2h1.7c.16-.18.37-.37.48-.34s.66.48.6.69-.22.22-.56.28c-.28.49-.69,1.27-1,1.94Zm5.83-1c.19-.28.41-.58.53-.58a1.43,1.43,0,0,1,.72.77c0,.15-.17.21-.4.21h-1c0,.6,0,1.18,0,1.36s-.15.38-.42.38-.27-.17-.28-.32h-1.22v1h1.16c.18-.26.41-.55.53-.55s.83.54.83.75-.15.2-.49.2h-2V8h1.59c.2-.28.45-.59.58-.59s.86.55.86.79-.16.21-.51.21h-2.52v.85c0,.23-.14.34-.46.34a.26.26,0,0,1-.29-.29c0-.11,0-.46,0-.9h-2c-.13,0-.22,0-.22-.2s.09-.21.22-.21h2l0-.91h-1.64c-.13,0-.22,0-.22-.2s.09-.2.22-.2h1.65c0-.39,0-.72,0-1H105c-.13,0-.22,0-.22-.2s.09-.2.22-.2h1.54v-1h-2.14c-.13,0-.22,0-.22-.2s.09-.2.22-.2h2.14c0-.31,0-.63,0-.94h-1.56c-.13,0-.22,0-.22-.2s.09-.21.22-.21h1.54a7.48,7.48,0,0,0-.08-.85c0-.09,0-.14.13-.14.38,0,1,0,1,.26s-.14.22-.4.27c0,.11,0,.27,0,.46h1.06c.14-.19.31-.4.42-.4s.74.42.74.65-.16.21-.32.27v.83Zm-2,0h1.24V3h-1.23Zm1.23.4h-1.23v1h1.22Z"/><path class="cls-3" d="M120.2,3.19c.81,0,1.26.12,1.26.49a.35.35,0,0,1-.36.37c-.15,0-.64-.08-.93-.08a2.06,2.06,0,0,0-1.3.45,3.19,3.19,0,0,0-1.24,2.71c0,2.22,1.29,2,2,2,.35,0,.79,0,.81.35s-.27.51-.66.55c-1.27.13-3-.16-2.86-2.64a4,4,0,0,1,1.54-3.22c.06-.05.06-.1,0-.09a15.16,15.16,0,0,0-2.87,1.11,2.84,2.84,0,0,1-.94.35,1.08,1.08,0,0,1-1-.92.16.16,0,0,1,.26-.17,1,1,0,0,0,.65.17,9.55,9.55,0,0,0,1.55-.42,23.55,23.55,0,0,1,4.08-1Z"/></g></svg>