<?xml version="1.0" encoding="utf-8"?>
<!-- Generator: Adobe Illustrator 23.0.3, SVG Export Plug-In . SVG Version: 6.00 Build 0)  -->
<svg version="1.1" xmlns="http://www.w3.org/2000/svg" xmlns:xlink="http://www.w3.org/1999/xlink" x="0px" y="0px"
	 viewBox="0 0 700 500" style="enable-background:new 0 0 700 500;" xml:space="preserve">
<style type="text/css">
	.グラフィックスタイル{fill:none;stroke:#000000;stroke-width:2;stroke-miterlimit:10;}
	.グラフィックスタイル_x0020_2{fill:#D8EACC;stroke:#000000;stroke-width:2;}
	.グラフィックスタイル_x0020_3{fill:#FFFFFF;stroke:#000000;stroke-width:2;stroke-miterlimit:10;}
	.グラフィックスタイル_x0020_4{fill:#FFFFFF;stroke:#000000;stroke-width:1.2664;stroke-miterlimit:10;}
	.グラフィックスタイル_x0020_7{fill:none;stroke:#000000;stroke-width:1.5;stroke-linejoin:bevel;stroke-miterlimit:10;}
	.st0{fill:#FFFFFF;}
	.st1{fill:#D8EACC;stroke:#000000;stroke-width:2;}
	.st2{fill:none;stroke:#000000;stroke-width:1.4318;stroke-linecap:round;stroke-linejoin:round;}
	.st3{fill:none;stroke:#000000;stroke-width:1.8264;stroke-linecap:round;stroke-linejoin:round;}
	.st4{fill:#FFFFFF;stroke:#000000;stroke-width:1.2664;stroke-miterlimit:10;}
	.st5{fill:#030201;}
	.st6{fill:#242323;}
	.st7{fill:none;stroke:#000000;stroke-width:2;stroke-linejoin:round;stroke-miterlimit:10;}
	.st8{fill:none;stroke:#000000;stroke-width:2;stroke-miterlimit:10;}
	.st9{fill:none;stroke:#000000;stroke-width:2;stroke-linejoin:bevel;stroke-miterlimit:10;}
	.st10{fill:#E83589;}
	.st11{fill:none;stroke:#000000;stroke-width:2;stroke-miterlimit:10;stroke-dasharray:5.901,5.901;}
	.st12{fill:none;stroke:#000000;stroke-width:1.5;stroke-linejoin:bevel;stroke-miterlimit:10;}
	.st13{fill:#D8EACC;stroke:#000000;stroke-width:1.5;}
	.st14{fill:none;stroke:#000000;stroke-width:1.5;stroke-miterlimit:10;}
	.st15{fill:none;stroke:#000000;stroke-linejoin:bevel;stroke-miterlimit:10;}
	.st16{fill:#FFFFFF;stroke:#000000;stroke-width:1.5;stroke-miterlimit:10;}
	.st17{fill:#FFFFFF;stroke:#DE0000;stroke-width:2;stroke-miterlimit:10;}
	.st18{fill:#DE0000;}
	.st19{fill:none;stroke:#000000;stroke-miterlimit:10;}
	.st20{fill:none;stroke:#000000;stroke-miterlimit:10;stroke-dasharray:3.0312,3.0312;}
	.st21{fill:url(#);stroke:#000000;stroke-width:1.1494;}
	.st22{fill:#FFFFFF;stroke:#000000;stroke-miterlimit:10;}
	.st23{fill:none;stroke:#000000;stroke-width:3;stroke-miterlimit:10;stroke-dasharray:5;}
	.st24{fill:none;stroke:#FFFFFF;stroke-width:0.75;stroke-linejoin:round;}
	.st25{fill:none;stroke:#000000;stroke-miterlimit:10;stroke-dasharray:5;}
	.st26{fill:none;stroke:#FFFFFF;stroke-width:3;stroke-linejoin:round;}
	.st27{fill:none;stroke:#000000;stroke-width:1.3;stroke-linejoin:bevel;stroke-miterlimit:10;}
	.st28{fill:none;stroke:#000000;stroke-width:1.5;stroke-miterlimit:10;stroke-dasharray:5;}
	.st29{fill:none;stroke:#47738A;stroke-linejoin:bevel;stroke-miterlimit:10;}
	.st30{fill:none;}
	.st31{fill:none;stroke:#FFFFFF;stroke-width:5;stroke-linejoin:round;}
	.st32{fill:#D8EACC;}
	.st33{fill:#D8EACC;stroke:#000000;stroke-width:0.25;}
	.st34{fill:none;stroke:#000000;stroke-width:2;}
	.st35{fill:none;stroke:#FFFFFF;stroke-linejoin:round;}
	.st36{fill:none;stroke:#000000;stroke-width:1.9773;stroke-linecap:round;stroke-linejoin:round;}
	.st37{fill:none;stroke:#000000;stroke-width:2.5222;stroke-linecap:round;stroke-linejoin:round;}
	.st38{fill:#FFFFFF;stroke:#000000;stroke-width:2;stroke-miterlimit:10;}
	.st39{fill:#FFFFFF;stroke:#000000;stroke-width:1.0238;stroke-miterlimit:10;}
	.st40{fill:#FFFFFF;stroke:#000000;stroke-width:1.089;stroke-miterlimit:10;}
	.st41{fill:#FFFFFF;stroke:#000000;stroke-width:1.2553;stroke-miterlimit:10;}
	.st42{fill:url(#);}
	.st43{fill:none;stroke:#000000;stroke-width:1.7765;stroke-linejoin:bevel;stroke-miterlimit:10;}
	.st44{fill:none;stroke:#000000;stroke-width:2.3687;stroke-miterlimit:10;}
	.st45{fill:#D8EACC;stroke:#000000;stroke-width:2.0455;}
	.st46{fill:none;stroke:#000000;stroke-width:2.0455;stroke-linecap:round;stroke-miterlimit:10;stroke-dasharray:0,6.1366;}
	.st47{fill:#FFFFFF;stroke:#000000;stroke-width:2.3687;stroke-miterlimit:10;}
	.st48{fill:#FFFFFF;stroke:#000000;stroke-width:1.4998;stroke-miterlimit:10;}
	.st49{fill:#FFFFFF;stroke:#000000;stroke-width:0.6137;stroke-miterlimit:10;}
	.st50{fill:url(#);stroke:#000000;stroke-width:1.0228;}
	.st51{fill:none;stroke:#FFFFFF;stroke-width:4.0911;stroke-linejoin:round;}
	.st52{fill:none;stroke:#000000;stroke-width:2.4559;stroke-linecap:round;stroke-linejoin:round;}
	.st53{fill:none;stroke:#000000;stroke-width:3.1327;stroke-linecap:round;stroke-linejoin:round;}
	.st54{fill:none;stroke:#FFFFFF;stroke-width:4;stroke-linejoin:round;}
</style>
<g id="レイヤー_5">
	<rect x="-2012.06" y="-3646.14" class="st0" width="5667.56" height="5248"/>
</g>
<g id="レイヤー_1">
</g>
<g id="レイヤー_3">
</g>
<g id="レイヤー_4">
</g>
<g id="レイヤー_2">
	<rect x="0" class="st0" width="700" height="500"/>
	<g>
		
			<rect x="112.61" y="251.04" transform="matrix(6.123234e-17 -1 1 6.123234e-17 -166.5479 431.0642)" class="st10" width="39.3" height="95.53"/>
		<g>
			<path class="st0" d="M101.72,304.65h15.55v2.09h-15.55v1.41H99.4V289.6h17.34v2.01h-15.01V304.65z M102.41,302.31
				c2.12-1.08,3.67-2.24,5.41-4.02c-1.33-1.12-3.09-2.38-4.83-3.52l1.41-1.58c1.72,1.08,3.21,2.13,4.85,3.4
				c1.02-1.35,1.85-2.72,2.7-4.44l2.09,1.02c-0.93,1.85-1.97,3.5-3.01,4.85c1.16,0.95,2.7,2.32,4.25,3.79l-1.64,1.72
				c-1.35-1.35-2.86-2.74-4.08-3.79c-1.74,1.85-3.55,3.19-5.76,4.35L102.41,302.31z"/>
			<path class="st0" d="M130.89,291.42h-8.69v-1.87h19.7v1.87h-8.81v1.99h4.44v10.35h-10.97v-10.35h4.33V291.42z M139.1,305.11
				v-11.7h2.12v14.74h-2.12v-1.14h-14.12v1.14h-2.09v-14.74h2.09v11.7H139.1z M128.52,295.11v2.51h2.45v-2.51H128.52z
				 M128.52,299.22v2.8h2.45v-2.8H128.52z M133,297.62h2.55v-2.51H133V297.62z M133,302.02h2.55v-2.8H133V302.02z"/>
			<path class="st0" d="M165.09,308.16h-2.26v-1.06h-13.44v1.06h-2.24v-18.75h17.94V308.16z M149.39,305.15h13.44V291.3h-13.44
				V305.15z M160.9,304.26c-1.31-0.81-2.84-1.68-4.23-2.38c-1.51,1.27-3.34,2.28-5.37,3.01l-1.29-1.56c1.89-0.6,3.23-1.31,4.67-2.45
				l-0.54-0.25c-1.35-0.66-2.34-1.1-4.11-1.82l0.93-1.54c2.09,0.77,3.3,1.25,5.29,2.18c1.68-1.78,3.09-4.33,3.86-7.03l2.01,0.62
				c-0.85,2.63-2.38,5.5-3.94,7.34c0.1,0.06,0.1,0.06,0.19,0.1c1.04,0.52,2.18,1.14,3.75,2.07L160.9,304.26z M152.17,297.48
				c-0.48-1.62-1.04-2.99-1.66-4.06l1.91-0.77c0.66,1.16,1.22,2.49,1.72,4.04L152.17,297.48z M155.73,296.67
				c-0.5-1.58-1.06-2.92-1.68-4.08l1.83-0.73c0.75,1.33,1.39,2.8,1.72,4L155.73,296.67z"/>
		</g>
	</g>
	<polyline class="st2" points="137.8,352.12 137.8,340.38 144.7,352.12 144.7,340.38 	"/>
	<g>
		<circle class="st3" cx="132.27" cy="383.2" r="24.35"/>
		<polygon points="128.54,396.34 115.67,399.99 138.76,360.35 137.56,406.21 		"/>
	</g>
	<g>
		<g>
			<polyline class="グラフィックスタイル_x0020_7" points="579.79,358.31 585.4,349.47 592.13,407.84 597.01,398.93 			
				"/>
			<g>
				<g>
					<path d="M454.2,388.37l0.29,1.43l-8.77,1.81l0.53,2.55l6.75-1.39l1.64,7.95c0.24,1.16-0.19,1.68-1.61,1.97
						c-0.82,0.17-1.64,0.3-2.48,0.39l-0.57-1.46c1.02-0.07,1.79-0.16,2.45-0.3c0.52-0.11,0.62-0.23,0.52-0.71l-1.26-6.12l-5.16,1.06
						l2.23,10.82l-1.57,0.32l-2.23-10.82l-4.9,1.01l1.72,8.35l-1.57,0.32l-2.01-9.74l6.47-1.33l-0.53-2.55l-8.59,1.77l-0.29-1.43
						l8.59-1.77l-0.56-2.73l1.57-0.33l0.56,2.73L454.2,388.37z"/>
					<path d="M460.42,389.29c-1.21-1.14-2.47-2.13-3.61-2.79l0.91-1.14c1.37,0.78,2.61,1.67,3.66,2.63L460.42,389.29z
						 M463.33,399.05c1.95,1.28,3.93,1.52,7.28,0.85l7.83-1.61c-0.11,0.48-0.17,0.97-0.19,1.51l-7.57,1.56
						c-3.49,0.68-5.56,0.42-7.63-0.96c-0.68,1.24-1.59,2.55-2.5,3.57l-1.17-1.23c0.82-0.75,1.71-1.76,2.54-2.91l-1.1-5.34
						l-2.95,0.61l-0.28-1.36l4.46-0.92L463.33,399.05z M462.16,387.83l-0.26-1.25l3.53-0.73c-0.47-0.57-1.04-1.13-1.67-1.65
						l1.28-0.83c0.82,0.77,1.36,1.38,1.94,2.16l2.59-0.53c0.23-0.78,0.48-1.92,0.58-2.71l1.66,0.07c-0.17,0.76-0.43,1.65-0.7,2.33
						l3.72-0.77l0.26,1.25l-5.76,1.19c-0.03,0.36-0.18,1.26-0.28,1.78l5-1.03l2.09,10.16l-10.14,2.09l-2.09-10.16l3.67-0.75
						c0.1-0.71,0.17-1.28,0.18-1.76L462.16,387.83z M466,391.85l7.17-1.48l-0.38-1.83l-7.17,1.48L466,391.85z M466.59,394.74
						l7.17-1.48l-0.37-1.81l-7.17,1.48L466.59,394.74z M467.24,397.87l7.17-1.48L474,394.4l-7.17,1.48L467.24,397.87z"/>
					<path d="M390.2,426.63c-0.96-0.84-2.41-1.81-3.67-2.48l0.82-1.25c1.24,0.58,2.64,1.45,3.72,2.33L390.2,426.63z M390.53,431.86
						c-1.21-0.95-2.53-1.8-3.74-2.43l0.83-1.31c1.31,0.6,2.67,1.44,3.78,2.33L390.53,431.86z M389.58,440.51
						c0.86-1.8,1.63-4.39,2.16-7.26l1.46,0.72c-0.46,2.69-1.21,5.4-2.1,7.45L389.58,440.51z M399.26,430.67l-0.01,0.04
						c-0.23,1.81-0.91,4.74-1.56,6.76l-0.04,0.2l1.45-0.42c1.45-0.42,3.65-1.13,5.38-1.73c-0.83-0.91-1.77-1.84-2.74-2.74l1.11-0.96
						c2.04,1.72,3.82,3.51,5.17,5.23l-1.23,1.19c-0.65-0.84-0.93-1.2-1.39-1.73l-0.19,0.08c-2.12,0.89-6.7,2.48-9.91,3.43
						l-0.84-1.47l0.79-0.2l0.24-0.07c0.04-0.01,0.28-0.08,0.53-0.15c0.66-2.13,1.27-4.83,1.58-7.22l-5.02,1.03l-0.27-1.33l6.08-1.25
						l-0.83-4.02l-5,1.03l-0.28-1.37l5-1.03l-0.66-3.21l1.55-0.32l0.66,3.21l5.3-1.09l0.28,1.37l-5.3,1.09l0.83,4.02l6.33-1.31
						l0.27,1.33l-7.25,1.5L399.26,430.67z"/>
					<path d="M417.15,417.86l2.22,10.78l3.09-0.64l0.32,1.53l-3.09,0.64l0.81,3.92l-1.75,0.36l-0.81-3.92l-8.21,1.69l-0.31-1.51
						l5.54-12.4L417.15,417.86z M416.44,423.26c-0.19-0.92-0.47-2.48-0.61-3.47l-0.08,0.02c-0.32,1.17-0.65,2.19-0.93,2.83
						l-3.37,7.63l6.18-1.27L416.44,423.26z"/>
					<path d="M427.64,430.99c0.08-2.24,1.39-4.73,3.71-7.08l0.45-0.45c2.42-2.39,2.97-3.42,2.67-4.87
						c-0.34-1.63-1.92-2.45-3.97-2.03c-1.67,0.34-2.72,1.2-3.68,2.98l-1.47-0.8c1.13-2.18,2.58-3.31,4.91-3.79
						c3.11-0.64,5.76,0.72,6.28,3.25c0.42,2.01-0.17,3.11-3.27,6.12l-0.62,0.61c-2.05,2.04-3.19,4.06-3.08,5.54l9.34-1.93l0.35,1.69
						l-11.29,2.33L427.64,430.99z"/>
					<path d="M455.27,410.61c-0.78,1.68-2.11,3.49-3.72,5.11c2.01,0.58,4.38,0.82,8.05,0.79l-0.54,1.52
						c-2.97,0.01-6.26-0.43-8.7-1.18c-2.07,1.86-4.83,3.55-7.72,4.77l-1.05-1.07c2.92-1.16,5.63-2.72,7.37-4.24
						c-0.89-0.4-2.24-1.18-3.35-1.93c-0.93,1.11-1.85,1.98-3.03,2.85l-1.19-0.83c2.21-1.49,4.15-3.85,4.98-5.99l1.58-0.01
						c-0.2,0.52-0.27,0.61-0.47,1.05l6.81-1.4L455.27,410.61z M453.39,428.77l-1.53,0.32l-1.31-6.37c-1.35,2.64-3.72,5.25-6.6,7.17
						l-1.18-1.09c2.76-1.73,4.9-3.81,6.41-6.2l-7.29,1.5l-0.28-1.34l8.59-1.77l-0.45-2.17l1.53-0.32l0.45,2.17l8.73-1.8l0.28,1.34
						l-7.37,1.52c2.19,1.34,4.94,2.22,8.36,2.68l-0.69,1.59c-3.7-0.71-6.6-1.9-8.97-3.74L453.39,428.77z M446.69,412.9
						c-0.11,0.19-0.16,0.24-0.25,0.38c1.03,0.76,2.36,1.47,3.67,1.96c1.46-1.48,2.4-2.66,2.96-3.66L446.69,412.9z"/>
					<path d="M467.76,409.38c-0.81,0.58-2.46,1.48-3.62,1.99l-0.75-1.4c1.75-0.76,3.65-1.94,4.46-2.77l1.33-0.27l3.39,16.43
						l-1.85,0.38L467.76,409.38z"/>
					<path d="M483.67,415.95l0.11-0.07l0.07-0.05c0.69-0.39,1.55-0.94,2.07-1.32l0.45,1.38c-1.52,1.1-4,2.65-5.95,3.68l-0.87-1.42
						c1.05-0.53,1.21-0.6,2.21-1.14l0.45-0.24l-1.93-9.36l-2.59,0.53l-0.29-1.42l6.32-1.3l0.29,1.42l-2.17,0.45L483.67,415.95z
						 M494.93,404.89l2.19,10.62l-9.56,1.97l-2.19-10.62l3.11-0.64c0.08-0.7,0.12-1.44,0.12-2.14l-4.98,1.03l-0.27-1.31l12.31-2.54
						l0.27,1.31l-5.78,1.19c-0.05,0.86-0.16,1.65-0.26,2.17L494.93,404.89z M486.16,420.88c1.45-0.94,2.79-2.28,3.62-3.61l1.38,0.57
						c-0.97,1.53-2.33,3.01-3.67,3.97L486.16,420.88z M487.09,407.77l0.4,1.93l6.59-1.36l-0.4-1.93L487.09,407.77z M488.11,412.73
						l6.59-1.36l-0.38-1.85l-6.59,1.36L488.11,412.73z M488.77,415.94l6.59-1.36l-0.42-2.05l-6.59,1.36L488.77,415.94z
						 M498.27,419.5c-1.4-0.83-3.05-1.61-4.6-2.17l0.92-1.1c1.92,0.62,3.25,1.18,4.63,1.91L498.27,419.5z"/>
					<path d="M505.2,401.67c-0.81,0.58-2.46,1.48-3.62,1.99l-0.75-1.4c1.75-0.76,3.65-1.94,4.46-2.77l1.33-0.27l3.39,16.43
						l-1.85,0.38L505.2,401.67z"/>
					<path d="M522.32,404.95c-0.05,0.76-0.15,1.49-0.26,2.09l11.2-2.31c0.34,2.46,0.39,4.72,0.12,5.92
						c-0.27,1.22-0.84,1.67-2.63,2.04c-1.06,0.22-2.48,0.45-3.48,0.57l-0.67-1.44c1.4-0.16,2.75-0.36,3.71-0.56
						c1-0.21,1.26-0.43,1.41-1.12c0.11-0.67,0.14-2.13,0.03-3.68l-9.94,2.05c-0.14,0.61-0.3,1.25-0.49,1.87l-1.71-0.13
						c0.45-1.42,0.8-3.07,1.04-4.95l-4.44,0.92l-0.28-1.35l18.93-3.9l0.28,1.35L522.32,404.95z M531.51,399.76l-13.01,2.68
						l-1.17-5.66l13.01-2.68L531.51,399.76z M519.85,400.83l9.78-2.02l-0.63-3.07l-9.78,2.02L519.85,400.83z"/>
				</g>
			</g>
			<g>
				<g>
					<polygon class="st32" points="92.68,44.11 319.35,404.84 454.91,380.17 347.32,117.35 347.32,39.78 330.65,36.77 					"/>
					<polygon class="st32" points="322.37,156.51 163.31,156.51 319.35,404.84 416.08,387.24 					"/>
					<polygon class="st32" points="347.32,39.78 451.79,47.1 520.39,363.78 454.91,380.17 347.32,117.35 					"/>
					<polygon class="st32" points="451.79,47.1 581.43,54.93 585.19,351.91 520.39,363.78 					"/>
				</g>
				<g>
					<polygon class="st33" points="92.68,44.11 319.35,404.84 454.91,380.17 347.32,117.35 347.32,39.78 330.65,36.77 					"/>
					<polygon class="st33" points="322.37,156.51 163.31,156.51 319.35,404.84 416.08,387.24 					"/>
					<polygon class="st33" points="347.32,39.78 451.79,47.1 520.39,363.78 454.91,380.17 347.32,117.35 					"/>
					<polygon class="st33" points="451.79,47.1 581.43,54.93 585.19,351.91 520.39,363.78 					"/>
				</g>
				<g>
					<polygon class="st34" points="92.68,44.11 319.35,404.84 454.91,380.17 347.32,117.35 347.32,39.78 330.65,36.77 					"/>
					<polygon class="st34" points="322.37,156.51 163.31,156.51 319.35,404.84 416.08,387.24 					"/>
					<polygon class="st34" points="347.32,39.78 451.79,47.1 520.39,363.78 454.91,380.17 347.32,117.35 					"/>
					<polygon class="st34" points="451.79,47.1 581.43,54.93 585.19,351.91 520.39,363.78 					"/>
				</g>
			</g>
			<line class="グラフィックスタイル" x1="261.15" y1="416.14" x2="319.35" y2="404.84"/>
			<line class="グラフィックスタイル" x1="581.59" y1="351.91" x2="626.8" y2="347.04"/>
			<polyline class="グラフィックスタイル" points="277.35,474.31 592.13,407.84 618.49,404.83 			"/>
			<rect x="187.73" y="58.8" class="グラフィックスタイル_x0020_3" width="122" height="86.42"/>
			
				<rect x="233.46" y="195.1" transform="matrix(0.3826 0.9239 -0.9239 0.3826 403.572 -125.8)" class="グラフィックスタイル_x0020_3" width="124.9" height="87.89"/>
			
				<rect x="350.31" y="90.1" transform="matrix(0.2257 0.9742 -0.9742 0.2257 446.0839 -307.2464)" class="グラフィックスタイル_x0020_3" width="132.03" height="73.78"/>
			
				<rect x="468.21" y="83.05" transform="matrix(-1.836970e-16 1 -1 -1.836970e-16 657.4832 -404.4115)" class="グラフィックスタイル_x0020_3" width="125.47" height="86.98"/>
			<g>
				
					<rect x="281.99" y="314.15" transform="matrix(-0.9194 0.3934 -0.3934 -0.9194 691.9651 492.8763)" class="グラフィックスタイル_x0020_4" width="26.96" height="6.41"/>
				
					<rect x="279.47" y="308.26" transform="matrix(-0.9194 0.3934 -0.3934 -0.9194 684.8052 482.5561)" class="グラフィックスタイル_x0020_4" width="26.96" height="6.41"/>
				
					<rect x="275.46" y="295.1" transform="matrix(-0.9194 0.3934 -0.3934 -0.9194 673.4201 466.1458)" class="グラフィックスタイル_x0020_4" width="26.96" height="13.98"/>
				<polygon points="287.45,298.63 285.95,305.46 293.43,302.25 				"/>
			</g>
			<g>
				
					<rect x="444.6" y="197.85" transform="matrix(-0.9709 0.2393 -0.2393 -0.9709 950.9696 286.6463)" class="グラフィックスタイル_x0020_4" width="26.96" height="6.41"/>
				
					<rect x="443.07" y="191.62" transform="matrix(-0.9709 0.2393 -0.2393 -0.9709 946.4564 274.7449)" class="グラフィックスタイル_x0020_4" width="26.96" height="6.41"/>
				
					<rect x="440.63" y="177.94" transform="matrix(-0.9709 0.2393 -0.2393 -0.9709 939.28 255.8204)" class="グラフィックスタイル_x0020_4" width="26.96" height="13.98"/>
				<polygon points="453.21,181.28 450.62,187.77 458.52,185.82 				"/>
			</g>
			<g>
				
					<rect x="537.76" y="195.38" transform="matrix(-1 6.725786e-05 -6.725786e-05 -1 1112.2112 397.1292)" class="グラフィックスタイル_x0020_4" width="36.67" height="6.41"/>
				
					<rect x="537.76" y="181.4" transform="matrix(-1 6.725786e-05 -6.725786e-05 -1 1112.2091 376.741)" class="グラフィックスタイル_x0020_4" width="36.67" height="13.98"/>
				<polygon points="555.68,184.63 551.61,190.31 559.75,190.31 				"/>
			</g>
			<g>
				
					<rect x="314.64" y="116.82" transform="matrix(6.722382e-05 1 -1 6.722382e-05 446.9128 -206.8974)" class="グラフィックスタイル_x0020_4" width="24.55" height="6.41"/>
				
					<rect x="304.44" y="113.03" transform="matrix(6.722382e-05 1 -1 6.722382e-05 436.72 -196.7026)" class="グラフィックスタイル_x0020_4" width="24.55" height="13.98"/>
				<polygon points="312.96,120.02 318.64,124.09 318.64,115.95 				"/>
			</g>
			<g>
				<g>
					<g>
						<path class="st0" d="M336.4,152.96c3.1-1.62,6.34-2.86,9.72-3.71c3.91-0.96,8.15,1.76,9.27,5.3
							c3.75,11.54,8.07,22.85,12.97,33.95c1.45,3.21,0.16,7.81-3.2,9.64c-3.3,1.76-6.77,3.08-10.41,3.97
							c-3.72,0.88-7.75-1.7-8.81-5.06c-3.74-11.54-8.05-22.86-12.94-33.96C331.5,159.71,332.85,154.86,336.4,152.96z"/>
						<path class="st5" d="M341.11,150.7c1.63-0.62,3.3-1.15,4.99-1.57c3.82-0.93,8.23,1.58,9.43,5.39
							c3.73,11.48,8.09,22.89,12.97,33.93c1.55,3.44,0.03,8.03-3.26,9.81c-3.3,1.76-6.81,3.1-10.44,3.98
							c-3.64,0.86-7.83-1.55-8.97-5.15c-3.72-11.48-8.07-22.91-12.94-33.95c-1.64-3.64-0.03-8.45,3.44-10.3l0,0
							C337.88,152.04,339.48,151.32,341.11,150.7z M360.05,200.32c1.73-0.66,3.42-1.43,5.06-2.31c3.17-1.72,4.64-6.14,3.14-9.46
							c-4.88-11.05-9.25-22.48-12.98-33.96c-1.16-3.68-5.42-6.11-9.11-5.21c-3.36,0.85-6.62,2.09-9.69,3.7
							c-3.35,1.79-4.9,6.44-3.32,9.95c4.87,11.05,9.23,22.48,12.95,33.97c1.1,3.47,5.14,5.79,8.65,4.97
							C356.54,201.54,358.31,200.99,360.05,200.32z"/>
					</g>
				</g>
				<g>
					<path class="st6" d="M335.94,160.44l15.51-5.92c-0.09-0.17-0.18-0.35-0.27-0.52l-15.38,5.87
						C335.84,160.06,335.89,160.25,335.94,160.44z"/>
				</g>
				<g>
					<path class="st5" d="M336.48,166.59l0.31,0.41c2.23,2.94,4.43,7.13,6.21,11.79c0.19,0.51,0.39,1.03,0.57,1.55l0.01,0.04
						l-0.24,6.43l-0.18-0.43c-0.52-1.27-1.02-2.54-1.49-3.76c-2-5.23-3.7-10.46-5.05-15.53L336.48,166.59z M343.37,180.4
						c-0.18-0.51-0.37-1.03-0.56-1.53c-1.69-4.42-3.76-8.41-5.86-11.31c1.33,4.91,2.98,9.95,4.91,15c0.41,1.08,0.85,2.2,1.31,3.33
						L343.37,180.4z"/>
				</g>
				<g>
					<path class="st5" d="M355.15,159.47l0.23,0.46c2.37,4.69,4.58,9.72,6.58,14.95c0.46,1.21,0.93,2.49,1.4,3.8l0.16,0.44
						l-4.49-4.67c-0.21-0.51-0.42-1.03-0.61-1.54c-1.78-4.66-2.92-9.25-3.22-12.93L355.15,159.47z M363.01,178.3
						c-0.41-1.15-0.83-2.28-1.24-3.36c-1.93-5.05-4.06-9.91-6.33-14.46c0.36,3.57,1.48,7.92,3.16,12.34c0.19,0.5,0.39,1.01,0.6,1.52
						L363.01,178.3z"/>
				</g>
				<g>
					<path class="st0" d="M343.9,187.82l3.11,8.14c1.82,4.78,7.22,7.2,12,5.38l2.49-0.95c4.77-1.82,7.19-7.22,5.36-12l-3.11-8.14
						c-2.96,1.99-6.15,3.64-9.5,4.91C350.92,186.44,347.43,187.33,343.9,187.82z"/>
					<path d="M343.76,187.74l0.13-0.02c3.56-0.5,7.03-1.38,10.33-2.66c0.04-0.02,0.09-0.03,0.13-0.05c3.26-1.24,6.4-2.87,9.35-4.85
						l0.11-0.07l3.15,8.26c1.85,4.84-0.58,10.29-5.42,12.13l-2.49,0.95c-4.84,1.85-10.28-0.59-12.13-5.44L343.76,187.74z
						 M361.46,200.29c4.73-1.81,7.11-7.13,5.3-11.87l-3.06-8.02c-2.93,1.95-6.05,3.57-9.28,4.8c-0.09,0.03-0.18,0.07-0.26,0.1
						c-3.23,1.23-6.63,2.11-10.12,2.61l3.06,8.02c1.81,4.74,7.13,7.13,11.87,5.32L361.46,200.29z"/>
				</g>
				<g>
					<path class="st0" d="M339.38,167.7c5.06-1.1,9.84-2.93,14.34-5.47c-0.29-2.75-1.04-5.33-2.25-7.73l-15.57,5.94
						C336.61,163.04,337.77,165.46,339.38,167.7z"/>
					<path d="M335.79,160.38l15.74-6.01l0.04,0.08c1.21,2.4,1.97,5.01,2.26,7.76l0.01,0.07l-0.06,0.03
						c-4.49,2.54-9.33,4.39-14.37,5.48l-0.06,0.01l-0.04-0.05c-1.61-2.24-2.79-4.7-3.49-7.29L335.79,160.38z M351.43,154.63
						l-15.4,5.88c0.69,2.52,1.83,4.9,3.39,7.09c4.98-1.09,9.75-2.91,14.19-5.42C353.33,159.5,352.59,156.97,351.43,154.63z"/>
				</g>
				<g>
					<path class="st6" d="M335.91,160.44l15.57-5.94c-0.09-0.17-0.18-0.35-0.27-0.52l-15.44,5.89
						C335.81,160.06,335.86,160.25,335.91,160.44z"/>
				</g>
				<g>
					<path class="st0" d="M351.2,153.98l-1.49-3.91c-2.29-0.3-5.29,0.11-8.36,1.28c-3.07,1.17-5.57,2.87-7.08,4.62l1.49,3.91
						L351.2,153.98z"/>
					<path d="M341.32,151.26c2.95-1.13,6.02-1.59,8.41-1.28l0.06,0.01l1.55,4.06L335.71,160l-1.55-4.06l0.04-0.05
						C335.77,154.08,338.37,152.38,341.32,151.26z M349.64,150.17c-2.35-0.29-5.35,0.17-8.25,1.28c-2.9,1.11-5.45,2.76-7,4.54
						l1.43,3.76l15.25-5.82L349.64,150.17z"/>
				</g>
				<g>
					<path class="st6" d="M343.99,187.84l0.01,0.6c7.26-0.69,14.23-3.35,20.11-7.67l-0.39-0.45
						C357.93,184.52,351.1,187.13,343.99,187.84z"/>
				</g>
				<g>
					<path class="st0" d="M363.44,180.45l-4.93-5.68l-14.34,5.47l0.11,7.52C351.19,187.07,357.82,184.54,363.44,180.45z"/>
					<path d="M344.06,180.17l14.48-5.52l5.05,5.82l-0.09,0.06c-5.64,4.1-12.28,6.64-19.22,7.33l-0.11,0.01L344.06,180.17z
						 M358.48,174.89l-14.21,5.42l0.1,7.34c6.82-0.71,13.36-3.2,18.92-7.22L358.48,174.89z"/>
				</g>
				<g>
					<g>
						<path class="st5" d="M334.3,155.96l-0.1,0.04c-1.17,0.45-1.76,1.77-1.31,2.93l0.06,0.16
							C333.06,157.92,333.54,156.82,334.3,155.96z"/>
					</g>
					<g>
						<path class="st5" d="M349.69,150.09l0.1-0.04c1.17-0.45,2.49,0.15,2.93,1.31l0.06,0.16
							C351.92,150.72,350.83,150.22,349.69,150.09z"/>
					</g>
				</g>
				<g>
					<g>
						<path class="st0" d="M339.29,183.66c0.04,0.31,0.24,0.63,0.44,0.7l2.3,0.84c0.04,0.01,0.08,0.02,0.11,0.01l-0.53-1.39
							l-2.35-0.35L339.29,183.66z"/>
						<path class="st5" d="M339.15,183.35l2.54,0.37l0.6,1.56l-0.12,0.02c-0.05,0.01-0.1,0-0.16-0.02l-2.3-0.84
							c-0.24-0.09-0.46-0.43-0.51-0.79L339.15,183.35z M341.54,183.91l-2.15-0.32l0.01,0.06c0.04,0.3,0.23,0.57,0.38,0.62l2.22,0.8
							L341.54,183.91z"/>
					</g>
					<g>
						<path class="st0" d="M364.42,174.07c0.18,0.26,0.24,0.63,0.14,0.82l-1.16,2.16c-0.02,0.04-0.04,0.06-0.07,0.08l-0.53-1.39
							l1.52-1.82L364.42,174.07z"/>
						<path class="st5" d="M364.32,173.75l0.18,0.27c0.2,0.3,0.26,0.7,0.15,0.92l-1.16,2.16c-0.03,0.05-0.06,0.09-0.11,0.12
							l-0.1,0.07l-0.6-1.56L364.32,173.75z M363.36,176.92l1.12-2.08c0.07-0.14,0.04-0.46-0.13-0.71l-0.03-0.05l-1.39,1.67
							L363.36,176.92z"/>
					</g>
				</g>
				<g>
					<g>
						<path class="st5" d="M350.64,191.01c1.19,3.12,2.79,5.66,4.24,6.93c-1.24-1.39-2.53-3.6-3.53-6.22
							c-0.48-1.27-0.85-2.51-1.1-3.66l-0.49,0.19C349.98,189.13,350.28,190.06,350.64,191.01z"/>
					</g>
					<g>
						<path class="st5" d="M360.85,187.11c1.19,3.12,1.69,6.08,1.46,7.99c0-1.87-0.51-4.37-1.51-7c-0.48-1.27-1.04-2.44-1.62-3.47
							l0.49-0.19C360.09,185.27,360.49,186.16,360.85,187.11z"/>
					</g>
				</g>
				<g>
					
						<rect x="341.27" y="164.52" transform="matrix(-0.9343 0.3565 -0.3565 -0.9343 736.0084 206.7999)" class="st0" width="15.35" height="13.42"/>
					<path d="M339.25,167.64l14.53-5.55l4.86,12.73l-14.53,5.55L339.25,167.64z M353.67,162.36l-14.16,5.4l4.71,12.35l14.16-5.4
						L353.67,162.36z"/>
				</g>
			</g>
			<g>
				<g>
					<g>
						<path class="st0" d="M363.59,217.38c3.1-1.62,6.34-2.86,9.72-3.71c3.91-0.96,8.15,1.76,9.27,5.3
							c3.75,11.54,8.07,22.85,12.97,33.95c1.45,3.21,0.16,7.81-3.2,9.64c-3.3,1.76-6.77,3.08-10.41,3.97
							c-3.72,0.88-7.75-1.7-8.81-5.06c-3.74-11.54-8.05-22.86-12.94-33.96C358.69,224.13,360.04,219.28,363.59,217.38z"/>
						<path class="st5" d="M368.3,215.12c1.63-0.62,3.3-1.15,4.99-1.57c3.82-0.93,8.23,1.58,9.43,5.39
							c3.73,11.48,8.09,22.89,12.97,33.93c1.55,3.44,0.03,8.03-3.26,9.81c-3.3,1.76-6.81,3.1-10.44,3.98
							c-3.64,0.86-7.83-1.55-8.97-5.15c-3.72-11.48-8.07-22.91-12.94-33.95c-1.64-3.64-0.03-8.45,3.44-10.3l0,0
							C365.07,216.46,366.67,215.74,368.3,215.12z M387.23,264.74c1.73-0.66,3.42-1.43,5.06-2.31c3.17-1.72,4.64-6.14,3.14-9.46
							c-4.88-11.05-9.25-22.48-12.98-33.96c-1.16-3.68-5.42-6.11-9.11-5.21c-3.36,0.85-6.62,2.09-9.69,3.7
							c-3.35,1.79-4.9,6.44-3.32,9.95c4.87,11.05,9.23,22.48,12.95,33.97c1.1,3.47,5.14,5.79,8.65,4.97
							C383.73,265.96,385.5,265.4,387.23,264.74z"/>
					</g>
				</g>
				<g>
					<path class="st6" d="M363.13,224.86l15.51-5.92c-0.09-0.17-0.18-0.35-0.27-0.52l-15.38,5.87
						C363.03,224.48,363.08,224.67,363.13,224.86z"/>
				</g>
				<g>
					<path class="st5" d="M363.67,231.01l0.31,0.41c2.23,2.94,4.43,7.13,6.21,11.79c0.19,0.51,0.39,1.03,0.57,1.55l0.01,0.04
						l-0.24,6.43l-0.18-0.43c-0.52-1.27-1.02-2.54-1.49-3.76c-2-5.23-3.7-10.46-5.05-15.53L363.67,231.01z M370.56,244.81
						c-0.18-0.51-0.37-1.03-0.56-1.53c-1.69-4.42-3.76-8.41-5.86-11.31c1.33,4.91,2.98,9.95,4.91,15c0.41,1.08,0.85,2.2,1.31,3.33
						L370.56,244.81z"/>
				</g>
				<g>
					<path class="st5" d="M382.34,223.89l0.23,0.46c2.37,4.69,4.58,9.72,6.58,14.95c0.46,1.21,0.93,2.49,1.4,3.8l0.16,0.44
						l-4.49-4.67c-0.21-0.51-0.42-1.03-0.61-1.54c-1.78-4.66-2.92-9.25-3.22-12.93L382.34,223.89z M390.2,242.72
						c-0.41-1.15-0.83-2.28-1.24-3.36c-1.93-5.05-4.06-9.91-6.33-14.46c0.36,3.57,1.48,7.92,3.16,12.34c0.19,0.5,0.39,1.01,0.6,1.52
						L390.2,242.72z"/>
				</g>
				<g>
					<path class="st0" d="M371.09,252.24l3.11,8.14c1.82,4.78,7.22,7.2,12,5.38l2.49-0.95c4.77-1.82,7.19-7.22,5.36-12l-3.11-8.14
						c-2.96,1.99-6.15,3.64-9.5,4.91C378.11,250.85,374.62,251.74,371.09,252.24z"/>
					<path d="M370.95,252.15l0.13-0.02c3.56-0.5,7.03-1.38,10.33-2.66c0.04-0.02,0.09-0.03,0.13-0.05c3.26-1.24,6.4-2.87,9.35-4.85
						l0.11-0.07l3.15,8.26c1.85,4.84-0.58,10.29-5.42,12.13l-2.49,0.95c-4.84,1.85-10.28-0.59-12.13-5.44L370.95,252.15z
						 M388.65,264.71c4.73-1.81,7.11-7.13,5.3-11.87l-3.06-8.02c-2.93,1.95-6.05,3.57-9.28,4.8c-0.09,0.03-0.18,0.07-0.26,0.1
						c-3.23,1.23-6.63,2.11-10.12,2.61l3.06,8.02c1.81,4.74,7.13,7.13,11.87,5.32L388.65,264.71z"/>
				</g>
				<g>
					<path class="st0" d="M366.57,232.12c5.06-1.1,9.84-2.93,14.34-5.47c-0.29-2.75-1.04-5.33-2.25-7.73l-15.57,5.94
						C363.8,227.46,364.95,229.88,366.57,232.12z"/>
					<path d="M362.98,224.8l15.74-6.01l0.04,0.08c1.21,2.4,1.97,5.01,2.26,7.76l0.01,0.07l-0.06,0.03
						c-4.49,2.54-9.33,4.39-14.37,5.48l-0.06,0.01l-0.04-0.05c-1.61-2.24-2.79-4.7-3.49-7.29L362.98,224.8z M378.61,219.05
						l-15.4,5.88c0.69,2.52,1.83,4.9,3.39,7.09c4.98-1.09,9.75-2.91,14.19-5.42C380.52,223.92,379.78,221.38,378.61,219.05z"/>
				</g>
				<g>
					<path class="st6" d="M363.1,224.86l15.57-5.94c-0.09-0.17-0.18-0.35-0.27-0.52l-15.44,5.89
						C363,224.48,363.05,224.67,363.1,224.86z"/>
				</g>
				<g>
					<path class="st0" d="M378.39,218.4l-1.49-3.91c-2.29-0.3-5.29,0.11-8.36,1.28c-3.07,1.17-5.57,2.87-7.08,4.62l1.49,3.91
						L378.39,218.4z"/>
					<path d="M368.51,215.67c2.95-1.13,6.02-1.59,8.41-1.28l0.06,0.01l1.55,4.06l-15.63,5.96l-1.55-4.06l0.04-0.05
						C362.96,218.49,365.56,216.8,368.51,215.67z M376.83,214.58c-2.35-0.29-5.35,0.17-8.25,1.28c-2.9,1.11-5.45,2.76-7,4.54
						l1.43,3.76l15.25-5.82L376.83,214.58z"/>
				</g>
				<g>
					<path class="st6" d="M371.17,252.26l0.01,0.6c7.26-0.69,14.23-3.35,20.11-7.67l-0.39-0.45
						C385.12,248.94,378.29,251.55,371.17,252.26z"/>
				</g>
				<g>
					<path class="st0" d="M390.63,244.87l-4.93-5.68l-14.34,5.47l0.11,7.52C378.37,251.49,385.01,248.95,390.63,244.87z"/>
					<path d="M371.25,244.59l14.48-5.52l5.05,5.82l-0.09,0.06c-5.64,4.1-12.28,6.64-19.22,7.33l-0.11,0.01L371.25,244.59z
						 M385.67,239.31l-14.21,5.42l0.1,7.34c6.82-0.71,13.36-3.2,18.92-7.22L385.67,239.31z"/>
				</g>
				<g>
					<g>
						<path class="st5" d="M361.49,220.38l-0.1,0.04c-1.17,0.45-1.76,1.77-1.31,2.93l0.06,0.16
							C360.25,222.34,360.73,221.24,361.49,220.38z"/>
					</g>
					<g>
						<path class="st5" d="M376.88,214.51l0.1-0.04c1.17-0.45,2.49,0.15,2.93,1.31l0.06,0.16
							C379.11,215.14,378.02,214.64,376.88,214.51z"/>
					</g>
				</g>
				<g>
					<g>
						<path class="st0" d="M366.48,248.08c0.04,0.31,0.24,0.63,0.44,0.7l2.3,0.84c0.04,0.01,0.08,0.02,0.11,0.01l-0.53-1.39
							l-2.35-0.35L366.48,248.08z"/>
						<path class="st5" d="M366.34,247.77l2.54,0.37l0.6,1.56l-0.12,0.02c-0.05,0.01-0.1,0-0.16-0.02l-2.3-0.84
							c-0.24-0.09-0.46-0.43-0.51-0.79L366.34,247.77z M368.73,248.33l-2.15-0.32l0.01,0.06c0.04,0.3,0.23,0.57,0.38,0.62l2.22,0.8
							L368.73,248.33z"/>
					</g>
					<g>
						<path class="st0" d="M391.61,238.49c0.18,0.26,0.24,0.63,0.14,0.82l-1.16,2.16c-0.02,0.04-0.04,0.06-0.07,0.08l-0.53-1.39
							l1.52-1.82L391.61,238.49z"/>
						<path class="st5" d="M391.51,238.17l0.18,0.27c0.2,0.3,0.26,0.7,0.15,0.92l-1.16,2.16c-0.03,0.05-0.06,0.09-0.11,0.12
							l-0.1,0.07l-0.6-1.56L391.51,238.17z M390.55,241.34l1.12-2.08c0.07-0.14,0.04-0.46-0.13-0.71l-0.03-0.05l-1.39,1.67
							L390.55,241.34z"/>
					</g>
				</g>
				<g>
					<g>
						<path class="st5" d="M377.83,255.42c1.19,3.12,2.79,5.66,4.24,6.93c-1.24-1.39-2.53-3.6-3.53-6.22
							c-0.48-1.27-0.85-2.51-1.1-3.66l-0.49,0.19C377.17,253.54,377.46,254.48,377.83,255.42z"/>
					</g>
					<g>
						<path class="st5" d="M388.04,251.52c1.19,3.12,1.69,6.08,1.46,7.99c0-1.87-0.51-4.37-1.51-7c-0.48-1.27-1.04-2.44-1.62-3.47
							l0.49-0.19C387.28,249.68,387.68,250.58,388.04,251.52z"/>
					</g>
				</g>
				<g>
					
						<rect x="368.46" y="228.94" transform="matrix(-0.9343 0.3565 -0.3565 -0.9343 811.5676 321.7087)" class="st0" width="15.35" height="13.42"/>
					<path d="M366.44,232.06l14.53-5.55l4.86,12.73l-14.53,5.55L366.44,232.06z M380.85,226.78l-14.16,5.4l4.71,12.35l14.16-5.4
						L380.85,226.78z"/>
				</g>
			</g>
			<g>
				<g>
					<g>
						<path class="st0" d="M390.65,283.47c3.1-1.62,6.34-2.86,9.72-3.71c3.91-0.96,8.15,1.76,9.27,5.3
							c3.75,11.54,8.07,22.85,12.97,33.95c1.45,3.21,0.16,7.81-3.2,9.64c-3.3,1.76-6.77,3.08-10.41,3.97
							c-3.72,0.88-7.75-1.7-8.81-5.06c-3.74-11.54-8.05-22.86-12.94-33.96C385.74,290.21,387.09,285.36,390.65,283.47z"/>
						<path class="st5" d="M395.35,281.2c1.63-0.62,3.3-1.15,4.99-1.57c3.82-0.93,8.23,1.58,9.43,5.39
							c3.73,11.48,8.09,22.89,12.97,33.93c1.55,3.44,0.03,8.03-3.26,9.81c-3.3,1.76-6.81,3.1-10.44,3.98
							c-3.64,0.86-7.83-1.55-8.97-5.15c-3.72-11.48-8.07-22.91-12.94-33.95c-1.64-3.64-0.03-8.45,3.44-10.3l0,0
							C392.13,282.54,393.72,281.82,395.35,281.2z M414.29,330.83c1.73-0.66,3.42-1.43,5.06-2.31c3.17-1.72,4.64-6.14,3.14-9.46
							c-4.88-11.05-9.25-22.48-12.98-33.96c-1.16-3.68-5.42-6.11-9.11-5.21c-3.36,0.85-6.62,2.09-9.69,3.7
							c-3.35,1.79-4.9,6.44-3.32,9.95c4.87,11.05,9.23,22.48,12.95,33.97c1.1,3.47,5.14,5.79,8.65,4.97
							C410.78,332.04,412.56,331.49,414.29,330.83z"/>
					</g>
				</g>
				<g>
					<path class="st6" d="M390.18,290.94l15.51-5.92c-0.09-0.17-0.18-0.35-0.27-0.52l-15.38,5.87
						C390.09,290.56,390.13,290.75,390.18,290.94z"/>
				</g>
				<g>
					<path class="st5" d="M390.72,297.1l0.31,0.41c2.23,2.94,4.43,7.13,6.21,11.79c0.19,0.51,0.39,1.03,0.57,1.55l0.01,0.04
						l-0.24,6.43l-0.18-0.43c-0.52-1.27-1.02-2.54-1.49-3.76c-2-5.23-3.7-10.46-5.05-15.53L390.72,297.1z M397.61,310.9
						c-0.18-0.51-0.37-1.03-0.56-1.53c-1.69-4.42-3.76-8.41-5.86-11.31c1.33,4.91,2.98,9.95,4.91,15c0.41,1.08,0.85,2.2,1.31,3.33
						L397.61,310.9z"/>
				</g>
				<g>
					<path class="st5" d="M409.39,289.97l0.23,0.46c2.37,4.69,4.58,9.72,6.58,14.95c0.46,1.21,0.93,2.49,1.4,3.8l0.16,0.44
						l-4.49-4.67c-0.21-0.51-0.42-1.03-0.61-1.54c-1.78-4.66-2.92-9.25-3.22-12.93L409.39,289.97z M417.26,308.81
						c-0.41-1.15-0.83-2.28-1.24-3.36c-1.93-5.05-4.06-9.91-6.33-14.46c0.36,3.57,1.48,7.92,3.16,12.34c0.19,0.5,0.39,1.01,0.6,1.52
						L417.26,308.81z"/>
				</g>
				<g>
					<path class="st0" d="M398.15,318.32l3.11,8.14c1.82,4.78,7.22,7.2,12,5.38l2.49-0.95c4.77-1.82,7.19-7.22,5.36-12l-3.11-8.14
						c-2.96,1.99-6.15,3.64-9.5,4.91C405.16,316.94,401.68,317.83,398.15,318.32z"/>
					<path d="M398.01,318.24l0.13-0.02c3.56-0.5,7.03-1.38,10.33-2.66c0.04-0.02,0.09-0.03,0.13-0.05c3.26-1.24,6.4-2.87,9.35-4.85
						l0.11-0.07l3.15,8.26c1.85,4.84-0.58,10.29-5.42,12.13l-2.49,0.95c-4.84,1.85-10.28-0.59-12.13-5.44L398.01,318.24z
						 M415.71,330.8c4.73-1.81,7.11-7.13,5.3-11.87l-3.06-8.02c-2.93,1.95-6.05,3.57-9.28,4.8c-0.09,0.03-0.18,0.07-0.26,0.1
						c-3.23,1.23-6.63,2.11-10.12,2.61l3.06,8.02c1.81,4.74,7.13,7.13,11.87,5.32L415.71,330.8z"/>
				</g>
				<g>
					<path class="st0" d="M393.63,298.21c5.06-1.1,9.84-2.93,14.34-5.47c-0.29-2.75-1.04-5.33-2.25-7.73l-15.57,5.94
						C390.85,293.54,392.01,295.96,393.63,298.21z"/>
					<path d="M390.03,290.88l15.74-6.01l0.04,0.08c1.21,2.4,1.97,5.01,2.26,7.76l0.01,0.07l-0.06,0.03
						c-4.49,2.54-9.33,4.39-14.37,5.48l-0.06,0.01l-0.04-0.05c-1.61-2.24-2.79-4.7-3.49-7.29L390.03,290.88z M405.67,285.13
						l-15.4,5.88c0.69,2.52,1.83,4.9,3.39,7.09c4.98-1.09,9.75-2.91,14.19-5.42C407.57,290.01,406.83,287.47,405.67,285.13z"/>
				</g>
				<g>
					<path class="st6" d="M390.15,290.94l15.57-5.94c-0.09-0.17-0.18-0.35-0.27-0.52l-15.44,5.89
						C390.06,290.57,390.1,290.76,390.15,290.94z"/>
				</g>
				<g>
					<path class="st0" d="M405.45,284.49l-1.49-3.91c-2.29-0.3-5.29,0.11-8.36,1.28c-3.07,1.17-5.57,2.87-7.08,4.62l1.49,3.91
						L405.45,284.49z"/>
					<path d="M395.57,281.76c2.95-1.13,6.02-1.59,8.41-1.28l0.06,0.01l1.55,4.06l-15.63,5.96l-1.55-4.06l0.04-0.05
						C390.02,284.58,392.61,282.89,395.57,281.76z M403.89,280.67c-2.35-0.29-5.35,0.17-8.25,1.28c-2.9,1.11-5.45,2.76-7,4.54
						l1.43,3.76l15.25-5.82L403.89,280.67z"/>
				</g>
				<g>
					<path class="st6" d="M398.23,318.35l0.01,0.6c7.26-0.69,14.23-3.35,20.11-7.67l-0.39-0.45
						C412.17,315.03,405.34,317.63,398.23,318.35z"/>
				</g>
				<g>
					<path class="st0" d="M417.69,310.95l-4.93-5.68l-14.34,5.47l0.11,7.52C405.43,317.57,412.07,315.04,417.69,310.95z"/>
					<path d="M398.31,310.68l14.48-5.52l5.05,5.82l-0.09,0.06c-5.64,4.1-12.28,6.64-19.22,7.33l-0.11,0.01L398.31,310.68z
						 M412.72,305.39l-14.21,5.42l0.1,7.34c6.82-0.71,13.36-3.2,18.92-7.22L412.72,305.39z"/>
				</g>
				<g>
					<g>
						<path class="st5" d="M388.55,286.46l-0.1,0.04c-1.17,0.45-1.76,1.77-1.31,2.93l0.06,0.16
							C387.31,288.42,387.78,287.32,388.55,286.46z"/>
					</g>
					<g>
						<path class="st5" d="M403.93,280.59l0.1-0.04c1.17-0.45,2.49,0.15,2.93,1.31l0.06,0.16
							C406.16,281.23,405.08,280.72,403.93,280.59z"/>
					</g>
				</g>
				<g>
					<g>
						<path class="st0" d="M393.54,314.17c0.04,0.31,0.24,0.63,0.44,0.7l2.3,0.84c0.04,0.01,0.08,0.02,0.11,0.01l-0.53-1.39
							l-2.35-0.35L393.54,314.17z"/>
						<path class="st5" d="M393.39,313.86l2.54,0.37l0.6,1.56l-0.12,0.02c-0.05,0.01-0.1,0-0.16-0.02l-2.3-0.84
							c-0.24-0.09-0.46-0.43-0.51-0.79L393.39,313.86z M395.78,314.41l-2.15-0.32l0.01,0.06c0.04,0.3,0.23,0.57,0.38,0.62l2.22,0.8
							L395.78,314.41z"/>
					</g>
					<g>
						<path class="st0" d="M418.67,304.58c0.18,0.26,0.24,0.63,0.14,0.82l-1.16,2.16c-0.02,0.04-0.04,0.06-0.07,0.08l-0.53-1.39
							l1.52-1.82L418.67,304.58z"/>
						<path class="st5" d="M418.57,304.25l0.18,0.27c0.2,0.3,0.26,0.7,0.15,0.92l-1.16,2.16c-0.03,0.05-0.06,0.09-0.11,0.12
							l-0.1,0.07l-0.6-1.56L418.57,304.25z M417.6,307.42l1.12-2.08c0.07-0.14,0.04-0.46-0.13-0.71l-0.03-0.05l-1.39,1.67
							L417.6,307.42z"/>
					</g>
				</g>
				<g>
					<g>
						<path class="st5" d="M404.88,321.51c1.19,3.12,2.79,5.66,4.24,6.93c-1.24-1.39-2.53-3.6-3.53-6.22
							c-0.48-1.27-0.85-2.51-1.1-3.66l-0.49,0.19C404.22,319.63,404.52,320.56,404.88,321.51z"/>
					</g>
					<g>
						<path class="st5" d="M415.1,317.61c1.19,3.12,1.69,6.08,1.46,7.99c0-1.87-0.51-4.37-1.51-7c-0.48-1.27-1.04-2.44-1.62-3.47
							l0.49-0.19C414.34,315.77,414.74,316.66,415.1,317.61z"/>
					</g>
				</g>
				<g>
					
						<rect x="395.51" y="295.03" transform="matrix(-0.9343 0.3565 -0.3565 -0.9343 887.4641 439.8886)" class="st0" width="15.35" height="13.42"/>
					<path d="M393.49,298.15l14.53-5.55l4.86,12.73l-14.53,5.55L393.49,298.15z M407.91,292.86l-14.16,5.4l4.71,12.35l14.16-5.4
						L407.91,292.86z"/>
				</g>
			</g>
			<g>
				<g>
					<g>
						<path class="st0" d="M312.65,333.99c3.1-1.62,6.34-2.86,9.72-3.71c3.91-0.96,8.15,1.76,9.27,5.3
							c3.75,11.54,8.07,22.85,12.97,33.95c1.45,3.21,0.16,7.81-3.2,9.64c-3.3,1.76-6.77,3.08-10.41,3.97
							c-3.72,0.88-7.75-1.7-8.81-5.06c-3.74-11.54-8.05-22.86-12.94-33.96C307.75,340.74,309.1,335.89,312.65,333.99z"/>
						<path class="st5" d="M317.36,331.72c1.63-0.62,3.3-1.15,4.99-1.57c3.82-0.93,8.23,1.58,9.43,5.39
							c3.73,11.48,8.09,22.89,12.97,33.93c1.55,3.44,0.03,8.03-3.26,9.81c-3.3,1.76-6.81,3.1-10.44,3.98
							c-3.64,0.86-7.83-1.55-8.97-5.15c-3.72-11.48-8.07-22.91-12.94-33.95c-1.64-3.64-0.03-8.45,3.44-10.3l0,0
							C314.13,333.06,315.73,332.35,317.36,331.72z M336.3,381.35c1.73-0.66,3.42-1.43,5.06-2.31c3.17-1.72,4.64-6.14,3.14-9.46
							c-4.88-11.05-9.25-22.48-12.98-33.96c-1.16-3.68-5.42-6.11-9.11-5.21c-3.36,0.85-6.62,2.09-9.69,3.7
							c-3.35,1.79-4.9,6.44-3.32,9.95c4.87,11.05,9.23,22.48,12.95,33.97c1.1,3.47,5.14,5.79,8.65,4.97
							C332.79,382.57,334.56,382.01,336.3,381.35z"/>
					</g>
				</g>
				<g>
					<path class="st6" d="M312.19,341.46l15.51-5.92c-0.09-0.17-0.18-0.35-0.27-0.52l-15.38,5.87
						C312.09,341.09,312.14,341.28,312.19,341.46z"/>
				</g>
				<g>
					<path class="st5" d="M312.73,347.62l0.31,0.41c2.23,2.94,4.43,7.13,6.21,11.79c0.19,0.51,0.39,1.03,0.57,1.55l0.01,0.04
						l-0.24,6.43l-0.18-0.43c-0.52-1.27-1.02-2.54-1.49-3.76c-2-5.23-3.7-10.46-5.05-15.53L312.73,347.62z M319.62,361.42
						c-0.18-0.51-0.37-1.03-0.56-1.53c-1.69-4.42-3.76-8.41-5.86-11.31c1.33,4.91,2.98,9.95,4.91,15c0.41,1.08,0.85,2.2,1.31,3.33
						L319.62,361.42z"/>
				</g>
				<g>
					<path class="st5" d="M331.4,340.49l0.23,0.46c2.37,4.69,4.58,9.72,6.58,14.95c0.46,1.21,0.93,2.49,1.4,3.8l0.16,0.44
						l-4.49-4.67c-0.21-0.51-0.42-1.03-0.61-1.54c-1.78-4.66-2.92-9.25-3.22-12.93L331.4,340.49z M339.26,359.33
						c-0.41-1.15-0.83-2.28-1.24-3.36c-1.93-5.05-4.06-9.91-6.33-14.46c0.36,3.57,1.48,7.92,3.16,12.34c0.19,0.5,0.39,1.01,0.6,1.52
						L339.26,359.33z"/>
				</g>
				<g>
					<path class="st0" d="M320.15,368.85l3.11,8.14c1.82,4.78,7.22,7.2,12,5.38l2.49-0.95c4.77-1.82,7.19-7.22,5.36-12l-3.11-8.14
						c-2.96,1.99-6.15,3.64-9.5,4.91C327.17,367.46,323.68,368.35,320.15,368.85z"/>
					<path d="M320.01,368.76l0.13-0.02c3.56-0.5,7.03-1.38,10.33-2.66c0.04-0.02,0.09-0.03,0.13-0.05c3.26-1.24,6.4-2.87,9.35-4.85
						l0.11-0.07l3.15,8.26c1.85,4.84-0.58,10.29-5.42,12.13l-2.49,0.95c-4.84,1.85-10.28-0.59-12.13-5.44L320.01,368.76z
						 M337.71,381.32c4.73-1.81,7.11-7.13,5.3-11.87l-3.06-8.02c-2.93,1.95-6.05,3.57-9.28,4.8c-0.09,0.03-0.18,0.07-0.26,0.1
						c-3.23,1.23-6.63,2.11-10.12,2.61l3.06,8.02c1.81,4.74,7.13,7.13,11.87,5.32L337.71,381.32z"/>
				</g>
				<g>
					<path class="st0" d="M315.63,348.73c5.06-1.1,9.84-2.93,14.34-5.47c-0.29-2.75-1.04-5.33-2.25-7.73l-15.57,5.94
						C312.86,344.06,314.02,346.48,315.63,348.73z"/>
					<path d="M312.04,341.41l15.74-6.01l0.04,0.08c1.21,2.4,1.97,5.01,2.26,7.76l0.01,0.07l-0.06,0.03
						c-4.49,2.54-9.33,4.39-14.37,5.48l-0.06,0.01l-0.04-0.05c-1.61-2.24-2.79-4.7-3.49-7.29L312.04,341.41z M327.68,335.65
						l-15.4,5.88c0.69,2.52,1.83,4.9,3.39,7.09c4.98-1.09,9.75-2.91,14.19-5.42C329.58,340.53,328.84,337.99,327.68,335.65z"/>
				</g>
				<g>
					<path class="st6" d="M312.16,341.47l15.57-5.94c-0.09-0.17-0.18-0.35-0.27-0.52l-15.44,5.89
						C312.06,341.09,312.11,341.28,312.16,341.47z"/>
				</g>
				<g>
					<path class="st0" d="M327.45,335.01l-1.49-3.91c-2.29-0.3-5.29,0.11-8.36,1.28c-3.07,1.17-5.57,2.87-7.08,4.62l1.49,3.91
						L327.45,335.01z"/>
					<path d="M317.57,332.28c2.95-1.13,6.02-1.59,8.41-1.28l0.06,0.01l1.55,4.06l-15.63,5.96l-1.55-4.06l0.04-0.05
						C312.02,335.1,314.62,333.41,317.57,332.28z M325.89,331.19c-2.35-0.29-5.35,0.17-8.25,1.28c-2.9,1.11-5.45,2.76-7,4.54
						l1.43,3.76l15.25-5.82L325.89,331.19z"/>
				</g>
				<g>
					<path class="st6" d="M320.24,368.87l0.01,0.6c7.26-0.69,14.23-3.35,20.11-7.67l-0.39-0.45
						C334.18,365.55,327.35,368.16,320.24,368.87z"/>
				</g>
				<g>
					<path class="st0" d="M339.69,361.48l-4.93-5.68l-14.34,5.47l0.11,7.52C327.44,368.1,334.07,365.56,339.69,361.48z"/>
					<path d="M320.31,361.2l14.48-5.52l5.05,5.82l-0.09,0.06c-5.64,4.1-12.28,6.64-19.22,7.33l-0.11,0.01L320.31,361.2z
						 M334.73,355.91l-14.21,5.42l0.1,7.34c6.82-0.71,13.36-3.2,18.92-7.22L334.73,355.91z"/>
				</g>
				<g>
					<g>
						<path class="st5" d="M310.55,336.99l-0.1,0.04c-1.17,0.45-1.76,1.77-1.31,2.93l0.06,0.16
							C309.31,338.95,309.79,337.85,310.55,336.99z"/>
					</g>
					<g>
						<path class="st5" d="M325.94,331.12l0.1-0.04c1.17-0.45,2.49,0.15,2.93,1.31l0.06,0.16
							C328.17,331.75,327.08,331.25,325.94,331.12z"/>
					</g>
				</g>
				<g>
					<g>
						<path class="st0" d="M315.54,364.69c0.04,0.31,0.24,0.63,0.44,0.7l2.3,0.84c0.04,0.01,0.08,0.02,0.11,0.01l-0.53-1.39
							l-2.35-0.35L315.54,364.69z"/>
						<path class="st5" d="M315.4,364.38l2.54,0.37l0.6,1.56l-0.12,0.02c-0.05,0.01-0.1,0-0.16-0.02l-2.3-0.84
							c-0.24-0.09-0.46-0.43-0.51-0.79L315.4,364.38z M317.79,364.94l-2.15-0.32l0.01,0.06c0.04,0.3,0.23,0.57,0.38,0.62l2.22,0.8
							L317.79,364.94z"/>
					</g>
					<g>
						<path class="st0" d="M340.67,355.1c0.18,0.26,0.24,0.63,0.14,0.82l-1.16,2.16c-0.02,0.04-0.04,0.06-0.07,0.08l-0.53-1.39
							l1.52-1.82L340.67,355.1z"/>
						<path class="st5" d="M340.57,354.77l0.18,0.27c0.2,0.3,0.26,0.7,0.15,0.92l-1.16,2.16c-0.03,0.05-0.06,0.09-0.11,0.12
							l-0.1,0.07l-0.6-1.56L340.57,354.77z M339.61,357.95l1.12-2.08c0.07-0.14,0.04-0.46-0.13-0.71l-0.03-0.05l-1.39,1.67
							L339.61,357.95z"/>
					</g>
				</g>
				<g>
					<g>
						<path class="st5" d="M326.89,372.03c1.19,3.12,2.79,5.66,4.24,6.93c-1.24-1.39-2.53-3.6-3.53-6.22
							c-0.48-1.27-0.85-2.51-1.1-3.66l-0.49,0.19C326.23,370.15,326.53,371.09,326.89,372.03z"/>
					</g>
					<g>
						<path class="st5" d="M337.1,368.13c1.19,3.12,1.69,6.08,1.46,7.99c0-1.87-0.51-4.37-1.51-7c-0.48-1.27-1.04-2.44-1.62-3.47
							l0.49-0.19C336.34,366.29,336.74,367.19,337.1,368.13z"/>
					</g>
				</g>
				<g>
					
						<rect x="317.52" y="345.55" transform="matrix(-0.9343 0.3565 -0.3565 -0.9343 754.6142 565.424)" class="st0" width="15.35" height="13.42"/>
					<path d="M315.5,348.67l14.53-5.55l4.86,12.73l-14.53,5.55L315.5,348.67z M329.92,343.38l-14.16,5.4l4.71,12.35l14.16-5.4
						L329.92,343.38z"/>
				</g>
			</g>
			<g>
				<g>
					<g>
						<path class="st0" d="M351.65,320.68c3.1-1.62,6.34-2.86,9.72-3.71c3.91-0.96,8.15,1.76,9.27,5.3
							c3.75,11.54,8.07,22.85,12.97,33.95c1.45,3.21,0.16,7.81-3.2,9.64c-3.3,1.76-6.77,3.08-10.41,3.97
							c-3.72,0.88-7.75-1.7-8.81-5.06c-3.74-11.54-8.05-22.86-12.94-33.96C346.75,327.42,348.09,322.57,351.65,320.68z"/>
						<path class="st5" d="M356.35,318.41c1.63-0.62,3.3-1.15,4.99-1.57c3.82-0.93,8.23,1.58,9.43,5.39
							c3.73,11.48,8.09,22.89,12.97,33.93c1.55,3.44,0.03,8.03-3.26,9.81c-3.3,1.76-6.81,3.1-10.44,3.98
							c-3.64,0.86-7.83-1.55-8.97-5.15c-3.72-11.48-8.07-22.91-12.94-33.95c-1.64-3.64-0.03-8.45,3.44-10.3l0,0
							C353.13,319.75,354.73,319.03,356.35,318.41z M375.29,368.04c1.73-0.66,3.42-1.43,5.06-2.31c3.17-1.72,4.64-6.14,3.14-9.46
							c-4.88-11.05-9.25-22.48-12.98-33.96c-1.16-3.68-5.42-6.11-9.11-5.21c-3.36,0.85-6.62,2.09-9.69,3.7
							c-3.35,1.79-4.9,6.44-3.32,9.95c4.87,11.05,9.23,22.48,12.95,33.97c1.1,3.47,5.14,5.79,8.65,4.97
							C371.79,369.25,373.56,368.7,375.29,368.04z"/>
					</g>
				</g>
				<g>
					<path class="st6" d="M351.19,328.15l15.51-5.92c-0.09-0.17-0.18-0.35-0.27-0.52l-15.38,5.87
						C351.09,327.77,351.14,327.96,351.19,328.15z"/>
				</g>
				<g>
					<path class="st5" d="M351.72,334.31l0.31,0.41c2.23,2.94,4.43,7.13,6.21,11.79c0.19,0.51,0.39,1.03,0.57,1.55l0.01,0.04
						l-0.24,6.43l-0.18-0.43c-0.52-1.27-1.02-2.54-1.49-3.76c-2-5.23-3.7-10.46-5.05-15.53L351.72,334.31z M358.62,348.11
						c-0.18-0.51-0.37-1.03-0.56-1.53c-1.69-4.42-3.76-8.41-5.86-11.31c1.33,4.91,2.98,9.95,4.91,15c0.41,1.08,0.85,2.2,1.31,3.33
						L358.62,348.11z"/>
				</g>
				<g>
					<path class="st5" d="M370.4,327.18l0.23,0.46c2.37,4.69,4.58,9.72,6.58,14.95c0.46,1.21,0.93,2.49,1.4,3.8l0.16,0.44
						l-4.49-4.67c-0.21-0.51-0.42-1.03-0.61-1.54c-1.78-4.66-2.92-9.25-3.22-12.93L370.4,327.18z M378.26,346.02
						c-0.41-1.15-0.83-2.28-1.24-3.36c-1.93-5.05-4.06-9.91-6.33-14.46c0.36,3.57,1.48,7.92,3.16,12.34c0.19,0.5,0.39,1.01,0.6,1.52
						L378.26,346.02z"/>
				</g>
				<g>
					<path class="st0" d="M359.15,355.53l3.11,8.14c1.82,4.78,7.22,7.2,12,5.38l2.49-0.95c4.77-1.82,7.19-7.22,5.36-12l-3.11-8.14
						c-2.96,1.99-6.15,3.64-9.5,4.91C366.17,354.15,362.68,355.04,359.15,355.53z"/>
					<path d="M359.01,355.45l0.13-0.02c3.56-0.5,7.03-1.38,10.33-2.66c0.04-0.02,0.09-0.03,0.13-0.05c3.26-1.24,6.4-2.87,9.35-4.85
						l0.11-0.07l3.15,8.26c1.85,4.84-0.58,10.29-5.42,12.13l-2.49,0.95c-4.84,1.85-10.28-0.59-12.13-5.44L359.01,355.45z
						 M376.71,368.01c4.73-1.81,7.11-7.13,5.3-11.87l-3.06-8.02c-2.93,1.95-6.05,3.57-9.28,4.8c-0.09,0.03-0.18,0.07-0.26,0.1
						c-3.23,1.23-6.63,2.11-10.12,2.61l3.06,8.02c1.81,4.74,7.13,7.13,11.87,5.32L376.71,368.01z"/>
				</g>
				<g>
					<path class="st0" d="M354.63,335.42c5.06-1.1,9.84-2.93,14.34-5.47c-0.29-2.75-1.04-5.33-2.25-7.73l-15.57,5.94
						C351.86,330.75,353.01,333.17,354.63,335.42z"/>
					<path d="M351.04,328.09l15.74-6.01l0.04,0.08c1.21,2.4,1.97,5.01,2.26,7.76l0.01,0.07l-0.06,0.03
						c-4.49,2.54-9.33,4.39-14.37,5.48l-0.06,0.01l-0.04-0.05c-1.61-2.24-2.79-4.7-3.49-7.29L351.04,328.09z M366.67,322.34
						l-15.4,5.88c0.69,2.52,1.83,4.9,3.39,7.09c4.98-1.09,9.75-2.91,14.19-5.42C368.57,327.22,367.84,324.68,366.67,322.34z"/>
				</g>
				<g>
					<path class="st6" d="M351.16,328.15l15.57-5.94c-0.09-0.17-0.18-0.35-0.27-0.52l-15.44,5.89
						C351.06,327.78,351.11,327.97,351.16,328.15z"/>
				</g>
				<g>
					<path class="st0" d="M366.45,321.7l-1.49-3.91c-2.29-0.3-5.29,0.11-8.36,1.28c-3.07,1.17-5.57,2.87-7.08,4.62l1.49,3.91
						L366.45,321.7z"/>
					<path d="M356.57,318.97c2.95-1.13,6.02-1.59,8.41-1.28l0.06,0.01l1.55,4.06l-15.63,5.96l-1.55-4.06l0.04-0.05
						C351.02,321.79,353.61,320.1,356.57,318.97z M364.89,317.88c-2.35-0.29-5.35,0.17-8.25,1.28c-2.9,1.11-5.45,2.76-7,4.54
						l1.43,3.76l15.25-5.82L364.89,317.88z"/>
				</g>
				<g>
					<path class="st6" d="M359.23,355.56l0.01,0.6c7.26-0.69,14.23-3.35,20.11-7.67l-0.39-0.45
						C373.17,352.24,366.35,354.84,359.23,355.56z"/>
				</g>
				<g>
					<path class="st0" d="M378.69,348.16l-4.93-5.68l-14.34,5.47l0.11,7.52C366.43,354.78,373.07,352.25,378.69,348.16z"/>
					<path d="M359.31,347.89l14.48-5.52l5.05,5.82l-0.09,0.06c-5.64,4.1-12.28,6.64-19.22,7.33l-0.11,0.01L359.31,347.89z
						 M373.73,342.6l-14.21,5.42l0.1,7.34c6.82-0.71,13.36-3.2,18.92-7.22L373.73,342.6z"/>
				</g>
				<g>
					<g>
						<path class="st5" d="M349.55,323.67l-0.1,0.04c-1.17,0.45-1.76,1.77-1.31,2.93l0.06,0.16
							C348.31,325.63,348.79,324.53,349.55,323.67z"/>
					</g>
					<g>
						<path class="st5" d="M364.93,317.8l0.1-0.04c1.17-0.45,2.49,0.15,2.93,1.31l0.06,0.16
							C367.16,318.44,366.08,317.93,364.93,317.8z"/>
					</g>
				</g>
				<g>
					<g>
						<path class="st0" d="M354.54,351.38c0.04,0.31,0.24,0.63,0.44,0.7l2.3,0.84c0.04,0.01,0.08,0.02,0.11,0.01l-0.53-1.39
							l-2.35-0.35L354.54,351.38z"/>
						<path class="st5" d="M354.4,351.07l2.54,0.37l0.6,1.56l-0.12,0.02c-0.05,0.01-0.1,0-0.16-0.02l-2.3-0.84
							c-0.24-0.09-0.46-0.43-0.51-0.79L354.4,351.07z M356.79,351.62l-2.15-0.32l0.01,0.06c0.04,0.3,0.23,0.57,0.38,0.62l2.22,0.8
							L356.79,351.62z"/>
					</g>
					<g>
						<path class="st0" d="M379.67,341.79c0.18,0.26,0.24,0.63,0.14,0.82l-1.16,2.16c-0.02,0.04-0.04,0.06-0.07,0.08l-0.53-1.39
							l1.52-1.82L379.67,341.79z"/>
						<path class="st5" d="M379.57,341.46l0.18,0.27c0.2,0.3,0.26,0.7,0.15,0.92l-1.16,2.16c-0.03,0.05-0.06,0.09-0.11,0.12
							l-0.1,0.07l-0.6-1.56L379.57,341.46z M378.6,344.63l1.12-2.08c0.07-0.14,0.04-0.46-0.13-0.71l-0.03-0.05l-1.39,1.67
							L378.6,344.63z"/>
					</g>
				</g>
				<g>
					<g>
						<path class="st5" d="M365.88,358.72c1.19,3.12,2.79,5.66,4.24,6.93c-1.24-1.39-2.53-3.6-3.53-6.22
							c-0.48-1.27-0.85-2.51-1.1-3.66l-0.49,0.19C365.23,356.84,365.52,357.77,365.88,358.72z"/>
					</g>
					<g>
						<path class="st5" d="M376.1,354.82c1.19,3.12,1.69,6.08,1.46,7.99c0-1.87-0.51-4.37-1.51-7c-0.48-1.27-1.04-2.44-1.62-3.47
							l0.49-0.19C375.34,352.98,375.74,353.87,376.1,354.82z"/>
					</g>
				</g>
				<g>
					
						<rect x="356.52" y="332.24" transform="matrix(-0.9343 0.3565 -0.3565 -0.9343 825.2992 525.7673)" class="st0" width="15.35" height="13.42"/>
					<path d="M354.5,335.36l14.53-5.55l4.86,12.73l-14.53,5.55L354.5,335.36z M368.91,330.07l-14.16,5.4l4.71,12.35l14.16-5.4
						L368.91,330.07z"/>
				</g>
			</g>
			<g>
				<g>
					<g>
						<path class="st0" d="M437.84,282.37c3.2-1.4,6.52-2.41,9.96-3.03c3.97-0.68,8.01,2.32,8.88,5.93
							c2.94,11.77,6.47,23.36,10.6,34.76c1.22,3.3-0.38,7.8-3.86,9.39c-3.42,1.53-6.97,2.61-10.65,3.24
							c-3.78,0.62-7.61-2.23-8.44-5.65c-2.93-11.77-6.45-23.36-10.56-34.77C432.48,288.76,434.17,284.01,437.84,282.37z"/>
						<path class="st5" d="M442.69,280.43c1.67-0.51,3.37-0.92,5.08-1.23c3.88-0.67,8.1,2.15,9.04,6.03
							c2.92,11.71,6.49,23.4,10.59,34.75c1.31,3.54-0.53,8.01-3.93,9.56c-3.41,1.53-7.01,2.62-10.69,3.25
							c-3.69,0.6-7.7-2.08-8.59-5.75c-2.91-11.71-6.47-23.41-10.56-34.76c-1.38-3.74,0.56-8.43,4.15-10.04l0,0
							C439.39,281.54,441.03,280.94,442.69,280.43z M458.16,331.25c1.77-0.54,3.52-1.19,5.21-1.95c3.28-1.5,5.05-5.81,3.79-9.22
							c-4.11-11.36-7.68-23.06-10.6-34.78c-0.91-3.75-4.98-6.47-8.73-5.83c-3.41,0.61-6.75,1.63-9.93,3.02
							c-3.47,1.55-5.34,6.08-4,9.7c4.1,11.36,7.65,23.07,10.57,34.79c0.85,3.54,4.72,6.14,8.28,5.55
							C454.58,332.21,456.38,331.79,458.16,331.25z"/>
					</g>
				</g>
				<g>
					<path class="st6" d="M436.86,289.79l15.88-4.83c-0.08-0.18-0.15-0.36-0.23-0.54l-15.75,4.79
						C436.79,289.4,436.83,289.6,436.86,289.79z"/>
				</g>
				<g>
					<path class="st5" d="M436.98,295.97l0.28,0.43c2.02,3.09,3.93,7.42,5.38,12.19c0.16,0.52,0.31,1.06,0.46,1.59l0,0.04l-0.68,6.4
						l-0.15-0.44c-0.43-1.31-0.84-2.6-1.23-3.86c-1.63-5.36-2.97-10.69-3.97-15.84L436.98,295.97z M442.9,310.21
						c-0.15-0.53-0.3-1.05-0.45-1.57c-1.38-4.53-3.17-8.65-5.07-11.69c0.99,4.99,2.29,10.13,3.86,15.3c0.34,1.11,0.7,2.26,1.08,3.41
						L442.9,310.21z"/>
				</g>
				<g>
					<path class="st5" d="M456.1,290.15l0.2,0.48c2.04,4.84,3.9,10.01,5.53,15.37c0.38,1.24,0.76,2.55,1.13,3.89l0.12,0.45
						l-4.15-4.97c-0.17-0.53-0.34-1.06-0.5-1.58c-1.45-4.77-2.28-9.43-2.32-13.12L456.1,290.15z M462.64,309.48
						c-0.33-1.18-0.67-2.33-1-3.43c-1.57-5.17-3.36-10.17-5.32-14.86c0.11,3.58,0.93,8.01,2.3,12.53c0.16,0.51,0.32,1.04,0.49,1.55
						L462.64,309.48z"/>
				</g>
				<g>
					<path class="st0" d="M442.92,317.65l2.54,8.34c1.49,4.89,6.71,7.68,11.59,6.19l2.55-0.78c4.89-1.49,7.67-6.71,6.18-11.6
						l-2.54-8.34c-3.09,1.78-6.39,3.21-9.81,4.24C450.01,316.76,446.47,317.41,442.92,317.65z"/>
					<path d="M442.78,317.56l0.13-0.01c3.59-0.25,7.11-0.89,10.49-1.94c0.04-0.01,0.09-0.03,0.13-0.04
						c3.33-1.01,6.58-2.42,9.66-4.19l0.11-0.06l2.57,8.46c1.51,4.96-1.29,10.22-6.25,11.73l-2.55,0.78
						c-4.95,1.51-10.21-1.3-11.72-6.26L442.78,317.56z M459.57,331.31c4.85-1.48,7.59-6.62,6.11-11.48l-2.5-8.22
						c-3.06,1.74-6.28,3.14-9.59,4.15c-0.09,0.03-0.18,0.05-0.27,0.08c-3.31,1.01-6.76,1.65-10.27,1.9l2.5,8.22
						c1.48,4.85,6.62,7.6,11.47,6.13L459.57,331.31z"/>
				</g>
				<g>
					<path class="st0" d="M439.8,297.28c5.12-0.75,10.02-2.24,14.69-4.47c-0.1-2.76-0.67-5.39-1.71-7.87l-15.94,4.85
						C437.35,292.43,438.34,294.92,439.8,297.28z"/>
					<path d="M436.72,289.72l16.11-4.9l0.04,0.08c1.04,2.48,1.62,5.14,1.72,7.9l0,0.07l-0.06,0.03c-4.66,2.22-9.61,3.73-14.72,4.48
						l-0.07,0.01l-0.03-0.06c-1.46-2.35-2.46-4.88-2.98-7.52L436.72,289.72z M452.72,285.06l-15.77,4.8
						c0.51,2.56,1.49,5.02,2.9,7.31c5.04-0.75,9.93-2.23,14.53-4.42C454.27,290.06,453.71,287.48,452.72,285.06z"/>
				</g>
				<g>
					<path class="st6" d="M436.83,289.79l15.94-4.85c-0.08-0.18-0.15-0.36-0.23-0.54l-15.81,4.81
						C436.76,289.41,436.8,289.6,436.83,289.79z"/>
				</g>
				<g>
					<path class="st0" d="M452.54,284.4l-1.22-4c-2.27-0.46-5.29-0.26-8.43,0.7c-3.14,0.96-5.76,2.47-7.38,4.12l1.22,4L452.54,284.4
						z"/>
					<path d="M442.87,281c3.02-0.92,6.11-1.18,8.47-0.7l0.06,0.01l1.26,4.16l-16,4.87l-1.26-4.16l0.04-0.04
						C437.14,283.43,439.84,281.92,442.87,281z M451.24,280.49c-2.32-0.45-5.35-0.2-8.32,0.71c-2.97,0.9-5.63,2.38-7.3,4.05
						l1.17,3.85l15.62-4.75L451.24,280.49z"/>
				</g>
				<g>
					<path class="st6" d="M443,317.69l-0.03,0.6c7.29-0.19,14.43-2.36,20.59-6.27l-0.36-0.48
						C457.14,315.34,450.14,317.46,443,317.69z"/>
				</g>
				<g>
					<path class="st0" d="M462.92,311.65l-4.53-6.01l-14.69,4.47l-0.41,7.51C450.24,317.41,457.03,315.34,462.92,311.65z"/>
					<path d="M443.61,310.04l14.82-4.51l4.64,6.15l-0.09,0.06c-5.91,3.7-12.71,5.77-19.68,5.99l-0.11,0L443.61,310.04z
						 M458.35,305.76l-14.55,4.43l-0.4,7.33c6.86-0.23,13.55-2.27,19.37-5.9L458.35,305.76z"/>
				</g>
				<g>
					<g>
						<path class="st5" d="M435.54,285.21l-0.1,0.03c-1.2,0.36-1.88,1.64-1.51,2.84l0.05,0.16
							C434.17,287.08,434.72,286.01,435.54,285.21z"/>
					</g>
					<g>
						<path class="st5" d="M451.29,280.41l0.1-0.03c1.2-0.36,2.47,0.32,2.84,1.51l0.05,0.16
							C453.48,281.2,452.43,280.63,451.29,280.41z"/>
					</g>
				</g>
				<g>
					<g>
						<path class="st0" d="M438.61,313.19c0.02,0.32,0.2,0.65,0.39,0.73l2.24,0.99c0.04,0.02,0.07,0.02,0.11,0.02l-0.43-1.43
							l-2.32-0.51L438.61,313.19z"/>
						<path class="st5" d="M438.48,312.87l2.5,0.55l0.49,1.6l-0.12,0.01c-0.05,0-0.1,0-0.16-0.03l-2.24-0.99
							c-0.23-0.1-0.43-0.46-0.45-0.82L438.48,312.87z M440.83,313.59l-2.13-0.47l0,0.06c0.02,0.3,0.19,0.58,0.33,0.65l2.16,0.96
							L440.83,313.59z"/>
					</g>
					<g>
						<path class="st0" d="M464.34,305.36c0.16,0.27,0.2,0.65,0.08,0.83l-1.31,2.07c-0.02,0.04-0.05,0.06-0.08,0.08l-0.43-1.43
							l1.64-1.71L464.34,305.36z"/>
						<path class="st5" d="M464.26,305.03l0.16,0.28c0.18,0.31,0.22,0.72,0.08,0.93l-1.31,2.07c-0.03,0.05-0.07,0.09-0.12,0.11
							l-0.11,0.06l-0.49-1.6L464.26,305.03z M463.08,308.13l1.26-1.99c0.08-0.13,0.07-0.46-0.09-0.72l-0.03-0.05l-1.51,1.57
							L463.08,308.13z"/>
					</g>
				</g>
				<g>
					<g>
						<path class="st5" d="M449.42,321.3c0.97,3.2,2.4,5.84,3.75,7.2c-1.14-1.47-2.28-3.77-3.1-6.45c-0.4-1.3-0.68-2.56-0.85-3.73
							l-0.5,0.15C448.89,319.38,449.12,320.33,449.42,321.3z"/>
					</g>
					<g>
						<path class="st5" d="M459.88,318.12c0.97,3.2,1.26,6.18,0.9,8.07c0.13-1.86-0.21-4.4-1.02-7.08c-0.4-1.3-0.86-2.5-1.37-3.57
							l0.5-0.15C459.25,316.23,459.58,317.15,459.88,318.12z"/>
					</g>
				</g>
				<g>
					
						<rect x="441.42" y="294.75" transform="matrix(-0.9567 0.2911 -0.2911 -0.9567 966.4976 459.1122)" class="st0" width="15.35" height="13.42"/>
					<path d="M439.67,297.21l14.88-4.53l3.97,13.03l-14.88,4.53L439.67,297.21z M454.42,292.93l-14.49,4.41l3.85,12.65l14.49-4.41
						L454.42,292.93z"/>
				</g>
			</g>
			<g>
				<g>
					<g>
						<path class="st0" d="M469.41,273.76c3.2-1.4,6.52-2.41,9.96-3.03c3.97-0.68,8.01,2.32,8.88,5.93
							c2.94,11.77,6.47,23.36,10.6,34.76c1.22,3.3-0.38,7.8-3.86,9.39c-3.42,1.53-6.97,2.61-10.65,3.24
							c-3.78,0.62-7.61-2.23-8.44-5.65c-2.93-11.77-6.45-23.36-10.56-34.77C464.06,280.15,465.74,275.4,469.41,273.76z"/>
						<path class="st5" d="M474.27,271.82c1.67-0.51,3.37-0.92,5.08-1.23c3.88-0.67,8.1,2.15,9.04,6.03
							c2.92,11.71,6.49,23.4,10.59,34.75c1.31,3.54-0.53,8.01-3.93,9.56c-3.41,1.53-7.01,2.62-10.69,3.25
							c-3.69,0.6-7.7-2.08-8.59-5.75c-2.91-11.71-6.47-23.41-10.56-34.76c-1.38-3.74,0.56-8.43,4.15-10.04l0,0
							C470.96,272.94,472.6,272.33,474.27,271.82z M489.73,322.64c1.77-0.54,3.52-1.19,5.21-1.95c3.28-1.5,5.05-5.81,3.79-9.22
							c-4.11-11.36-7.68-23.06-10.6-34.78c-0.91-3.75-4.98-6.47-8.73-5.83c-3.41,0.61-6.75,1.63-9.93,3.02
							c-3.47,1.55-5.34,6.08-4,9.7c4.1,11.36,7.65,23.07,10.57,34.79c0.85,3.54,4.72,6.14,8.28,5.55
							C486.15,323.61,487.96,323.18,489.73,322.64z"/>
					</g>
				</g>
				<g>
					<path class="st6" d="M468.44,281.18l15.88-4.83c-0.08-0.18-0.15-0.36-0.23-0.54l-15.75,4.79
						C468.36,280.8,468.4,280.99,468.44,281.18z"/>
				</g>
				<g>
					<path class="st5" d="M468.55,287.36l0.28,0.43c2.02,3.09,3.93,7.42,5.38,12.19c0.16,0.52,0.31,1.06,0.46,1.59l0,0.04l-0.68,6.4
						l-0.15-0.44c-0.43-1.31-0.84-2.6-1.23-3.86c-1.63-5.36-2.97-10.69-3.97-15.84L468.55,287.36z M474.47,301.61
						c-0.15-0.53-0.3-1.05-0.45-1.57c-1.38-4.53-3.17-8.65-5.07-11.69c0.99,4.99,2.29,10.13,3.86,15.3c0.34,1.11,0.7,2.26,1.08,3.41
						L474.47,301.61z"/>
				</g>
				<g>
					<path class="st5" d="M487.67,281.54l0.2,0.48c2.04,4.84,3.9,10.01,5.53,15.37c0.38,1.24,0.76,2.55,1.13,3.89l0.12,0.45
						l-4.15-4.97c-0.17-0.53-0.34-1.06-0.5-1.58c-1.45-4.77-2.28-9.43-2.32-13.12L487.67,281.54z M494.21,300.88
						c-0.33-1.18-0.67-2.33-1-3.43c-1.57-5.17-3.36-10.17-5.32-14.86c0.11,3.58,0.93,8.01,2.3,12.53c0.16,0.51,0.32,1.04,0.49,1.55
						L494.21,300.88z"/>
				</g>
				<g>
					<path class="st0" d="M474.49,309.05l2.54,8.34c1.49,4.89,6.71,7.68,11.59,6.19l2.55-0.78c4.89-1.49,7.67-6.71,6.18-11.6
						l-2.54-8.34c-3.09,1.78-6.39,3.21-9.81,4.24C481.59,308.15,478.05,308.8,474.49,309.05z"/>
					<path d="M474.36,308.96l0.13-0.01c3.59-0.25,7.11-0.89,10.49-1.94c0.04-0.01,0.09-0.03,0.13-0.04
						c3.33-1.01,6.58-2.42,9.66-4.19l0.11-0.06l2.57,8.46c1.51,4.96-1.29,10.22-6.25,11.73l-2.55,0.78
						c-4.95,1.51-10.21-1.3-11.72-6.26L474.36,308.96z M491.14,322.71c4.85-1.48,7.59-6.62,6.11-11.48l-2.5-8.22
						c-3.06,1.74-6.28,3.14-9.59,4.15c-0.09,0.03-0.18,0.05-0.27,0.08c-3.31,1.01-6.76,1.65-10.27,1.9l2.5,8.22
						c1.48,4.85,6.62,7.6,11.47,6.13L491.14,322.71z"/>
				</g>
				<g>
					<path class="st0" d="M471.37,288.67c5.12-0.75,10.02-2.24,14.69-4.47c-0.1-2.76-0.67-5.39-1.71-7.87l-15.94,4.85
						C468.93,283.82,469.91,286.32,471.37,288.67z"/>
					<path d="M468.29,281.11l16.11-4.9l0.04,0.08c1.04,2.48,1.62,5.14,1.72,7.9l0,0.07l-0.06,0.03c-4.66,2.22-9.61,3.73-14.72,4.48
						l-0.07,0.01l-0.03-0.06c-1.46-2.35-2.46-4.88-2.98-7.52L468.29,281.11z M484.29,276.46l-15.77,4.8
						c0.51,2.56,1.49,5.02,2.9,7.31c5.04-0.75,9.93-2.23,14.53-4.42C485.85,281.45,485.29,278.87,484.29,276.46z"/>
				</g>
				<g>
					<path class="st6" d="M468.41,281.18l15.94-4.85c-0.08-0.18-0.15-0.36-0.23-0.54l-15.81,4.81
						C468.33,280.8,468.37,280.99,468.41,281.18z"/>
				</g>
				<g>
					<path class="st0" d="M484.11,275.8l-1.22-4c-2.27-0.46-5.29-0.26-8.43,0.7c-3.14,0.96-5.76,2.47-7.38,4.12l1.22,4L484.11,275.8
						z"/>
					<path d="M474.44,272.39c3.02-0.92,6.11-1.18,8.47-0.7l0.06,0.01l1.26,4.16l-16,4.87l-1.26-4.16l0.04-0.04
						C468.71,274.82,471.41,273.31,474.44,272.39z M482.82,271.88c-2.32-0.45-5.35-0.2-8.32,0.71c-2.97,0.9-5.63,2.38-7.3,4.05
						l1.17,3.85l15.62-4.75L482.82,271.88z"/>
				</g>
				<g>
					<path class="st6" d="M474.57,309.08l-0.03,0.6c7.29-0.19,14.43-2.36,20.59-6.27l-0.36-0.48
						C488.71,306.73,481.72,308.86,474.57,309.08z"/>
				</g>
				<g>
					<path class="st0" d="M494.49,303.05l-4.53-6.01l-14.69,4.47l-0.41,7.51C481.81,308.8,488.6,306.74,494.49,303.05z"/>
					<path d="M475.18,301.43l14.82-4.51l4.64,6.15l-0.09,0.06c-5.91,3.7-12.71,5.77-19.68,5.99l-0.11,0L475.18,301.43z
						 M489.92,297.15l-14.55,4.43l-0.4,7.33c6.86-0.23,13.55-2.27,19.37-5.9L489.92,297.15z"/>
				</g>
				<g>
					<g>
						<path class="st5" d="M467.11,276.6l-0.1,0.03c-1.2,0.36-1.88,1.64-1.51,2.84l0.05,0.16
							C465.74,278.47,466.29,277.41,467.11,276.6z"/>
					</g>
					<g>
						<path class="st5" d="M482.87,271.81l0.1-0.03c1.2-0.36,2.47,0.32,2.84,1.51l0.05,0.16C485.05,272.6,484,272.02,482.87,271.81z
							"/>
					</g>
				</g>
				<g>
					<g>
						<path class="st0" d="M470.18,304.58c0.02,0.32,0.2,0.65,0.39,0.73l2.24,0.99c0.04,0.02,0.07,0.02,0.11,0.02l-0.43-1.43
							l-2.32-0.51L470.18,304.58z"/>
						<path class="st5" d="M470.06,304.27l2.5,0.55l0.49,1.6l-0.12,0.01c-0.05,0-0.1,0-0.16-0.03l-2.24-0.99
							c-0.23-0.1-0.43-0.46-0.45-0.82L470.06,304.27z M472.4,304.99l-2.13-0.47l0,0.06c0.02,0.3,0.19,0.58,0.33,0.65l2.16,0.96
							L472.4,304.99z"/>
					</g>
					<g>
						<path class="st0" d="M495.91,296.75c0.16,0.27,0.2,0.65,0.08,0.83l-1.31,2.07c-0.02,0.04-0.05,0.06-0.08,0.08l-0.43-1.43
							l1.64-1.71L495.91,296.75z"/>
						<path class="st5" d="M495.83,296.42l0.16,0.28c0.18,0.31,0.22,0.72,0.08,0.93l-1.31,2.07c-0.03,0.05-0.07,0.09-0.12,0.11
							l-0.11,0.06l-0.49-1.6L495.83,296.42z M494.65,299.52l1.26-1.99c0.08-0.13,0.07-0.46-0.09-0.72l-0.03-0.05l-1.51,1.57
							L494.65,299.52z"/>
					</g>
				</g>
				<g>
					<g>
						<path class="st5" d="M480.99,312.69c0.97,3.2,2.4,5.84,3.75,7.2c-1.14-1.47-2.28-3.77-3.1-6.45c-0.4-1.3-0.68-2.56-0.85-3.73
							l-0.5,0.15C480.46,310.77,480.69,311.72,480.99,312.69z"/>
					</g>
					<g>
						<path class="st5" d="M491.45,309.51c0.97,3.2,1.26,6.18,0.9,8.07c0.13-1.86-0.21-4.4-1.02-7.08c-0.4-1.3-0.86-2.5-1.37-3.57
							l0.5-0.15C490.82,307.62,491.15,308.54,491.45,309.51z"/>
					</g>
				</g>
				<g>
					
						<rect x="472.99" y="286.14" transform="matrix(-0.9567 0.2911 -0.2911 -0.9567 1025.7679 433.0796)" class="st0" width="15.35" height="13.42"/>
					<path d="M471.24,288.6l14.88-4.53l3.97,13.03l-14.88,4.53L471.24,288.6z M485.99,284.32l-14.49,4.41l3.85,12.65l14.49-4.41
						L485.99,284.32z"/>
				</g>
			</g>
			<g>
				<g>
					<g>
						<path class="st0" d="M523.33,264.49c3.42-0.7,6.88-1,10.37-0.88c4.02,0.16,7.35,3.95,7.45,7.65
							c0.42,12.12,1.45,24.19,3.1,36.21c0.5,3.48-2,7.55-5.73,8.38c-3.66,0.78-7.36,1.1-11.1,0.95c-3.82-0.18-6.98-3.77-7.07-7.29
							c-0.4-12.12-1.43-24.2-3.07-36.21C516.76,269.63,519.39,265.33,523.33,264.49z"/>
						<path class="st5" d="M528.48,263.61c1.74-0.15,3.48-0.19,5.23-0.14c3.93,0.16,7.47,3.79,7.58,7.78
							c0.41,12.06,1.46,24.24,3.1,36.2c0.54,3.74-2.19,7.72-5.84,8.53c-3.65,0.78-7.4,1.1-11.13,0.95c-3.74-0.18-7.1-3.65-7.2-7.42
							c-0.4-12.06-1.43-24.24-3.07-36.2c-0.57-3.95,2.31-8.13,6.15-8.95l0,0C525.01,264.01,526.74,263.76,528.48,263.61z
							 M532.99,316.54c1.85-0.16,3.69-0.43,5.5-0.82c3.52-0.78,6.15-4.63,5.63-8.23c-1.64-11.97-2.69-24.16-3.1-36.23
							c-0.1-3.85-3.52-7.37-7.32-7.52c-3.46-0.11-6.94,0.18-10.34,0.88c-3.71,0.79-6.49,4.83-5.94,8.65
							c1.63,11.97,2.66,24.16,3.07,36.23c0.1,3.64,3.34,6.99,6.94,7.16C529.28,316.74,531.14,316.7,532.99,316.54z"/>
					</g>
				</g>
				<g>
					<path class="st6" d="M520.82,271.55l16.54-1.41c-0.04-0.19-0.08-0.38-0.12-0.57l-16.41,1.4
						C520.83,271.16,520.83,271.35,520.82,271.55z"/>
				</g>
				<g>
					<path class="st5" d="M519.64,277.61l0.19,0.48c1.33,3.44,2.29,8.08,2.71,13.04c0.05,0.54,0.09,1.1,0.12,1.65l0,0.04l-2.01,6.12
						l-0.05-0.46c-0.15-1.37-0.28-2.72-0.39-4.03c-0.48-5.58-0.67-11.07-0.57-16.32L519.64,277.61z M522.46,292.78
						c-0.03-0.54-0.07-1.09-0.12-1.63c-0.4-4.71-1.29-9.12-2.51-12.49c-0.07,5.08,0.12,10.39,0.58,15.77
						c0.1,1.16,0.21,2.35,0.34,3.56L522.46,292.78z"/>
				</g>
				<g>
					<path class="st5" d="M539.56,275.92l0.1,0.51c0.98,5.16,1.72,10.61,2.2,16.18c0.11,1.29,0.21,2.65,0.29,4.04l0.03,0.47
						l-3.02-5.73c-0.06-0.55-0.12-1.1-0.16-1.65c-0.42-4.97-0.26-9.7,0.47-13.32L539.56,275.92z M541.91,296.19
						c-0.08-1.22-0.17-2.42-0.26-3.57c-0.46-5.38-1.16-10.64-2.1-15.64c-0.64,3.53-0.77,8.02-0.37,12.74
						c0.05,0.54,0.1,1.08,0.16,1.62L541.91,296.19z"/>
				</g>
				<g>
					<path class="st0" d="M520.92,300.06l0.74,8.68c0.43,5.1,4.95,8.91,10.05,8.48l2.66-0.23c5.09-0.43,8.9-4.96,8.47-10.06
						l-0.74-8.68c-3.4,1.09-6.92,1.8-10.48,2.1C528.05,300.67,524.45,300.56,520.92,300.06z"/>
					<path d="M520.81,299.95l0.13,0.02c3.56,0.5,7.14,0.61,10.66,0.29c0.05,0,0.09-0.01,0.14-0.01c3.47-0.3,6.95-1,10.32-2.08
						l0.12-0.04l0.75,8.81c0.44,5.17-3.4,9.73-8.56,10.17l-2.66,0.23c-5.16,0.44-9.71-3.41-10.15-8.57L520.81,299.95z M534.36,316.9
						c5.05-0.43,8.8-4.89,8.37-9.95l-0.73-8.56c-3.35,1.07-6.8,1.76-10.25,2.05c-0.09,0.01-0.19,0.02-0.28,0.02
						c-3.45,0.29-6.96,0.2-10.44-0.29l0.73,8.56c0.43,5.06,4.89,8.82,9.94,8.39L534.36,316.9z"/>
				</g>
				<g>
					<path class="st0" d="M522.13,279.48c5.16,0.34,10.26-0.1,15.3-1.3c0.48-2.72,0.47-5.41-0.03-8.05l-16.6,1.41
						C520.75,274.23,521.2,276.88,522.13,279.48z"/>
					<path d="M520.7,271.45l16.78-1.43l0.02,0.09c0.5,2.64,0.51,5.36,0.03,8.09l-0.01,0.07l-0.06,0.02
						c-5.02,1.2-10.18,1.64-15.33,1.31l-0.07,0l-0.02-0.06c-0.93-2.6-1.38-5.29-1.34-7.97L520.7,271.45z M537.31,270.24l-16.42,1.4
						c-0.03,2.61,0.41,5.22,1.31,7.75c5.09,0.32,10.18-0.11,15.14-1.29C537.79,275.45,537.79,272.81,537.31,270.24z"/>
				</g>
				<g>
					<path class="st6" d="M520.79,271.54l16.6-1.41c-0.04-0.19-0.08-0.38-0.12-0.57l-16.47,1.4
						C520.8,271.15,520.8,271.35,520.79,271.54z"/>
				</g>
				<g>
					<path class="st0" d="M537.28,269.56l-0.35-4.17c-2.12-0.92-5.12-1.36-8.38-1.08c-3.27,0.28-6.15,1.22-8.08,2.48l0.36,4.17
						L537.28,269.56z"/>
					<path d="M528.53,264.21c3.15-0.27,6.22,0.13,8.43,1.09l0.06,0.02l0.37,4.33l-16.67,1.42l-0.37-4.33l0.05-0.03
						C522.42,265.39,525.38,264.48,528.53,264.21z M536.83,265.46c-2.18-0.93-5.19-1.31-8.28-1.05c-3.09,0.26-6,1.15-7.98,2.43
						l0.34,4.01l16.27-1.39L536.83,265.46z"/>
				</g>
				<g>
					<path class="st6" d="M521,300.11l-0.16,0.58c7.17,1.34,14.6,0.71,21.44-1.83l-0.25-0.54
						C535.31,300.77,528.03,301.39,521,300.11z"/>
				</g>
				<g>
					<path class="st0" d="M541.74,298.37l-3.17-6.82l-15.3,1.3l-1.97,7.26C528.13,301.35,535.21,300.75,541.74,298.37z"/>
					<path d="M523.19,292.76l15.44-1.32l3.25,6.99l-0.1,0.04c-6.55,2.39-13.64,2.99-20.5,1.75l-0.11-0.02L523.19,292.76z
						 M538.5,291.66l-15.16,1.29l-1.93,7.09c6.75,1.2,13.73,0.61,20.18-1.72L538.5,291.66z"/>
				</g>
				<g>
					<g>
						<path class="st5" d="M520.49,266.79l-0.11,0.01c-1.25,0.11-2.18,1.21-2.07,2.46l0.01,0.17
							C518.76,268.33,519.51,267.41,520.49,266.79z"/>
					</g>
					<g>
						<path class="st5" d="M536.89,265.4l0.11-0.01c1.25-0.11,2.35,0.83,2.46,2.07l0.01,0.17
							C538.86,266.62,537.96,265.84,536.89,265.4z"/>
					</g>
				</g>
				<g>
					<g>
						<path class="st0" d="M517.64,294.8c-0.05,0.31,0.06,0.67,0.23,0.8l1.98,1.44c0.03,0.02,0.07,0.04,0.1,0.04l-0.13-1.49
							l-2.16-0.98L517.64,294.8z"/>
						<path class="st5" d="M517.59,294.46l2.33,1.06l0.14,1.67l-0.12-0.01c-0.05-0.01-0.1-0.03-0.15-0.06l-1.98-1.44
							c-0.2-0.15-0.32-0.54-0.27-0.89L517.59,294.46z M519.73,295.66l-1.98-0.9l-0.01,0.06c-0.04,0.3,0.06,0.61,0.19,0.7l1.91,1.38
							L519.73,295.66z"/>
					</g>
					<g>
						<path class="st0" d="M544.44,292.52c0.1,0.3,0.06,0.67-0.09,0.83l-1.71,1.75c-0.03,0.03-0.06,0.05-0.09,0.06l-0.13-1.49
							l1.96-1.33L544.44,292.52z"/>
						<path class="st5" d="M544.43,292.18l0.1,0.31c0.11,0.34,0.06,0.75-0.11,0.93l-1.71,1.75c-0.04,0.04-0.09,0.07-0.14,0.08
							l-0.12,0.03l-0.14-1.67L544.43,292.18z M542.63,294.96l1.65-1.69c0.11-0.11,0.16-0.43,0.07-0.72l-0.02-0.05l-1.8,1.22
							L542.63,294.96z"/>
					</g>
				</g>
				<g>
					<g>
						<path class="st5" d="M526.52,304.99c0.28,3.33,1.12,6.21,2.16,7.83c-0.81-1.68-1.44-4.16-1.68-6.96
							c-0.12-1.35-0.13-2.65-0.05-3.83l-0.52,0.04C526.4,303,526.43,303.98,526.52,304.99z"/>
					</g>
					<g>
						<path class="st5" d="M537.41,304.06c0.28,3.33-0.06,6.31-0.81,8.08c0.51-1.79,0.72-4.34,0.48-7.14
							c-0.12-1.35-0.32-2.63-0.6-3.78l0.52-0.04C537.19,302.08,537.33,303.05,537.41,304.06z"/>
					</g>
				</g>
				<g>
					
						<rect x="522.67" y="278.8" transform="matrix(-0.9964 0.0849 -0.0849 -0.9964 1083.0105 524.9873)" class="st0" width="15.35" height="13.42"/>
					<path d="M522.02,279.39l15.5-1.32l1.16,13.58l-15.5,1.32L522.02,279.39z M537.33,278.29l-15.1,1.29l1.12,13.17l15.1-1.29
						L537.33,278.29z"/>
				</g>
			</g>
			<g>
				<g>
					<g>
						<path class="st0" d="M556,262.67c3.42-0.7,6.88-1,10.37-0.88c4.02,0.16,7.35,3.95,7.45,7.65c0.42,12.12,1.45,24.19,3.1,36.21
							c0.5,3.48-2,7.55-5.73,8.38c-3.66,0.78-7.36,1.1-11.1,0.95c-3.82-0.18-6.98-3.77-7.07-7.29c-0.41-12.12-1.43-24.2-3.07-36.21
							C549.43,267.8,552.07,263.51,556,262.67z"/>
						<path class="st5" d="M561.15,261.79c1.74-0.15,3.48-0.19,5.23-0.14c3.93,0.16,7.47,3.79,7.58,7.78
							c0.41,12.06,1.46,24.24,3.1,36.2c0.54,3.74-2.19,7.72-5.84,8.53c-3.65,0.78-7.4,1.1-11.13,0.95c-3.74-0.18-7.1-3.65-7.2-7.42
							c-0.4-12.06-1.43-24.24-3.07-36.2c-0.57-3.95,2.31-8.13,6.15-8.95l0,0C557.69,262.19,559.42,261.94,561.15,261.79z
							 M565.66,314.72c1.85-0.16,3.69-0.43,5.5-0.82c3.52-0.78,6.15-4.63,5.63-8.23c-1.64-11.97-2.69-24.16-3.1-36.23
							c-0.1-3.85-3.52-7.37-7.32-7.52c-3.46-0.11-6.94,0.18-10.34,0.88c-3.71,0.79-6.49,4.83-5.94,8.65
							c1.63,11.97,2.66,24.16,3.07,36.23c0.1,3.64,3.34,6.99,6.94,7.16C561.96,314.92,563.81,314.87,565.66,314.72z"/>
					</g>
				</g>
				<g>
					<path class="st6" d="M553.5,269.73l16.54-1.41c-0.04-0.19-0.08-0.38-0.12-0.57l-16.41,1.4
						C553.51,269.34,553.5,269.53,553.5,269.73z"/>
				</g>
				<g>
					<path class="st5" d="M552.32,275.79l0.19,0.48c1.33,3.44,2.29,8.08,2.71,13.04c0.05,0.54,0.09,1.1,0.12,1.65l-0.01,0.04
						l-2.01,6.12l-0.05-0.46c-0.15-1.37-0.28-2.72-0.39-4.03c-0.48-5.58-0.67-11.07-0.57-16.32L552.32,275.79z M555.13,290.96
						c-0.03-0.54-0.07-1.09-0.12-1.63c-0.4-4.71-1.29-9.12-2.51-12.49c-0.07,5.08,0.12,10.39,0.58,15.77
						c0.1,1.16,0.21,2.35,0.34,3.56L555.13,290.96z"/>
				</g>
				<g>
					<path class="st5" d="M572.23,274.1l0.1,0.51c0.98,5.16,1.72,10.61,2.2,16.18c0.11,1.29,0.21,2.65,0.29,4.04l0.03,0.47
						l-3.02-5.73c-0.06-0.55-0.12-1.1-0.16-1.65c-0.42-4.97-0.26-9.7,0.47-13.32L572.23,274.1z M574.59,294.37
						c-0.08-1.22-0.17-2.42-0.26-3.57c-0.46-5.38-1.16-10.64-2.1-15.64c-0.64,3.53-0.77,8.02-0.37,12.74
						c0.05,0.54,0.1,1.08,0.16,1.62L574.59,294.37z"/>
				</g>
				<g>
					<path class="st0" d="M553.6,298.24l0.74,8.68c0.43,5.1,4.95,8.91,10.05,8.48l2.66-0.23c5.09-0.43,8.9-4.96,8.47-10.06
						l-0.74-8.68c-3.4,1.09-6.92,1.8-10.48,2.1C560.72,298.85,557.13,298.74,553.6,298.24z"/>
					<path d="M553.48,298.12l0.13,0.02c3.56,0.5,7.14,0.61,10.66,0.29c0.05,0,0.09-0.01,0.14-0.01c3.47-0.3,6.95-1,10.32-2.08
						l0.12-0.04l0.75,8.81c0.44,5.17-3.4,9.73-8.56,10.17l-2.66,0.23c-5.16,0.44-9.71-3.41-10.15-8.57L553.48,298.12z
						 M567.03,315.08c5.05-0.43,8.8-4.89,8.37-9.95l-0.73-8.56c-3.35,1.07-6.8,1.76-10.25,2.05c-0.09,0.01-0.19,0.02-0.28,0.02
						c-3.45,0.29-6.96,0.2-10.44-0.29l0.73,8.56c0.43,5.06,4.89,8.82,9.94,8.39L567.03,315.08z"/>
				</g>
				<g>
					<path class="st0" d="M554.8,277.66c5.16,0.34,10.26-0.1,15.3-1.3c0.48-2.72,0.47-5.41-0.03-8.05l-16.6,1.41
						C553.42,272.41,553.87,275.06,554.8,277.66z"/>
					<path d="M553.37,269.63l16.78-1.43l0.02,0.09c0.5,2.64,0.51,5.36,0.03,8.09l-0.01,0.07l-0.06,0.02
						c-5.02,1.2-10.18,1.64-15.33,1.31l-0.07,0l-0.02-0.06c-0.93-2.6-1.38-5.29-1.34-7.97L553.37,269.63z M569.99,268.42l-16.42,1.4
						c-0.03,2.61,0.41,5.22,1.31,7.75c5.09,0.32,10.18-0.11,15.14-1.29C570.47,273.63,570.46,270.98,569.99,268.42z"/>
				</g>
				<g>
					<path class="st6" d="M553.47,269.72l16.6-1.41c-0.04-0.19-0.08-0.38-0.12-0.57l-16.47,1.4
						C553.48,269.33,553.47,269.53,553.47,269.72z"/>
				</g>
				<g>
					<path class="st0" d="M569.95,267.73l-0.36-4.17c-2.12-0.92-5.12-1.36-8.38-1.08c-3.27,0.28-6.15,1.22-8.08,2.48l0.36,4.17
						L569.95,267.73z"/>
					<path d="M561.2,262.39c3.15-0.27,6.22,0.13,8.43,1.09l0.06,0.02l0.37,4.33l-16.67,1.42l-0.37-4.33l0.05-0.03
						C555.09,263.57,558.05,262.65,561.2,262.39z M569.5,263.64c-2.18-0.93-5.19-1.31-8.28-1.05s-6,1.15-7.98,2.43l0.34,4.01
						l16.27-1.39L569.5,263.64z"/>
				</g>
				<g>
					<path class="st6" d="M553.67,298.29l-0.16,0.58c7.17,1.34,14.6,0.71,21.44-1.83l-0.25-0.54
						C567.99,298.94,560.7,299.56,553.67,298.29z"/>
				</g>
				<g>
					<path class="st0" d="M574.41,296.55l-3.17-6.82l-15.3,1.3l-1.97,7.26C560.8,299.53,567.88,298.93,574.41,296.55z"/>
					<path d="M555.86,290.94l15.44-1.32l3.25,6.99l-0.1,0.04c-6.55,2.39-13.64,2.99-20.5,1.75l-0.11-0.02L555.86,290.94z
						 M571.18,289.84l-15.16,1.29l-1.93,7.09c6.75,1.2,13.73,0.61,20.18-1.72L571.18,289.84z"/>
				</g>
				<g>
					<g>
						<path class="st5" d="M553.16,264.97l-0.11,0.01c-1.25,0.11-2.18,1.21-2.07,2.46l0.01,0.17
							C551.43,266.51,552.19,265.59,553.16,264.97z"/>
					</g>
					<g>
						<path class="st5" d="M569.57,263.57l0.11-0.01c1.25-0.11,2.35,0.83,2.46,2.07l0.01,0.17
							C571.54,264.8,570.63,264.02,569.57,263.57z"/>
					</g>
				</g>
				<g>
					<g>
						<path class="st0" d="M550.31,292.98c-0.05,0.31,0.06,0.67,0.23,0.8l1.98,1.44c0.03,0.02,0.07,0.04,0.1,0.04l-0.13-1.49
							l-2.16-0.98L550.31,292.98z"/>
						<path class="st5" d="M550.26,292.64l2.33,1.06l0.14,1.67l-0.12-0.01c-0.05-0.01-0.1-0.03-0.15-0.06l-1.98-1.44
							c-0.2-0.15-0.32-0.54-0.27-0.89L550.26,292.64z M552.4,293.83l-1.98-0.9l-0.01,0.06c-0.04,0.3,0.06,0.61,0.19,0.7l1.91,1.38
							L552.4,293.83z"/>
					</g>
					<g>
						<path class="st0" d="M577.11,290.69c0.1,0.3,0.06,0.67-0.09,0.83l-1.71,1.75c-0.03,0.03-0.06,0.05-0.09,0.06l-0.13-1.49
							l1.96-1.33L577.11,290.69z"/>
						<path class="st5" d="M577.11,290.35l0.1,0.31c0.11,0.34,0.06,0.75-0.11,0.93l-1.71,1.75c-0.04,0.04-0.09,0.07-0.14,0.08
							l-0.12,0.03l-0.14-1.67L577.11,290.35z M575.3,293.14l1.65-1.69c0.11-0.11,0.16-0.43,0.07-0.72l-0.02-0.05l-1.8,1.22
							L575.3,293.14z"/>
					</g>
				</g>
				<g>
					<g>
						<path class="st5" d="M559.19,303.16c0.28,3.33,1.12,6.21,2.16,7.83c-0.81-1.68-1.44-4.16-1.68-6.96
							c-0.12-1.35-0.13-2.65-0.05-3.83l-0.52,0.04C559.07,301.18,559.1,302.15,559.19,303.16z"/>
					</g>
					<g>
						<path class="st5" d="M570.09,302.24c0.28,3.33-0.06,6.31-0.81,8.08c0.51-1.79,0.72-4.34,0.48-7.14
							c-0.12-1.35-0.32-2.63-0.6-3.78l0.52-0.04C569.86,300.26,570,301.23,570.09,302.24z"/>
					</g>
				</g>
				<g>
					
						<rect x="555.34" y="276.98" transform="matrix(-0.9964 0.0849 -0.0849 -0.9964 1148.0845 518.5764)" class="st0" width="15.35" height="13.42"/>
					<path d="M554.69,277.57l15.5-1.32l1.16,13.58l-15.5,1.32L554.69,277.57z M570.01,276.46l-15.1,1.29l1.12,13.17l15.1-1.29
						L570.01,276.46z"/>
				</g>
			</g>
			<g>
				<g>
					<path class="st35" d="M601.21,390.77l9.01-0.96l-0.27-2.58l1.28-0.14l0.27,2.58l3.28-0.35l0.16,1.47l-3.28,0.35l0.73,6.86
						l-1.26,0.13l-9.71-5.53L601.21,390.77z M605.58,391.79c-0.77,0.08-2.07,0.18-2.89,0.22l0.01,0.07
						c0.93,0.35,1.74,0.71,2.24,0.99l5.98,3.37l-0.55-5.16L605.58,391.79z"/>
					<path class="st35" d="M611.79,383.84l2.38-0.25l0.25,2.38l-2.38,0.25L611.79,383.84z"/>
					<path class="st35" d="M601.9,382.37c0.41,0.71,1.02,2.13,1.34,3.12l-1.21,0.5c-0.48-1.5-1.29-3.15-1.91-3.87L600,381
						l13.73-1.46l0.16,1.55L601.9,382.37z"/>
					<path class="st35" d="M605.28,373.58c-0.25-2.38-1.26-3.6-2.82-3.44c-1.38,0.15-2.13,1.35-1.94,3.15
						c0.14,1.35,0.64,2.21,1.79,3.11l-0.83,1.08c-1.26-0.91-2.11-2.44-2.29-4.08c-0.28-2.68,0.93-4.69,2.96-4.91
						c1.68-0.18,2.96,0.93,3.43,2.95l0.07-0.01c-0.09-2.43,1.06-3.97,3.11-4.19c2.38-0.25,4.1,1.55,4.44,4.68
						c0.22,2.03-0.22,3.63-1.38,4.94l-1.09-0.88c0.89-1.1,1.26-2.41,1.1-3.9c-0.23-2.13-1.36-3.31-3.01-3.13
						c-1.87,0.2-2.59,1.62-2.28,4.52l0.11,1.08l-1.27,0.13L605.28,373.58z"/>
					<path class="st35" d="M604.44,356.18c4.33-0.46,7.19,1.17,7.52,4.25c0.33,3.08-2.15,5.28-6.46,5.73
						c-4.33,0.46-7.19-1.17-7.52-4.27C597.65,358.84,600.13,356.64,604.44,356.18z M605.33,364.54c3.5-0.37,5.52-1.88,5.3-3.98
						c-0.22-2.06-2.52-3.12-6.01-2.75c-3.53,0.38-5.54,1.88-5.32,3.98C599.52,363.86,601.83,364.91,605.33,364.54z"/>
				</g>
				<g>
					<path d="M601.21,390.77l9.01-0.96l-0.27-2.58l1.28-0.14l0.27,2.58l3.28-0.35l0.16,1.47l-3.28,0.35l0.73,6.86l-1.26,0.13
						l-9.71-5.53L601.21,390.77z M605.58,391.79c-0.77,0.08-2.07,0.18-2.89,0.22l0.01,0.07c0.93,0.35,1.74,0.71,2.24,0.99l5.98,3.37
						l-0.55-5.16L605.58,391.79z"/>
					<path d="M611.79,383.84l2.38-0.25l0.25,2.38l-2.38,0.25L611.79,383.84z"/>
					<path d="M601.9,382.37c0.41,0.71,1.02,2.13,1.34,3.12l-1.21,0.5c-0.48-1.5-1.29-3.15-1.91-3.87L600,381l13.73-1.46l0.16,1.55
						L601.9,382.37z"/>
					<path d="M605.28,373.58c-0.25-2.38-1.26-3.6-2.82-3.44c-1.38,0.15-2.13,1.35-1.94,3.15c0.14,1.35,0.64,2.21,1.79,3.11
						l-0.83,1.08c-1.26-0.91-2.11-2.44-2.29-4.08c-0.28-2.68,0.93-4.69,2.96-4.91c1.68-0.18,2.96,0.93,3.43,2.95l0.07-0.01
						c-0.09-2.43,1.06-3.97,3.11-4.19c2.38-0.25,4.1,1.55,4.44,4.68c0.22,2.03-0.22,3.63-1.38,4.94l-1.09-0.88
						c0.89-1.1,1.26-2.41,1.1-3.9c-0.23-2.13-1.36-3.31-3.01-3.13c-1.87,0.2-2.59,1.62-2.28,4.52l0.11,1.08l-1.27,0.13
						L605.28,373.58z"/>
					<path d="M604.44,356.18c4.33-0.46,7.19,1.17,7.52,4.25c0.33,3.08-2.15,5.28-6.46,5.73c-4.33,0.46-7.19-1.17-7.52-4.27
						C597.65,358.84,600.13,356.64,604.44,356.18z M605.33,364.54c3.5-0.37,5.52-1.88,5.3-3.98c-0.22-2.06-2.52-3.12-6.01-2.75
						c-3.53,0.38-5.54,1.88-5.32,3.98C599.52,363.86,601.83,364.91,605.33,364.54z"/>
				</g>
			</g>
			<g>
				<path d="M203.35,112.32c0.79-3.26,3.48-6.53,7.59-9.27l0.79-0.52c4.27-2.78,5.4-4.12,5.4-6.34c0-2.5-2.07-4.18-5.22-4.18
					c-2.56,0-4.36,0.95-6.31,3.26l-1.92-1.62c2.32-2.87,4.79-4.09,8.36-4.09c4.76,0,8.24,2.81,8.24,6.68c0,3.08-1.19,4.51-6.65,7.99
					l-1.1,0.7c-3.63,2.38-5.92,5-6.19,7.2h14.31v2.59h-17.29V112.32z"/>
				<path d="M235.65,102.74c-0.3,1.1-0.67,2.13-1.01,2.99h17.14c-0.24,3.72-0.85,7.05-1.62,8.72c-0.76,1.71-1.74,2.2-4.48,2.2
					c-1.62,0-3.78-0.09-5.28-0.21l-0.55-2.32c2.11,0.18,4.15,0.31,5.61,0.31c1.52,0,1.98-0.24,2.41-1.22
					c0.37-0.95,0.85-3.08,1.16-5.4h-15.22c-0.4,0.85-0.82,1.74-1.28,2.59l-2.47-0.7c1.1-1.95,2.1-4.27,3.02-6.95h-6.8v-2.07h28.98
					v2.07H235.65z M250.72,97.89H230.8v-8.66h19.92V97.89z M233.27,95.94h14.98v-4.7h-14.98V95.94z"/>
				<path d="M263.13,101.74c-0.98,3.11-2.23,5.92-3.69,8.27l-1.13-2.44c1.98-2.96,3.54-6.65,4.61-11.01h-4.18v-2.13h4.39v-6.53h2.26
					v6.53h3.17v2.13h-3.17v2.84c1.37,1.13,2.65,2.35,3.75,3.57l-1.28,2.04c-0.55-0.82-1.56-2.1-2.47-3.14v15.01h-2.26V101.74z
					 M280.15,105.98c1.95,2.81,4.51,5.06,7.78,6.89l-1.43,2.13c-3.2-2.01-6.04-4.82-7.87-7.81v9.67h-2.17v-9.49
					c-1.92,3.26-4.51,5.95-7.84,8.05l-1.53-1.86c3.33-1.86,5.98-4.36,7.99-7.59h-5.64V95.12h7.02v-2.26h-8.6v-1.98h8.6v-2.99h2.17
					v2.99h8.78v1.98h-8.78v2.26h7.23v10.86H280.15z M271.61,96.98v2.59h4.85v-2.59H271.61z M271.61,101.43v2.65h4.85v-2.65H271.61z
					 M278.62,99.57h5.09v-2.59h-5.09V99.57z M278.62,104.08h5.09v-2.65h-5.09V104.08z"/>
			</g>
			<g>
				<path d="M282.94,198.39c-1.08,1.04-3.33,2.73-4.94,3.73l-1.41-1.92c2.44-1.5,5-3.66,6.02-5.06l1.92-0.7l8.56,23.66l-2.67,0.97
					L282.94,198.39z"/>
				<path d="M292.97,239.38c0.09,1.14,0.09,2.24,0.07,3.15l16.12-5.83c1.04,3.58,1.59,6.92,1.45,8.75
					c-0.14,1.87-0.89,2.66-3.47,3.59c-1.52,0.55-3.59,1.2-5.04,1.59l-1.3-1.99c2.04-0.54,4-1.12,5.38-1.62
					c1.43-0.52,1.78-0.9,1.85-1.97c0.02-1.01-0.25-3.19-0.75-5.47l-14.31,5.18c-0.08,0.94-0.18,1.91-0.32,2.87l-2.56,0.18
					c0.37-2.21,0.53-4.73,0.47-7.57l-6.4,2.31l-0.71-1.95l27.25-9.86l0.71,1.95L292.97,239.38z M305.48,229.69l-18.73,6.78
					l-2.95-8.14l18.73-6.78L305.48,229.69z M288.41,233.79l14.08-5.1l-1.6-4.42l-14.08,5.1L288.41,233.79z"/>
				<path d="M299.06,270.48c0.14,3.26-0.08,6.32-0.66,9.03l-1.89-1.91c0.86-3.46,1.07-7.46,0.58-11.92l-3.93,1.42l-0.73-2.01
					l4.13-1.5l-2.22-6.14l2.12-0.77l2.22,6.14l2.98-1.08l0.73,2.01l-2.98,1.08l0.96,2.67c1.67,0.59,3.29,1.3,4.74,2.08l-0.51,2.36
					c-0.8-0.59-2.18-1.45-3.39-2.11l5.11,14.11l-2.12,0.77L299.06,270.48z M316.51,268.68c2.79,1.97,5.97,3.22,9.66,3.84l-0.62,2.49
					c-3.7-0.8-7.32-2.48-10.06-4.67l3.29,9.09l-2.04,0.74l-3.23-8.92c-0.7,3.72-2.22,7.13-4.63,10.24l-2.07-1.23
					c2.49-2.88,4.14-6.14,4.93-9.86l-5.31,1.92l-3.69-10.21l6.6-2.39l-0.77-2.12l-8.09,2.93l-0.67-1.86l8.09-2.93l-1.02-2.81
					l2.04-0.74l1.02,2.81l8.26-2.99l0.67,1.86l-8.26,2.99l0.77,2.12l6.8-2.46l3.7,10.21L316.51,268.68z M305.42,263.12l0.88,2.44
					l4.56-1.65l-0.88-2.44L305.42,263.12z M306.93,267.31l0.9,2.5l4.56-1.65l-0.9-2.5L306.93,267.31z M312.9,263.17l4.79-1.73
					l-0.88-2.44l-4.79,1.73L312.9,263.17z M314.43,267.42l4.79-1.73l-0.9-2.49l-4.79,1.73L314.43,267.42z"/>
			</g>
			<g>
				<path d="M406.4,92.18c4.25-0.99,6.24-3.08,5.59-5.87c-0.57-2.47-2.92-3.55-6.13-2.8c-2.41,0.56-3.84,1.65-5.22,3.94l-2.14-1.26
					c1.36-2.48,3.93-4.36,6.87-5.04c4.78-1.11,8.7,0.64,9.54,4.26c0.7,3-1.02,5.56-4.57,6.86l0.03,0.12
					c4.38-0.71,7.41,1.03,8.26,4.69c0.99,4.25-1.89,7.77-7.47,9.07c-3.63,0.84-6.61,0.41-9.25-1.39l1.34-2.16
					c2.2,1.37,4.63,1.74,7.31,1.12c3.8-0.88,5.67-3.2,4.99-6.14c-0.77-3.33-3.51-4.32-8.68-3.12l-1.93,0.45l-0.53-2.26L406.4,92.18z
					"/>
				<path d="M411.2,126.12c-0.05,1.14-0.17,2.23-0.3,3.14l16.7-3.89c0.61,3.68,0.77,7.06,0.4,8.86c-0.36,1.84-1.2,2.53-3.87,3.16
					c-1.57,0.37-3.71,0.77-5.19,0.99l-1.06-2.13c2.09-0.3,4.11-0.64,5.54-0.97c1.49-0.35,1.88-0.69,2.07-1.74
					c0.14-1,0.13-3.19-0.09-5.52l-14.82,3.45c-0.19,0.92-0.41,1.88-0.66,2.82l-2.57-0.12c0.63-2.15,1.08-4.64,1.36-7.46l-6.63,1.54
					l-0.47-2.02l28.22-6.57l0.47,2.02L411.2,126.12z M424.77,117.98l-19.4,4.52l-1.96-8.44l19.4-4.52L424.77,117.98z M407.34,120.04
					l14.59-3.39l-1.06-4.58l-14.59,3.4L407.34,120.04z"/>
				<path d="M413.57,157.73c-0.25,3.25-0.83,6.27-1.72,8.89l-1.65-2.12c1.26-3.33,1.94-7.28,1.99-11.77l-4.07,0.95l-0.48-2.08
					l4.28-1l-1.48-6.36l2.2-0.51l1.48,6.36l3.09-0.72l0.48,2.08l-3.09,0.72l0.64,2.76c1.59,0.79,3.12,1.69,4.46,2.63l-0.78,2.28
					c-0.72-0.68-1.99-1.7-3.12-2.5l3.4,14.62l-2.2,0.51L413.57,157.73z M431.11,158c2.54,2.29,5.54,3.91,9.14,4.95l-0.91,2.4
					c-3.58-1.23-6.97-3.32-9.44-5.82l2.19,9.42l-2.11,0.49l-2.15-9.24c-1.13,3.61-3.05,6.82-5.81,9.62l-1.91-1.47
					c2.82-2.57,4.83-5.6,6.06-9.21l-5.5,1.28l-2.46-10.58l6.83-1.59l-0.51-2.2l-8.38,1.95l-0.45-1.93l8.38-1.95l-0.68-2.91
					l2.11-0.49l0.68,2.91l8.56-1.99l0.45,1.93l-8.56,1.99l0.51,2.2l7.04-1.64l2.46,10.58L431.11,158z M420.75,151.18l0.59,2.53
					l4.72-1.1l-0.59-2.53L420.75,151.18z M421.76,155.51l0.6,2.58l4.72-1.1l-0.6-2.58L421.76,155.51z M428.17,152.11l4.96-1.15
					l-0.59-2.53l-4.96,1.15L428.17,152.11z M429.2,156.51l4.96-1.15l-0.6-2.58l-4.96,1.15L429.2,156.51z"/>
			</g>
			<g>
				<path d="M535.7,77.52v16.5h4.73v2.35h-4.73v6.01h-2.68v-6.01h-12.57v-2.32l11.9-16.53H535.7z M533.02,85.24
					c0-1.4,0.06-3.78,0.15-5.28h-0.12c-0.82,1.62-1.62,3.02-2.23,3.87l-7.26,10.19h9.46V85.24z"/>
				<path d="M525.76,122.34c-0.3,1.1-0.67,2.13-1.01,2.99h17.14c-0.24,3.72-0.85,7.05-1.62,8.72c-0.76,1.71-1.74,2.2-4.48,2.2
					c-1.62,0-3.78-0.09-5.28-0.21l-0.55-2.32c2.11,0.18,4.15,0.31,5.61,0.31c1.52,0,1.98-0.24,2.41-1.22
					c0.37-0.95,0.85-3.08,1.16-5.4h-15.22c-0.4,0.85-0.82,1.74-1.28,2.59l-2.47-0.7c1.1-1.95,2.1-4.27,3.02-6.95h-6.8v-2.07h28.98
					v2.07H525.76z M540.83,117.49h-19.92v-8.66h19.92V117.49z M523.38,115.54h14.98v-4.7h-14.98V115.54z"/>
				<path d="M520.91,153.66c-0.98,3.11-2.23,5.92-3.69,8.27l-1.13-2.44c1.98-2.96,3.54-6.65,4.61-11.01h-4.18v-2.13h4.39v-6.53h2.26
					v6.53h3.17v2.13h-3.17v2.84c1.37,1.13,2.65,2.35,3.75,3.57l-1.28,2.04c-0.55-0.82-1.56-2.1-2.47-3.14v15.01h-2.26V153.66z
					 M537.93,157.9c1.95,2.81,4.51,5.06,7.78,6.89l-1.43,2.13c-3.2-2.01-6.04-4.82-7.87-7.81v9.67h-2.17v-9.49
					c-1.92,3.26-4.51,5.95-7.84,8.05l-1.53-1.86c3.33-1.86,5.98-4.36,7.99-7.59h-5.64v-10.86h7.02v-2.26h-8.6v-1.98h8.6v-2.99h2.17
					v2.99h8.78v1.98h-8.78v2.26h7.23v10.86H537.93z M529.39,148.9v2.59h4.85v-2.59H529.39z M529.39,153.36v2.65h4.85v-2.65H529.39z
					 M536.4,151.5h5.09v-2.59h-5.09V151.5z M536.4,156.01h5.09v-2.65h-5.09V156.01z"/>
			</g>
		</g>
		<g>
			<circle class="st17" cx="289.64" cy="243.23" r="49.88"/>
			<g>
				<path class="st18" d="M265.82,228.86c-3.89-3.4-8.49-6.74-11.99-8.78l3.13-4.2c3.78,1.99,8.44,5.25,12,8.42L265.82,228.86z
					 M266.64,247.04c-4.23-3.7-8.24-6.57-12.21-8.81l3.09-4.41c4.18,2.2,8.74,5.34,12.36,8.43L266.64,247.04z M262.61,277.1
					c3.22-6.15,6.17-15.04,8.29-25.37l4.89,2.58c-1.81,9.69-4.74,19.09-7.95,26.09L262.61,277.1z M310.47,217.73
					c-2.44,4.87-5.22,8.58-9.5,12.76c6.1,1.29,14.08,1.9,21.79,1.76l-1.81,5.19c-2.59-0.05-3.75-0.13-6-0.31l6.06,34.52l-5.28,0.93
					l-2.69-15.35l-24.31,4.27c0.03,6.72-2.08,11.82-6.92,16.89l-4.78-3.17c5.57-4.99,7.35-11.17,5.75-20.27l-1.89-10.77
					c-1.85,0.9-3.65,1.64-5.52,2.4l-3.8-3.7c7.73-2.86,14.89-6.55,20.22-10.42c-4.79-2.02-9.85-5.14-14.24-8.96l-6.88,1.21
					l-0.79-4.51l20.63-3.62l-1.29-7.36l5.42-0.95l1.29,7.36l21.74-3.81l0.79,4.51L310.47,217.73z M283.45,222.47
					c3.65,2.87,8,5.18,12.4,6.63c3.34-3.02,6.4-6.78,8.36-10.27L283.45,222.47z M296.39,234.59c-2.71,2.12-6.23,4.46-10.52,6.93
					l0.71,4.03l23.68-4.16l-0.84-4.79c-4.46-0.51-8.76-1.4-12.46-2.47L296.39,234.59z M287.33,249.85l0.43,2.43
					c0.38,2.15,0.55,3.13,0.68,4.68l23.82-4.18l-1.24-7.08L287.33,249.85z"/>
			</g>
		</g>
		<g>
			<circle class="st17" cx="418.35" cy="141.75" r="49.88"/>
			<g>
				<path class="st18" d="M394.52,127.38c-3.89-3.4-8.49-6.74-11.99-8.78l3.13-4.2c3.79,1.99,8.44,5.25,12,8.42L394.52,127.38z
					 M395.35,145.56c-4.23-3.7-8.24-6.57-12.21-8.81l3.09-4.41c4.18,2.2,8.74,5.34,12.36,8.43L395.35,145.56z M391.32,175.62
					c3.22-6.15,6.17-15.04,8.29-25.37l4.89,2.58c-1.81,9.69-4.74,19.09-7.95,26.09L391.32,175.62z M439.18,116.25
					c-2.44,4.87-5.22,8.58-9.5,12.76c6.1,1.29,14.08,1.9,21.79,1.76l-1.81,5.19c-2.58-0.05-3.75-0.13-6-0.31l6.06,34.52l-5.28,0.93
					l-2.69-15.35l-24.31,4.27c0.04,6.72-2.08,11.82-6.91,16.89l-4.78-3.17c5.57-4.99,7.35-11.17,5.75-20.27l-1.89-10.76
					c-1.85,0.9-3.65,1.64-5.52,2.4l-3.8-3.7c7.73-2.86,14.89-6.55,20.22-10.42c-4.79-2.02-9.85-5.14-14.24-8.96l-6.88,1.21
					l-0.79-4.51l20.63-3.62l-1.29-7.36l5.42-0.95l1.29,7.36l21.74-3.82l0.79,4.51L439.18,116.25z M412.16,120.99
					c3.65,2.87,8,5.18,12.4,6.63c3.34-3.02,6.4-6.78,8.36-10.27L412.16,120.99z M425.1,133.11c-2.71,2.12-6.23,4.46-10.52,6.93
					l0.71,4.03l23.68-4.16l-0.84-4.79c-4.46-0.51-8.76-1.4-12.46-2.47L425.1,133.11z M416.03,148.37l0.43,2.43
					c0.38,2.15,0.55,3.13,0.68,4.68l23.82-4.18l-1.24-7.08L416.03,148.37z"/>
			</g>
		</g>
	</g>
</g>
</svg>
