<?xml version="1.0" encoding="utf-8"?>
<!-- Generator: Adobe Illustrator 23.0.3, SVG Export Plug-In . SVG Version: 6.00 Build 0)  -->
<svg version="1.1" xmlns="http://www.w3.org/2000/svg" xmlns:xlink="http://www.w3.org/1999/xlink" x="0px" y="0px"
	 viewBox="0 0 700 500" style="enable-background:new 0 0 700 500;" xml:space="preserve">
<style type="text/css">
	.st0{fill:#FFFFFF;}
	.st1{fill:#D8EACC;stroke:#000000;stroke-width:2;}
	.st2{fill:none;stroke:#000000;stroke-width:1.4318;stroke-linecap:round;stroke-linejoin:round;}
	.st3{fill:none;stroke:#000000;stroke-width:1.8264;stroke-linecap:round;stroke-linejoin:round;}
	.st4{fill:none;stroke:#000000;stroke-width:2;stroke-miterlimit:10;}
	.st5{fill:#FFFFFF;stroke:#000000;stroke-width:2;stroke-miterlimit:10;}
	.st6{fill:#FFFFFF;stroke:#000000;stroke-width:1.2664;stroke-miterlimit:10;}
	.st7{fill:#030201;}
	.st8{fill:#242323;}
	.st9{fill:none;stroke:#000000;stroke-width:2;stroke-linejoin:round;stroke-miterlimit:10;}
	.st10{fill:none;stroke:#000000;stroke-width:2;stroke-linejoin:bevel;stroke-miterlimit:10;}
	.st11{fill:#E83589;}
	.st12{fill:none;stroke:#000000;stroke-width:2;stroke-miterlimit:10;stroke-dasharray:5.901,5.901;}
	.st13{fill:none;stroke:#000000;stroke-width:1.5;stroke-linejoin:bevel;stroke-miterlimit:10;}
	.st14{fill:#D8EACC;stroke:#000000;stroke-width:1.5;}
	.st15{fill:none;stroke:#000000;stroke-width:1.5;stroke-miterlimit:10;}
	.st16{fill:none;stroke:#000000;stroke-linejoin:bevel;stroke-miterlimit:10;}
	.st17{fill:#FFFFFF;stroke:#000000;stroke-width:1.5;stroke-miterlimit:10;}
	.st18{fill:#FFFFFF;stroke:#DE0000;stroke-width:2;stroke-miterlimit:10;}
	.st19{fill:#DE0000;}
	.st20{fill:none;stroke:#000000;stroke-miterlimit:10;}
	.st21{fill:none;stroke:#000000;stroke-miterlimit:10;stroke-dasharray:3.0312,3.0312;}
	.st22{fill:url(#);stroke:#000000;stroke-width:1.1494;}
	.st23{fill:#FFFFFF;stroke:#000000;stroke-miterlimit:10;}
	.st24{fill:none;stroke:#000000;stroke-width:3;stroke-miterlimit:10;stroke-dasharray:5;}
	.st25{fill:none;stroke:#FFFFFF;stroke-width:0.75;stroke-linejoin:round;}
	.st26{fill:none;stroke:#000000;stroke-miterlimit:10;stroke-dasharray:5;}
	.st27{fill:none;stroke:#FFFFFF;stroke-width:3;stroke-linejoin:round;}
	.st28{fill:none;stroke:#000000;stroke-width:1.3;stroke-linejoin:bevel;stroke-miterlimit:10;}
	.st29{fill:none;stroke:#000000;stroke-width:1.5;stroke-miterlimit:10;stroke-dasharray:5;}
	.st30{fill:none;stroke:#47738A;stroke-linejoin:bevel;stroke-miterlimit:10;}
	.st31{fill:none;}
	.st32{fill:none;stroke:#FFFFFF;stroke-width:5;stroke-linejoin:round;}
	.st33{fill:#D8EACC;}
	.st34{fill:#D8EACC;stroke:#000000;stroke-width:0.25;}
	.st35{fill:none;stroke:#000000;stroke-width:2;}
	.st36{fill:none;stroke:#FFFFFF;stroke-linejoin:round;}
	.st37{fill:none;stroke:#000000;stroke-width:1.9773;stroke-linecap:round;stroke-linejoin:round;}
	.st38{fill:none;stroke:#000000;stroke-width:2.5222;stroke-linecap:round;stroke-linejoin:round;}
	.st39{fill:#FFFFFF;stroke:#000000;stroke-width:1.0238;stroke-miterlimit:10;}
	.st40{fill:#FFFFFF;stroke:#000000;stroke-width:1.089;stroke-miterlimit:10;}
	.st41{fill:#FFFFFF;stroke:#000000;stroke-width:1.2553;stroke-miterlimit:10;}
	.st42{fill:url(#);}
	.st43{fill:none;stroke:#000000;stroke-width:1.7765;stroke-linejoin:bevel;stroke-miterlimit:10;}
	.st44{fill:none;stroke:#000000;stroke-width:2.3687;stroke-miterlimit:10;}
	.st45{fill:#D8EACC;stroke:#000000;stroke-width:2.0455;}
	.st46{fill:none;stroke:#000000;stroke-width:2.0455;stroke-linecap:round;stroke-miterlimit:10;stroke-dasharray:0,6.1366;}
	.st47{fill:#FFFFFF;stroke:#000000;stroke-width:2.3687;stroke-miterlimit:10;}
	.st48{fill:#FFFFFF;stroke:#000000;stroke-width:1.4998;stroke-miterlimit:10;}
	.st49{fill:#FFFFFF;stroke:#000000;stroke-width:0.6137;stroke-miterlimit:10;}
	.st50{fill:url(#);stroke:#000000;stroke-width:1.0228;}
	.st51{fill:none;stroke:#FFFFFF;stroke-width:4.0911;stroke-linejoin:round;}
	.st52{fill:none;stroke:#000000;stroke-width:2.4559;stroke-linecap:round;stroke-linejoin:round;}
	.st53{fill:none;stroke:#000000;stroke-width:3.1327;stroke-linecap:round;stroke-linejoin:round;}
	.st54{fill:none;stroke:#FFFFFF;stroke-width:4;stroke-linejoin:round;}
</style>
<g id="レイヤー_5">
	<rect x="-1164.06" y="-4357.26" class="st0" width="5667.56" height="5248"/>
</g>
<g id="レイヤー_1">
</g>
<g id="レイヤー_3">
</g>
<g id="レイヤー_4">
</g>
<g id="レイヤー_2">
	<g>
		
			<rect x="136.27" y="90.97" transform="matrix(6.123234e-17 -1 1 6.123234e-17 17.1884 294.6607)" class="st11" width="39.3" height="95.53"/>
		<g>
			<path class="st0" d="M125.39,144.58h15.55v2.1h-15.55v1.41h-2.32v-18.56h17.34v2.01h-15.01V144.58z M126.08,142.24
				c2.12-1.08,3.67-2.24,5.41-4.02c-1.33-1.12-3.09-2.38-4.83-3.53l1.41-1.58c1.72,1.08,3.21,2.14,4.85,3.4
				c1.02-1.35,1.85-2.72,2.7-4.44l2.09,1.02c-0.93,1.84-1.97,3.5-3.01,4.85c1.16,0.95,2.7,2.32,4.25,3.79l-1.64,1.72
				c-1.35-1.35-2.86-2.74-4.08-3.79c-1.74,1.85-3.55,3.19-5.76,4.36L126.08,142.24z"/>
			<path class="st0" d="M154.55,131.35h-8.69v-1.87h19.7v1.87h-8.81v1.99h4.44v10.35h-10.97v-10.35h4.33V131.35z M162.77,145.04
				v-11.7h2.12v14.74h-2.12v-1.14h-14.12v1.14h-2.09v-14.74h2.09v11.7H162.77z M152.19,135.04v2.51h2.45v-2.51H152.19z
				 M152.19,139.15v2.8h2.45v-2.8H152.19z M156.67,137.55h2.55v-2.51h-2.55V137.55z M156.67,141.95h2.55v-2.8h-2.55V141.95z"/>
			<path class="st0" d="M188.75,148.09h-2.26v-1.06h-13.44v1.06h-2.24v-18.75h17.94V148.09z M173.06,145.08h13.44v-13.85h-13.44
				V145.08z M184.57,144.19c-1.31-0.81-2.84-1.68-4.23-2.38c-1.51,1.26-3.34,2.28-5.37,3.01l-1.29-1.55
				c1.89-0.6,3.23-1.31,4.67-2.45l-0.54-0.25c-1.35-0.66-2.34-1.1-4.11-1.83l0.93-1.53c2.09,0.77,3.3,1.25,5.29,2.18
				c1.68-1.78,3.09-4.33,3.86-7.03l2.01,0.62c-0.85,2.63-2.38,5.49-3.94,7.34c0.1,0.06,0.1,0.06,0.19,0.1
				c1.04,0.52,2.18,1.14,3.75,2.07L184.57,144.19z M175.84,137.41c-0.48-1.62-1.04-2.99-1.66-4.06l1.91-0.77
				c0.66,1.16,1.22,2.49,1.72,4.04L175.84,137.41z M179.4,136.6c-0.5-1.58-1.06-2.92-1.68-4.09l1.82-0.73c0.75,1.33,1.39,2.8,1.72,4
				L179.4,136.6z"/>
		</g>
	</g>
	<polyline class="st37" points="181.21,213.35 181.21,197.13 190.75,213.35 190.75,197.13 	"/>
	<g>
		<circle class="st38" cx="154.73" cy="246.98" r="33.63"/>
		<polygon points="142.53,261.35 148.21,278.92 175.97,221.97 124.27,258.59 		"/>
	</g>
	<g>
		<polyline class="st13" points="239.83,414.45 244.89,408.7 244.89,477.37 249.53,471.36 		"/>
		<g>
			<g>
				<path d="M259.41,463.37c-0.66,1.65-1.69,2.51-3.02,2.51c-1.89,0-3.26-1.75-3.26-4.16c0-2.38,1.34-4.12,3.16-4.12
					c0.87,0,1.65,0.38,2.15,1.05c0.46,0.59,0.69,1.07,0.84,1.68h0.05c0.61-1.98,1.78-3.11,3.28-3.11c1.98,0,3.34,1.83,3.34,4.51
					c0,2.71-1.3,4.5-3.28,4.5c-1.48,0-2.62-1.02-3.2-2.87H259.41z M256.41,459.04c-1.27,0-2.19,1.13-2.19,2.67
					c0,1.59,0.9,2.68,2.19,2.68c0.64,0,1.08-0.2,1.43-0.63c0.21-0.27,0.43-0.63,0.61-0.99c0.14-0.32,0.37-1.01,0.35-1.07
					C258.43,460.08,257.5,459.04,256.41,459.04z M261.01,464.04c0.35,0.43,0.91,0.69,1.51,0.69c1.37,0,2.24-1.16,2.24-3
					c0-1.75-0.95-2.96-2.3-2.96c-0.58,0-1.1,0.26-1.52,0.76c-0.35,0.41-0.64,0.95-0.85,1.55c-0.08,0.21-0.21,0.72-0.21,0.75
					C260.1,462.73,260.39,463.28,261.01,464.04z"/>
				<path d="M263.53,453.13h2.18v2.18h-2.18V453.13z"/>
				<path d="M259.61,448.87c-1.14-0.67-1.8-1.84-1.8-3.26c0-2.23,1.69-3.96,3.89-3.96c2.48,0,4.24,1.72,4.24,4.15
					c0,1.52-0.63,2.73-1.86,3.58c-1.07,0.73-2.13,1.04-3.72,1.04c-1.54,0-3.38-0.73-4.74-1.88c-1.31-1.1-2.24-2.58-2.85-4.5
					l1.08-0.55c1.11,3.11,3.17,5.06,5.76,5.44V448.87z M261.73,448.72c1.62,0,3-1.33,3-2.88c0-1.57-1.25-2.73-2.94-2.73
					c-1.69,0-2.85,1.11-2.85,2.74C258.94,447.34,260.26,448.72,261.73,448.72z"/>
				<path d="M259.53,431.98c1.3,0.63,2.09,1.91,2.09,3.32c0,2.3-1.71,3.98-4.05,3.98c-1.16,0-2.3-0.46-3.14-1.25
					c-0.87-0.82-1.3-1.83-1.3-3.05c0-2.73,2.16-4.45,5.59-4.45c4.77,0,6.95,2.03,7.41,6.88l-1.13,0.63
					c-0.17-3.92-1.87-5.82-5.47-6.11V431.98z M257.44,437.84c1.78,0,3.02-1.1,3.02-2.71c0-0.81-0.41-1.65-1.07-2.16
					c-0.61-0.49-1.33-0.76-1.94-0.76c-0.79,0-1.69,0.34-2.3,0.85c-0.58,0.5-0.85,1.13-0.85,1.95
					C254.3,436.57,255.71,437.84,257.44,437.84z"/>
				<path d="M259.53,419.15c3.96,0,6.4,1.75,6.4,4.57c0,2.82-2.45,4.57-6.4,4.57c-3.96,0-6.4-1.75-6.4-4.59
					C253.13,420.91,255.58,419.15,259.53,419.15z M259.53,426.81c3.2,0,5.18-1.17,5.18-3.09c0-1.89-1.98-3.06-5.18-3.06
					c-3.23,0-5.2,1.17-5.2,3.09C254.33,425.63,256.33,426.81,259.53,426.81z"/>
			</g>
		</g>
		<g>
			<g>
				<path d="M367.3,424.2h8.22v1.3h-3.34v11.83c0,1.12-0.41,1.5-1.62,1.5c-0.57,0-1.66-0.05-2.48-0.11l-0.3-1.36
					c0.8,0.09,1.75,0.14,2.43,0.14c0.46,0,0.59-0.13,0.59-0.63v-11.38h-3.5v9.36h-6.69v1.53h-1.27v-13.82h7.96V424.2z
					 M360.61,427.86h2.03v-4.08h-2.03V427.86z M360.61,433.66h2.03v-4.64h-2.03V433.66z M366.05,423.78h-2.14v4.08h2.14V423.78z
					 M366.05,429.02h-2.14v4.64h2.14V429.02z"/>
				<path d="M382.56,435.12c1.44,1.45,3.1,2,6.1,2.02h7.01c-0.18,0.39-0.32,0.8-0.43,1.27h-6.78c-3.12-0.04-4.85-0.62-6.39-2.18
					c-0.8,0.95-1.82,1.91-2.78,2.62l-0.78-1.27c0.84-0.5,1.78-1.21,2.69-2.05v-4.78h-2.64v-1.21h4V435.12z M381.79,426.22
					c-0.84-1.19-1.75-2.26-2.6-3.03l0.98-0.82c1.03,0.91,1.94,1.89,2.68,2.91L381.79,426.22z M383.54,425.27v-1.12h3.16
					c-0.3-0.57-0.7-1.16-1.14-1.71l1.25-0.48c0.57,0.8,0.93,1.43,1.28,2.19h2.32c0.34-0.63,0.75-1.57,0.98-2.23l1.41,0.36
					c-0.29,0.62-0.66,1.34-1.02,1.87h3.34v1.12h-5.15c-0.09,0.3-0.37,1.05-0.55,1.48h4.48v9.1h-9.08v-9.1h3.28
					c0.21-0.59,0.37-1.07,0.46-1.48H383.54z M386.12,429.41h6.42v-1.64h-6.42V429.41z M386.12,432h6.42v-1.62h-6.42V432z
					 M386.12,434.8h6.42v-1.78h-6.42V434.8z"/>
				<path d="M289.9,452.66c-0.87-1.03-1.85-2-2.78-2.75l0.95-0.98c1.02,0.75,2.03,1.71,2.84,2.67L289.9,452.66z M287.55,459.92
					c1.05-1.39,2.18-3.48,3.14-5.85l1.12,0.87c-0.87,2.23-2,4.42-3.12,6.03L287.55,459.92z M290.55,448.11
					c-0.68-0.89-1.75-1.98-2.71-2.78l0.93-0.93c0.96,0.71,2.02,1.71,2.78,2.66L290.55,448.11z M297.61,453.18l-0.02,0.04
					c-0.52,1.52-1.62,3.91-2.53,5.53l-0.07,0.16l1.32-0.11c1.32-0.11,3.34-0.32,4.92-0.54c-0.55-0.93-1.19-1.89-1.87-2.84l1.12-0.62
					c1.44,1.84,2.66,3.69,3.51,5.4l-1.27,0.8c-0.41-0.84-0.59-1.19-0.89-1.73l-0.18,0.04c-1.98,0.39-6.19,0.95-9.11,1.2l-0.46-1.41
					l0.71-0.04l0.21-0.02c0.04,0,0.25-0.02,0.48-0.04c0.95-1.71,1.94-3.92,2.64-5.92h-4.49v-1.19h5.44v-3.6h-4.48v-1.23h4.48v-2.87
					h1.39v2.87h4.74v1.23h-4.74v3.6h5.67v1.19h-6.49L297.61,453.18z"/>
				<path d="M316.33,445.35V455h2.76v1.37h-2.76v3.51h-1.57v-3.51h-7.35v-1.36l6.96-9.67H316.33z M314.76,449.86
					c0-0.82,0.04-2.21,0.09-3.09h-0.07c-0.48,0.95-0.95,1.77-1.3,2.27l-4.25,5.96h5.53V449.86z"/>
				<path d="M324.1,458.48c0.46-1.91,2.03-3.82,4.44-5.42l0.46-0.3c2.5-1.62,3.16-2.41,3.16-3.71c0-1.46-1.21-2.44-3.05-2.44
					c-1.5,0-2.55,0.55-3.69,1.91l-1.12-0.95c1.36-1.68,2.8-2.39,4.89-2.39c2.78,0,4.82,1.64,4.82,3.91c0,1.8-0.7,2.64-3.89,4.67
					l-0.64,0.41c-2.12,1.39-3.46,2.93-3.62,4.21h8.37v1.52H324.1V458.48z"/>
				<path d="M347.68,461.14h-1.37v-5.71c-1.62,2.03-4.12,3.85-6.94,5l-0.82-1.14c2.68-1,4.89-2.41,6.6-4.19h-6.53v-1.2h7.69v-1.94
					h1.37v1.94h7.81v1.2h-6.6c1.64,1.53,3.85,2.78,6.71,3.78l-0.87,1.25c-3.05-1.27-5.33-2.8-7.05-4.8V461.14z M352.52,445.87
					c-0.96,1.3-2.43,2.62-4.1,3.73c1.62,0.86,3.62,1.48,6.78,2.11l-0.73,1.21c-2.55-0.52-5.3-1.48-7.26-2.55
					c-2.1,1.23-4.78,2.19-7.47,2.73l-0.71-1.11c2.71-0.48,5.32-1.34,7.08-2.34c-0.7-0.5-1.71-1.41-2.53-2.25
					c-1,0.78-1.94,1.37-3.1,1.91l-0.87-0.93c2.16-0.89,4.25-2.57,5.33-4.26l1.36,0.27c-0.27,0.41-0.34,0.48-0.59,0.82h6.1
					L352.52,445.87z M344.74,446.31c-0.13,0.14-0.18,0.18-0.29,0.29c0.75,0.84,1.77,1.68,2.8,2.34c1.52-1.02,2.53-1.86,3.19-2.62
					H344.74z"/>
				<path d="M364.55,447.03c-0.8,0.36-2.37,0.84-3.46,1.07l-0.39-1.34c1.64-0.34,3.48-1.02,4.32-1.59h1.2v14.72h-1.66V447.03z"/>
				<path d="M378.13,455.48l0.11-0.04l0.07-0.04c0.66-0.21,1.5-0.54,2.02-0.77l0.14,1.27c-1.5,0.68-3.91,1.57-5.76,2.11l-0.5-1.37
					c1-0.27,1.14-0.3,2.1-0.59l0.43-0.13v-8.38h-2.32v-1.27h5.65v1.27h-1.94V455.48z M379.4,460.16c1.41-0.55,2.8-1.46,3.75-2.46
					l1.09,0.73c-1.11,1.14-2.53,2.18-3.85,2.76L379.4,460.16z M389.76,447.97v9.51h-8.56v-9.51h2.78c0.2-0.59,0.36-1.21,0.48-1.82
					H380v-1.18h11.02v1.18h-5.17c-0.2,0.73-0.43,1.39-0.61,1.82H389.76z M382.52,449.06v1.73h5.9v-1.73H382.52z M382.52,453.5h5.9
					v-1.66h-5.9V453.5z M382.52,456.37h5.9v-1.84h-5.9V456.37z M390.05,461.12c-1.05-0.96-2.34-1.93-3.57-2.68l0.98-0.79
					c1.53,0.87,2.59,1.59,3.64,2.46L390.05,461.12z"/>
				<path d="M400.24,447.03c-0.8,0.36-2.37,0.84-3.46,1.07l-0.39-1.34c1.64-0.34,3.48-1.02,4.32-1.59h1.2v14.72h-1.66V447.03z"/>
				<path d="M415.44,452.88c-0.18,0.64-0.39,1.25-0.59,1.75h10.02c-0.14,2.18-0.5,4.12-0.95,5.1c-0.45,1-1.02,1.28-2.62,1.28
					c-0.95,0-2.21-0.05-3.09-0.12l-0.32-1.36c1.23,0.11,2.43,0.18,3.28,0.18c0.89,0,1.16-0.14,1.41-0.71
					c0.21-0.55,0.5-1.8,0.68-3.16h-8.9c-0.23,0.5-0.48,1.02-0.75,1.52l-1.44-0.41c0.64-1.14,1.23-2.5,1.77-4.07h-3.98v-1.21h16.95
					v1.21H415.44z M424.26,450.04h-11.65v-5.07h11.65V450.04z M414.05,448.9h8.76v-2.75h-8.76V448.9z"/>
				<path d="M433.95,457.43c1.44,1.45,3.1,2,6.1,2.02h7.01c-0.18,0.39-0.32,0.8-0.43,1.27h-6.78c-3.12-0.04-4.85-0.62-6.39-2.18
					c-0.8,0.95-1.82,1.91-2.78,2.62l-0.78-1.27c0.84-0.5,1.78-1.21,2.69-2.05v-4.78h-2.64v-1.21h4V457.43z M433.18,448.53
					c-0.84-1.19-1.75-2.26-2.6-3.03l0.98-0.82c1.03,0.91,1.94,1.89,2.68,2.91L433.18,448.53z M434.93,447.58v-1.12h3.16
					c-0.3-0.57-0.7-1.16-1.14-1.71l1.25-0.48c0.57,0.8,0.93,1.43,1.28,2.19h2.32c0.34-0.63,0.75-1.57,0.98-2.23l1.41,0.36
					c-0.29,0.62-0.66,1.34-1.02,1.87h3.34v1.12h-5.15c-0.09,0.3-0.37,1.05-0.55,1.48h4.48v9.1h-9.08v-9.1h3.28
					c0.21-0.59,0.37-1.07,0.46-1.48H434.93z M437.52,451.72h6.42v-1.64h-6.42V451.72z M437.52,454.31h6.42v-1.62h-6.42V454.31z
					 M437.52,457.11h6.42v-1.78h-6.42V457.11z"/>
				<path d="M456.83,450.72h-2.3v2.82h2.32v1.18h-2.32v3.73c0.48-0.13,1.84-0.52,2.73-0.8l0.13,1.16c-2.12,0.75-4.69,1.48-7.03,2
					l-0.46-1.27l0.95-0.2v-6.96h1.21v6.69l0.45-0.11l0.43-0.11l0.37-0.09v-8.04h-2.6v-5.8h6.14V450.72z M451.96,449.56h3.6v-3.44
					h-3.6V449.56z M465.6,446.06c-0.68,1.66-1.55,3.09-2.62,4.3c1.12,0.98,2.52,1.84,4.08,2.48l-0.68,1.18
					c-1.61-0.71-3.1-1.69-4.26-2.78c-1.3,1.23-2.84,2.21-4.62,2.94l-0.71-1.11c1.61-0.52,3.16-1.48,4.46-2.73
					c-0.59-0.66-1.19-1.5-1.61-2.27l-0.07,0.09l-0.04,0.05c-0.46,0.59-1.02,1.16-1.57,1.62l-0.87-0.95
					c1.34-1.02,2.64-2.91,3.26-4.73l1.32,0.21c-0.2,0.46-0.25,0.61-0.39,0.91h3.46L465.6,446.06z M465.53,461.14h-1.3v-1.05h-4.55
					v1.05h-1.3v-7.03h7.15V461.14z M459.68,458.91h4.55v-3.6h-4.55V458.91z M460.3,447.12c0.5,0.89,0.98,1.55,1.77,2.39
					c0.8-0.93,1.41-1.87,1.93-3.01h-3.32c-0.07,0.13-0.14,0.25-0.3,0.52L460.3,447.12z"/>
			</g>
		</g>
		<polygon class="st1" points="244.85,30.74 244.85,167.31 388.54,167.31 388.54,409.87 493.9,409.87 493.9,167.31 493.9,30.74 		
			"/>
		<polygon class="st1" points="394.98,409.87 244.85,409.87 244.85,167.31 410.88,167.31 410.88,389.13 		"/>
		<g>
			<g>
				<g>
					<path class="st0" d="M316.85,317.74c5.48-0.65,10.96-0.65,16.44,0c6.31,0.79,11.04,7.2,10.7,13.04
						c-0.97,19.14-0.96,38.28,0.03,57.42c0.33,5.55-4.16,11.62-10.15,12.42c-5.86,0.74-11.73,0.74-17.59,0
						c-5.99-0.8-10.48-6.87-10.15-12.42c0.99-19.14,1-38.28,0.03-57.42C305.81,324.93,310.53,318.53,316.85,317.74z"/>
					<path class="st7" d="M325.07,317.04c2.76,0,5.51,0.16,8.25,0.48c6.16,0.78,11.25,6.97,10.88,13.26
						c-0.96,19.04-0.96,38.35,0.03,57.39c0.35,5.95-4.48,11.86-10.33,12.64c-5.86,0.74-11.79,0.74-17.65,0
						c-5.86-0.78-10.68-6.69-10.33-12.65c0.98-19.04,0.99-38.35,0.03-57.39c-0.37-6.29,4.72-12.49,10.88-13.26h0
						C319.56,317.2,322.31,317.04,325.07,317.04z M325.07,400.96c2.93,0,5.86-0.18,8.77-0.55c5.65-0.76,10.3-6.46,9.96-12.2
						c-0.98-19.06-0.99-38.38-0.03-57.44c0.35-6.08-4.56-12.07-10.51-12.82c-5.44-0.64-10.95-0.64-16.39,0
						c-5.95,0.75-10.87,6.74-10.51,12.82c0.97,19.05,0.96,38.38-0.03,57.44c-0.34,5.75,4.32,11.45,9.97,12.2
						C319.21,400.77,322.14,400.96,325.07,400.96z"/>
				</g>
			</g>
			<g>
				<path class="st8" d="M311.96,328.51h26.23c-0.03-0.31-0.07-0.61-0.11-0.92h-26.01C312.02,327.89,311.99,328.2,311.96,328.51z"/>
			</g>
			<g>
				<path class="st7" d="M309.28,337.9l0.23,0.78c1.63,5.6,2.52,13.02,2.52,20.9c0,0.86-0.01,1.74-0.03,2.61l-0.01,0.06l-3.98,9.36
					l-0.02-0.74c-0.05-2.17-0.08-4.32-0.08-6.4c0-8.85,0.43-17.52,1.29-25.77L309.28,337.9z M311.68,362.15
					c0.02-0.86,0.03-1.73,0.03-2.58c0-7.47-0.81-14.53-2.28-20c-0.8,7.99-1.2,16.36-1.2,24.9c0,1.83,0.02,3.73,0.06,5.65
					L311.68,362.15z"/>
			</g>
			<g>
				<path class="st7" d="M340.86,337.9l0.08,0.81c0.85,8.25,1.29,16.92,1.29,25.77c0,2.05-0.03,4.2-0.08,6.4l-0.02,0.74l-3.99-9.42
					c-0.02-0.87-0.03-1.75-0.03-2.61c0-7.88,0.9-15.3,2.52-20.9L340.86,337.9z M341.85,370.13c0.04-1.93,0.06-3.83,0.06-5.65
					c0-8.54-0.4-16.91-1.2-24.9c-1.47,5.47-2.28,12.53-2.28,20c0,0.85,0.01,1.72,0.03,2.58L341.85,370.13z"/>
			</g>
			<g>
				<path class="st0" d="M308.29,373.41v13.77c0,8.08,6.6,14.69,14.67,14.69h4.22c8.07,0,14.67-6.61,14.67-14.69v-13.77
					c-5.49,1.26-11.14,1.91-16.78,1.89C319.42,375.32,313.78,374.67,308.29,373.41z"/>
				<path d="M308.13,373.21l0.19,0.04c5.53,1.27,11.16,1.92,16.75,1.89c0.07,0,0.15,0,0.22,0c5.51,0,11.07-0.64,16.53-1.89
					l0.19-0.04v13.97c0,8.19-6.65,14.85-14.83,14.85h-4.22c-8.18,0-14.83-6.66-14.83-14.85V373.21z M327.18,401.71
					c8,0,14.52-6.52,14.52-14.54v-13.57c-5.42,1.23-10.94,1.85-16.4,1.85c-0.15,0-0.3,0-0.44,0c-5.46,0-10.98-0.62-16.4-1.85v13.57
					c0,8.01,6.51,14.54,14.52,14.54H327.18z"/>
			</g>
			<g>
				<path class="st0" d="M312.94,341.17c8.08,1.22,16.17,1.22,24.25,0c1.12-4.22,1.46-8.45,1.03-12.67h-26.32
					C311.48,332.72,311.82,336.95,312.94,341.17z"/>
				<path d="M311.76,328.34h26.61l0.01,0.14c0.43,4.23,0.08,8.51-1.04,12.73l-0.03,0.1l-0.1,0.02c-8.06,1.22-16.24,1.22-24.3,0
					l-0.1-0.02l-0.03-0.1c-1.12-4.22-1.47-8.51-1.04-12.73L311.76,328.34z M338.09,328.66h-26.03c-0.4,4.11-0.06,8.27,1.02,12.37
					c7.96,1.19,16.04,1.19,24,0C338.14,336.92,338.49,332.76,338.09,328.66z"/>
			</g>
			<g>
				<path class="st8" d="M311.91,328.5h26.32c-0.03-0.31-0.07-0.61-0.11-0.92h-26.11C311.98,327.88,311.94,328.19,311.91,328.5z"/>
			</g>
			<g>
				<path class="st0" d="M338.12,327.58v-6.61c-3.21-1.73-7.87-2.82-13.05-2.82c-5.18,0-9.84,1.09-13.05,2.82v6.61H338.12z"/>
				<path d="M325.07,317.99c4.99,0,9.78,1.04,13.13,2.84l0.08,0.05v6.86h-26.43v-6.86l0.08-0.05
					C315.29,319.02,320.07,317.99,325.07,317.99z M337.96,321.07c-3.3-1.75-7.99-2.76-12.89-2.76c-4.9,0-9.59,1.01-12.89,2.76v6.35
					h25.79V321.07z"/>
			</g>
			<g>
				<path class="st8" d="M308.39,373.49l-0.32,0.89c11.1,3.07,22.89,3.07,34,0l-0.32-0.89C330.84,376.44,319.3,376.44,308.39,373.49
					z"/>
			</g>
			<g>
				<path class="st0" d="M341.28,373.54l-4.08-11.16h-24.25l-4.08,11.16C319.46,376.4,330.68,376.4,341.28,373.54z"/>
				<path d="M312.83,362.21h24.48l4.18,11.43l-0.17,0.05c-10.63,2.88-21.87,2.88-32.5,0l-0.17-0.05L312.83,362.21z M337.08,362.53
					h-24.03l-3.98,10.9c10.47,2.8,21.52,2.8,31.99,0L337.08,362.53z"/>
			</g>
			<g>
				<g>
					<path class="st7" d="M312.06,320.98h-0.17c-1.98,0-3.59,1.62-3.59,3.59v0.27C309.13,323.17,310.45,321.82,312.06,320.98z"/>
				</g>
				<g>
					<path class="st7" d="M338.07,320.98h0.17c1.98,0,3.59,1.62,3.59,3.59v0.27C341.01,323.17,339.69,321.82,338.07,320.98z"/>
				</g>
			</g>
			<g>
				<g>
					<path class="st0" d="M303.82,364.68c-0.12,0.49,0,1.07,0.25,1.29l2.93,2.53c0.05,0.04,0.1,0.07,0.15,0.08v-2.36l-3.27-1.83
						L303.82,364.68z"/>
					<path class="st7" d="M303.79,364.14l3.53,1.98v2.65l-0.19-0.04c-0.08-0.02-0.16-0.05-0.23-0.12l-2.93-2.53
						c-0.3-0.26-0.43-0.89-0.3-1.44L303.79,364.14z M307,366.31l-3-1.68l-0.02,0.09c-0.11,0.47,0.02,0.97,0.2,1.13l2.82,2.43V366.31
						z"/>
				</g>
				<g>
					<path class="st0" d="M346.32,364.68c0.12,0.49,0,1.07-0.25,1.29l-2.93,2.53c-0.05,0.04-0.1,0.07-0.15,0.08v-2.36l3.27-1.83
						L346.32,364.68z"/>
					<path class="st7" d="M346.35,364.14l0.12,0.5c0.13,0.55,0,1.18-0.3,1.44l-2.93,2.53c-0.07,0.06-0.15,0.1-0.23,0.12l-0.19,0.04
						v-2.65L346.35,364.14z M343.14,368.28l2.82-2.43c0.18-0.16,0.31-0.66,0.2-1.13l-0.02-0.09l-3,1.68V368.28z"/>
				</g>
			</g>
			<g>
				<g>
					<path class="st7" d="M316.43,381.9c0,5.28,0.94,9.93,2.35,12.61c-1.05-2.75-1.71-6.74-1.71-11.18c0-2.14,0.15-4.18,0.43-6.03
						h-0.83C316.52,378.76,316.43,380.3,316.43,381.9z"/>
				</g>
				<g>
					<path class="st7" d="M333.71,381.9c0,5.28-0.94,9.93-2.35,12.61c1.05-2.75,1.71-6.74,1.71-11.18c0-2.14-0.15-4.18-0.43-6.03
						h0.83C333.62,378.76,333.71,380.3,333.71,381.9z"/>
				</g>
			</g>
			<g>
				
					<rect x="312.94" y="341.17" transform="matrix(-1 -1.224647e-16 1.224647e-16 -1 650.1386 703.5383)" class="st0" width="24.25" height="21.21"/>
				<path d="M312.78,341.01h24.57v21.52h-24.57V341.01z M337.04,341.33H313.1v20.89h23.94V341.33z"/>
			</g>
		</g>
		<g>
			<g>
				<g>
					<path class="st0" d="M443.03,317.74c5.48-0.65,10.96-0.65,16.44,0c6.31,0.79,11.04,7.2,10.7,13.04
						c-0.97,19.14-0.96,38.28,0.03,57.42c0.33,5.55-4.16,11.62-10.15,12.42c-5.86,0.74-11.73,0.74-17.59,0
						c-5.99-0.8-10.48-6.87-10.15-12.42c0.99-19.14,1-38.28,0.03-57.42C431.99,324.93,436.71,318.53,443.03,317.74z"/>
					<path class="st7" d="M451.25,317.04c2.76,0,5.51,0.16,8.25,0.48c6.16,0.78,11.25,6.97,10.88,13.26
						c-0.96,19.04-0.96,38.35,0.03,57.39c0.35,5.95-4.48,11.86-10.33,12.64c-5.86,0.74-11.79,0.74-17.65,0
						c-5.86-0.78-10.68-6.69-10.33-12.65c0.98-19.04,0.99-38.35,0.03-57.39c-0.37-6.29,4.72-12.49,10.88-13.26h0
						C445.74,317.2,448.5,317.04,451.25,317.04z M451.25,400.96c2.93,0,5.86-0.18,8.77-0.55c5.65-0.76,10.3-6.46,9.96-12.2
						c-0.98-19.06-0.99-38.38-0.03-57.44c0.35-6.08-4.56-12.07-10.51-12.82c-5.44-0.64-10.95-0.64-16.39,0
						c-5.95,0.75-10.87,6.74-10.51,12.82c0.97,19.05,0.96,38.38-0.03,57.44c-0.34,5.75,4.32,11.45,9.97,12.2
						C445.39,400.77,448.32,400.96,451.25,400.96z"/>
				</g>
			</g>
			<g>
				<path class="st8" d="M438.14,328.51h26.23c-0.03-0.31-0.07-0.61-0.11-0.92h-26.01C438.2,327.89,438.17,328.2,438.14,328.51z"/>
			</g>
			<g>
				<path class="st7" d="M435.46,337.9l0.23,0.78c1.63,5.6,2.52,13.02,2.52,20.9c0,0.86-0.01,1.74-0.03,2.61l-0.01,0.06l-3.98,9.36
					l-0.02-0.74c-0.05-2.17-0.08-4.32-0.08-6.4c0-8.85,0.43-17.52,1.29-25.77L435.46,337.9z M437.86,362.15
					c0.02-0.86,0.03-1.73,0.03-2.58c0-7.47-0.81-14.53-2.28-20c-0.8,7.99-1.2,16.36-1.2,24.9c0,1.83,0.02,3.73,0.06,5.65
					L437.86,362.15z"/>
			</g>
			<g>
				<path class="st7" d="M467.04,337.9l0.08,0.81c0.85,8.25,1.29,16.92,1.29,25.77c0,2.05-0.03,4.2-0.08,6.4l-0.02,0.74l-3.99-9.42
					c-0.02-0.87-0.03-1.75-0.03-2.61c0-7.88,0.9-15.3,2.52-20.9L467.04,337.9z M468.03,370.13c0.04-1.93,0.06-3.83,0.06-5.65
					c0-8.54-0.4-16.91-1.2-24.9c-1.47,5.47-2.28,12.53-2.28,20c0,0.85,0.01,1.72,0.03,2.58L468.03,370.13z"/>
			</g>
			<g>
				<path class="st0" d="M434.47,373.41v13.77c0,8.08,6.6,14.69,14.67,14.69h4.22c8.07,0,14.67-6.61,14.67-14.69v-13.77
					c-5.49,1.26-11.14,1.91-16.78,1.89C445.6,375.32,439.96,374.67,434.47,373.41z"/>
				<path d="M434.31,373.21l0.19,0.04c5.53,1.27,11.16,1.92,16.75,1.89c0.07,0,0.15,0,0.22,0c5.51,0,11.07-0.64,16.53-1.89
					l0.19-0.04v13.97c0,8.19-6.65,14.85-14.83,14.85h-4.22c-8.18,0-14.83-6.66-14.83-14.85V373.21z M453.36,401.71
					c8,0,14.52-6.52,14.52-14.54v-13.57c-5.42,1.23-10.94,1.85-16.4,1.85c-0.15,0-0.3,0-0.44,0c-5.46,0-10.98-0.62-16.4-1.85v13.57
					c0,8.01,6.51,14.54,14.52,14.54H453.36z"/>
			</g>
			<g>
				<path class="st0" d="M439.12,341.17c8.08,1.22,16.17,1.22,24.25,0c1.12-4.22,1.46-8.45,1.03-12.67h-26.32
					C437.66,332.72,438.01,336.95,439.12,341.17z"/>
				<path d="M437.95,328.34h26.61l0.01,0.14c0.43,4.23,0.08,8.51-1.04,12.73l-0.03,0.1l-0.1,0.02c-8.06,1.22-16.24,1.22-24.3,0
					l-0.1-0.02l-0.03-0.1c-1.12-4.22-1.47-8.51-1.04-12.73L437.95,328.34z M464.27,328.66h-26.03c-0.4,4.11-0.06,8.27,1.02,12.37
					c7.96,1.19,16.04,1.19,24,0C464.32,336.92,464.67,332.76,464.27,328.66z"/>
			</g>
			<g>
				<path class="st8" d="M438.09,328.5h26.32c-0.03-0.31-0.07-0.61-0.11-0.92H438.2C438.16,327.88,438.12,328.19,438.09,328.5z"/>
			</g>
			<g>
				<path class="st0" d="M464.3,327.58v-6.61c-3.21-1.73-7.87-2.82-13.05-2.82s-9.84,1.09-13.05,2.82v6.61H464.3z"/>
				<path d="M451.25,317.99c4.99,0,9.78,1.04,13.13,2.84l0.08,0.05v6.86h-26.43v-6.86l0.08-0.05
					C441.47,319.02,446.26,317.99,451.25,317.99z M464.15,321.07c-3.3-1.75-7.99-2.76-12.89-2.76s-9.59,1.01-12.89,2.76v6.35h25.79
					V321.07z"/>
			</g>
			<g>
				<path class="st8" d="M434.58,373.49l-0.32,0.89c11.1,3.07,22.89,3.07,34,0l-0.32-0.89
					C457.02,376.44,445.48,376.44,434.58,373.49z"/>
			</g>
			<g>
				<path class="st0" d="M467.46,373.54l-4.08-11.16h-24.25l-4.08,11.16C445.64,376.4,456.86,376.4,467.46,373.54z"/>
				<path d="M439.01,362.21h24.48l4.18,11.43l-0.17,0.05c-10.63,2.88-21.87,2.88-32.5,0l-0.17-0.05L439.01,362.21z M463.27,362.53
					h-24.03l-3.98,10.9c10.47,2.8,21.52,2.8,31.99,0L463.27,362.53z"/>
			</g>
			<g>
				<g>
					<path class="st7" d="M438.24,320.98h-0.17c-1.98,0-3.59,1.62-3.59,3.59v0.27C435.31,323.17,436.63,321.82,438.24,320.98z"/>
				</g>
				<g>
					<path class="st7" d="M464.26,320.98h0.17c1.98,0,3.59,1.62,3.59,3.59v0.27C467.19,323.17,465.87,321.82,464.26,320.98z"/>
				</g>
			</g>
			<g>
				<g>
					<path class="st0" d="M430,364.68c-0.12,0.49,0,1.07,0.25,1.29l2.93,2.53c0.05,0.04,0.1,0.07,0.15,0.08v-2.36l-3.27-1.83
						L430,364.68z"/>
					<path class="st7" d="M429.97,364.14l3.53,1.98v2.65l-0.19-0.04c-0.08-0.02-0.16-0.05-0.23-0.12l-2.93-2.53
						c-0.3-0.26-0.43-0.89-0.3-1.44L429.97,364.14z M433.18,366.31l-3-1.68l-0.02,0.09c-0.11,0.47,0.02,0.97,0.2,1.13l2.82,2.43
						V366.31z"/>
				</g>
				<g>
					<path class="st0" d="M472.5,364.68c0.12,0.49,0,1.07-0.25,1.29l-2.93,2.53c-0.05,0.04-0.1,0.07-0.15,0.08v-2.36l3.27-1.83
						L472.5,364.68z"/>
					<path class="st7" d="M472.53,364.14l0.12,0.5c0.13,0.55,0,1.18-0.3,1.44l-2.93,2.53c-0.07,0.06-0.15,0.1-0.23,0.12l-0.19,0.04
						v-2.65L472.53,364.14z M469.32,368.28l2.82-2.43c0.18-0.16,0.31-0.66,0.2-1.13l-0.02-0.09l-3,1.68V368.28z"/>
				</g>
			</g>
			<g>
				<g>
					<path class="st7" d="M442.61,381.9c0,5.28,0.94,9.93,2.35,12.61c-1.05-2.75-1.71-6.74-1.71-11.18c0-2.14,0.15-4.18,0.43-6.03
						h-0.83C442.7,378.76,442.61,380.3,442.61,381.9z"/>
				</g>
				<g>
					<path class="st7" d="M459.89,381.9c0,5.28-0.94,9.93-2.35,12.61c1.05-2.75,1.71-6.74,1.71-11.18c0-2.14-0.15-4.18-0.43-6.03
						h0.83C459.8,378.76,459.89,380.3,459.89,381.9z"/>
				</g>
			</g>
			<g>
				
					<rect x="439.12" y="341.17" transform="matrix(-1 -1.224647e-16 1.224647e-16 -1 902.501 703.5383)" class="st0" width="24.25" height="21.21"/>
				<path d="M438.96,341.01h24.57v21.52h-24.57V341.01z M463.22,341.33h-23.94v20.89h23.94V341.33z"/>
			</g>
		</g>
		<g>
			<g>
				<g>
					<path class="st0" d="M443.03,217.4c5.48-0.65,10.96-0.65,16.44,0c6.31,0.79,11.04,7.2,10.7,13.04
						c-0.97,19.14-0.96,38.28,0.03,57.42c0.33,5.55-4.16,11.62-10.15,12.42c-5.86,0.74-11.73,0.74-17.59,0
						c-5.99-0.8-10.48-6.87-10.15-12.42c0.99-19.14,1-38.28,0.03-57.42C431.99,224.59,436.71,218.19,443.03,217.4z"/>
					<path class="st7" d="M451.25,216.7c2.76,0,5.51,0.16,8.25,0.48c6.16,0.78,11.25,6.97,10.88,13.26
						c-0.96,19.04-0.96,38.35,0.03,57.39c0.35,5.95-4.48,11.86-10.33,12.64c-5.86,0.74-11.79,0.74-17.65,0
						c-5.86-0.78-10.68-6.69-10.33-12.65c0.98-19.04,0.99-38.35,0.03-57.39c-0.37-6.29,4.72-12.49,10.88-13.26h0
						C445.74,216.87,448.5,216.7,451.25,216.7z M451.25,300.62c2.93,0,5.86-0.18,8.77-0.55c5.65-0.76,10.3-6.46,9.96-12.2
						c-0.98-19.06-0.99-38.38-0.03-57.44c0.35-6.08-4.56-12.07-10.51-12.82c-5.44-0.64-10.95-0.64-16.39,0
						c-5.95,0.75-10.87,6.74-10.51,12.82c0.97,19.05,0.96,38.38-0.03,57.44c-0.34,5.75,4.32,11.45,9.97,12.2
						C445.39,300.43,448.32,300.62,451.25,300.62z"/>
				</g>
			</g>
			<g>
				<path class="st8" d="M438.14,228.17h26.23c-0.03-0.31-0.07-0.61-0.11-0.92h-26.01C438.2,227.55,438.17,227.86,438.14,228.17z"/>
			</g>
			<g>
				<path class="st7" d="M435.46,237.56l0.23,0.78c1.63,5.6,2.52,13.02,2.52,20.9c0,0.86-0.01,1.74-0.03,2.61l-0.01,0.06l-3.98,9.36
					l-0.02-0.74c-0.05-2.17-0.08-4.32-0.08-6.4c0-8.85,0.43-17.52,1.29-25.77L435.46,237.56z M437.86,261.81
					c0.02-0.86,0.03-1.73,0.03-2.58c0-7.47-0.81-14.53-2.28-20c-0.8,7.99-1.2,16.36-1.2,24.9c0,1.83,0.02,3.73,0.06,5.65
					L437.86,261.81z"/>
			</g>
			<g>
				<path class="st7" d="M467.04,237.56l0.08,0.81c0.85,8.25,1.29,16.92,1.29,25.77c0,2.05-0.03,4.2-0.08,6.4l-0.02,0.74l-3.99-9.42
					c-0.02-0.87-0.03-1.75-0.03-2.61c0-7.88,0.9-15.3,2.52-20.9L467.04,237.56z M468.03,269.79c0.04-1.93,0.06-3.83,0.06-5.65
					c0-8.54-0.4-16.91-1.2-24.9c-1.47,5.47-2.28,12.53-2.28,20c0,0.85,0.01,1.72,0.03,2.58L468.03,269.79z"/>
			</g>
			<g>
				<path class="st0" d="M434.47,273.07v13.77c0,8.08,6.6,14.69,14.67,14.69h4.22c8.07,0,14.67-6.61,14.67-14.69v-13.77
					c-5.49,1.26-11.14,1.91-16.78,1.89C445.6,274.98,439.96,274.33,434.47,273.07z"/>
				<path d="M434.31,272.87l0.19,0.04c5.53,1.27,11.16,1.92,16.75,1.89c0.07,0,0.15,0,0.22,0c5.51,0,11.07-0.64,16.53-1.89
					l0.19-0.04v13.97c0,8.19-6.65,14.85-14.83,14.85h-4.22c-8.18,0-14.83-6.66-14.83-14.85V272.87z M453.36,301.37
					c8,0,14.52-6.52,14.52-14.54v-13.57c-5.42,1.23-10.94,1.85-16.4,1.85c-0.15,0-0.3,0-0.44,0c-5.46,0-10.98-0.62-16.4-1.85v13.57
					c0,8.01,6.51,14.54,14.52,14.54H453.36z"/>
			</g>
			<g>
				<path class="st0" d="M439.12,240.83c8.08,1.22,16.17,1.22,24.25,0c1.12-4.22,1.46-8.45,1.03-12.67h-26.32
					C437.66,232.38,438.01,236.61,439.12,240.83z"/>
				<path d="M437.95,228h26.61l0.01,0.14c0.43,4.23,0.08,8.51-1.04,12.73l-0.03,0.1l-0.1,0.02c-8.06,1.22-16.24,1.22-24.3,0
					l-0.1-0.02l-0.03-0.1c-1.12-4.22-1.47-8.51-1.04-12.73L437.95,228z M464.27,228.32h-26.03c-0.4,4.11-0.06,8.27,1.02,12.37
					c7.96,1.19,16.04,1.19,24,0C464.32,236.58,464.67,232.42,464.27,228.32z"/>
			</g>
			<g>
				<path class="st8" d="M438.09,228.16h26.32c-0.03-0.31-0.07-0.61-0.11-0.92H438.2C438.16,227.54,438.12,227.85,438.09,228.16z"/>
			</g>
			<g>
				<path class="st0" d="M464.3,227.24v-6.61c-3.21-1.73-7.87-2.82-13.05-2.82s-9.84,1.09-13.05,2.82v6.61H464.3z"/>
				<path d="M451.25,217.65c4.99,0,9.78,1.04,13.13,2.84l0.08,0.05v6.86h-26.43v-6.86l0.08-0.05
					C441.47,218.68,446.26,217.65,451.25,217.65z M464.15,220.73c-3.3-1.75-7.99-2.76-12.89-2.76s-9.59,1.01-12.89,2.76v6.35h25.79
					V220.73z"/>
			</g>
			<g>
				<path class="st8" d="M434.58,273.15l-0.32,0.89c11.1,3.07,22.89,3.07,34,0l-0.32-0.89C457.02,276.1,445.48,276.1,434.58,273.15z
					"/>
			</g>
			<g>
				<path class="st0" d="M467.46,273.2l-4.08-11.16h-24.25l-4.08,11.16C445.64,276.06,456.86,276.06,467.46,273.2z"/>
				<path d="M439.01,261.87h24.48l4.18,11.43l-0.17,0.05c-10.63,2.88-21.87,2.88-32.5,0l-0.17-0.05L439.01,261.87z M463.27,262.19
					h-24.03l-3.98,10.9c10.47,2.8,21.52,2.8,31.99,0L463.27,262.19z"/>
			</g>
			<g>
				<g>
					<path class="st7" d="M438.24,220.64h-0.17c-1.98,0-3.59,1.62-3.59,3.59v0.27C435.31,222.83,436.63,221.48,438.24,220.64z"/>
				</g>
				<g>
					<path class="st7" d="M464.26,220.64h0.17c1.98,0,3.59,1.62,3.59,3.59v0.27C467.19,222.83,465.87,221.48,464.26,220.64z"/>
				</g>
			</g>
			<g>
				<g>
					<path class="st0" d="M430,264.34c-0.12,0.49,0,1.07,0.25,1.29l2.93,2.53c0.05,0.04,0.1,0.07,0.15,0.08v-2.36l-3.27-1.83
						L430,264.34z"/>
					<path class="st7" d="M429.97,263.8l3.53,1.98v2.65l-0.19-0.04c-0.08-0.02-0.16-0.05-0.23-0.12l-2.93-2.53
						c-0.3-0.26-0.43-0.89-0.3-1.44L429.97,263.8z M433.18,265.97l-3-1.68l-0.02,0.09c-0.11,0.47,0.02,0.97,0.2,1.13l2.82,2.43
						V265.97z"/>
				</g>
				<g>
					<path class="st0" d="M472.5,264.34c0.12,0.49,0,1.07-0.25,1.29l-2.93,2.53c-0.05,0.04-0.1,0.07-0.15,0.08v-2.36l3.27-1.83
						L472.5,264.34z"/>
					<path class="st7" d="M472.53,263.8l0.12,0.5c0.13,0.55,0,1.18-0.3,1.44l-2.93,2.53c-0.07,0.06-0.15,0.1-0.23,0.12l-0.19,0.04
						v-2.65L472.53,263.8z M469.32,267.94l2.82-2.43c0.18-0.16,0.31-0.66,0.2-1.13l-0.02-0.09l-3,1.68V267.94z"/>
				</g>
			</g>
			<g>
				<g>
					<path class="st7" d="M442.61,281.56c0,5.28,0.94,9.93,2.35,12.61c-1.05-2.75-1.71-6.74-1.71-11.18c0-2.14,0.15-4.18,0.43-6.03
						h-0.83C442.7,278.42,442.61,279.96,442.61,281.56z"/>
				</g>
				<g>
					<path class="st7" d="M459.89,281.56c0,5.28-0.94,9.93-2.35,12.61c1.05-2.75,1.71-6.74,1.71-11.18c0-2.14-0.15-4.18-0.43-6.03
						h0.83C459.8,278.42,459.89,279.96,459.89,281.56z"/>
				</g>
			</g>
			<g>
				
					<rect x="439.12" y="240.83" transform="matrix(-1 -1.224647e-16 1.224647e-16 -1 902.501 502.8586)" class="st0" width="24.25" height="21.21"/>
				<path d="M438.96,240.67h24.57v21.52h-24.57V240.67z M463.22,240.99h-23.94v20.89h23.94V240.99z"/>
			</g>
		</g>
		<g>
			<g>
				<g>
					<path class="st0" d="M269.56,317.74c5.48-0.65,10.96-0.65,16.44,0c6.31,0.79,11.04,7.2,10.7,13.04
						c-0.97,19.14-0.96,38.28,0.03,57.42c0.33,5.55-4.16,11.62-10.15,12.42c-5.86,0.74-11.73,0.74-17.59,0
						c-5.99-0.8-10.48-6.87-10.15-12.42c0.99-19.14,1-38.28,0.03-57.42C258.52,324.93,263.24,318.53,269.56,317.74z"/>
					<path class="st7" d="M277.78,317.04c2.76,0,5.51,0.16,8.25,0.48c6.16,0.78,11.25,6.97,10.88,13.26
						c-0.96,19.04-0.96,38.35,0.03,57.39c0.35,5.95-4.48,11.86-10.33,12.64c-5.86,0.74-11.79,0.74-17.65,0
						c-5.86-0.78-10.68-6.69-10.33-12.65c0.98-19.04,0.99-38.35,0.03-57.39c-0.37-6.29,4.72-12.49,10.88-13.26h0
						C272.27,317.2,275.02,317.04,277.78,317.04z M277.78,400.96c2.93,0,5.86-0.18,8.77-0.55c5.65-0.76,10.3-6.46,9.96-12.2
						c-0.98-19.06-0.99-38.38-0.03-57.44c0.35-6.08-4.56-12.07-10.51-12.82c-5.44-0.64-10.95-0.64-16.39,0
						c-5.95,0.75-10.87,6.74-10.51,12.82c0.97,19.05,0.96,38.38-0.03,57.44c-0.34,5.75,4.32,11.45,9.97,12.2
						C271.92,400.77,274.85,400.96,277.78,400.96z"/>
				</g>
			</g>
			<g>
				<path class="st8" d="M264.67,328.51h26.23c-0.03-0.31-0.07-0.61-0.11-0.92h-26.01C264.73,327.89,264.7,328.2,264.67,328.51z"/>
			</g>
			<g>
				<path class="st7" d="M261.99,337.9l0.23,0.78c1.63,5.6,2.52,13.02,2.52,20.9c0,0.86-0.01,1.74-0.03,2.61l-0.01,0.06l-3.98,9.36
					l-0.02-0.74c-0.05-2.17-0.08-4.32-0.08-6.4c0-8.85,0.43-17.52,1.29-25.77L261.99,337.9z M264.39,362.15
					c0.02-0.86,0.03-1.73,0.03-2.58c0-7.47-0.81-14.53-2.28-20c-0.8,7.99-1.2,16.36-1.2,24.9c0,1.83,0.02,3.73,0.06,5.65
					L264.39,362.15z"/>
			</g>
			<g>
				<path class="st7" d="M293.57,337.9l0.08,0.81c0.85,8.25,1.29,16.92,1.29,25.77c0,2.05-0.03,4.2-0.08,6.4l-0.02,0.74l-3.99-9.42
					c-0.02-0.87-0.03-1.75-0.03-2.61c0-7.88,0.9-15.3,2.52-20.9L293.57,337.9z M294.56,370.13c0.04-1.93,0.06-3.83,0.06-5.65
					c0-8.54-0.4-16.91-1.2-24.9c-1.47,5.47-2.28,12.53-2.28,20c0,0.85,0.01,1.72,0.03,2.58L294.56,370.13z"/>
			</g>
			<g>
				<path class="st0" d="M261,373.41v13.77c0,8.08,6.6,14.69,14.67,14.69h4.22c8.07,0,14.67-6.61,14.67-14.69v-13.77
					c-5.49,1.26-11.14,1.91-16.78,1.89C272.13,375.32,266.49,374.67,261,373.41z"/>
				<path d="M260.84,373.21l0.19,0.04c5.53,1.27,11.16,1.92,16.75,1.89c0.07,0,0.15,0,0.22,0c5.51,0,11.07-0.64,16.53-1.89
					l0.19-0.04v13.97c0,8.19-6.65,14.85-14.83,14.85h-4.22c-8.18,0-14.83-6.66-14.83-14.85V373.21z M279.89,401.71
					c8,0,14.52-6.52,14.52-14.54v-13.57c-5.42,1.23-10.94,1.85-16.4,1.85c-0.15,0-0.3,0-0.44,0c-5.46,0-10.98-0.62-16.4-1.85v13.57
					c0,8.01,6.51,14.54,14.52,14.54H279.89z"/>
			</g>
			<g>
				<path class="st0" d="M265.65,341.17c8.08,1.22,16.17,1.22,24.25,0c1.12-4.22,1.46-8.45,1.03-12.67h-26.32
					C264.19,332.72,264.53,336.95,265.65,341.17z"/>
				<path d="M264.47,328.34h26.61l0.01,0.14c0.43,4.23,0.08,8.51-1.04,12.73l-0.03,0.1l-0.1,0.02c-8.06,1.22-16.24,1.22-24.3,0
					l-0.1-0.02l-0.03-0.1c-1.12-4.22-1.47-8.51-1.04-12.73L264.47,328.34z M290.8,328.66h-26.03c-0.4,4.11-0.06,8.27,1.02,12.37
					c7.96,1.19,16.04,1.19,24,0C290.85,336.92,291.2,332.76,290.8,328.66z"/>
			</g>
			<g>
				<path class="st8" d="M264.62,328.5h26.32c-0.03-0.31-0.07-0.61-0.11-0.92h-26.11C264.69,327.88,264.65,328.19,264.62,328.5z"/>
			</g>
			<g>
				<path class="st0" d="M290.83,327.58v-6.61c-3.21-1.73-7.87-2.82-13.05-2.82s-9.84,1.09-13.05,2.82v6.61H290.83z"/>
				<path d="M277.78,317.99c4.99,0,9.78,1.04,13.13,2.84l0.08,0.05v6.86h-26.43v-6.86l0.08-0.05
					C268,319.02,272.78,317.99,277.78,317.99z M290.67,321.07c-3.3-1.75-7.99-2.76-12.89-2.76c-4.9,0-9.59,1.01-12.89,2.76v6.35
					h25.79V321.07z"/>
			</g>
			<g>
				<path class="st8" d="M261.1,373.49l-0.32,0.89c11.1,3.07,22.89,3.07,34,0l-0.32-0.89C283.55,376.44,272.01,376.44,261.1,373.49z
					"/>
			</g>
			<g>
				<path class="st0" d="M293.99,373.54l-4.08-11.16h-24.25l-4.08,11.16C272.17,376.4,283.39,376.4,293.99,373.54z"/>
				<path d="M265.54,362.21h24.48l4.18,11.43l-0.17,0.05c-10.63,2.88-21.87,2.88-32.5,0l-0.17-0.05L265.54,362.21z M289.79,362.53
					h-24.03l-3.98,10.9c10.47,2.8,21.52,2.8,31.99,0L289.79,362.53z"/>
			</g>
			<g>
				<g>
					<path class="st7" d="M264.77,320.98h-0.17c-1.98,0-3.59,1.62-3.59,3.59v0.27C261.84,323.17,263.16,321.82,264.77,320.98z"/>
				</g>
				<g>
					<path class="st7" d="M290.78,320.98h0.17c1.98,0,3.59,1.62,3.59,3.59v0.27C293.72,323.17,292.4,321.82,290.78,320.98z"/>
				</g>
			</g>
			<g>
				<g>
					<path class="st0" d="M256.53,364.68c-0.12,0.49,0,1.07,0.25,1.29l2.93,2.53c0.05,0.04,0.1,0.07,0.15,0.08v-2.36l-3.27-1.83
						L256.53,364.68z"/>
					<path class="st7" d="M256.5,364.14l3.53,1.98v2.65l-0.19-0.04c-0.08-0.02-0.16-0.05-0.23-0.12l-2.93-2.53
						c-0.3-0.26-0.43-0.89-0.3-1.44L256.5,364.14z M259.71,366.31l-3-1.68l-0.02,0.09c-0.11,0.47,0.02,0.97,0.2,1.13l2.82,2.43
						V366.31z"/>
				</g>
				<g>
					<path class="st0" d="M299.03,364.68c0.12,0.49,0,1.07-0.25,1.29l-2.93,2.53c-0.05,0.04-0.1,0.07-0.15,0.08v-2.36l3.27-1.83
						L299.03,364.68z"/>
					<path class="st7" d="M299.06,364.14l0.12,0.5c0.13,0.55,0,1.18-0.3,1.44l-2.93,2.53c-0.07,0.06-0.15,0.1-0.23,0.12l-0.19,0.04
						v-2.65L299.06,364.14z M295.85,368.28l2.82-2.43c0.18-0.16,0.31-0.66,0.2-1.13l-0.02-0.09l-3,1.68V368.28z"/>
				</g>
			</g>
			<g>
				<g>
					<path class="st7" d="M269.14,381.9c0,5.28,0.94,9.93,2.35,12.61c-1.05-2.75-1.71-6.74-1.71-11.18c0-2.14,0.15-4.18,0.43-6.03
						h-0.83C269.23,378.76,269.14,380.3,269.14,381.9z"/>
				</g>
				<g>
					<path class="st7" d="M286.42,381.9c0,5.28-0.94,9.93-2.35,12.61c1.05-2.75,1.71-6.74,1.71-11.18c0-2.14-0.15-4.18-0.43-6.03
						h0.83C286.33,378.76,286.42,380.3,286.42,381.9z"/>
				</g>
			</g>
			<g>
				
					<rect x="265.65" y="341.17" transform="matrix(-1 -1.224647e-16 1.224647e-16 -1 555.5584 703.5383)" class="st0" width="24.25" height="21.21"/>
				<path d="M265.49,341.01h24.57v21.52h-24.57V341.01z M289.75,341.33h-23.94v20.89h23.94V341.33z"/>
			</g>
		</g>
		<polygon class="st5" points="374.73,271.54 404.39,271.54 404.39,173.53 251.35,173.53 251.35,304.88 374.73,304.88 		"/>
		<polygon class="st5" points="436.37,129.37 476.76,129.37 476.76,43.75 261.99,43.75 261.99,152.69 436.37,152.69 		"/>
		<line class="st4" x1="207.4" y1="409.87" x2="531.35" y2="409.87"/>
		<line class="st4" x1="207.4" y1="477.05" x2="531.35" y2="477.05"/>
		<g>
			<path d="M356.07,91.14c0.71-2.93,3.13-5.87,6.83-8.34l0.71-0.47c3.84-2.5,4.85-3.7,4.85-5.7c0-2.25-1.86-3.76-4.69-3.76
				c-2.3,0-3.92,0.85-5.68,2.93l-1.73-1.45c2.08-2.58,4.31-3.67,7.51-3.67c4.28,0,7.4,2.52,7.4,6c0,2.77-1.07,4.06-5.98,7.18
				l-0.99,0.63c-3.26,2.14-5.32,4.5-5.57,6.47h12.86v2.33h-15.55V91.14z"/>
			<path d="M344.8,113.38c-0.27,0.99-0.6,1.92-0.9,2.69h15.41c-0.22,3.34-0.77,6.33-1.45,7.84c-0.69,1.54-1.56,1.97-4.03,1.97
				c-1.45,0-3.4-0.08-4.74-0.19l-0.49-2.08c1.89,0.17,3.73,0.27,5.05,0.27c1.37,0,1.78-0.22,2.17-1.1c0.33-0.85,0.77-2.77,1.04-4.85
				h-13.68c-0.36,0.77-0.74,1.56-1.15,2.33l-2.22-0.63c0.99-1.75,1.89-3.84,2.71-6.25h-6.11v-1.86h26.05v1.86H344.8z M358.34,109.02
				h-17.91v-7.79h17.91V109.02z M342.66,107.27h13.46v-4.22h-13.46V107.27z"/>
			<path d="M369.51,112.48c-0.88,2.8-2,5.32-3.32,7.43l-1.01-2.19c1.78-2.66,3.18-5.98,4.14-9.9h-3.76v-1.92h3.95v-5.87h2.03v5.87
				h2.85v1.92h-2.85v2.55c1.23,1.01,2.39,2.11,3.37,3.21l-1.15,1.84c-0.49-0.74-1.4-1.89-2.22-2.82v13.49h-2.03V112.48z
				 M384.81,116.29c1.75,2.52,4.06,4.55,6.99,6.2l-1.29,1.92c-2.88-1.81-5.43-4.33-7.07-7.02v8.69h-1.95v-8.53
				c-1.73,2.93-4.06,5.35-7.05,7.24l-1.37-1.67c2.99-1.67,5.37-3.92,7.18-6.83h-5.07v-9.76h6.31v-2.03h-7.73v-1.78h7.73v-2.69h1.95
				v2.69h7.9v1.78h-7.9v2.03h6.5v9.76H384.81z M377.13,108.2v2.33h4.36v-2.33H377.13z M377.13,112.2v2.39h4.36v-2.39H377.13z
				 M383.44,110.53h4.58v-2.33h-4.58V110.53z M383.44,114.59h4.58v-2.39h-4.58V114.59z"/>
		</g>
		<g>
			<path d="M315.88,210.04c-1.23,0.55-3.65,1.29-5.32,1.64l-0.6-2.06c2.52-0.52,5.35-1.56,6.64-2.44h1.84v22.62h-2.55V210.04z"/>
			<path d="M297.28,249.89c-0.27,0.99-0.6,1.92-0.9,2.69h15.41c-0.22,3.34-0.77,6.33-1.45,7.84c-0.69,1.54-1.56,1.97-4.03,1.97
				c-1.45,0-3.4-0.08-4.74-0.19l-0.49-2.08c1.89,0.17,3.73,0.27,5.05,0.27c1.37,0,1.78-0.22,2.17-1.1c0.33-0.85,0.77-2.77,1.04-4.85
				h-13.68c-0.36,0.77-0.74,1.56-1.15,2.33l-2.22-0.63c0.99-1.75,1.89-3.84,2.71-6.25h-6.11v-1.86h26.05v1.86H297.28z
				 M310.83,245.53h-17.91v-7.79h17.91V245.53z M295.14,243.78h13.46v-4.22h-13.46V243.78z"/>
			<path d="M322,248.99c-0.88,2.8-2,5.32-3.32,7.43l-1.01-2.19c1.78-2.66,3.18-5.98,4.14-9.9h-3.76v-1.92H322v-5.87h2.03v5.87h2.85
				v1.92h-2.85v2.55c1.23,1.01,2.39,2.11,3.37,3.21l-1.15,1.84c-0.49-0.74-1.4-1.89-2.22-2.82v13.49H322V248.99z M337.3,252.8
				c1.75,2.52,4.06,4.55,6.99,6.2l-1.29,1.92c-2.88-1.81-5.43-4.33-7.07-7.02v8.69h-1.95v-8.53c-1.73,2.93-4.06,5.35-7.05,7.24
				l-1.37-1.67c2.99-1.67,5.37-3.92,7.18-6.83h-5.07v-9.76h6.31v-2.03h-7.73v-1.78h7.73v-2.69h1.95v2.69h7.9v1.78h-7.9v2.03h6.5
				v9.76H337.3z M329.62,244.71v2.33h4.36v-2.33H329.62z M329.62,248.71v2.39h4.36v-2.39H329.62z M335.93,247.04h4.58v-2.33h-4.58
				V247.04z M335.93,251.1h4.58v-2.39h-4.58V251.1z"/>
		</g>
	</g>
	<g>
		
			<rect x="436.37" y="146.88" transform="matrix(-1 -1.224647e-16 1.224647e-16 -1 913.1251 299.5127)" class="st39" width="40.39" height="5.75"/>
		
			<rect x="436.37" y="128.91" transform="matrix(-1 -2.701287e-13 2.701287e-13 -1 913.1251 275.7892)" class="st39" width="40.39" height="17.97"/>
		<polygon points="456.56,132.83 450.59,140.48 462.54,140.48 		"/>
	</g>
	<g>
		
			<rect x="372.54" y="273.08" transform="matrix(5.927887e-11 -1 1 5.927887e-11 101.2744 677.4257)" class="st40" width="33.62" height="29.99"/>
		
			<rect x="385.2" y="294.04" transform="matrix(4.456708e-11 -1 1 4.456708e-11 80.3137 698.3864)" class="st41" width="8.31" height="29.99"/>
		
			<rect x="385.2" y="302.27" transform="matrix(4.478557e-11 -1 1 4.478557e-11 72.0901 706.6099)" class="st41" width="8.31" height="29.99"/>
		<polygon points="379.36,288.08 389.83,281.51 389.83,294.64 		"/>
	</g>
</g>
</svg>
