<?xml version="1.0" encoding="utf-8"?>
<!-- Generator: Adobe Illustrator 23.0.3, SVG Export Plug-In . SVG Version: 6.00 Build 0)  -->
<svg version="1.1" xmlns="http://www.w3.org/2000/svg" xmlns:xlink="http://www.w3.org/1999/xlink" x="0px" y="0px"
	 viewBox="0 0 700 500" style="enable-background:new 0 0 700 500;" xml:space="preserve">
<style type="text/css">
	.グラフィックスタイル_x0020_7{fill:none;stroke:#000000;stroke-width:1.5;stroke-linejoin:bevel;stroke-miterlimit:10;}
	.グラフィックスタイル_x0020_8{fill:#FFFFFF;stroke:#000000;stroke-width:1.5;stroke-miterlimit:10;}
	.st0{fill:#FFFFFF;}
	.st1{fill:#D8EACC;stroke:#000000;stroke-width:2;}
	.st2{fill:none;stroke:#000000;stroke-width:1.4318;stroke-linecap:round;stroke-linejoin:round;}
	.st3{fill:none;stroke:#000000;stroke-width:1.8264;stroke-linecap:round;stroke-linejoin:round;}
	.st4{fill:none;stroke:#000000;stroke-width:2;stroke-miterlimit:10;}
	.st5{fill:#FFFFFF;stroke:#000000;stroke-width:2;stroke-miterlimit:10;}
	.st6{fill:#FFFFFF;stroke:#000000;stroke-width:1.2664;stroke-miterlimit:10;}
	.st7{fill:#030201;}
	.st8{fill:#242323;}
	.st9{fill:none;stroke:#000000;stroke-width:2;stroke-linejoin:round;stroke-miterlimit:10;}
	.st10{fill:none;stroke:#000000;stroke-width:2;stroke-linejoin:bevel;stroke-miterlimit:10;}
	.st11{fill:#E83589;}
	.st12{fill:none;stroke:#000000;stroke-width:2;stroke-miterlimit:10;stroke-dasharray:5.901,5.901;}
	.st13{fill:none;stroke:#000000;stroke-width:1.5;stroke-linejoin:bevel;stroke-miterlimit:10;}
	.st14{fill:#D8EACC;stroke:#000000;stroke-width:1.5;}
	.st15{fill:none;stroke:#000000;stroke-width:1.5;stroke-miterlimit:10;}
	.st16{fill:none;stroke:#000000;stroke-linejoin:bevel;stroke-miterlimit:10;}
	.st17{fill:#FFFFFF;stroke:#000000;stroke-width:1.5;stroke-miterlimit:10;}
	.st18{fill:#FFFFFF;stroke:#DE0000;stroke-width:2;stroke-miterlimit:10;}
	.st19{fill:#DE0000;}
	.st20{fill:none;stroke:#000000;stroke-miterlimit:10;}
	.st21{fill:none;stroke:#000000;stroke-miterlimit:10;stroke-dasharray:3.0312,3.0312;}
	.st22{fill:url(#);stroke:#000000;stroke-width:1.1494;}
	.st23{fill:#FFFFFF;stroke:#000000;stroke-miterlimit:10;}
	.st24{fill:none;stroke:#000000;stroke-width:3;stroke-miterlimit:10;stroke-dasharray:5;}
	.st25{fill:none;stroke:#FFFFFF;stroke-width:0.75;stroke-linejoin:round;}
	.st26{fill:none;stroke:#000000;stroke-miterlimit:10;stroke-dasharray:5;}
	.st27{fill:none;stroke:#FFFFFF;stroke-width:3;stroke-linejoin:round;}
	.st28{fill:none;stroke:#000000;stroke-width:1.3;stroke-linejoin:bevel;stroke-miterlimit:10;}
	.st29{fill:none;stroke:#000000;stroke-width:1.5;stroke-miterlimit:10;stroke-dasharray:5;}
	.st30{fill:none;stroke:#47738A;stroke-linejoin:bevel;stroke-miterlimit:10;}
	.st31{fill:none;}
	.st32{fill:none;stroke:#FFFFFF;stroke-width:5;stroke-linejoin:round;}
	.st33{fill:#D8EACC;}
	.st34{fill:#D8EACC;stroke:#000000;stroke-width:0.25;}
	.st35{fill:none;stroke:#000000;stroke-width:2;}
	.st36{fill:none;stroke:#FFFFFF;stroke-linejoin:round;}
	.st37{fill:none;stroke:#000000;stroke-width:1.9773;stroke-linecap:round;stroke-linejoin:round;}
	.st38{fill:none;stroke:#000000;stroke-width:2.5222;stroke-linecap:round;stroke-linejoin:round;}
	.st39{fill:#FFFFFF;stroke:#000000;stroke-width:1.0238;stroke-miterlimit:10;}
	.st40{fill:#FFFFFF;stroke:#000000;stroke-width:1.089;stroke-miterlimit:10;}
	.st41{fill:#FFFFFF;stroke:#000000;stroke-width:1.2553;stroke-miterlimit:10;}
	.st42{fill:url(#);}
	.st43{fill:none;stroke:#000000;stroke-width:1.7765;stroke-linejoin:bevel;stroke-miterlimit:10;}
	.st44{fill:none;stroke:#000000;stroke-width:2.3687;stroke-miterlimit:10;}
	.st45{fill:#D8EACC;stroke:#000000;stroke-width:2.0455;}
	.st46{fill:none;stroke:#000000;stroke-width:2.0455;stroke-linecap:round;stroke-miterlimit:10;stroke-dasharray:0,6.1366;}
	.st47{fill:#FFFFFF;stroke:#000000;stroke-width:2.3687;stroke-miterlimit:10;}
	.st48{fill:#FFFFFF;stroke:#000000;stroke-width:1.4998;stroke-miterlimit:10;}
	.st49{fill:#FFFFFF;stroke:#000000;stroke-width:0.6137;stroke-miterlimit:10;}
	.st50{fill:url(#);stroke:#000000;stroke-width:1.0228;}
	.st51{fill:none;stroke:#FFFFFF;stroke-width:4.0911;stroke-linejoin:round;}
	.st52{fill:none;stroke:#000000;stroke-width:2.4559;stroke-linecap:round;stroke-linejoin:round;}
	.st53{fill:none;stroke:#000000;stroke-width:3.1327;stroke-linecap:round;stroke-linejoin:round;}
	.st54{fill:none;stroke:#FFFFFF;stroke-width:4;stroke-linejoin:round;}
</style>
<g id="レイヤー_5">
	<rect x="-1164.06" y="-3646.14" class="st0" width="5667.56" height="5248"/>
</g>
<g id="レイヤー_1">
</g>
<g id="レイヤー_3">
</g>
<g id="レイヤー_4">
</g>
<g id="レイヤー_2">
	<rect class="st0" width="700" height="500"/>
	<g>
		
			<rect x="118.27" y="377.87" transform="matrix(6.123234e-17 -1 1 6.123234e-17 -287.7153 563.5511)" class="st11" width="39.3" height="95.53"/>
		<g>
			<path class="st0" d="M107.38,431.48h15.55v2.09h-15.55v1.41h-2.32v-18.56h17.34v2.01h-15.01V431.48z M108.07,429.13
				c2.12-1.08,3.67-2.24,5.41-4.02c-1.33-1.12-3.09-2.38-4.83-3.53l1.41-1.58c1.72,1.08,3.21,2.14,4.85,3.4
				c1.02-1.35,1.85-2.72,2.7-4.44l2.09,1.02c-0.93,1.84-1.97,3.5-3.01,4.85c1.16,0.95,2.7,2.32,4.25,3.79l-1.64,1.72
				c-1.35-1.35-2.86-2.74-4.08-3.79c-1.74,1.85-3.55,3.19-5.76,4.36L108.07,429.13z"/>
			<path class="st0" d="M136.55,418.25h-8.69v-1.87h19.7v1.87h-8.81v1.99h4.44v10.35h-10.97v-10.35h4.33V418.25z M144.76,431.93
				v-11.7h2.12v14.74h-2.12v-1.14h-14.12v1.14h-2.09v-14.74h2.09v11.7H144.76z M134.18,421.94v2.51h2.45v-2.51H134.18z
				 M134.18,426.04v2.8h2.45v-2.8H134.18z M138.66,424.45h2.55v-2.51h-2.55V424.45z M138.66,428.84h2.55v-2.8h-2.55V428.84z"/>
			<path class="st0" d="M170.75,434.98h-2.26v-1.06h-13.44v1.06h-2.24v-18.75h17.94V434.98z M155.05,431.98h13.44v-13.85h-13.44
				V431.98z M166.56,431.08c-1.31-0.81-2.84-1.68-4.23-2.38c-1.51,1.26-3.34,2.28-5.37,3.01l-1.29-1.55
				c1.89-0.6,3.23-1.31,4.67-2.45l-0.54-0.25c-1.35-0.66-2.34-1.1-4.11-1.83l0.93-1.53c2.09,0.77,3.3,1.24,5.29,2.18
				c1.68-1.78,3.09-4.33,3.86-7.03l2.01,0.62c-0.85,2.63-2.38,5.5-3.94,7.34c0.1,0.06,0.1,0.06,0.19,0.1
				c1.04,0.52,2.18,1.14,3.75,2.07L166.56,431.08z M157.83,424.3c-0.48-1.62-1.04-2.99-1.66-4.06l1.91-0.77
				c0.66,1.16,1.22,2.49,1.72,4.04L157.83,424.3z M161.4,423.49c-0.5-1.58-1.06-2.92-1.68-4.09l1.82-0.72c0.75,1.33,1.39,2.8,1.72,4
				L161.4,423.49z"/>
		</g>
	</g>
	<polyline class="st2" points="277.26,445.38 277.26,433.64 284.17,445.38 284.17,433.64 	"/>
	<g>
		<circle class="st3" cx="247.2" cy="425.63" r="24.35"/>
		<polygon points="235,419.5 223.61,426.5 268.42,436.31 233.83,406.18 		"/>
	</g>
	<g>
		<g>
			<g>
				<path d="M155.29,230.18v1.5h-9.15v2.66h7.05v8.3c0,1.21-0.54,1.64-2.02,1.64c-0.85,0-1.71-0.04-2.56-0.13l-0.27-1.58
					c1.04,0.15,1.83,0.21,2.52,0.21c0.54,0,0.67-0.1,0.67-0.6v-6.38h-5.39v11.29h-1.64v-11.29h-5.12v8.71h-1.64v-10.17h6.76v-2.66
					h-8.96v-1.5h8.96v-2.85h1.64v2.85H155.29z"/>
				<path d="M140.19,264.81c1.68,1.69,3.62,2.33,7.11,2.35h8.17c-0.21,0.46-0.37,0.94-0.5,1.48h-7.9c-3.64-0.04-5.66-0.73-7.45-2.54
					c-0.94,1.1-2.12,2.23-3.24,3.06l-0.92-1.48c0.98-0.58,2.08-1.41,3.14-2.39v-5.57h-3.08v-1.41h4.66V264.81z M139.3,254.43
					c-0.98-1.39-2.04-2.64-3.04-3.54l1.14-0.96c1.21,1.06,2.27,2.21,3.12,3.39L139.3,254.43z M141.33,253.33v-1.31h3.68
					c-0.35-0.67-0.81-1.35-1.33-2l1.46-0.56c0.67,0.94,1.08,1.66,1.5,2.56h2.7c0.4-0.73,0.87-1.83,1.14-2.6l1.64,0.42
					c-0.33,0.73-0.77,1.56-1.19,2.18h3.89v1.31h-6.01c-0.1,0.35-0.44,1.23-0.64,1.73h5.22v10.61h-10.59v-10.61h3.83
					c0.25-0.69,0.44-1.25,0.54-1.73H141.33z M144.35,258.15h7.49v-1.91h-7.49V258.15z M144.35,261.17h7.49v-1.89h-7.49V261.17z
					 M144.35,264.43h7.49v-2.08h-7.49V264.43z"/>
				<path d="M113.62,183.55c-1.02-1.21-2.16-2.33-3.24-3.2l1.1-1.14c1.19,0.87,2.37,2,3.31,3.12L113.62,183.55z M110.87,192.01
					c1.23-1.62,2.54-4.06,3.66-6.82l1.31,1.02c-1.02,2.6-2.33,5.16-3.64,7.03L110.87,192.01z M114.37,178.24
					c-0.79-1.04-2.04-2.31-3.16-3.24l1.08-1.08c1.12,0.83,2.35,2,3.24,3.1L114.37,178.24z M122.6,184.15l-0.02,0.04
					c-0.6,1.77-1.89,4.55-2.95,6.45l-0.08,0.19l1.54-0.13c1.54-0.12,3.89-0.37,5.74-0.62c-0.64-1.08-1.39-2.2-2.18-3.31l1.31-0.73
					c1.68,2.14,3.1,4.3,4.1,6.3l-1.48,0.94c-0.48-0.98-0.69-1.39-1.04-2.02l-0.21,0.04c-2.31,0.46-7.22,1.1-10.63,1.39l-0.54-1.64
					l0.83-0.04l0.25-0.02c0.04,0,0.29-0.02,0.56-0.04c1.1-2,2.27-4.58,3.08-6.91h-5.24v-1.39h6.34v-4.2h-5.22v-1.43h5.22v-3.35h1.62
					v3.35h5.53v1.43h-5.53v4.2h6.61v1.39h-7.57L122.6,184.15z"/>
				<path d="M121.06,237.52h-1.6v-6.66c-1.89,2.37-4.8,4.49-8.09,5.82l-0.96-1.33c3.12-1.16,5.7-2.81,7.69-4.89h-7.61v-1.39h8.96
					v-2.27h1.6v2.27h9.11v1.39h-7.7c1.91,1.79,4.49,3.24,7.82,4.41l-1.02,1.46c-3.56-1.48-6.22-3.26-8.21-5.59V237.52z
					 M126.7,219.72c-1.12,1.52-2.83,3.06-4.78,4.35c1.89,1,4.22,1.73,7.9,2.45l-0.85,1.41c-2.97-0.6-6.18-1.73-8.46-2.97
					c-2.45,1.43-5.57,2.56-8.71,3.18l-0.83-1.29c3.16-0.56,6.2-1.56,8.26-2.72c-0.81-0.58-2-1.64-2.95-2.62
					c-1.17,0.92-2.27,1.6-3.62,2.22l-1.02-1.08c2.52-1.04,4.95-3,6.22-4.97l1.58,0.31c-0.31,0.48-0.4,0.56-0.69,0.96h7.11
					L126.7,219.72z M117.63,220.24c-0.15,0.17-0.21,0.21-0.33,0.33c0.87,0.98,2.06,1.96,3.27,2.72c1.77-1.19,2.95-2.16,3.72-3.06
					H117.63z"/>
				<path d="M119.84,242.6c-0.98,0.42-2.66,0.92-4.08,1.23l-0.42-1.5c1.91-0.46,4.06-1.25,5.01-1.85h1.35v17.16h-1.87V242.6z"/>
				<path d="M114.95,273.56l0.13-0.04l0.08-0.04c0.77-0.25,1.75-0.62,2.35-0.89l0.17,1.48c-1.75,0.79-4.55,1.83-6.72,2.45l-0.58-1.6
					c1.17-0.31,1.33-0.35,2.45-0.69l0.5-0.15v-9.78h-2.7v-1.48h6.59v1.48h-2.27V273.56z M116.42,279.01
					c1.64-0.64,3.27-1.71,4.37-2.87l1.27,0.85c-1.29,1.33-2.95,2.54-4.49,3.22L116.42,279.01z M128.51,264.81v11.08h-9.98v-11.08
					h3.24c0.23-0.69,0.42-1.41,0.56-2.12h-5.2v-1.37h12.85v1.37h-6.03c-0.23,0.85-0.5,1.62-0.71,2.12H128.51z M120.06,266.08v2.02
					h6.88v-2.02H120.06z M120.06,271.26h6.88v-1.93h-6.88V271.26z M120.06,274.6h6.88v-2.14h-6.88V274.6z M128.84,280.14
					c-1.23-1.12-2.72-2.25-4.16-3.12l1.14-0.92c1.79,1.02,3.02,1.85,4.24,2.87L128.84,280.14z"/>
				<path d="M119.84,285.23c-0.98,0.42-2.66,0.92-4.08,1.23l-0.42-1.5c1.91-0.46,4.06-1.25,5.01-1.85h1.35v17.16h-1.87V285.23z"/>
				<path d="M116.84,313.17c-0.21,0.75-0.46,1.46-0.69,2.04h11.69c-0.17,2.54-0.58,4.8-1.1,5.95c-0.52,1.16-1.19,1.5-3.06,1.5
					c-1.1,0-2.58-0.06-3.6-0.15l-0.37-1.58c1.44,0.13,2.83,0.21,3.83,0.21c1.04,0,1.35-0.17,1.64-0.83c0.25-0.65,0.58-2.1,0.79-3.68
					h-10.38c-0.27,0.58-0.56,1.19-0.87,1.77l-1.69-0.48c0.75-1.33,1.44-2.91,2.06-4.74h-4.64v-1.41h19.76v1.41H116.84z
					 M127.11,309.86h-13.58v-5.91h13.58V309.86z M115.22,308.53h10.21v-3.2h-10.21V308.53z"/>
			</g>
			<g>
				<path d="M116.51,197.22v11.25h3.22v1.6h-3.22v4.1h-1.83v-4.1h-8.57v-1.58l8.11-11.27H116.51z M114.68,202.49
					c0-0.96,0.04-2.58,0.1-3.6h-0.08c-0.56,1.1-1.1,2.06-1.52,2.64l-4.95,6.95h6.45V202.49z"/>
				<path d="M121.61,212.53c0.54-2.23,2.37-4.45,5.18-6.32l0.54-0.35c2.91-1.89,3.68-2.81,3.68-4.33c0-1.71-1.41-2.85-3.56-2.85
					c-1.75,0-2.97,0.64-4.31,2.23l-1.31-1.1c1.58-1.96,3.27-2.79,5.7-2.79c3.24,0,5.62,1.91,5.62,4.55c0,2.1-0.81,3.08-4.53,5.45
					l-0.75,0.48c-2.48,1.62-4.03,3.41-4.22,4.91h9.75v1.77h-11.79V212.53z"/>
			</g>
		</g>
		<g>
			<path d="M104.57,114.93c-0.81,0.36-2.4,0.85-3.5,1.08l-0.4-1.36c1.66-0.34,3.52-1.03,4.37-1.61h1.21v14.9h-1.68V114.93z"/>
			<path d="M122.46,120.63c0,4.7-2.08,7.59-5.42,7.59s-5.42-2.91-5.42-7.59c0-4.7,2.08-7.59,5.44-7.59
				C120.38,113.05,122.46,115.95,122.46,120.63z M113.39,120.63c0,3.79,1.39,6.14,3.67,6.14c2.24,0,3.63-2.35,3.63-6.14
				c0-3.83-1.39-6.16-3.67-6.16C114.78,114.47,113.39,116.84,113.39,120.63z"/>
			<path d="M126.13,125.37v2.58h-2.58v-2.58H126.13z"/>
			<path d="M138.96,120.63c0,4.7-2.08,7.59-5.42,7.59s-5.42-2.91-5.42-7.59c0-4.7,2.08-7.59,5.44-7.59
				C136.88,113.05,138.96,115.95,138.96,120.63z M129.89,120.63c0,3.79,1.39,6.14,3.67,6.14c2.24,0,3.63-2.35,3.63-6.14
				c0-3.83-1.39-6.16-3.67-6.16C131.28,114.47,129.89,116.84,129.89,120.63z"/>
			<path d="M140.46,126.52c0.47-1.93,2.06-3.87,4.5-5.49l0.47-0.31c2.53-1.64,3.2-2.44,3.2-3.76c0-1.48-1.23-2.47-3.09-2.47
				c-1.52,0-2.58,0.56-3.74,1.93l-1.14-0.96c1.37-1.7,2.84-2.42,4.95-2.42c2.82,0,4.88,1.66,4.88,3.96c0,1.82-0.7,2.67-3.94,4.73
				l-0.65,0.42c-2.15,1.41-3.5,2.96-3.67,4.26h8.47v1.54h-10.24V126.52z"/>
			<path d="M163.17,120.63c0,4.7-2.08,7.59-5.42,7.59s-5.42-2.91-5.42-7.59c0-4.7,2.08-7.59,5.44-7.59
				C161.09,113.05,163.17,115.95,163.17,120.63z M154.1,120.63c0,3.79,1.39,6.14,3.67,6.14c2.24,0,3.63-2.35,3.63-6.14
				c0-3.83-1.39-6.16-3.67-6.16C155.49,114.47,154.1,116.84,154.1,120.63z"/>
		</g>
		<g>
			<path d="M99.66,147.13c-0.95-0.85-1.54-1.66-2.16-2.89c-0.66-1.35-1.03-2.8-1.03-4.08c0-2.47,1.31-5.31,3.19-6.97h1.07
				c-2.14,2.45-3.04,4.52-3.04,6.99c0,2.45,0.91,4.52,3.04,6.96H99.66z"/>
			<path d="M114.34,135.14v0.98h-4.54v2.04h6.27v1.01h-6.27v3.49c0,0.76-0.35,1.04-1.34,1.04c-0.6,0-1.01-0.01-1.47-0.07l-0.16-1.04
				c0.53,0.07,1.15,0.12,1.44,0.12c0.31,0,0.4-0.09,0.4-0.44v-3.1h-6.25v-1.01h2.48v-3.32h1.16v3.32h2.6v-4.98h1.15v1.95H114.34z
				 M102.71,143.09c1.17-0.78,2.26-1.97,3.01-3.33l1.01,0.44c-0.78,1.47-1.86,2.73-3.16,3.66L102.71,143.09z M103.33,146.16
				c4.24-0.56,6.96-1.88,9.13-4.46l0.9,0.69c-2.42,2.72-5.36,4.2-9.41,4.79L103.33,146.16z M115.1,143.49
				c-1.09-1.32-2.19-2.39-3.26-3.24l0.82-0.63c1.13,0.79,2.3,1.88,3.33,3.05L115.1,143.49z"/>
			<path d="M120.39,144.08c1.19,1.19,2.55,1.64,5.02,1.66h5.77c-0.15,0.32-0.26,0.66-0.35,1.04h-5.58
				c-2.57-0.03-3.99-0.51-5.25-1.79c-0.66,0.78-1.5,1.57-2.29,2.16l-0.65-1.04c0.69-0.41,1.47-1,2.22-1.69v-3.93h-2.17v-1h3.29
				V144.08z M119.76,136.75c-0.69-0.98-1.44-1.86-2.14-2.5l0.81-0.68c0.85,0.75,1.6,1.56,2.2,2.39L119.76,136.75z M121.2,135.97
				v-0.92h2.6c-0.25-0.47-0.57-0.95-0.94-1.41l1.03-0.4c0.47,0.66,0.76,1.17,1.06,1.81h1.91c0.28-0.51,0.62-1.29,0.81-1.83
				l1.16,0.29c-0.23,0.51-0.54,1.1-0.84,1.54h2.75v0.92h-4.24c-0.07,0.25-0.31,0.87-0.46,1.22h3.68v7.49h-7.47v-7.49h2.7
				c0.18-0.48,0.31-0.88,0.38-1.22H121.2z M123.33,139.38h5.28v-1.35h-5.28V139.38z M123.33,141.51h5.28v-1.34h-5.28V141.51z
				 M123.33,143.81h5.28v-1.47h-5.28V143.81z"/>
			<path d="M141.5,136.41v0.92h-5.18v-0.91c-1.1,0.81-2.47,1.56-3.8,2.08l-0.69-0.92c2.76-0.98,4.89-2.47,6.31-4.4h1.23
				c1.64,1.79,3.67,3.05,6.59,4.11l-0.63,0.98c-2.57-0.97-4.86-2.45-6.52-4.18c-0.59,0.76-1.56,1.67-2.47,2.32H141.5z
				 M139.96,141.93c0.65-0.78,1.32-1.75,1.61-2.32h-7.62v-0.95h8.6l0.69,0.54c-0.62,1.03-1.25,1.92-1.91,2.73h2.76v5.2h-1.19v-0.76
				h-7.88v0.76h-1.2v-5.2H139.96z M135.03,145.43h7.88v-2.57h-7.88V145.43z"/>
			<path d="M152.61,133.73l-0.23,1.78h2.64v1.03h-2.77l-0.38,2.82c0.23,0.46,0.34,0.92,0.34,1.56c0,0.7-0.1,1.17-0.41,1.75
				c-0.35,0.69-0.6,1.39-0.6,1.72c0,0.6,0.73,0.81,2.95,0.81c1.28,0,2.2-0.1,2.73-0.31c0.54-0.21,0.73-0.53,0.73-1.25
				c0-0.9-0.32-2.01-0.85-2.94l1.03-0.18c0.63,1.12,1,2.29,1,3.24c0,1.97-0.98,2.5-4.7,2.5c-3.08,0-3.93-0.34-3.93-1.53
				c0-0.21,0.03-0.46,0.1-0.71c-0.34,0.09-0.65,0.15-0.82,0.15c-0.53,0-1.1-0.29-1.42-0.73c-0.32-0.44-0.5-1.1-0.5-1.94
				c0-1.72,1.17-3.13,2.61-3.13c0.28,0,0.47,0.04,0.75,0.15l0.25-1.98h-3.39v-1.03h3.52l0.25-1.88L152.61,133.73z M148.58,141.49
				c0,1.01,0.43,1.66,1.09,1.66c0.76,0,1.51-1.17,1.51-2.35c0-0.9-0.43-1.5-1.06-1.5C149.3,139.31,148.58,140.32,148.58,141.49z
				 M159.4,138.75c-0.68-1.09-1.97-2.55-2.88-3.29l0.82-0.69c1.13,0.95,2.29,2.2,2.92,3.16L159.4,138.75z"/>
			<path d="M161.95,147.13c2.13-2.45,3.04-4.52,3.04-6.97s-0.9-4.51-3.04-6.97h1.07c0.95,0.87,1.54,1.66,2.16,2.89
				c0.66,1.35,1.03,2.8,1.03,4.08c0,2.47-1.31,5.31-3.19,6.97H161.95z"/>
		</g>
		<g>
			<path d="M189.02,240.73v0.98h-4.54v2.04h6.27v1.01h-6.27v3.49c0,0.76-0.35,1.04-1.34,1.04c-0.6,0-1.01-0.01-1.47-0.07l-0.16-1.04
				c0.53,0.07,1.15,0.12,1.44,0.12c0.31,0,0.4-0.09,0.4-0.44v-3.1h-6.25v-1.01h2.48v-3.32h1.16v3.32h2.6v-4.98h1.15v1.95H189.02z
				 M177.4,248.69c1.17-0.78,2.26-1.97,3.01-3.33l1.01,0.44c-0.78,1.47-1.86,2.73-3.16,3.66L177.4,248.69z M178.02,251.75
				c4.24-0.56,6.96-1.88,9.13-4.46l0.9,0.69c-2.42,2.72-5.36,4.2-9.41,4.79L178.02,251.75z M189.79,249.08
				c-1.09-1.32-2.19-2.39-3.26-3.24l0.82-0.63c1.13,0.79,2.3,1.88,3.33,3.05L189.79,249.08z"/>
			<path d="M180.25,264.5c1.19,1.19,2.55,1.64,5.02,1.66h5.77c-0.15,0.32-0.26,0.66-0.35,1.04h-5.58c-2.57-0.03-3.99-0.51-5.25-1.79
				c-0.66,0.78-1.5,1.57-2.29,2.16l-0.65-1.04c0.69-0.41,1.47-1,2.22-1.69v-3.93h-2.17v-1h3.29V264.5z M179.62,257.17
				c-0.69-0.98-1.44-1.86-2.14-2.5l0.81-0.68c0.85,0.75,1.6,1.56,2.2,2.39L179.62,257.17z M181.05,256.4v-0.92h2.6
				c-0.25-0.47-0.57-0.95-0.94-1.41l1.03-0.4c0.47,0.66,0.76,1.17,1.06,1.81h1.91c0.28-0.51,0.62-1.29,0.81-1.83l1.16,0.29
				c-0.23,0.51-0.54,1.1-0.84,1.54h2.75v0.92h-4.24c-0.07,0.25-0.31,0.87-0.45,1.22h3.68v7.49h-7.47v-7.49h2.7
				c0.18-0.48,0.31-0.88,0.38-1.22H181.05z M183.18,259.8h5.28v-1.35h-5.28V259.8z M183.18,261.93h5.28v-1.34h-5.28V261.93z
				 M183.18,264.23h5.28v-1.47h-5.28V264.23z"/>
		</g>
		<polyline class="st28" points="90.81,95.93 76.5,108.42 193.55,108.4 178.58,119.85 		"/>
		<polyline class="グラフィックスタイル_x0020_7" points="193.79,69.96 193.79,181.72 199.46,363.08 		"/>
		<polyline class="st13" points="76.67,69.96 76.67,209.16 86.04,363.08 		"/>
		<polygon class="st14" points="197.82,314.23 307.07,348.36 307.07,180.38 193.79,180.38 		"/>
		<polygon class="st14" points="402.59,373.79 402.59,190.42 391.21,180.38 307.07,180.38 307.07,348.36 		"/>
		<polygon class="st14" points="437.5,180.27 391.32,180.27 402.7,190.31 402.7,373.68 579.96,424.34 544.11,318.51 438.17,289.35 
					"/>
		<polygon class="st14" points="473.73,180.38 437.39,180.38 437.39,289.46 544,318.62 539.28,304.86 556.08,187.91 534.43,108.77 
			473.73,108.77 		"/>
		<polyline class="st15" points="593.49,469.49 579.85,424.45 539.28,304.86 556.08,187.91 533.59,106.66 506.44,37.83 
			534.43,108.77 193.79,108.77 		"/>
		<polygon class="グラフィックスタイル_x0020_8" points="238.88,249.9 208.26,249.9 208.26,309.88 256.95,309.88 
			256.95,320.42 301.37,320.42 301.37,216.52 257.45,216.52 257.45,258.68 238.88,258.68 		"/>
		<polygon class="st17" points="381.93,258.43 361.85,258.43 361.85,248.89 319.28,248.89 319.28,333.72 352.06,333.72 
			352.06,343.5 374.4,343.5 374.4,353.04 395.48,353.04 395.48,248.89 381.93,248.89 		"/>
		<polygon class="st17" points="442.16,303.85 423.84,368.1 522.21,397.21 540.53,331.21 		"/>
		<polygon class="st17" points="471.27,210.24 461.23,287.54 532.75,299.08 547.57,199.45 496.87,193.43 493.6,213.51 		"/>
		<line class="st29" x1="169.36" y1="69.96" x2="175.38" y2="356.55"/>
		<polyline class="st29" points="193.79,132.7 436.89,132.7 436.89,180.88 		"/>
		<polyline class="st29" points="193.79,156.79 390.71,156.79 390.71,180.88 		"/>
		<g>
			<g>
				<g>
					<path class="st0" d="M217.55,237.34c-2.98,0.39-5.96,0.39-8.94,0c-3.43-0.48-6-4.36-5.82-7.89
						c0.53-11.58,0.52-23.17-0.02-34.75c-0.18-3.36,2.26-7.03,5.52-7.52c3.19-0.45,6.38-0.45,9.57,0c3.26,0.49,5.7,4.16,5.52,7.52
						c-0.54,11.58-0.54,23.17-0.02,34.75C223.56,232.99,220.99,236.86,217.55,237.34z"/>
					<path class="st7" d="M213.08,237.76c-1.5,0-3-0.1-4.49-0.29c-3.35-0.47-6.12-4.22-5.92-8.03c0.52-11.52,0.52-23.21-0.02-34.73
						c-0.19-3.6,2.44-7.18,5.62-7.65c3.19-0.45,6.42-0.45,9.6,0c3.19,0.47,5.81,4.05,5.62,7.65c-0.53,11.53-0.54,23.21-0.02,34.73
						c0.2,3.81-2.57,7.56-5.92,8.03h0C216.08,237.67,214.58,237.76,213.08,237.76z M213.08,186.98c-1.59,0-3.19,0.11-4.77,0.33
						c-3.07,0.46-5.6,3.91-5.42,7.38c0.54,11.54,0.54,23.23,0.02,34.76c-0.19,3.68,2.48,7.31,5.72,7.76c2.96,0.39,5.96,0.39,8.92,0
						c3.24-0.45,5.91-4.08,5.72-7.76c-0.53-11.53-0.52-23.23,0.02-34.76c0.18-3.48-2.35-6.93-5.42-7.39
						C216.27,187.09,214.68,186.98,213.08,186.98z"/>
				</g>
			</g>
			<g>
				<path class="st8" d="M220.21,230.83h-14.27c0.02,0.19,0.04,0.37,0.06,0.56h14.15C220.18,231.2,220.2,231.01,220.21,230.83z"/>
			</g>
			<g>
				<path class="st7" d="M221.67,225.14l-0.12-0.47c-0.88-3.39-1.37-7.88-1.37-12.65c0-0.52,0.01-1.05,0.02-1.58l0.01-0.04
					l2.16-5.66l0.01,0.45c0.03,1.32,0.04,2.62,0.04,3.87c0,5.35-0.24,10.6-0.7,15.6L221.67,225.14z M220.36,210.46
					c-0.01,0.52-0.02,1.05-0.02,1.56c0,4.52,0.44,8.8,1.24,12.1c0.43-4.84,0.65-9.9,0.65-15.07c0-1.11-0.01-2.26-0.03-3.42
					L220.36,210.46z"/>
			</g>
			<g>
				<path class="st7" d="M204.49,225.14l-0.05-0.49c-0.46-5-0.7-10.24-0.7-15.6c0-1.24,0.01-2.54,0.04-3.87l0.01-0.45l2.17,5.7
					c0.01,0.53,0.02,1.06,0.02,1.58c0,4.77-0.49,9.26-1.37,12.65L204.49,225.14z M203.96,205.64c-0.02,1.17-0.03,2.32-0.03,3.42
					c0,5.17,0.22,10.23,0.65,15.07c0.8-3.31,1.24-7.58,1.24-12.1c0-0.51-0.01-1.04-0.02-1.56L203.96,205.64z"/>
			</g>
			<g>
				<path class="st0" d="M222.21,203.65v-8.33c0-4.89-3.59-8.89-7.98-8.89h-2.29c-4.39,0-7.98,4-7.98,8.89v8.33
					c2.99-0.76,6.06-1.16,9.13-1.15C216.15,202.5,219.22,202.89,222.21,203.65z"/>
				<path d="M222.3,203.77l-0.11-0.03c-3.01-0.77-6.07-1.16-9.11-1.14c-0.04,0-0.08,0-0.12,0c-3,0-6.02,0.38-8.99,1.14l-0.11,0.03
					v-8.45c0-4.96,3.62-8.99,8.07-8.99h2.29c4.45,0,8.07,4.03,8.07,8.99V203.77z M211.93,186.52c-4.35,0-7.9,3.95-7.9,8.8v8.21
					c2.95-0.74,5.95-1.12,8.92-1.12c0.08,0,0.16,0,0.24,0c2.97,0,5.97,0.38,8.92,1.12v-8.21c0-4.85-3.54-8.8-7.9-8.8H211.93z"/>
			</g>
			<g>
				<path class="st0" d="M219.68,223.16c-4.4-0.74-8.8-0.74-13.19,0c-0.61,2.56-0.8,5.11-0.56,7.67h14.32
					C220.47,228.28,220.29,225.72,219.68,223.16z"/>
				<path d="M220.32,230.93h-14.47l-0.01-0.09c-0.23-2.56-0.04-5.15,0.56-7.71l0.01-0.06l0.06-0.01c4.39-0.74,8.83-0.74,13.22,0
					l0.06,0.01l0.01,0.06c0.61,2.56,0.8,5.15,0.56,7.71L220.32,230.93z M206,230.74h14.16c0.22-2.49,0.03-5-0.55-7.49
					c-4.33-0.72-8.72-0.72-13.05,0C205.97,225.73,205.78,228.25,206,230.74z"/>
			</g>
			<g>
				<path class="st8" d="M220.24,230.83h-14.32c0.02,0.19,0.04,0.37,0.06,0.56h14.2C220.2,231.2,220.22,231.02,220.24,230.83z"/>
			</g>
			<g>
				<path class="st0" d="M205.98,231.39v4c1.75,1.05,4.28,1.71,7.1,1.71s5.35-0.66,7.1-1.71v-4H205.98z"/>
				<path d="M213.08,237.19c-2.72,0-5.32-0.63-7.14-1.72l-0.05-0.03v-4.15h14.37v4.15l-0.05,0.03
					C218.4,236.57,215.8,237.19,213.08,237.19z M206.07,235.33c1.8,1.06,4.35,1.67,7.01,1.67c2.67,0,5.22-0.61,7.01-1.67v-3.85
					h-14.03V235.33z"/>
			</g>
			<g>
				<path class="st8" d="M222.15,203.6l0.18-0.54c-6.04-1.86-12.45-1.86-18.49,0l0.18,0.54
					C209.94,201.82,216.22,201.82,222.15,203.6z"/>
			</g>
			<g>
				<path class="st0" d="M204.27,203.57l2.22,6.76h13.19l2.22-6.76C216.13,201.84,210.03,201.84,204.27,203.57z"/>
				<path d="M219.74,210.43h-13.31l-2.27-6.92l0.09-0.03c5.78-1.74,11.89-1.74,17.68,0l0.09,0.03L219.74,210.43z M206.55,210.23
					h13.07l2.17-6.59c-5.69-1.7-11.71-1.7-17.4,0L206.55,210.23z"/>
			</g>
			<g>
				<g>
					<path class="st7" d="M220.16,235.38h0.09c1.07,0,1.95-0.98,1.95-2.17v-0.16C221.75,234.06,221.03,234.88,220.16,235.38z"/>
				</g>
				<g>
					<path class="st7" d="M206.01,235.38h-0.09c-1.07,0-1.95-0.98-1.95-2.17v-0.16C204.41,234.06,205.13,234.88,206.01,235.38z"/>
				</g>
			</g>
			<g>
				<g>
					<path class="st0" d="M224.64,208.94c0.06-0.3,0-0.65-0.14-0.78l-1.59-1.53c-0.03-0.03-0.06-0.04-0.08-0.05V208l1.78,1.11
						L224.64,208.94z"/>
					<path class="st7" d="M224.66,209.26l-1.92-1.2v-1.6l0.1,0.02c0.04,0.01,0.08,0.03,0.12,0.07l1.59,1.53
						c0.16,0.16,0.24,0.54,0.17,0.87L224.66,209.26z M222.91,207.95l1.63,1.02l0.01-0.05c0.06-0.28-0.01-0.59-0.11-0.68l-1.53-1.47
						V207.95z"/>
				</g>
				<g>
					<path class="st0" d="M201.52,208.94c-0.06-0.3,0-0.65,0.14-0.78l1.59-1.53c0.03-0.03,0.06-0.04,0.08-0.05V208l-1.78,1.11
						L201.52,208.94z"/>
					<path class="st7" d="M201.5,209.26l-0.06-0.3c-0.07-0.33,0-0.72,0.17-0.87l1.59-1.53c0.04-0.04,0.08-0.06,0.12-0.07l0.1-0.02
						v1.6L201.5,209.26z M203.25,206.76l-1.53,1.47c-0.1,0.1-0.17,0.4-0.11,0.68l0.01,0.05l1.63-1.02V206.76z"/>
				</g>
			</g>
			<g>
				<g>
					<path class="st7" d="M217.78,198.51c0-3.2-0.51-6.01-1.28-7.63c0.57,1.67,0.93,4.08,0.93,6.76c0,1.3-0.08,2.53-0.24,3.65h0.45
						C217.73,200.41,217.78,199.48,217.78,198.51z"/>
				</g>
				<g>
					<path class="st7" d="M208.38,198.51c0-3.2,0.51-6.01,1.28-7.63c-0.57,1.67-0.93,4.08-0.93,6.76c0,1.3,0.08,2.53,0.24,3.65
						h-0.45C208.43,200.41,208.38,199.48,208.38,198.51z"/>
				</g>
			</g>
			<g>
				<rect x="206.49" y="210.33" class="st0" width="13.19" height="12.83"/>
				<path d="M219.76,223.26H206.4v-13.03h13.37V223.26z M206.57,223.07h13.02v-12.64h-13.02V223.07z"/>
			</g>
		</g>
		<g>
			<g>
				<g>
					<path class="st0" d="M246.29,237.34c-2.98,0.39-5.96,0.39-8.94,0c-3.43-0.48-6-4.36-5.82-7.89
						c0.53-11.58,0.52-23.17-0.02-34.75c-0.18-3.36,2.26-7.03,5.52-7.52c3.19-0.45,6.38-0.45,9.57,0c3.26,0.49,5.7,4.16,5.52,7.52
						c-0.54,11.58-0.54,23.17-0.02,34.75C252.3,232.99,249.73,236.86,246.29,237.34z"/>
					<path class="st7" d="M241.82,237.76c-1.5,0-3-0.1-4.49-0.29c-3.35-0.47-6.12-4.22-5.92-8.03c0.52-11.52,0.52-23.21-0.02-34.73
						c-0.19-3.6,2.44-7.18,5.62-7.65c3.19-0.45,6.42-0.45,9.6,0c3.19,0.47,5.81,4.05,5.62,7.65c-0.53,11.53-0.54,23.21-0.02,34.73
						c0.2,3.81-2.57,7.56-5.92,8.03h0C244.82,237.67,243.32,237.76,241.82,237.76z M241.82,186.98c-1.59,0-3.19,0.11-4.77,0.33
						c-3.07,0.46-5.6,3.91-5.42,7.38c0.54,11.54,0.54,23.23,0.02,34.76c-0.19,3.68,2.48,7.31,5.72,7.76c2.96,0.39,5.96,0.39,8.92,0
						c3.24-0.45,5.91-4.08,5.72-7.76c-0.53-11.53-0.52-23.23,0.02-34.76c0.18-3.48-2.35-6.93-5.42-7.39
						C245.01,187.09,243.42,186.98,241.82,186.98z"/>
				</g>
			</g>
			<g>
				<path class="st8" d="M248.96,230.83h-14.27c0.02,0.19,0.04,0.37,0.06,0.56h14.15C248.92,231.2,248.94,231.01,248.96,230.83z"/>
			</g>
			<g>
				<path class="st7" d="M250.41,225.14l-0.12-0.47c-0.88-3.39-1.37-7.88-1.37-12.65c0-0.52,0.01-1.05,0.02-1.58l0.01-0.04
					l2.16-5.66l0.01,0.45c0.03,1.32,0.04,2.62,0.04,3.87c0,5.35-0.24,10.6-0.7,15.6L250.41,225.14z M249.1,210.46
					c-0.01,0.52-0.02,1.05-0.02,1.56c0,4.52,0.44,8.8,1.24,12.1c0.43-4.84,0.65-9.9,0.65-15.07c0-1.11-0.01-2.26-0.03-3.42
					L249.1,210.46z"/>
			</g>
			<g>
				<path class="st7" d="M233.23,225.14l-0.05-0.49c-0.46-5-0.7-10.24-0.7-15.6c0-1.24,0.01-2.54,0.04-3.87l0.01-0.45l2.17,5.7
					c0.01,0.53,0.02,1.06,0.02,1.58c0,4.77-0.49,9.26-1.37,12.65L233.23,225.14z M232.7,205.64c-0.02,1.17-0.03,2.32-0.03,3.42
					c0,5.17,0.22,10.23,0.65,15.07c0.8-3.31,1.24-7.58,1.24-12.1c0-0.51-0.01-1.04-0.02-1.56L232.7,205.64z"/>
			</g>
			<g>
				<path class="st0" d="M250.95,203.65v-8.33c0-4.89-3.59-8.89-7.98-8.89h-2.29c-4.39,0-7.98,4-7.98,8.89v8.33
					c2.99-0.76,6.06-1.16,9.13-1.15C244.89,202.5,247.96,202.89,250.95,203.65z"/>
				<path d="M251.04,203.77l-0.11-0.03c-3.01-0.77-6.07-1.16-9.11-1.14c-0.04,0-0.08,0-0.12,0c-3,0-6.02,0.38-8.99,1.14l-0.11,0.03
					v-8.45c0-4.96,3.62-8.99,8.07-8.99h2.29c4.45,0,8.07,4.03,8.07,8.99V203.77z M240.68,186.52c-4.35,0-7.9,3.95-7.9,8.8v8.21
					c2.95-0.74,5.95-1.12,8.92-1.12c0.08,0,0.16,0,0.24,0c2.97,0,5.97,0.38,8.92,1.12v-8.21c0-4.85-3.54-8.8-7.9-8.8H240.68z"/>
			</g>
			<g>
				<path class="st0" d="M248.42,223.16c-4.4-0.74-8.8-0.74-13.19,0c-0.61,2.56-0.8,5.11-0.56,7.67h14.32
					C249.21,228.28,249.03,225.72,248.42,223.16z"/>
				<path d="M249.06,230.93h-14.47l-0.01-0.09c-0.23-2.56-0.04-5.15,0.56-7.71l0.01-0.06l0.06-0.01c4.39-0.74,8.83-0.74,13.22,0
					l0.06,0.01l0.01,0.06c0.61,2.56,0.8,5.15,0.56,7.71L249.06,230.93z M234.74,230.74h14.16c0.22-2.49,0.03-5-0.55-7.49
					c-4.33-0.72-8.72-0.72-13.05,0C234.71,225.73,234.52,228.25,234.74,230.74z"/>
			</g>
			<g>
				<path class="st8" d="M248.98,230.83h-14.32c0.02,0.19,0.04,0.37,0.06,0.56h14.2C248.94,231.2,248.96,231.02,248.98,230.83z"/>
			</g>
			<g>
				<path class="st0" d="M234.72,231.39v4c1.75,1.05,4.28,1.71,7.1,1.71s5.35-0.66,7.1-1.71v-4H234.72z"/>
				<path d="M241.82,237.19c-2.72,0-5.32-0.63-7.14-1.72l-0.05-0.03v-4.15h14.37v4.15l-0.05,0.03
					C247.14,236.57,244.54,237.19,241.82,237.19z M234.81,235.33c1.8,1.06,4.35,1.67,7.01,1.67s5.22-0.61,7.01-1.67v-3.85h-14.03
					V235.33z"/>
			</g>
			<g>
				<path class="st8" d="M250.89,203.6l0.18-0.54c-6.04-1.86-12.45-1.86-18.49,0l0.18,0.54
					C238.68,201.82,244.96,201.82,250.89,203.6z"/>
			</g>
			<g>
				<path class="st0" d="M233.01,203.57l2.22,6.76h13.19l2.22-6.76C244.87,201.84,238.77,201.84,233.01,203.57z"/>
				<path d="M248.48,210.43h-13.31l-2.27-6.92l0.09-0.03c5.78-1.74,11.89-1.74,17.68,0l0.09,0.03L248.48,210.43z M235.29,210.23
					h13.07l2.17-6.59c-5.69-1.7-11.71-1.7-17.4,0L235.29,210.23z"/>
			</g>
			<g>
				<g>
					<path class="st7" d="M248.9,235.38h0.09c1.07,0,1.95-0.98,1.95-2.17v-0.16C250.49,234.06,249.77,234.88,248.9,235.38z"/>
				</g>
				<g>
					<path class="st7" d="M234.75,235.38h-0.09c-1.07,0-1.95-0.98-1.95-2.17v-0.16C233.15,234.06,233.87,234.88,234.75,235.38z"/>
				</g>
			</g>
			<g>
				<g>
					<path class="st0" d="M253.38,208.94c0.06-0.3,0-0.65-0.14-0.78l-1.59-1.53c-0.03-0.03-0.06-0.04-0.08-0.05V208l1.78,1.11
						L253.38,208.94z"/>
					<path class="st7" d="M253.4,209.26l-1.92-1.2v-1.6l0.1,0.02c0.04,0.01,0.08,0.03,0.12,0.07l1.59,1.53
						c0.16,0.16,0.24,0.54,0.17,0.87L253.4,209.26z M251.65,207.95l1.63,1.02l0.01-0.05c0.06-0.28-0.01-0.59-0.11-0.68l-1.53-1.47
						V207.95z"/>
				</g>
				<g>
					<path class="st0" d="M230.27,208.94c-0.06-0.3,0-0.65,0.14-0.78l1.59-1.53c0.03-0.03,0.06-0.04,0.08-0.05V208l-1.78,1.11
						L230.27,208.94z"/>
					<path class="st7" d="M230.24,209.26l-0.06-0.3c-0.07-0.33,0-0.72,0.17-0.87l1.59-1.53c0.04-0.04,0.08-0.06,0.12-0.07l0.1-0.02
						v1.6L230.24,209.26z M231.99,206.76l-1.53,1.47c-0.1,0.1-0.17,0.4-0.11,0.68l0.01,0.05l1.63-1.02V206.76z"/>
				</g>
			</g>
			<g>
				<g>
					<path class="st7" d="M246.52,198.51c0-3.2-0.51-6.01-1.28-7.63c0.57,1.67,0.93,4.08,0.93,6.76c0,1.3-0.08,2.53-0.24,3.65h0.45
						C246.47,200.41,246.52,199.48,246.52,198.51z"/>
				</g>
				<g>
					<path class="st7" d="M237.12,198.51c0-3.2,0.51-6.01,1.28-7.63c-0.57,1.67-0.93,4.08-0.93,6.76c0,1.3,0.08,2.53,0.24,3.65
						h-0.45C237.17,200.41,237.12,199.48,237.12,198.51z"/>
				</g>
			</g>
			<g>
				<rect x="235.23" y="210.33" class="st0" width="13.19" height="12.83"/>
				<path d="M248.5,223.26h-13.37v-13.03h13.37V223.26z M235.31,223.07h13.02v-12.64h-13.02V223.07z"/>
			</g>
		</g>
		<g>
			<g>
				<g>
					<path class="st0" d="M338.37,237.34c-2.98,0.39-5.96,0.39-8.94,0c-3.43-0.48-6-4.36-5.82-7.89
						c0.53-11.58,0.52-23.17-0.02-34.75c-0.18-3.36,2.26-7.03,5.52-7.52c3.19-0.45,6.38-0.45,9.57,0c3.26,0.49,5.7,4.16,5.52,7.52
						c-0.54,11.58-0.54,23.17-0.02,34.75C344.38,232.99,341.81,236.86,338.37,237.34z"/>
					<path class="st7" d="M333.9,237.76c-1.5,0-3-0.1-4.49-0.29c-3.35-0.47-6.12-4.22-5.92-8.03c0.52-11.52,0.52-23.21-0.02-34.73
						c-0.19-3.6,2.44-7.18,5.62-7.65c3.19-0.45,6.42-0.45,9.6,0c3.19,0.47,5.81,4.05,5.62,7.65c-0.53,11.53-0.54,23.21-0.02,34.73
						c0.2,3.81-2.57,7.56-5.92,8.03h0C336.9,237.67,335.4,237.76,333.9,237.76z M333.9,186.98c-1.59,0-3.19,0.11-4.77,0.33
						c-3.07,0.46-5.6,3.91-5.42,7.38c0.54,11.54,0.54,23.23,0.02,34.76c-0.19,3.68,2.48,7.31,5.72,7.76c2.96,0.39,5.96,0.39,8.92,0
						c3.24-0.45,5.91-4.08,5.72-7.76c-0.53-11.53-0.52-23.23,0.02-34.76c0.18-3.48-2.35-6.93-5.42-7.39
						C337.09,187.09,335.5,186.98,333.9,186.98z"/>
				</g>
			</g>
			<g>
				<path class="st8" d="M341.04,230.83h-14.27c0.02,0.19,0.04,0.37,0.06,0.56h14.15C341,231.2,341.02,231.01,341.04,230.83z"/>
			</g>
			<g>
				<path class="st7" d="M342.49,225.14l-0.12-0.47c-0.88-3.39-1.37-7.88-1.37-12.65c0-0.52,0.01-1.05,0.02-1.58l0.01-0.04
					l2.16-5.66l0.01,0.45c0.03,1.32,0.04,2.62,0.04,3.87c0,5.35-0.24,10.6-0.7,15.6L342.49,225.14z M341.18,210.46
					c-0.01,0.52-0.02,1.05-0.02,1.56c0,4.52,0.44,8.8,1.24,12.1c0.43-4.84,0.65-9.9,0.65-15.07c0-1.11-0.01-2.26-0.03-3.42
					L341.18,210.46z"/>
			</g>
			<g>
				<path class="st7" d="M325.31,225.14l-0.05-0.49c-0.46-5-0.7-10.24-0.7-15.6c0-1.24,0.01-2.54,0.04-3.87l0.01-0.45l2.17,5.7
					c0.01,0.53,0.02,1.06,0.02,1.58c0,4.77-0.49,9.26-1.37,12.65L325.31,225.14z M324.78,205.64c-0.02,1.17-0.03,2.32-0.03,3.42
					c0,5.17,0.22,10.23,0.65,15.07c0.8-3.31,1.24-7.58,1.24-12.1c0-0.51-0.01-1.04-0.02-1.56L324.78,205.64z"/>
			</g>
			<g>
				<path class="st0" d="M343.03,203.65v-8.33c0-4.89-3.59-8.89-7.98-8.89h-2.29c-4.39,0-7.98,4-7.98,8.89v8.33
					c2.99-0.76,6.06-1.16,9.13-1.15C336.97,202.5,340.04,202.89,343.03,203.65z"/>
				<path d="M343.12,203.77l-0.11-0.03c-3.01-0.77-6.07-1.16-9.11-1.14c-0.04,0-0.08,0-0.12,0c-3,0-6.02,0.38-8.99,1.14l-0.11,0.03
					v-8.45c0-4.96,3.62-8.99,8.07-8.99h2.29c4.45,0,8.07,4.03,8.07,8.99V203.77z M332.76,186.52c-4.35,0-7.9,3.95-7.9,8.8v8.21
					c2.95-0.74,5.95-1.12,8.92-1.12c0.08,0,0.16,0,0.24,0c2.97,0,5.97,0.38,8.92,1.12v-8.21c0-4.85-3.54-8.8-7.9-8.8H332.76z"/>
			</g>
			<g>
				<path class="st0" d="M340.5,223.16c-4.4-0.74-8.8-0.74-13.19,0c-0.61,2.56-0.8,5.11-0.56,7.67h14.32
					C341.29,228.28,341.11,225.72,340.5,223.16z"/>
				<path d="M341.14,230.93h-14.47l-0.01-0.09c-0.23-2.56-0.04-5.15,0.56-7.71l0.01-0.06l0.06-0.01c4.39-0.74,8.83-0.74,13.22,0
					l0.06,0.01l0.01,0.06c0.61,2.56,0.8,5.15,0.56,7.71L341.14,230.93z M326.82,230.74h14.16c0.22-2.49,0.03-5-0.55-7.49
					c-4.33-0.72-8.72-0.72-13.05,0C326.79,225.73,326.6,228.25,326.82,230.74z"/>
			</g>
			<g>
				<path class="st8" d="M341.06,230.83h-14.32c0.02,0.19,0.04,0.37,0.06,0.56H341C341.02,231.2,341.04,231.02,341.06,230.83z"/>
			</g>
			<g>
				<path class="st0" d="M326.8,231.39v4c1.75,1.05,4.28,1.71,7.1,1.71c2.82,0,5.35-0.66,7.1-1.71v-4H326.8z"/>
				<path d="M333.9,237.19c-2.72,0-5.32-0.63-7.14-1.72l-0.05-0.03v-4.15h14.37v4.15l-0.05,0.03
					C339.22,236.57,336.62,237.19,333.9,237.19z M326.89,235.33c1.8,1.06,4.35,1.67,7.01,1.67c2.67,0,5.22-0.61,7.01-1.67v-3.85
					h-14.03V235.33z"/>
			</g>
			<g>
				<path class="st8" d="M342.97,203.6l0.18-0.54c-6.04-1.86-12.45-1.86-18.49,0l0.18,0.54
					C330.76,201.82,337.04,201.82,342.97,203.6z"/>
			</g>
			<g>
				<path class="st0" d="M325.09,203.57l2.22,6.76h13.19l2.22-6.76C336.95,201.84,330.85,201.84,325.09,203.57z"/>
				<path d="M340.56,210.43h-13.31l-2.27-6.92l0.09-0.03c5.78-1.74,11.89-1.74,17.68,0l0.09,0.03L340.56,210.43z M327.37,210.23
					h13.07l2.17-6.59c-5.69-1.7-11.71-1.7-17.4,0L327.37,210.23z"/>
			</g>
			<g>
				<g>
					<path class="st7" d="M340.98,235.38h0.09c1.07,0,1.95-0.98,1.95-2.17v-0.16C342.57,234.06,341.85,234.88,340.98,235.38z"/>
				</g>
				<g>
					<path class="st7" d="M326.83,235.38h-0.09c-1.07,0-1.95-0.98-1.95-2.17v-0.16C325.23,234.06,325.95,234.88,326.83,235.38z"/>
				</g>
			</g>
			<g>
				<g>
					<path class="st0" d="M345.46,208.94c0.06-0.3,0-0.65-0.14-0.78l-1.59-1.53c-0.03-0.03-0.06-0.04-0.08-0.05V208l1.78,1.11
						L345.46,208.94z"/>
					<path class="st7" d="M345.48,209.26l-1.92-1.2v-1.6l0.1,0.02c0.04,0.01,0.08,0.03,0.12,0.07l1.59,1.53
						c0.16,0.16,0.24,0.54,0.17,0.87L345.48,209.26z M343.73,207.95l1.63,1.02l0.01-0.05c0.06-0.28-0.01-0.59-0.11-0.68l-1.53-1.47
						V207.95z"/>
				</g>
				<g>
					<path class="st0" d="M322.35,208.94c-0.06-0.3,0-0.65,0.14-0.78l1.59-1.53c0.03-0.03,0.06-0.04,0.08-0.05V208l-1.78,1.11
						L322.35,208.94z"/>
					<path class="st7" d="M322.33,209.26l-0.06-0.3c-0.07-0.33,0-0.72,0.17-0.87l1.59-1.53c0.04-0.04,0.08-0.06,0.12-0.07l0.1-0.02
						v1.6L322.33,209.26z M324.07,206.76l-1.53,1.47c-0.1,0.1-0.17,0.4-0.11,0.68l0.01,0.05l1.63-1.02V206.76z"/>
				</g>
			</g>
			<g>
				<g>
					<path class="st7" d="M338.6,198.51c0-3.2-0.51-6.01-1.28-7.63c0.57,1.67,0.93,4.08,0.93,6.76c0,1.3-0.08,2.53-0.24,3.65h0.45
						C338.55,200.41,338.6,199.48,338.6,198.51z"/>
				</g>
				<g>
					<path class="st7" d="M329.2,198.51c0-3.2,0.51-6.01,1.28-7.63c-0.57,1.67-0.93,4.08-0.93,6.76c0,1.3,0.08,2.53,0.24,3.65h-0.45
						C329.25,200.41,329.2,199.48,329.2,198.51z"/>
				</g>
			</g>
			<g>
				<rect x="327.31" y="210.33" class="st0" width="13.19" height="12.83"/>
				<path d="M340.58,223.26h-13.37v-13.03h13.37V223.26z M327.39,223.07h13.02v-12.64h-13.02V223.07z"/>
			</g>
		</g>
		<g>
			<g>
				<g>
					<path class="st0" d="M373.92,237.34c-2.98,0.39-5.96,0.39-8.94,0c-3.43-0.48-6-4.36-5.82-7.89
						c0.53-11.58,0.52-23.17-0.02-34.75c-0.18-3.36,2.26-7.03,5.52-7.52c3.19-0.45,6.38-0.45,9.57,0c3.26,0.49,5.7,4.16,5.52,7.52
						c-0.54,11.58-0.54,23.17-0.02,34.75C379.92,232.99,377.35,236.86,373.92,237.34z"/>
					<path class="st7" d="M369.44,237.76c-1.5,0-3-0.1-4.49-0.29c-3.35-0.47-6.12-4.22-5.92-8.03c0.52-11.52,0.52-23.21-0.02-34.73
						c-0.19-3.6,2.44-7.18,5.62-7.65c3.19-0.45,6.42-0.45,9.6,0c3.19,0.47,5.81,4.05,5.62,7.65c-0.53,11.53-0.54,23.21-0.02,34.73
						c0.2,3.81-2.57,7.56-5.92,8.03h0C372.44,237.67,370.94,237.76,369.44,237.76z M369.44,186.98c-1.59,0-3.19,0.11-4.77,0.33
						c-3.07,0.46-5.6,3.91-5.42,7.38c0.54,11.54,0.54,23.23,0.02,34.76c-0.19,3.68,2.48,7.31,5.72,7.76c2.96,0.39,5.96,0.39,8.92,0
						c3.24-0.45,5.91-4.08,5.72-7.76c-0.53-11.53-0.52-23.23,0.02-34.76c0.18-3.48-2.35-6.93-5.42-7.39
						C372.63,187.09,371.04,186.98,369.44,186.98z"/>
				</g>
			</g>
			<g>
				<path class="st8" d="M376.58,230.83h-14.27c0.02,0.19,0.04,0.37,0.06,0.56h14.15C376.54,231.2,376.56,231.01,376.58,230.83z"/>
			</g>
			<g>
				<path class="st7" d="M378.03,225.14l-0.12-0.47c-0.88-3.39-1.37-7.88-1.37-12.65c0-0.52,0.01-1.05,0.02-1.58l0.01-0.04
					l2.16-5.66l0.01,0.45c0.03,1.32,0.04,2.62,0.04,3.87c0,5.35-0.24,10.6-0.7,15.6L378.03,225.14z M376.73,210.46
					c-0.01,0.52-0.02,1.05-0.02,1.56c0,4.52,0.44,8.8,1.24,12.1c0.43-4.84,0.65-9.9,0.65-15.07c0-1.11-0.01-2.26-0.03-3.42
					L376.73,210.46z"/>
			</g>
			<g>
				<path class="st7" d="M360.86,225.14l-0.05-0.49c-0.46-5-0.7-10.24-0.7-15.6c0-1.24,0.01-2.54,0.04-3.87l0.01-0.45l2.17,5.7
					c0.01,0.53,0.02,1.06,0.02,1.58c0,4.77-0.49,9.26-1.37,12.65L360.86,225.14z M360.32,205.64c-0.02,1.17-0.03,2.32-0.03,3.42
					c0,5.17,0.22,10.23,0.65,15.07c0.8-3.31,1.24-7.58,1.24-12.1c0-0.51-0.01-1.04-0.02-1.56L360.32,205.64z"/>
			</g>
			<g>
				<path class="st0" d="M378.57,203.65v-8.33c0-4.89-3.59-8.89-7.98-8.89h-2.29c-4.39,0-7.98,4-7.98,8.89v8.33
					c2.99-0.76,6.06-1.16,9.13-1.15C372.52,202.5,375.59,202.89,378.57,203.65z"/>
				<path d="M378.66,203.77l-0.11-0.03c-3.01-0.77-6.07-1.16-9.11-1.14c-0.04,0-0.08,0-0.12,0c-3,0-6.02,0.38-8.99,1.14l-0.11,0.03
					v-8.45c0-4.96,3.62-8.99,8.07-8.99h2.29c4.45,0,8.07,4.03,8.07,8.99V203.77z M368.3,186.52c-4.35,0-7.9,3.95-7.9,8.8v8.21
					c2.95-0.74,5.95-1.12,8.92-1.12c0.08,0,0.16,0,0.24,0c2.97,0,5.97,0.38,8.92,1.12v-8.21c0-4.85-3.54-8.8-7.9-8.8H368.3z"/>
			</g>
			<g>
				<path class="st0" d="M376.04,223.16c-4.4-0.74-8.8-0.74-13.19,0c-0.61,2.56-0.8,5.11-0.56,7.67h14.32
					C376.84,228.28,376.65,225.72,376.04,223.16z"/>
				<path d="M376.68,230.93h-14.47l-0.01-0.09c-0.23-2.56-0.04-5.15,0.56-7.71l0.01-0.06l0.06-0.01c4.39-0.74,8.83-0.74,13.22,0
					l0.06,0.01l0.01,0.06c0.61,2.56,0.8,5.15,0.56,7.71L376.68,230.93z M362.36,230.74h14.16c0.22-2.49,0.03-5-0.55-7.49
					c-4.33-0.72-8.72-0.72-13.05,0C362.33,225.73,362.15,228.25,362.36,230.74z"/>
			</g>
			<g>
				<path class="st8" d="M376.6,230.83h-14.32c0.02,0.19,0.04,0.37,0.06,0.56h14.2C376.57,231.2,376.59,231.02,376.6,230.83z"/>
			</g>
			<g>
				<path class="st0" d="M362.34,231.39v4c1.75,1.05,4.28,1.71,7.1,1.71c2.82,0,5.35-0.66,7.1-1.71v-4H362.34z"/>
				<path d="M369.44,237.19c-2.72,0-5.32-0.63-7.14-1.72l-0.05-0.03v-4.15h14.37v4.15l-0.05,0.03
					C374.76,236.57,372.16,237.19,369.44,237.19z M362.43,235.33c1.8,1.06,4.35,1.67,7.01,1.67s5.22-0.61,7.01-1.67v-3.85h-14.03
					V235.33z"/>
			</g>
			<g>
				<path class="st8" d="M378.51,203.6l0.18-0.54c-6.04-1.86-12.45-1.86-18.49,0l0.18,0.54C366.3,201.82,372.58,201.82,378.51,203.6
					z"/>
			</g>
			<g>
				<path class="st0" d="M360.63,203.57l2.22,6.76h13.19l2.22-6.76C372.5,201.84,366.39,201.84,360.63,203.57z"/>
				<path d="M376.1,210.43h-13.31l-2.27-6.92l0.09-0.03c5.78-1.74,11.89-1.74,17.68,0l0.09,0.03L376.1,210.43z M362.91,210.23h13.07
					l2.17-6.59c-5.69-1.7-11.71-1.7-17.4,0L362.91,210.23z"/>
			</g>
			<g>
				<g>
					<path class="st7" d="M376.52,235.38h0.09c1.07,0,1.95-0.98,1.95-2.17v-0.16C378.11,234.06,377.4,234.88,376.52,235.38z"/>
				</g>
				<g>
					<path class="st7" d="M362.37,235.38h-0.09c-1.07,0-1.95-0.98-1.95-2.17v-0.16C360.77,234.06,361.49,234.88,362.37,235.38z"/>
				</g>
			</g>
			<g>
				<g>
					<path class="st0" d="M381,208.94c0.06-0.3,0-0.65-0.14-0.78l-1.59-1.53c-0.03-0.03-0.06-0.04-0.08-0.05V208l1.78,1.11
						L381,208.94z"/>
					<path class="st7" d="M381.02,209.26l-1.92-1.2v-1.6l0.1,0.02c0.04,0.01,0.08,0.03,0.12,0.07l1.59,1.53
						c0.16,0.16,0.24,0.54,0.17,0.87L381.02,209.26z M379.27,207.95l1.63,1.02l0.01-0.05c0.06-0.28-0.01-0.59-0.11-0.68l-1.53-1.47
						V207.95z"/>
				</g>
				<g>
					<path class="st0" d="M357.89,208.94c-0.06-0.3,0-0.65,0.14-0.78l1.59-1.53c0.03-0.03,0.06-0.04,0.08-0.05V208l-1.78,1.11
						L357.89,208.94z"/>
					<path class="st7" d="M357.87,209.26l-0.06-0.3c-0.07-0.33,0-0.72,0.17-0.87l1.59-1.53c0.04-0.04,0.08-0.06,0.12-0.07l0.1-0.02
						v1.6L357.87,209.26z M359.61,206.76l-1.53,1.47c-0.1,0.1-0.17,0.4-0.11,0.68l0.01,0.05l1.63-1.02V206.76z"/>
				</g>
			</g>
			<g>
				<g>
					<path class="st7" d="M374.14,198.51c0-3.2-0.51-6.01-1.28-7.63c0.57,1.67,0.93,4.08,0.93,6.76c0,1.3-0.08,2.53-0.24,3.65h0.45
						C374.1,200.41,374.14,199.48,374.14,198.51z"/>
				</g>
				<g>
					<path class="st7" d="M364.74,198.51c0-3.2,0.51-6.01,1.28-7.63c-0.57,1.67-0.93,4.08-0.93,6.76c0,1.3,0.08,2.53,0.24,3.65
						h-0.45C364.79,200.41,364.74,199.48,364.74,198.51z"/>
				</g>
			</g>
			<g>
				<rect x="362.85" y="210.33" class="st0" width="13.19" height="12.83"/>
				<path d="M376.13,223.26h-13.37v-13.03h13.37V223.26z M362.93,223.07h13.02v-12.64h-13.02V223.07z"/>
			</g>
		</g>
		<g>
			<g>
				<g>
					<path class="st0" d="M424.04,237.34c-2.98,0.39-5.96,0.39-8.94,0c-3.43-0.48-6-4.36-5.82-7.89
						c0.53-11.58,0.52-23.17-0.02-34.75c-0.18-3.36,2.26-7.03,5.52-7.52c3.19-0.45,6.38-0.45,9.57,0c3.26,0.49,5.7,4.16,5.52,7.52
						c-0.54,11.58-0.54,23.17-0.02,34.75C430.05,232.99,427.48,236.86,424.04,237.34z"/>
					<path class="st7" d="M419.57,237.76c-1.5,0-3-0.1-4.49-0.29c-3.35-0.47-6.12-4.22-5.92-8.03c0.52-11.52,0.52-23.21-0.02-34.73
						c-0.19-3.6,2.44-7.18,5.62-7.65c3.19-0.45,6.42-0.45,9.6,0c3.19,0.47,5.81,4.05,5.62,7.65c-0.53,11.53-0.54,23.21-0.02,34.73
						c0.2,3.81-2.57,7.56-5.92,8.03h0C422.57,237.67,421.07,237.76,419.57,237.76z M419.57,186.98c-1.59,0-3.19,0.11-4.77,0.33
						c-3.07,0.46-5.6,3.91-5.42,7.38c0.54,11.54,0.54,23.23,0.02,34.76c-0.19,3.68,2.48,7.31,5.72,7.76c2.96,0.39,5.96,0.39,8.92,0
						c3.24-0.45,5.91-4.08,5.72-7.76c-0.53-11.53-0.52-23.23,0.02-34.76c0.18-3.48-2.35-6.93-5.42-7.39
						C422.76,187.09,421.16,186.98,419.57,186.98z"/>
				</g>
			</g>
			<g>
				<path class="st8" d="M426.7,230.83h-14.27c0.02,0.19,0.04,0.37,0.06,0.56h14.15C426.67,231.2,426.69,231.01,426.7,230.83z"/>
			</g>
			<g>
				<path class="st7" d="M428.16,225.14l-0.12-0.47c-0.88-3.39-1.37-7.88-1.37-12.65c0-0.52,0.01-1.05,0.02-1.58l0.01-0.04
					l2.16-5.66l0.01,0.45c0.03,1.32,0.04,2.62,0.04,3.87c0,5.35-0.24,10.6-0.7,15.6L428.16,225.14z M426.85,210.46
					c-0.01,0.52-0.02,1.05-0.02,1.56c0,4.52,0.44,8.8,1.24,12.1c0.43-4.84,0.65-9.9,0.65-15.07c0-1.11-0.01-2.26-0.03-3.42
					L426.85,210.46z"/>
			</g>
			<g>
				<path class="st7" d="M410.98,225.14l-0.05-0.49c-0.46-5-0.7-10.24-0.7-15.6c0-1.24,0.01-2.54,0.04-3.87l0.01-0.45l2.17,5.7
					c0.01,0.53,0.02,1.06,0.02,1.58c0,4.77-0.49,9.26-1.37,12.65L410.98,225.14z M410.44,205.64c-0.02,1.17-0.03,2.32-0.03,3.42
					c0,5.17,0.22,10.23,0.65,15.07c0.8-3.31,1.24-7.58,1.24-12.1c0-0.51-0.01-1.04-0.02-1.56L410.44,205.64z"/>
			</g>
			<g>
				<path class="st0" d="M428.7,203.65v-8.33c0-4.89-3.59-8.89-7.98-8.89h-2.29c-4.39,0-7.98,4-7.98,8.89v8.33
					c2.99-0.76,6.06-1.16,9.13-1.15C422.64,202.5,425.71,202.89,428.7,203.65z"/>
				<path d="M428.79,203.77l-0.11-0.03c-3.01-0.77-6.07-1.16-9.11-1.14c-0.04,0-0.08,0-0.12,0c-3,0-6.02,0.38-8.99,1.14l-0.11,0.03
					v-8.45c0-4.96,3.62-8.99,8.07-8.99h2.29c4.45,0,8.07,4.03,8.07,8.99V203.77z M418.42,186.52c-4.35,0-7.9,3.95-7.9,8.8v8.21
					c2.95-0.74,5.95-1.12,8.92-1.12c0.08,0,0.16,0,0.24,0c2.97,0,5.97,0.38,8.92,1.12v-8.21c0-4.85-3.54-8.8-7.9-8.8H418.42z"/>
			</g>
			<g>
				<path class="st0" d="M426.17,223.16c-4.4-0.74-8.8-0.74-13.19,0c-0.61,2.56-0.8,5.11-0.56,7.67h14.32
					C426.96,228.28,426.77,225.72,426.17,223.16z"/>
				<path d="M426.81,230.93h-14.47l-0.01-0.09c-0.23-2.56-0.04-5.15,0.56-7.71l0.01-0.06l0.06-0.01c4.39-0.74,8.83-0.74,13.22,0
					l0.06,0.01l0.01,0.06c0.61,2.56,0.8,5.15,0.56,7.71L426.81,230.93z M412.49,230.74h14.16c0.22-2.49,0.03-5-0.55-7.49
					c-4.33-0.72-8.72-0.72-13.05,0C412.46,225.73,412.27,228.25,412.49,230.74z"/>
			</g>
			<g>
				<path class="st8" d="M426.73,230.83h-14.32c0.02,0.19,0.04,0.37,0.06,0.56h14.2C426.69,231.2,426.71,231.02,426.73,230.83z"/>
			</g>
			<g>
				<path class="st0" d="M412.47,231.39v4c1.75,1.05,4.28,1.71,7.1,1.71c2.82,0,5.35-0.66,7.1-1.71v-4H412.47z"/>
				<path d="M419.57,237.19c-2.72,0-5.32-0.63-7.14-1.72l-0.05-0.03v-4.15h14.37v4.15l-0.05,0.03
					C424.89,236.57,422.29,237.19,419.57,237.19z M412.56,235.33c1.8,1.06,4.35,1.67,7.01,1.67c2.67,0,5.22-0.61,7.01-1.67v-3.85
					h-14.03V235.33z"/>
			</g>
			<g>
				<path class="st8" d="M428.64,203.6l0.18-0.54c-6.04-1.86-12.45-1.86-18.49,0l0.18,0.54
					C416.43,201.82,422.71,201.82,428.64,203.6z"/>
			</g>
			<g>
				<path class="st0" d="M410.75,203.57l2.22,6.76h13.19l2.22-6.76C422.62,201.84,416.52,201.84,410.75,203.57z"/>
				<path d="M426.23,210.43h-13.31l-2.27-6.92l0.09-0.03c5.78-1.74,11.89-1.74,17.68,0l0.09,0.03L426.23,210.43z M413.03,210.23
					h13.07l2.17-6.59c-5.69-1.7-11.71-1.7-17.4,0L413.03,210.23z"/>
			</g>
			<g>
				<g>
					<path class="st7" d="M426.64,235.38h0.09c1.07,0,1.95-0.98,1.95-2.17v-0.16C428.24,234.06,427.52,234.88,426.64,235.38z"/>
				</g>
				<g>
					<path class="st7" d="M412.5,235.38h-0.09c-1.07,0-1.95-0.98-1.95-2.17v-0.16C410.9,234.06,411.62,234.88,412.5,235.38z"/>
				</g>
			</g>
			<g>
				<g>
					<path class="st0" d="M431.13,208.94c0.06-0.3,0-0.65-0.14-0.78l-1.59-1.53c-0.03-0.03-0.06-0.04-0.08-0.05V208l1.78,1.11
						L431.13,208.94z"/>
					<path class="st7" d="M431.15,209.26l-1.92-1.2v-1.6l0.1,0.02c0.04,0.01,0.08,0.03,0.12,0.07l1.59,1.53
						c0.16,0.16,0.24,0.54,0.17,0.87L431.15,209.26z M429.4,207.95l1.63,1.02l0.01-0.05c0.06-0.28-0.01-0.59-0.11-0.68l-1.53-1.47
						V207.95z"/>
				</g>
				<g>
					<path class="st0" d="M408.01,208.94c-0.06-0.3,0-0.65,0.14-0.78l1.59-1.53c0.03-0.03,0.06-0.04,0.08-0.05V208l-1.78,1.11
						L408.01,208.94z"/>
					<path class="st7" d="M407.99,209.26l-0.06-0.3c-0.07-0.33,0-0.72,0.17-0.87l1.59-1.53c0.04-0.04,0.08-0.06,0.12-0.07l0.1-0.02
						v1.6L407.99,209.26z M409.74,206.76l-1.53,1.47c-0.1,0.1-0.17,0.4-0.11,0.68l0.01,0.05l1.63-1.02V206.76z"/>
				</g>
			</g>
			<g>
				<g>
					<path class="st7" d="M424.27,198.51c0-3.2-0.51-6.01-1.28-7.63c0.57,1.67,0.93,4.08,0.93,6.76c0,1.3-0.08,2.53-0.24,3.65h0.45
						C424.22,200.41,424.27,199.48,424.27,198.51z"/>
				</g>
				<g>
					<path class="st7" d="M414.87,198.51c0-3.2,0.51-6.01,1.28-7.63c-0.57,1.67-0.93,4.08-0.93,6.76c0,1.3,0.08,2.53,0.24,3.65H415
						C414.92,200.41,414.87,199.48,414.87,198.51z"/>
				</g>
			</g>
			<g>
				<rect x="412.97" y="210.33" class="st0" width="13.19" height="12.83"/>
				<path d="M426.25,223.26h-13.37v-13.03h13.37V223.26z M413.06,223.07h13.02v-12.64h-13.02V223.07z"/>
			</g>
		</g>
		<g>
			<g>
				<g>
					<path class="st0" d="M532.8,124.39c0.39,2.98,0.39,5.96,0,8.94c-0.48,3.43-4.36,6-7.89,5.82c-11.58-0.53-23.17-0.52-34.75,0.02
						c-3.36,0.18-7.03-2.26-7.52-5.52c-0.45-3.19-0.45-6.38,0-9.57c0.49-3.26,4.16-5.7,7.52-5.52c11.58,0.54,23.17,0.54,34.75,0.02
						C528.44,118.38,532.32,120.95,532.8,124.39z"/>
					<path class="st7" d="M533.22,128.86c0,1.5-0.1,3-0.29,4.49c-0.47,3.35-4.22,6.12-8.03,5.92c-11.52-0.52-23.21-0.52-34.73,0.02
						c-3.6,0.19-7.18-2.44-7.65-5.62c-0.45-3.19-0.45-6.42,0-9.6c0.47-3.19,4.05-5.81,7.65-5.62c11.53,0.53,23.21,0.54,34.73,0.02
						c3.81-0.2,7.56,2.57,8.03,5.92v0C533.12,125.86,533.22,127.36,533.22,128.86z M482.43,128.86c0,1.59,0.11,3.19,0.33,4.77
						c0.46,3.07,3.91,5.6,7.38,5.42c11.54-0.54,23.23-0.54,34.76-0.02c3.68,0.19,7.31-2.48,7.76-5.72c0.39-2.96,0.39-5.96,0-8.92
						c-0.45-3.24-4.08-5.91-7.76-5.72c-11.53,0.53-23.23,0.52-34.76-0.02c-3.48-0.18-6.93,2.35-7.39,5.42
						C482.54,125.67,482.43,127.27,482.43,128.86z"/>
				</g>
			</g>
			<g>
				<path class="st8" d="M526.28,121.73v14.27c0.19-0.02,0.37-0.04,0.56-0.06v-14.15C526.65,121.76,526.46,121.74,526.28,121.73z"/>
			</g>
			<g>
				<path class="st7" d="M520.6,120.27l-0.47,0.12c-3.39,0.88-7.88,1.37-12.65,1.37c-0.52,0-1.05-0.01-1.58-0.02l-0.04-0.01
					l-5.66-2.16l0.45-0.01c1.32-0.03,2.62-0.04,3.87-0.04c5.35,0,10.6,0.24,15.6,0.7L520.6,120.27z M505.92,121.58
					c0.52,0.01,1.05,0.02,1.56,0.02c4.52,0,8.8-0.44,12.1-1.24c-4.84-0.43-9.9-0.65-15.07-0.65c-1.11,0-2.26,0.01-3.42,0.03
					L505.92,121.58z"/>
			</g>
			<g>
				<path class="st7" d="M520.6,137.45l-0.49,0.05c-5,0.46-10.24,0.7-15.6,0.7c-1.24,0-2.54-0.01-3.87-0.04l-0.45-0.01l5.7-2.17
					c0.53-0.01,1.06-0.02,1.58-0.02c4.77,0,9.26,0.49,12.65,1.37L520.6,137.45z M501.09,137.99c1.17,0.02,2.32,0.03,3.42,0.03
					c5.17,0,10.23-0.22,15.07-0.65c-3.31-0.8-7.58-1.24-12.1-1.24c-0.51,0-1.04,0.01-1.56,0.02L501.09,137.99z"/>
			</g>
			<g>
				<path class="st0" d="M499.11,119.73h-8.33c-4.89,0-8.89,3.59-8.89,7.98v2.29c0,4.39,4,7.98,8.89,7.98h8.33
					c-0.76-2.99-1.16-6.06-1.15-9.13C497.95,125.79,498.34,122.72,499.11,119.73z"/>
				<path d="M499.23,119.64l-0.03,0.11c-0.77,3.01-1.16,6.07-1.14,9.11c0,0.04,0,0.08,0,0.12c0,3,0.38,6.02,1.14,8.99l0.03,0.11
					h-8.45c-4.96,0-8.99-3.62-8.99-8.07v-2.29c0-4.45,4.03-8.07,8.99-8.07H499.23z M481.98,130.01c0,4.35,3.95,7.9,8.8,7.9h8.21
					c-0.74-2.95-1.12-5.95-1.12-8.92c0-0.08,0-0.16,0-0.24c0-2.97,0.38-5.97,1.12-8.92h-8.21c-4.85,0-8.8,3.54-8.8,7.9V130.01z"/>
			</g>
			<g>
				<path class="st0" d="M518.61,122.26c-0.74,4.4-0.74,8.8,0,13.19c2.56,0.61,5.11,0.8,7.67,0.56V121.7
					C523.73,121.47,521.17,121.66,518.61,122.26z"/>
				<path d="M526.38,121.62v14.47l-0.09,0.01c-2.56,0.23-5.15,0.04-7.71-0.56l-0.06-0.01l-0.01-0.06c-0.74-4.39-0.74-8.83,0-13.22
					l0.01-0.06l0.06-0.01c2.56-0.61,5.15-0.8,7.71-0.56L526.38,121.62z M526.19,135.94v-14.16c-2.49-0.22-5-0.03-7.49,0.55
					c-0.72,4.33-0.72,8.72,0,13.05C521.19,135.97,523.7,136.16,526.19,135.94z"/>
			</g>
			<g>
				<path class="st8" d="M526.29,121.7v14.32c0.19-0.02,0.37-0.04,0.56-0.06v-14.2C526.66,121.74,526.47,121.72,526.29,121.7z"/>
			</g>
			<g>
				<path class="st0" d="M526.84,135.96h4c1.05-1.75,1.71-4.28,1.71-7.1s-0.66-5.35-1.71-7.1h-4V135.96z"/>
				<path d="M532.65,128.86c0,2.72-0.63,5.32-1.72,7.14l-0.03,0.05h-4.15v-14.37h4.15l0.03,0.05
					C532.02,123.54,532.65,126.14,532.65,128.86z M530.78,135.87c1.06-1.8,1.67-4.35,1.67-7.01s-0.61-5.22-1.67-7.01h-3.85v14.03
					H530.78z"/>
			</g>
			<g>
				<path class="st8" d="M499.05,119.79l-0.54-0.18c-1.86,6.04-1.86,12.45,0,18.49l0.54-0.18
					C497.27,132,497.27,125.72,499.05,119.79z"/>
			</g>
			<g>
				<path class="st0" d="M499.03,137.68l6.76-2.22v-13.19l-6.76-2.22C497.29,125.81,497.29,131.91,499.03,137.68z"/>
				<path d="M505.88,122.2v13.31l-6.92,2.27l-0.03-0.09c-1.74-5.78-1.74-11.89,0-17.68l0.03-0.09L505.88,122.2z M505.69,135.4
					v-13.07l-6.59-2.17c-1.7,5.69-1.7,11.71,0,17.4L505.69,135.4z"/>
			</g>
			<g>
				<g>
					<path class="st7" d="M530.84,121.79v-0.09c0-1.07-0.98-1.95-2.17-1.95h-0.16C529.51,120.19,530.33,120.91,530.84,121.79z"/>
				</g>
				<g>
					<path class="st7" d="M530.84,135.93v0.09c0,1.07-0.98,1.95-2.17,1.95h-0.16C529.51,137.53,530.33,136.81,530.84,135.93z"/>
				</g>
			</g>
			<g>
				<g>
					<path class="st0" d="M504.39,117.3c-0.3-0.06-0.65,0-0.78,0.14l-1.53,1.59c-0.03,0.03-0.04,0.06-0.05,0.08h1.43l1.11-1.78
						L504.39,117.3z"/>
					<path class="st7" d="M504.71,117.28l-1.2,1.92h-1.6l0.02-0.1c0.01-0.04,0.03-0.08,0.07-0.12l1.53-1.59
						c0.16-0.16,0.54-0.24,0.87-0.17L504.71,117.28z M503.4,119.03l1.02-1.63l-0.05-0.01c-0.28-0.06-0.59,0.01-0.68,0.11l-1.47,1.53
						H503.4z"/>
				</g>
				<g>
					<path class="st0" d="M504.39,140.42c-0.3,0.06-0.65,0-0.78-0.14l-1.53-1.59c-0.03-0.03-0.04-0.06-0.05-0.08h1.43l1.11,1.78
						L504.39,140.42z"/>
					<path class="st7" d="M504.71,140.44l-0.3,0.06c-0.33,0.07-0.72,0-0.87-0.17l-1.53-1.59c-0.04-0.04-0.06-0.08-0.07-0.12
						l-0.02-0.1h1.6L504.71,140.44z M502.21,138.69l1.47,1.53c0.1,0.1,0.4,0.17,0.68,0.11l0.05-0.01l-1.02-1.63H502.21z"/>
				</g>
			</g>
			<g>
				<g>
					<path class="st7" d="M493.96,124.16c-3.2,0-6.01,0.51-7.63,1.28c1.67-0.57,4.08-0.93,6.76-0.93c1.3,0,2.53,0.08,3.65,0.24
						v-0.45C495.87,124.21,494.93,124.16,493.96,124.16z"/>
				</g>
				<g>
					<path class="st7" d="M493.96,133.56c-3.2,0-6.01-0.51-7.63-1.28c1.67,0.57,4.08,0.93,6.76,0.93c1.3,0,2.53-0.08,3.65-0.24v0.45
						C495.87,133.51,494.93,133.56,493.96,133.56z"/>
				</g>
			</g>
			<g>
				
					<rect x="505.6" y="122.44" transform="matrix(6.123234e-17 -1 1 6.123234e-17 383.3409 641.0608)" class="st0" width="13.19" height="12.83"/>
				<path d="M518.71,122.18v13.37h-13.03v-13.37H518.71z M518.52,135.37v-13.02h-12.64v13.02H518.52z"/>
			</g>
		</g>
		<g>
			<g>
				<g>
					<path class="st0" d="M532.8,157.26c0.39,2.98,0.39,5.96,0,8.94c-0.48,3.43-4.36,6-7.89,5.82c-11.58-0.53-23.17-0.52-34.75,0.02
						c-3.36,0.18-7.03-2.26-7.52-5.52c-0.45-3.19-0.45-6.38,0-9.57c0.49-3.26,4.16-5.7,7.52-5.52c11.58,0.54,23.17,0.54,34.75,0.02
						C528.44,151.26,532.32,153.83,532.8,157.26z"/>
					<path class="st7" d="M533.22,161.74c0,1.5-0.1,3-0.29,4.49c-0.47,3.35-4.22,6.12-8.03,5.92c-11.52-0.52-23.21-0.52-34.73,0.02
						c-3.6,0.19-7.18-2.44-7.65-5.62c-0.45-3.19-0.45-6.42,0-9.6c0.47-3.19,4.05-5.81,7.65-5.62c11.53,0.53,23.21,0.54,34.73,0.02
						c3.81-0.2,7.56,2.57,8.03,5.92v0C533.12,158.74,533.22,160.24,533.22,161.74z M482.43,161.74c0,1.59,0.11,3.19,0.33,4.77
						c0.46,3.07,3.91,5.6,7.38,5.42c11.54-0.54,23.23-0.54,34.76-0.02c3.68,0.19,7.31-2.48,7.76-5.72c0.39-2.96,0.39-5.96,0-8.92
						c-0.45-3.24-4.08-5.91-7.76-5.72c-11.53,0.53-23.23,0.52-34.76-0.02c-3.48-0.18-6.93,2.35-7.39,5.42
						C482.54,158.55,482.43,160.14,482.43,161.74z"/>
				</g>
			</g>
			<g>
				<path class="st8" d="M526.28,154.6v14.27c0.19-0.02,0.37-0.04,0.56-0.06v-14.15C526.65,154.64,526.46,154.62,526.28,154.6z"/>
			</g>
			<g>
				<path class="st7" d="M520.6,153.15l-0.47,0.12c-3.39,0.88-7.88,1.37-12.65,1.37c-0.52,0-1.05-0.01-1.58-0.02l-0.04-0.01
					l-5.66-2.16l0.45-0.01c1.32-0.03,2.62-0.04,3.87-0.04c5.35,0,10.6,0.24,15.6,0.7L520.6,153.15z M505.92,154.45
					c0.52,0.01,1.05,0.02,1.56,0.02c4.52,0,8.8-0.44,12.1-1.24c-4.84-0.43-9.9-0.65-15.07-0.65c-1.11,0-2.26,0.01-3.42,0.03
					L505.92,154.45z"/>
			</g>
			<g>
				<path class="st7" d="M520.6,170.32l-0.49,0.05c-5,0.46-10.24,0.7-15.6,0.7c-1.24,0-2.54-0.01-3.87-0.04l-0.45-0.01l5.7-2.17
					c0.53-0.01,1.06-0.02,1.58-0.02c4.77,0,9.26,0.49,12.65,1.37L520.6,170.32z M501.09,170.86c1.17,0.02,2.32,0.03,3.42,0.03
					c5.17,0,10.23-0.22,15.07-0.65c-3.31-0.8-7.58-1.24-12.1-1.24c-0.51,0-1.04,0.01-1.56,0.02L501.09,170.86z"/>
			</g>
			<g>
				<path class="st0" d="M499.11,152.61h-8.33c-4.89,0-8.89,3.59-8.89,7.98v2.29c0,4.39,4,7.98,8.89,7.98h8.33
					c-0.76-2.99-1.16-6.06-1.15-9.13C497.95,158.66,498.34,155.59,499.11,152.61z"/>
				<path d="M499.23,152.52l-0.03,0.11c-0.77,3.01-1.16,6.07-1.14,9.11c0,0.04,0,0.08,0,0.12c0,3,0.38,6.02,1.14,8.99l0.03,0.11
					h-8.45c-4.96,0-8.99-3.62-8.99-8.07v-2.29c0-4.45,4.03-8.07,8.99-8.07H499.23z M481.98,162.88c0,4.35,3.95,7.9,8.8,7.9h8.21
					c-0.74-2.95-1.12-5.95-1.12-8.92c0-0.08,0-0.16,0-0.24c0-2.97,0.38-5.97,1.12-8.92h-8.21c-4.85,0-8.8,3.54-8.8,7.9V162.88z"/>
			</g>
			<g>
				<path class="st0" d="M518.61,155.14c-0.74,4.4-0.74,8.8,0,13.19c2.56,0.61,5.11,0.8,7.67,0.56v-14.32
					C523.73,154.34,521.17,154.53,518.61,155.14z"/>
				<path d="M526.38,154.5v14.47l-0.09,0.01c-2.56,0.23-5.15,0.04-7.71-0.56l-0.06-0.01l-0.01-0.06c-0.74-4.39-0.74-8.83,0-13.22
					l0.01-0.06l0.06-0.01c2.56-0.61,5.15-0.8,7.71-0.56L526.38,154.5z M526.19,168.82v-14.16c-2.49-0.22-5-0.03-7.49,0.55
					c-0.72,4.33-0.72,8.72,0,13.05C521.19,168.85,523.7,169.03,526.19,168.82z"/>
			</g>
			<g>
				<path class="st8" d="M526.29,154.58v14.32c0.19-0.02,0.37-0.04,0.56-0.06v-14.2C526.66,154.61,526.47,154.59,526.29,154.58z"/>
			</g>
			<g>
				<path class="st0" d="M526.84,168.84h4c1.05-1.75,1.71-4.28,1.71-7.1s-0.66-5.35-1.71-7.1h-4V168.84z"/>
				<path d="M532.65,161.74c0,2.72-0.63,5.32-1.72,7.14l-0.03,0.05h-4.15v-14.37h4.15l0.03,0.05
					C532.02,156.42,532.65,159.02,532.65,161.74z M530.78,168.75c1.06-1.8,1.67-4.35,1.67-7.01s-0.61-5.22-1.67-7.01h-3.85v14.03
					H530.78z"/>
			</g>
			<g>
				<path class="st8" d="M499.05,152.67l-0.54-0.18c-1.86,6.04-1.86,12.45,0,18.49l0.54-0.18
					C497.27,164.88,497.27,158.6,499.05,152.67z"/>
			</g>
			<g>
				<path class="st0" d="M499.03,170.55l6.76-2.22v-13.19l-6.76-2.22C497.29,158.68,497.29,164.79,499.03,170.55z"/>
				<path d="M505.88,155.08v13.31l-6.92,2.27l-0.03-0.09c-1.74-5.78-1.74-11.89,0-17.68l0.03-0.09L505.88,155.08z M505.69,168.27
					V155.2l-6.59-2.17c-1.7,5.69-1.7,11.71,0,17.4L505.69,168.27z"/>
			</g>
			<g>
				<g>
					<path class="st7" d="M530.84,154.66v-0.09c0-1.07-0.98-1.95-2.17-1.95h-0.16C529.51,153.07,530.33,153.78,530.84,154.66z"/>
				</g>
				<g>
					<path class="st7" d="M530.84,168.81v0.09c0,1.07-0.98,1.95-2.17,1.95h-0.16C529.51,170.41,530.33,169.69,530.84,168.81z"/>
				</g>
			</g>
			<g>
				<g>
					<path class="st0" d="M504.39,150.18c-0.3-0.06-0.65,0-0.78,0.14l-1.53,1.59c-0.03,0.03-0.04,0.06-0.05,0.08h1.43l1.11-1.78
						L504.39,150.18z"/>
					<path class="st7" d="M504.71,150.16l-1.2,1.92h-1.6l0.02-0.1c0.01-0.04,0.03-0.08,0.07-0.12l1.53-1.59
						c0.16-0.16,0.54-0.24,0.87-0.17L504.71,150.16z M503.4,151.91l1.02-1.63l-0.05-0.01c-0.28-0.06-0.59,0.01-0.68,0.11l-1.47,1.53
						H503.4z"/>
				</g>
				<g>
					<path class="st0" d="M504.39,173.29c-0.3,0.06-0.65,0-0.78-0.14l-1.53-1.59c-0.03-0.03-0.04-0.06-0.05-0.08h1.43l1.11,1.78
						L504.39,173.29z"/>
					<path class="st7" d="M504.71,173.31l-0.3,0.06c-0.33,0.07-0.72,0-0.87-0.17l-1.53-1.59c-0.04-0.04-0.06-0.08-0.07-0.12
						l-0.02-0.1h1.6L504.71,173.31z M502.21,171.56l1.47,1.53c0.1,0.1,0.4,0.17,0.68,0.11l0.05-0.01l-1.02-1.63H502.21z"/>
				</g>
			</g>
			<g>
				<g>
					<path class="st7" d="M493.96,157.04c-3.2,0-6.01,0.51-7.63,1.28c1.67-0.57,4.08-0.93,6.76-0.93c1.3,0,2.53,0.08,3.65,0.24
						v-0.45C495.87,157.08,494.93,157.04,493.96,157.04z"/>
				</g>
				<g>
					<path class="st7" d="M493.96,166.43c-3.2,0-6.01-0.51-7.63-1.28c1.67,0.57,4.08,0.93,6.76,0.93c1.3,0,2.53-0.08,3.65-0.24v0.45
						C495.87,166.39,494.93,166.43,493.96,166.43z"/>
				</g>
			</g>
			<g>
				
					<rect x="505.6" y="155.32" transform="matrix(6.123234e-17 -1 1 6.123234e-17 350.465 673.9367)" class="st0" width="13.19" height="12.83"/>
				<path d="M518.71,155.05v13.37h-13.03v-13.37H518.71z M518.52,168.25v-13.02h-12.64v13.02H518.52z"/>
			</g>
		</g>
		<g>
			<g>
				<g>
					<path class="st0" d="M424.04,299.91c-2.98,0.39-5.96,0.39-8.94,0c-3.43-0.48-6-4.36-5.82-7.89
						c0.53-11.58,0.52-23.17-0.02-34.75c-0.18-3.36,2.26-7.03,5.52-7.52c3.19-0.45,6.38-0.45,9.57,0c3.26,0.49,5.7,4.16,5.52,7.52
						c-0.54,11.58-0.54,23.17-0.02,34.75C430.05,295.55,427.48,299.42,424.04,299.91z"/>
					<path class="st7" d="M419.57,300.33c-1.5,0-3-0.1-4.49-0.29c-3.35-0.47-6.12-4.22-5.92-8.03c0.52-11.52,0.52-23.21-0.02-34.73
						c-0.19-3.6,2.44-7.18,5.62-7.65c3.19-0.45,6.42-0.45,9.6,0c3.19,0.47,5.81,4.05,5.62,7.65c-0.53,11.53-0.54,23.21-0.02,34.73
						c0.2,3.81-2.57,7.56-5.92,8.03h0C422.57,300.23,421.07,300.33,419.57,300.33z M419.57,249.54c-1.59,0-3.19,0.11-4.77,0.33
						c-3.07,0.46-5.6,3.91-5.42,7.38c0.54,11.54,0.54,23.23,0.02,34.76c-0.19,3.68,2.48,7.31,5.72,7.76c2.96,0.39,5.96,0.39,8.92,0
						c3.24-0.45,5.91-4.08,5.72-7.76c-0.53-11.53-0.52-23.23,0.02-34.76c0.18-3.48-2.35-6.93-5.42-7.39
						C422.76,249.65,421.16,249.54,419.57,249.54z"/>
				</g>
			</g>
			<g>
				<path class="st8" d="M426.7,293.39h-14.27c0.02,0.19,0.04,0.37,0.06,0.56h14.15C426.67,293.76,426.69,293.57,426.7,293.39z"/>
			</g>
			<g>
				<path class="st7" d="M428.16,287.71l-0.12-0.47c-0.88-3.39-1.37-7.88-1.37-12.65c0-0.52,0.01-1.05,0.02-1.58l0.01-0.04
					l2.16-5.66l0.01,0.45c0.03,1.32,0.04,2.62,0.04,3.87c0,5.35-0.24,10.6-0.7,15.6L428.16,287.71z M426.85,273.03
					c-0.01,0.52-0.02,1.05-0.02,1.56c0,4.52,0.44,8.8,1.24,12.1c0.43-4.84,0.65-9.9,0.65-15.07c0-1.11-0.01-2.26-0.03-3.42
					L426.85,273.03z"/>
			</g>
			<g>
				<path class="st7" d="M410.98,287.71l-0.05-0.49c-0.46-5-0.7-10.24-0.7-15.6c0-1.24,0.01-2.54,0.04-3.87l0.01-0.45l2.17,5.7
					c0.01,0.53,0.02,1.06,0.02,1.58c0,4.77-0.49,9.26-1.37,12.65L410.98,287.71z M410.44,268.2c-0.02,1.17-0.03,2.32-0.03,3.42
					c0,5.17,0.22,10.23,0.65,15.07c0.8-3.31,1.24-7.58,1.24-12.1c0-0.51-0.01-1.04-0.02-1.56L410.44,268.2z"/>
			</g>
			<g>
				<path class="st0" d="M428.7,266.21v-8.33c0-4.89-3.59-8.89-7.98-8.89h-2.29c-4.39,0-7.98,4-7.98,8.89v8.33
					c2.99-0.76,6.06-1.16,9.13-1.15C422.64,265.06,425.71,265.45,428.7,266.21z"/>
				<path d="M428.79,266.33l-0.11-0.03c-3.01-0.77-6.07-1.16-9.11-1.14c-0.04,0-0.08,0-0.12,0c-3,0-6.02,0.38-8.99,1.14l-0.11,0.03
					v-8.45c0-4.96,3.62-8.99,8.07-8.99h2.29c4.45,0,8.07,4.03,8.07,8.99V266.33z M418.42,249.08c-4.35,0-7.9,3.95-7.9,8.8v8.21
					c2.95-0.74,5.95-1.12,8.92-1.12c0.08,0,0.16,0,0.24,0c2.97,0,5.97,0.38,8.92,1.12v-8.21c0-4.85-3.54-8.8-7.9-8.8H418.42z"/>
			</g>
			<g>
				<path class="st0" d="M426.17,285.72c-4.4-0.74-8.8-0.74-13.19,0c-0.61,2.56-0.8,5.11-0.56,7.67h14.32
					C426.96,290.84,426.77,288.28,426.17,285.72z"/>
				<path d="M426.81,293.49h-14.47l-0.01-0.09c-0.23-2.56-0.04-5.15,0.56-7.71l0.01-0.06l0.06-0.01c4.39-0.74,8.83-0.74,13.22,0
					l0.06,0.01l0.01,0.06c0.61,2.56,0.8,5.15,0.56,7.71L426.81,293.49z M412.49,293.3h14.16c0.22-2.49,0.03-5-0.55-7.49
					c-4.33-0.72-8.72-0.72-13.05,0C412.46,288.29,412.27,290.81,412.49,293.3z"/>
			</g>
			<g>
				<path class="st8" d="M426.73,293.39h-14.32c0.02,0.19,0.04,0.37,0.06,0.56h14.2C426.69,293.76,426.71,293.58,426.73,293.39z"/>
			</g>
			<g>
				<path class="st0" d="M412.47,293.95v4c1.75,1.05,4.28,1.71,7.1,1.71c2.82,0,5.35-0.66,7.1-1.71v-4H412.47z"/>
				<path d="M419.57,299.75c-2.72,0-5.32-0.63-7.14-1.72l-0.05-0.03v-4.15h14.37v4.15l-0.05,0.03
					C424.89,299.13,422.29,299.75,419.57,299.75z M412.56,297.89c1.8,1.06,4.35,1.67,7.01,1.67c2.67,0,5.22-0.61,7.01-1.67v-3.85
					h-14.03V297.89z"/>
			</g>
			<g>
				<path class="st8" d="M428.64,266.16l0.18-0.54c-6.04-1.86-12.45-1.86-18.49,0l0.18,0.54
					C416.43,264.38,422.71,264.38,428.64,266.16z"/>
			</g>
			<g>
				<path class="st0" d="M410.75,266.14l2.22,6.76h13.19l2.22-6.76C422.62,264.4,416.52,264.4,410.75,266.14z"/>
				<path d="M426.23,272.99h-13.31l-2.27-6.92l0.09-0.03c5.78-1.74,11.89-1.74,17.68,0l0.09,0.03L426.23,272.99z M413.03,272.8
					h13.07l2.17-6.59c-5.69-1.7-11.71-1.7-17.4,0L413.03,272.8z"/>
			</g>
			<g>
				<g>
					<path class="st7" d="M426.64,297.95h0.09c1.07,0,1.95-0.98,1.95-2.17v-0.16C428.24,296.62,427.52,297.44,426.64,297.95z"/>
				</g>
				<g>
					<path class="st7" d="M412.5,297.95h-0.09c-1.07,0-1.95-0.98-1.95-2.17v-0.16C410.9,296.62,411.62,297.44,412.5,297.95z"/>
				</g>
			</g>
			<g>
				<g>
					<path class="st0" d="M431.13,271.5c0.06-0.3,0-0.65-0.14-0.78l-1.59-1.53c-0.03-0.03-0.06-0.04-0.08-0.05v1.43l1.78,1.11
						L431.13,271.5z"/>
					<path class="st7" d="M431.15,271.82l-1.92-1.2v-1.6l0.1,0.02c0.04,0.01,0.08,0.03,0.12,0.07l1.59,1.53
						c0.16,0.16,0.24,0.54,0.17,0.87L431.15,271.82z M429.4,270.51l1.63,1.02l0.01-0.05c0.06-0.28-0.01-0.59-0.11-0.68l-1.53-1.47
						V270.51z"/>
				</g>
				<g>
					<path class="st0" d="M408.01,271.5c-0.06-0.3,0-0.65,0.14-0.78l1.59-1.53c0.03-0.03,0.06-0.04,0.08-0.05v1.43l-1.78,1.11
						L408.01,271.5z"/>
					<path class="st7" d="M407.99,271.82l-0.06-0.3c-0.07-0.33,0-0.72,0.17-0.87l1.59-1.53c0.04-0.04,0.08-0.06,0.12-0.07l0.1-0.02
						v1.6L407.99,271.82z M409.74,269.32l-1.53,1.47c-0.1,0.1-0.17,0.4-0.11,0.68l0.01,0.05l1.63-1.02V269.32z"/>
				</g>
			</g>
			<g>
				<g>
					<path class="st7" d="M424.27,261.07c0-3.2-0.51-6.01-1.28-7.63c0.57,1.67,0.93,4.08,0.93,6.76c0,1.3-0.08,2.53-0.24,3.65h0.45
						C424.22,262.97,424.27,262.04,424.27,261.07z"/>
				</g>
				<g>
					<path class="st7" d="M414.87,261.07c0-3.2,0.51-6.01,1.28-7.63c-0.57,1.67-0.93,4.08-0.93,6.76c0,1.3,0.08,2.53,0.24,3.65H415
						C414.92,262.97,414.87,262.04,414.87,261.07z"/>
				</g>
			</g>
			<g>
				<rect x="412.97" y="272.89" class="st0" width="13.19" height="12.83"/>
				<path d="M426.25,285.82h-13.37V272.8h13.37V285.82z M413.06,285.63h13.02v-12.64h-13.02V285.63z"/>
			</g>
		</g>
		<path class="st30" d="M529.7,31.81c0,0,47.23,90.3,44.22,177.16s-16.29,85.85,0.14,150.6c16.43,64.75,33.49,109.92,33.49,109.92"
			/>
		<path class="st30" d="M564.62,31.81c0,0,47.23,90.3,44.22,177.16s-16.29,85.85,0.14,150.6s33.49,109.92,33.49,109.92"/>
		<path class="st30" d="M533.7,31.81c0,0,47.23,90.3,44.22,177.16c-3.01,86.86-16.29,85.85,0.14,150.6s33.49,109.92,33.49,109.92"/>
		<g>
			<path class="st31" d="M541.33,31.81c0,0,47.23,90.3,44.22,177.16s-16.29,85.85,0.14,150.6s33.49,109.92,33.49,109.92"/>
			<path d="M594.52,186.19c-1,0.26-1.81,0.6-2.77,1.14c0.06,0.05,0.07,0.06,0.12,0.13c0.9,1.01,2.19,2.21,3.23,3l-0.68,0.91
				c-1.36-1.14-2.54-2.38-3.44-3.55c-1.66,1.14-3.08,2.8-4.11,4.78l-0.97-0.64c1.26-2.41,3.44-4.49,5.9-5.62l-6.67,0.39
				c-0.74,0.04-1.04-0.29-1.09-1.28c-0.03-0.6-0.04-1.22-0.01-1.81l1.08-0.28c-0.05,0.74-0.06,1.47-0.04,1.89
				c0.02,0.32,0.12,0.41,0.43,0.4l11.3-0.66l0.06,1.06L594.52,186.19z M593.38,183.9l-0.49,0.63c-3.34-0.39-5.77-1.67-7.96-4.16
				l0.8-0.79c1.64,2.09,4,3.45,6.66,3.81l-0.22-3.75l0.96-0.06L593.38,183.9z"/>
			<path d="M584.41,205.75l0-0.99l0.8,0l-0.01-3.46l-0.8,0l0-0.99l5.34-0.01l0.01,5.43L584.41,205.75z M592.31,199.12l0-1.75
				l-2.14,0l0,1.76l-0.89,0l0-1.76l-2.83,0.01c0.1,0.37,0.4,1.39,0.61,2.07l-0.88,0.1c-0.57-1.61-1.13-3.56-1.53-5.34l0.96-0.35
				l0.15,0.72l5.28-0.01l0,0.92l-5.08,0.01l0.08,0.34l0.08,0.33l0.07,0.28l6.11-0.01l0-1.98l4.4-0.01l0.01,4.66L592.31,199.12z
				 M586.09,201.3l0.01,3.46l2.74-0.01l-0.01-3.46L586.09,201.3z M595.86,205.78c-1.26-0.51-2.35-1.17-3.27-1.98
				c-0.74,0.85-1.39,1.91-1.88,3.11l-0.9-0.51c0.54-1.22,1.28-2.36,2.11-3.24c-0.94-0.99-1.69-2.15-2.24-3.5l0.84-0.54
				c0.4,1.22,1.13,2.4,2.08,3.38c0.5-0.45,1.14-0.91,1.72-1.22l-0.07-0.05l-0.04-0.03c-0.45-0.35-0.88-0.77-1.24-1.19l0.72-0.67
				c0.77,1.01,2.21,2,3.6,2.47l-0.16,1c-0.35-0.15-0.46-0.19-0.69-0.3l0.01,2.63L595.86,205.78z M593.18,195.42l0.01,2.74l2.61-0.01
				l-0.01-2.74L593.18,195.42z M595.05,201.75c-0.68,0.38-1.18,0.75-1.81,1.34c0.71,0.61,1.43,1.07,2.29,1.46l-0.01-2.52
				c-0.1-0.05-0.19-0.11-0.39-0.23L595.05,201.75z"/>
			<path d="M588.07,224.44l0.35-7.15l-1-0.05l-0.38,7.81l-3.46-0.17l0.05-1.08l0.57,0.03l0.33-6.73l-0.57-0.03L584,216l7.23,0.35
				l-0.4,8.23L588.07,224.44z M585.33,217.15l-0.33,6.73l1.3,0.06l0.33-6.73L585.33,217.15z M589.2,217.34l-0.3,6.09l1.2,0.06
				l0.3-6.09L589.2,217.34z M594.65,224.02c-0.29,0.19-0.64,0.39-1.1,0.63l-0.29-0.96c0.5-0.22,0.99-0.47,1.45-0.74l0.04-0.83
				c-0.5-0.32-0.85-0.6-1.19-0.93l-0.76-0.04l-0.26,5.44l-2.26-0.11l0.05-1.06l1.45,0.07l0.47-9.79l-1.45-0.07l0.05-1.04l2.26,0.11
				l-0.26,5.37l0.81,0.04l-0.05,0.96l0.56-0.68c0.63,0.65,1.53,1.21,2.49,1.56l-0.21,1.03c-0.41-0.18-0.61-0.27-0.89-0.42
				l-0.21,4.32l-0.84-0.04L594.65,224.02z M594.92,218.44c-0.4,0.22-0.78,0.41-1.14,0.54l-0.29-0.98c0.57-0.19,0.93-0.33,1.48-0.63
				l0.04-0.81c-0.51-0.38-1.03-0.88-1.36-1.31l0.64-0.78c0.64,0.87,1.57,1.57,2.63,2.01l-0.23,1.05c-0.36-0.17-0.57-0.27-0.86-0.43
				l-0.16,3.37l-0.84-0.04L594.92,218.44z"/>
			<path d="M588.23,240.56l0.21-3.11l-1.57-0.11l-0.23,3.34l-0.91-0.06l0.23-3.34l-1.76-0.12l-0.26,3.83l-0.93-0.06l0.61-8.88
				l0.93,0.06l-0.28,4.07l1.76,0.12l0.22-3.15l0.91,0.06l-0.22,3.15l1.57,0.11l0.21-2.99l6.57,0.45l-0.49,7.08L588.23,240.56z
				 M591.16,231.47l-0.1,1.47l-0.97-0.07l0.1-1.47l-3.31-0.23c0.26,0.83,0.32,1.01,0.51,1.53l-0.97,0.03
				c-0.46-1.16-0.96-2.78-1.37-4.39l1.08-0.25c0.13,0.67,0.3,1.38,0.47,2.04l3.66,0.25l0.11-1.64l0.97,0.07l-0.11,1.64l3.15,0.22
				l0.12-1.8l0.97,0.07l-0.31,4.47l-0.97-0.07l0.11-1.66L591.16,231.47z M591.15,239.78l0.15-2.14l-1.97-0.14l-0.15,2.14
				L591.15,239.78z M589.53,234.5l-0.14,2.03l1.97,0.14l0.14-2.03L589.53,234.5z M593.97,239.98l0.15-2.14l-1.93-0.13l-0.15,2.14
				L593.97,239.98z M592.4,234.69l-0.14,2.03l1.93,0.13l0.14-2.03L592.4,234.69z"/>
			<path d="M590.56,250.45c0.98,1.46,2.08,2.69,3.27,3.7l-0.6,0.88c-0.95-0.88-2.01-2.09-2.8-3.16l-0.36,3.98l-0.89-0.08l0.46-5.07
				l-0.08-0.13c-0.37-0.59-0.82-1.43-1.23-2.29l-0.49,5.38l-6.41-0.58l0.1-1.07l0.67,0.06l0.52-5.69l-0.67-0.06l0.1-1.07l5.07,0.46
				c-0.29-0.71-0.63-1.73-0.88-2.61l0.95-0.47c0.54,2.32,1.44,4.69,2.49,6.55l0.55-6.1l0.89,0.08l-0.46,5.08l1.63,0.15l0.31-3.39
				l0.85,0.08l-0.31,3.39l1.51,0.14l-0.1,1.07l-1.51-0.14l-0.26,2.83l-0.85-0.08l0.26-2.83l-1.63-0.15L590.56,250.45z
				 M583.58,246.46l-0.52,5.69l1.67,0.15l0.52-5.69L583.58,246.46z M586.09,246.69l-0.52,5.69l1.52,0.14l0.52-5.69L586.09,246.69z"
				/>
			<path d="M587.94,270.18c-2.96,0.46-6.01,2.38-7.77,4.88l-0.92-0.8c1.91-2.48,4.52-4.14,7.46-4.78c-3.09-1.08-5.27-3.33-6.22-6.42
				l0.97-0.6c0.84,3.17,3.38,5.63,6.63,6.41l0.64-5.44l1.02,0.12l-0.64,5.48l3.35,0.39l-0.13,1.09l-3.35-0.39l-0.65,5.57l-1.02-0.12
				L587.94,270.18z"/>
			<path d="M589,290.17c-1.02-0.94-1.79-1.76-2.4-2.58c-0.25,0.2-0.52,0.39-0.8,0.59l-0.48-0.72l-0.26,2.23l-0.54,0.4
				c-1.21-0.59-2.15-1.12-2.96-1.69l0.47-0.89c0.7,0.53,1.51,1.02,2.19,1.34l0.2-1.71l-5.79-0.66c-0.74-0.08-0.96-0.41-0.87-1.25
				c0.06-0.52,0.17-1.1,0.29-1.59l0.99-0.06c-0.16,0.7-0.27,1.26-0.3,1.57c-0.02,0.22,0.05,0.31,0.28,0.33l5.52,0.63l0.25-2.14
				l0.92,0.1l-0.37,3.2l0.1-0.07c0.84-0.54,1.8-1.33,2.55-2.07l0.53,0.74c-0.43,0.43-0.83,0.78-1.26,1.15
				c0.55,0.68,1.1,1.24,1.56,1.61l0.44-3.81l0.89,0.1l-0.55,4.76L589,290.17z M584.38,283.57l0.28-2.45l-1.59-0.18l-0.29,2.52
				l-0.89-0.1l0.29-2.52l-1.8-0.21c0.01,0.23,0.02,0.38,0.02,0.4l0.01,0.16c0.02,0.55,0.05,1.11,0.15,2.36l-0.88-0.03
				c-0.21-1.88-0.36-4.57-0.4-6.77l1.01-0.23c0,1.68,0,2,0.06,3.09l1.95,0.22l0.29-2.57l0.89,0.1l-0.29,2.57l1.59,0.18l0.27-2.4
				l5.85,0.67l-0.67,5.84L584.38,283.57z M587.02,282.99l0.18-1.6l-1.7-0.19l-0.18,1.6L587.02,282.99z M585.79,278.73l-0.17,1.52
				l1.7,0.19l0.17-1.52L585.79,278.73z M589.48,283.27l0.18-1.6l-1.62-0.19l-0.18,1.6L589.48,283.27z M588.34,279.02l-0.17,1.52
				l1.62,0.18l0.17-1.52L588.34,279.02z"/>
			<path d="M577.49,297.3c0.73,1.25,1.57,2.18,2.86,3.2c1.37-0.33,3.34-0.5,5.64-0.48l0.21-3.34l-1.95-0.13l-0.18,2.81
				c-1.85-0.12-3.67-0.36-4.36-0.55c-0.59-0.17-0.82-0.53-0.78-1.2c0.02-0.28,0.08-0.67,0.17-1.01l0.95-0.06
				c-0.09,0.35-0.17,0.72-0.18,0.92c-0.02,0.31,0.08,0.44,0.5,0.53c0.49,0.13,1.77,0.29,2.85,0.39l0.12-1.89
				c-3.14-0.21-4.86-0.69-6.41-1.8l0.7-0.81c1.31,0.97,3,1.43,5.9,1.61l3.66,0.24l-0.28,4.3c0.75,0.01,1.5,0.04,2.46,0.1l-0.06,1
				c-1.03-0.07-1.57-0.09-2.32-0.09l-0.15-0.01l-0.2,3.11l-0.93-0.06l0.2-3.06c-1.67-0.01-3.2,0.08-4.4,0.27
				c0.86,0.54,1.84,1.01,2.87,1.38l-0.49,0.91c-1.61-0.71-2.61-1.25-3.71-2.02c-1.19,0.32-2.39,0.86-2.4,1.07
				c-0.01,0.14,0.75,0.35,1.8,0.54l-0.57,0.78c-1.83-0.31-2.62-0.68-2.58-1.24c0.04-0.55,0.96-1.19,2.78-1.88
				c-1-0.84-1.85-1.82-2.52-2.89L577.49,297.3z M589.74,293.18l-0.06,1l-3.22-0.21l-0.08,1.26l-0.96-0.06l0.08-1.26l-4.76-0.31
				c0.16,0.43,0.32,0.86,0.5,1.28l-0.94,0.05c-0.49-1-1.05-2.48-1.39-3.71l1.04-0.29c0.13,0.54,0.29,1.15,0.45,1.64l5.16,0.33
				l0.09-1.47l0.96,0.06l-0.09,1.47L589.74,293.18z M586.87,302.81c0.66-0.28,1.32-0.66,1.89-1.09l0.4,0.77
				c-0.54,0.41-1.18,0.82-1.84,1.14L586.87,302.81z"/>
			<path d="M587.69,318.39l-0.98,0.04l-0.22-5.96l-1.73,0.06l0.17,4.59l-5.41,0.2c-0.79,0.03-1.08-0.31-1.12-1.27
				c-0.02-0.56-0.01-1.11,0.02-1.67l1.02-0.21c-0.07,0.68-0.09,1.2-0.07,1.64c0.01,0.35,0.08,0.43,0.41,0.42l4.16-0.15l-0.13-3.51
				l-7.36,0.27l-0.04-1.07l7.36-0.27l-0.12-3.33l-5.68,0.21l-0.04-1.07l6.63-0.25l0.16,4.4l1.73-0.06l-0.22-5.84l0.98-0.04
				l0.22,5.84l1.86-0.07l0.04,1.07l-1.86,0.07L587.69,318.39z"/>
		</g>
		<path class="st30" d="M560.57,31.81c0,0,47.23,90.3,44.22,177.16s-16.29,85.85,0.14,150.6c16.43,64.75,33.49,109.92,33.49,109.92"
			/>
		<g>
			<rect x="238.5" y="241.95" class="st23" width="18.37" height="4.06"/>
			<rect x="238.5" y="246.01" class="st23" width="18.37" height="4.06"/>
			<rect x="238.5" y="250.07" class="st23" width="18.37" height="8.85"/>
			<polygon points="247.68,256.99 250.4,253.22 244.96,253.22 			"/>
		</g>
		<g>
			<rect x="362.1" y="245.64" class="st23" width="19.82" height="4.06"/>
			<rect x="362.1" y="249.7" class="st23" width="19.82" height="8.85"/>
			<polygon points="372.01,256.62 374.95,252.85 369.08,252.85 			"/>
		</g>
		<g>
			
				<rect x="410.11" y="350.06" transform="matrix(0.2763 -0.9611 0.9611 0.2763 -37.1988 662.3865)" class="st23" width="22.25" height="11.66"/>
			
				<rect x="412.59" y="353.09" transform="matrix(0.2763 -0.9611 0.9611 0.2763 -37.8415 664.7827)" class="st23" width="19.82" height="8.85"/>
			<polygon points="424.9,358.21 422.09,354.35 420.46,359.99 			"/>
		</g>
		<g>
			<polygon class="st23" points="496.67,193.25 493.8,213.75 471.43,210.09 474.3,189.59 			"/>
			<polygon points="490.79,203.47 486.28,198.32 484.91,206.78 			"/>
		</g>
		<g>
			<g>
				<path class="st32" d="M287.2,126.73h1.22v3.1h4.93v-3.1h1.2v3.1h3.05v1.08h-3.05v4.49h3.89v1.08h-15.02v-1.08h3.78v-4.49h-2.96
					v-1.08h2.96V126.73z M283.93,140.69c1.61-0.79,3.3-2.23,4.35-3.65l1.06,0.68c-1.23,1.58-2.83,2.97-4.51,3.95L283.93,140.69z
					 M288.42,130.91v4.49h4.93v-4.49H288.42z M296.91,141.61c-1.5-1.5-3.02-2.78-4.51-3.83l0.9-0.76c1.5,0.95,2.91,2.05,4.55,3.6
					L296.91,141.61z"/>
				<path class="st32" d="M304.06,138.45c1.19,1.23,2.69,1.75,5.3,1.8h6.48c-0.17,0.32-0.28,0.63-0.41,1.11h-6.09
					c-2.81-0.03-4.51-0.63-5.79-2.04c-0.74,1-1.55,1.85-2.28,2.43l-0.65-1.12c0.73-0.54,1.5-1.2,2.23-1.91v-4.13h-2.2v-1.08h3.4
					V138.45z M303.44,130.62c-0.7-1.04-1.47-2.01-2.26-2.77l0.87-0.73c0.77,0.68,1.53,1.53,2.34,2.64L303.44,130.62z M314.59,130.54
					v7.78c0,0.85-0.28,1.14-1.15,1.14c-0.46,0-1.04-0.03-1.61-0.1l-0.19-1.01c0.49,0.08,0.96,0.11,1.42,0.11
					c0.33,0,0.38-0.05,0.38-0.4v-1.66h-2.83v2.81h-1.11v-2.81h-2.73v3h-1.15v-8.87h4.24c-0.87-0.47-1.79-0.93-2.75-1.36l0.74-0.65
					c0.89,0.41,1.31,0.62,2.12,1.04c0.73-0.36,1.77-0.96,2.23-1.28h-6.51v-0.98h7.95l0.65,0.66c-0.82,0.65-2.15,1.45-3.43,2.09
					l0.19,0.13c0.36,0.21,0.4,0.22,0.58,0.35H314.59z M306.76,133.01h2.73v-1.55h-2.73V133.01z M306.76,135.49h2.73v-1.58h-2.73
					V135.49z M310.6,133.01h2.83v-1.55h-2.83V133.01z M313.43,133.91h-2.83v1.58h2.83V133.91z"/>
				<path class="st32" d="M321.43,138.46c1.28,1.28,2.75,1.77,5.41,1.79h6.21c-0.16,0.35-0.28,0.71-0.38,1.12h-6.01
					c-2.77-0.03-4.3-0.55-5.66-1.93c-0.71,0.84-1.61,1.69-2.47,2.32l-0.7-1.12c0.74-0.44,1.58-1.08,2.39-1.82v-4.24h-2.34v-1.08
					h3.54V138.46z M320.75,130.58c-0.74-1.06-1.55-2.01-2.31-2.69l0.87-0.73c0.92,0.81,1.72,1.68,2.37,2.58L320.75,130.58z
					 M322.3,129.74v-1h2.8c-0.27-0.51-0.62-1.03-1.01-1.52l1.11-0.43c0.51,0.71,0.82,1.26,1.14,1.94h2.05
					c0.3-0.55,0.66-1.39,0.87-1.98l1.25,0.32c-0.25,0.55-0.58,1.19-0.9,1.66h2.96v1h-4.57c-0.08,0.27-0.33,0.93-0.49,1.31h3.97v8.06
					h-8.05v-8.06h2.91c0.19-0.52,0.33-0.95,0.41-1.31H322.3z M324.6,133.41h5.69v-1.45h-5.69V133.41z M324.6,135.7h5.69v-1.44h-5.69
					V135.7z M324.6,138.18h5.69v-1.58h-5.69V138.18z"/>
				<path class="st32" d="M341.23,132.52h-2.04v2.5h2.05v1.04h-2.05v3.3c0.43-0.11,1.63-0.46,2.42-0.71l0.11,1.03
					c-1.88,0.66-4.16,1.31-6.23,1.77l-0.41-1.12l0.84-0.17v-6.17h1.08v5.93l0.4-0.09l0.38-0.09l0.33-0.08v-7.13h-2.31v-5.14h5.44
					V132.52z M336.91,131.49h3.19v-3.05h-3.19V131.49z M349.01,128.39c-0.6,1.47-1.38,2.74-2.32,3.81c1,0.87,2.23,1.63,3.62,2.2
					l-0.6,1.04c-1.42-0.63-2.75-1.5-3.78-2.47c-1.15,1.09-2.51,1.96-4.09,2.61l-0.63-0.98c1.42-0.46,2.8-1.31,3.95-2.42
					c-0.52-0.58-1.06-1.33-1.42-2.01l-0.06,0.08l-0.03,0.05c-0.41,0.52-0.9,1.03-1.39,1.44l-0.77-0.84c1.19-0.9,2.34-2.58,2.89-4.19
					l1.17,0.19c-0.17,0.41-0.22,0.54-0.35,0.81h3.07L349.01,128.39z M348.94,141.75h-1.15v-0.93h-4.03v0.93h-1.15v-6.23h6.34V141.75
					z M343.76,139.78h4.03v-3.19h-4.03V139.78z M344.31,129.33c0.44,0.79,0.87,1.38,1.56,2.12c0.71-0.82,1.25-1.66,1.71-2.67h-2.94
					c-0.06,0.11-0.13,0.22-0.27,0.46L344.31,129.33z"/>
				<path class="st32" d="M250.17,159.54c-1.03-0.92-1.66-1.79-2.32-3.11c-0.71-1.45-1.11-3.02-1.11-4.39
					c0-2.66,1.41-5.72,3.43-7.51h1.15c-2.31,2.64-3.27,4.87-3.27,7.52c0,2.64,0.98,4.87,3.27,7.49H250.17z"/>
				<path class="st32" d="M266.4,146.4l0.84,0.71c-0.62,2.63-2.26,4.44-4.9,5.41l-0.74-0.95c2.05-0.6,3.81-2.29,4.2-4.05h-11.43
					v-1.12H266.4z M260.75,149.28v1.3c0,4.52-0.89,6.34-3.87,7.94l-0.92-0.95c1.47-0.68,2.29-1.49,2.97-2.88
					c0.38-0.77,0.57-2.18,0.57-4.11v-1.3H260.75z"/>
				<path class="st32" d="M280.29,146.4l0.77,0.71c-0.76,1.99-1.75,3.81-3.07,5.58c1.63,1.26,3.41,2.92,4.85,4.54l-0.95,1.04
					c-1.25-1.45-3.1-3.32-4.63-4.66c-1.63,2.01-3.9,3.72-6.31,4.73l-0.73-1.12c4-1.49,7.51-5.15,9.28-9.69h-8.25v-1.12H280.29z"/>
				<path class="st32" d="M298.08,146.67c-0.14,7.38-2.39,10.39-8.84,11.87l-0.65-1.12c5.63-1.03,8-3.86,8.09-9.61H286.4v-1.14
					H298.08z"/>
				<path class="st32" d="M312.53,148.53l0.73,0.65c-0.49,2.25-1.83,3.71-4.14,4.55l-0.68-0.92c1.82-0.51,3.19-1.79,3.48-3.24h-9.41
					v-1.04H312.53z M307.92,150.89v1.14c-0.02,3.84-0.79,5.41-3.35,6.7l-0.82-0.87c2.32-1.14,3.02-2.48,3.02-5.83v-1.14H307.92z"/>
				<path class="st32" d="M321.53,145.94v2.7c0,2.84-0.14,4.25-0.6,5.71c-0.49,1.52-1.71,3.04-3.16,3.94l-0.85-0.98
					c2.66-1.85,3.4-3.73,3.37-8.62v-2.75H321.53z M325.37,145.5v11.24c2.34-1.04,4.27-3.43,4.98-6.17l0.96,0.98
					c-1.03,3.21-3.18,5.55-6.26,6.81l-0.93-0.81V145.5H325.37z"/>
				<path class="st32" d="M336.9,145.21v4.39c3.04,0.93,5.93,2.04,7.57,2.89l-0.65,1.17c-1.83-0.95-4.63-2.09-6.92-2.83v7.9h-1.3
					v-13.53H336.9z"/>
				<path class="st32" d="M351.08,144.52c0.89,0.87,1.85,1.98,2.61,2.96l-0.77,0.93c-0.55-0.84-1.39-1.9-2.29-2.91
					c-0.87,1.68-1.96,3.07-3.21,4.11l-0.58-0.9c1.2-0.98,2.37-2.61,3.04-4.19H351.08z M349.93,150.26h-2.06v-0.96h2.06v-1.83h1.14
					v1.83h2.1v0.96h-2.1v1.74h2.61v0.95h-6.61v-0.95h2.86V150.26z M353.01,159.35h-1.14v-0.66h-2.88v0.85h-1.14v-5.44h5.15V159.35z
					 M348.99,157.69h2.88v-2.61h-2.88V157.69z M357.09,147.74h-3.34v-1.08h3.34v-2.15h1.09v2.15h3.9v1.08h-3.9v1.44h3.27v9.15
					c0,0.79-0.33,1.11-1.17,1.11c-0.32,0-0.73-0.03-1.19-0.08l-0.22-1.14c0.41,0.06,0.88,0.11,1.17,0.11c0.25,0,0.33-0.08,0.33-0.36
					v-2.45h-2.2v3.64h-1.09v-3.64h-2.01v4.02h-1.04v-10.35h3.05V147.74z M355.08,150.18v1.63h2.01v-1.63H355.08z M355.08,152.77
					v1.79h2.01v-1.79H355.08z M358.18,151.81h2.2v-1.63h-2.2V151.81z M358.18,154.56h2.2v-1.79h-2.2V154.56z M360.56,146.64
					c-0.47-0.65-0.92-1.15-1.45-1.66l0.82-0.51c0.54,0.44,1.04,1,1.49,1.63L360.56,146.64z"/>
				<path class="st32" d="M378.54,159.28c-3.32-0.93-5.79-2.94-6.73-5.5c-0.7,0.63-1.49,1.2-2.34,1.71v2.42
					c1.11-0.21,2.83-0.6,4.11-0.96l0.06,1.03c-1.98,0.62-4.43,1.15-7.15,1.55l-0.41-1.08c0.87-0.11,1.23-0.17,2.15-0.32v-2.01
					c-1.03,0.47-2.06,0.85-3.34,1.2l-0.65-0.92c2.48-0.6,4.6-1.53,6.13-2.67h-6.07v-1.03h6.81v-1.28h1.23v1.28h6.96v1.03h-6.42
					c0.43,0.84,0.96,1.53,1.64,2.17l0.1-0.08c0.89-0.6,1.75-1.33,2.28-1.9l1.06,0.7c-0.74,0.65-1.64,1.28-2.66,1.9
					c1.07,0.76,2.34,1.28,4.02,1.71L378.54,159.28z M368,149.35c-1.04,0.68-2.13,1.3-2.94,1.68l-0.54-1.01
					c0.95-0.36,2.24-1.01,3.48-1.77v-3.73h1.2v7.21H368V149.35z M366.83,147.93c-0.58-0.82-1.26-1.64-1.83-2.17l0.79-0.73
					c0.71,0.66,1.41,1.44,1.88,2.1L366.83,147.93z M373.67,144.52h1.22v1.93h4.14v1.01h-4.14v2.53h3.56v1.03h-8.14v-1.03h3.37v-2.53
					h-3.92v-1.01h3.92V144.52z"/>
				<path class="st32" d="M382.24,159.54c2.29-2.64,3.27-4.87,3.27-7.51c0-2.64-0.96-4.85-3.27-7.51h1.15
					c1.03,0.93,1.66,1.79,2.32,3.11c0.71,1.45,1.11,3.02,1.11,4.39c0,2.66-1.41,5.72-3.43,7.51H382.24z"/>
			</g>
			<g>
				<path d="M287.2,126.73h1.22v3.1h4.93v-3.1h1.2v3.1h3.05v1.08h-3.05v4.49h3.89v1.08h-15.02v-1.08h3.78v-4.49h-2.96v-1.08h2.96
					V126.73z M283.93,140.69c1.61-0.79,3.3-2.23,4.35-3.65l1.06,0.68c-1.23,1.58-2.83,2.97-4.51,3.95L283.93,140.69z M288.42,130.91
					v4.49h4.93v-4.49H288.42z M296.91,141.61c-1.5-1.5-3.02-2.78-4.51-3.83l0.9-0.76c1.5,0.95,2.91,2.05,4.55,3.6L296.91,141.61z"/>
				<path d="M304.06,138.45c1.19,1.23,2.69,1.75,5.3,1.8h6.48c-0.17,0.32-0.28,0.63-0.41,1.11h-6.09c-2.81-0.03-4.51-0.63-5.79-2.04
					c-0.74,1-1.55,1.85-2.28,2.43l-0.65-1.12c0.73-0.54,1.5-1.2,2.23-1.91v-4.13h-2.2v-1.08h3.4V138.45z M303.44,130.62
					c-0.7-1.04-1.47-2.01-2.26-2.77l0.87-0.73c0.77,0.68,1.53,1.53,2.34,2.64L303.44,130.62z M314.59,130.54v7.78
					c0,0.85-0.28,1.14-1.15,1.14c-0.46,0-1.04-0.03-1.61-0.1l-0.19-1.01c0.49,0.08,0.96,0.11,1.42,0.11c0.33,0,0.38-0.05,0.38-0.4
					v-1.66h-2.83v2.81h-1.11v-2.81h-2.73v3h-1.15v-8.87h4.24c-0.87-0.47-1.79-0.93-2.75-1.36l0.74-0.65
					c0.89,0.41,1.31,0.62,2.12,1.04c0.73-0.36,1.77-0.96,2.23-1.28h-6.51v-0.98h7.95l0.65,0.66c-0.82,0.65-2.15,1.45-3.43,2.09
					l0.19,0.13c0.36,0.21,0.4,0.22,0.58,0.35H314.59z M306.76,133.01h2.73v-1.55h-2.73V133.01z M306.76,135.49h2.73v-1.58h-2.73
					V135.49z M310.6,133.01h2.83v-1.55h-2.83V133.01z M313.43,133.91h-2.83v1.58h2.83V133.91z"/>
				<path d="M321.43,138.46c1.28,1.28,2.75,1.77,5.41,1.79h6.21c-0.16,0.35-0.28,0.71-0.38,1.12h-6.01
					c-2.77-0.03-4.3-0.55-5.66-1.93c-0.71,0.84-1.61,1.69-2.47,2.32l-0.7-1.12c0.74-0.44,1.58-1.08,2.39-1.82v-4.24h-2.34v-1.08
					h3.54V138.46z M320.75,130.58c-0.74-1.06-1.55-2.01-2.31-2.69l0.87-0.73c0.92,0.81,1.72,1.68,2.37,2.58L320.75,130.58z
					 M322.3,129.74v-1h2.8c-0.27-0.51-0.62-1.03-1.01-1.52l1.11-0.43c0.51,0.71,0.82,1.26,1.14,1.94h2.05
					c0.3-0.55,0.66-1.39,0.87-1.98l1.25,0.32c-0.25,0.55-0.58,1.19-0.9,1.66h2.96v1h-4.57c-0.08,0.27-0.33,0.93-0.49,1.31h3.97v8.06
					h-8.05v-8.06h2.91c0.19-0.52,0.33-0.95,0.41-1.31H322.3z M324.6,133.41h5.69v-1.45h-5.69V133.41z M324.6,135.7h5.69v-1.44h-5.69
					V135.7z M324.6,138.18h5.69v-1.58h-5.69V138.18z"/>
				<path d="M341.23,132.52h-2.04v2.5h2.05v1.04h-2.05v3.3c0.43-0.11,1.63-0.46,2.42-0.71l0.11,1.03c-1.88,0.66-4.16,1.31-6.23,1.77
					l-0.41-1.12l0.84-0.17v-6.17h1.08v5.93l0.4-0.09l0.38-0.09l0.33-0.08v-7.13h-2.31v-5.14h5.44V132.52z M336.91,131.49h3.19v-3.05
					h-3.19V131.49z M349.01,128.39c-0.6,1.47-1.38,2.74-2.32,3.81c1,0.87,2.23,1.63,3.62,2.2l-0.6,1.04
					c-1.42-0.63-2.75-1.5-3.78-2.47c-1.15,1.09-2.51,1.96-4.09,2.61l-0.63-0.98c1.42-0.46,2.8-1.31,3.95-2.42
					c-0.52-0.58-1.06-1.33-1.42-2.01l-0.06,0.08l-0.03,0.05c-0.41,0.52-0.9,1.03-1.39,1.44l-0.77-0.84c1.19-0.9,2.34-2.58,2.89-4.19
					l1.17,0.19c-0.17,0.41-0.22,0.54-0.35,0.81h3.07L349.01,128.39z M348.94,141.75h-1.15v-0.93h-4.03v0.93h-1.15v-6.23h6.34V141.75
					z M343.76,139.78h4.03v-3.19h-4.03V139.78z M344.31,129.33c0.44,0.79,0.87,1.38,1.56,2.12c0.71-0.82,1.25-1.66,1.71-2.67h-2.94
					c-0.06,0.11-0.13,0.22-0.27,0.46L344.31,129.33z"/>
				<path d="M250.17,159.54c-1.03-0.92-1.66-1.79-2.32-3.11c-0.71-1.45-1.11-3.02-1.11-4.39c0-2.66,1.41-5.72,3.43-7.51h1.15
					c-2.31,2.64-3.27,4.87-3.27,7.52c0,2.64,0.98,4.87,3.27,7.49H250.17z"/>
				<path d="M266.4,146.4l0.84,0.71c-0.62,2.63-2.26,4.44-4.9,5.41l-0.74-0.95c2.05-0.6,3.81-2.29,4.2-4.05h-11.43v-1.12H266.4z
					 M260.75,149.28v1.3c0,4.52-0.89,6.34-3.87,7.94l-0.92-0.95c1.47-0.68,2.29-1.49,2.97-2.88c0.38-0.77,0.57-2.18,0.57-4.11v-1.3
					H260.75z"/>
				<path d="M280.29,146.4l0.77,0.71c-0.76,1.99-1.75,3.81-3.07,5.58c1.63,1.26,3.41,2.92,4.85,4.54l-0.95,1.04
					c-1.25-1.45-3.1-3.32-4.63-4.66c-1.63,2.01-3.9,3.72-6.31,4.73l-0.73-1.12c4-1.49,7.51-5.15,9.28-9.69h-8.25v-1.12H280.29z"/>
				<path d="M298.08,146.67c-0.14,7.38-2.39,10.39-8.84,11.87l-0.65-1.12c5.63-1.03,8-3.86,8.09-9.61H286.4v-1.14H298.08z"/>
				<path d="M312.53,148.53l0.73,0.65c-0.49,2.25-1.83,3.71-4.14,4.55l-0.68-0.92c1.82-0.51,3.19-1.79,3.48-3.24h-9.41v-1.04H312.53
					z M307.92,150.89v1.14c-0.02,3.84-0.79,5.41-3.35,6.7l-0.82-0.87c2.32-1.14,3.02-2.48,3.02-5.83v-1.14H307.92z"/>
				<path d="M321.53,145.94v2.7c0,2.84-0.14,4.25-0.6,5.71c-0.49,1.52-1.71,3.04-3.16,3.94l-0.85-0.98c2.66-1.85,3.4-3.73,3.37-8.62
					v-2.75H321.53z M325.37,145.5v11.24c2.34-1.04,4.27-3.43,4.98-6.17l0.96,0.98c-1.03,3.21-3.18,5.55-6.26,6.81l-0.93-0.81V145.5
					H325.37z"/>
				<path d="M336.9,145.21v4.39c3.04,0.93,5.93,2.04,7.57,2.89l-0.65,1.17c-1.83-0.95-4.63-2.09-6.92-2.83v7.9h-1.3v-13.53H336.9z"
					/>
				<path d="M351.08,144.52c0.89,0.87,1.85,1.98,2.61,2.96l-0.77,0.93c-0.55-0.84-1.39-1.9-2.29-2.91
					c-0.87,1.68-1.96,3.07-3.21,4.11l-0.58-0.9c1.2-0.98,2.37-2.61,3.04-4.19H351.08z M349.93,150.26h-2.06v-0.96h2.06v-1.83h1.14
					v1.83h2.1v0.96h-2.1v1.74h2.61v0.95h-6.61v-0.95h2.86V150.26z M353.01,159.35h-1.14v-0.66h-2.88v0.85h-1.14v-5.44h5.15V159.35z
					 M348.99,157.69h2.88v-2.61h-2.88V157.69z M357.09,147.74h-3.34v-1.08h3.34v-2.15h1.09v2.15h3.9v1.08h-3.9v1.44h3.27v9.15
					c0,0.79-0.33,1.11-1.17,1.11c-0.32,0-0.73-0.03-1.19-0.08l-0.22-1.14c0.41,0.06,0.88,0.11,1.17,0.11c0.25,0,0.33-0.08,0.33-0.36
					v-2.45h-2.2v3.64h-1.09v-3.64h-2.01v4.02h-1.04v-10.35h3.05V147.74z M355.08,150.18v1.63h2.01v-1.63H355.08z M355.08,152.77
					v1.79h2.01v-1.79H355.08z M358.18,151.81h2.2v-1.63h-2.2V151.81z M358.18,154.56h2.2v-1.79h-2.2V154.56z M360.56,146.64
					c-0.47-0.65-0.92-1.15-1.45-1.66l0.82-0.51c0.54,0.44,1.04,1,1.49,1.63L360.56,146.64z"/>
				<path d="M378.54,159.28c-3.32-0.93-5.79-2.94-6.73-5.5c-0.7,0.63-1.49,1.2-2.34,1.71v2.42c1.11-0.21,2.83-0.6,4.11-0.96
					l0.06,1.03c-1.98,0.62-4.43,1.15-7.15,1.55l-0.41-1.08c0.87-0.11,1.23-0.17,2.15-0.32v-2.01c-1.03,0.47-2.06,0.85-3.34,1.2
					l-0.65-0.92c2.48-0.6,4.6-1.53,6.13-2.67h-6.07v-1.03h6.81v-1.28h1.23v1.28h6.96v1.03h-6.42c0.43,0.84,0.96,1.53,1.64,2.17
					l0.1-0.08c0.89-0.6,1.75-1.33,2.28-1.9l1.06,0.7c-0.74,0.65-1.64,1.28-2.66,1.9c1.07,0.76,2.34,1.28,4.02,1.71L378.54,159.28z
					 M368,149.35c-1.04,0.68-2.13,1.3-2.94,1.68l-0.54-1.01c0.95-0.36,2.24-1.01,3.48-1.77v-3.73h1.2v7.21H368V149.35z
					 M366.83,147.93c-0.58-0.82-1.26-1.64-1.83-2.17l0.79-0.73c0.71,0.66,1.41,1.44,1.88,2.1L366.83,147.93z M373.67,144.52h1.22
					v1.93h4.14v1.01h-4.14v2.53h3.56v1.03h-8.14v-1.03h3.37v-2.53h-3.92v-1.01h3.92V144.52z"/>
				<path d="M382.24,159.54c2.29-2.64,3.27-4.87,3.27-7.51c0-2.64-0.96-4.85-3.27-7.51h1.15c1.03,0.93,1.66,1.79,2.32,3.11
					c0.71,1.45,1.11,3.02,1.11,4.39c0,2.66-1.41,5.72-3.43,7.51H382.24z"/>
			</g>
		</g>
		<g>
			<path d="M231.17,280.77c-0.9,0.4-2.66,0.94-3.88,1.2l-0.44-1.5c1.84-0.38,3.9-1.14,4.84-1.78h1.34v16.5h-1.86V280.77z"/>
			<path d="M243.81,287.33c-0.2,0.72-0.44,1.4-0.66,1.96h11.24c-0.16,2.44-0.56,4.62-1.06,5.72c-0.5,1.12-1.14,1.44-2.94,1.44
				c-1.06,0-2.48-0.06-3.46-0.14l-0.36-1.52c1.38,0.12,2.72,0.2,3.68,0.2c1,0,1.3-0.16,1.58-0.8c0.24-0.62,0.56-2.02,0.76-3.54
				h-9.98c-0.26,0.56-0.54,1.14-0.84,1.7l-1.62-0.46c0.72-1.28,1.38-2.8,1.98-4.56h-4.46v-1.36h19v1.36H243.81z M253.69,284.15
				h-13.06v-5.68h13.06V284.15z M242.24,282.87h9.82v-3.08h-9.82V282.87z"/>
			<path d="M262.62,286.67c-0.64,2.04-1.46,3.88-2.42,5.42l-0.74-1.6c1.3-1.94,2.32-4.36,3.02-7.22h-2.74v-1.4h2.88v-4.28h1.48v4.28
				h2.08v1.4h-2.08v1.86c0.9,0.74,1.74,1.54,2.46,2.34l-0.84,1.34c-0.36-0.54-1.02-1.38-1.62-2.06v9.84h-1.48V286.67z
				 M273.79,289.45c1.28,1.84,2.96,3.32,5.1,4.52l-0.94,1.4c-2.1-1.32-3.96-3.16-5.16-5.12v6.34h-1.42v-6.22
				c-1.26,2.14-2.96,3.9-5.14,5.28l-1-1.22c2.18-1.22,3.92-2.86,5.24-4.98h-3.7v-7.12h4.6v-1.48h-5.64v-1.3h5.64v-1.96h1.42v1.96
				h5.76v1.3h-5.76v1.48h4.74v7.12H273.79z M268.19,283.55v1.7h3.18v-1.7H268.19z M268.19,286.47v1.74h3.18v-1.74H268.19z
				 M272.79,285.25h3.34v-1.7h-3.34V285.25z M272.79,288.21h3.34v-1.74h-3.34V288.21z"/>
		</g>
		<g>
			<path d="M330.44,306.17c0.52-2.14,2.28-4.28,4.98-6.08l0.52-0.34c2.8-1.82,3.54-2.7,3.54-4.16c0-1.64-1.36-2.74-3.42-2.74
				c-1.68,0-2.86,0.62-4.14,2.14l-1.26-1.06c1.52-1.88,3.14-2.68,5.48-2.68c3.12,0,5.4,1.84,5.4,4.38c0,2.02-0.78,2.96-4.36,5.24
				l-0.72,0.46c-2.38,1.56-3.88,3.28-4.06,4.72h9.38v1.7h-11.34V306.17z"/>
			<path d="M351.62,299.89c-0.2,0.72-0.44,1.4-0.66,1.96h11.24c-0.16,2.44-0.56,4.62-1.06,5.72c-0.5,1.12-1.14,1.44-2.94,1.44
				c-1.06,0-2.48-0.06-3.46-0.14l-0.36-1.52c1.38,0.12,2.72,0.2,3.68,0.2c1,0,1.3-0.16,1.58-0.8c0.24-0.62,0.56-2.02,0.76-3.54
				h-9.98c-0.26,0.56-0.54,1.14-0.84,1.7l-1.62-0.46c0.72-1.28,1.38-2.8,1.98-4.56h-4.46v-1.36h19v1.36H351.62z M361.5,296.71
				h-13.06v-5.68h13.06V296.71z M350.06,295.43h9.82v-3.08h-9.82V295.43z"/>
			<path d="M369.64,299.23c-0.64,2.04-1.46,3.88-2.42,5.42l-0.74-1.6c1.3-1.94,2.32-4.36,3.02-7.22h-2.74v-1.4h2.88v-4.28h1.48v4.28
				h2.08v1.4h-2.08v1.86c0.9,0.74,1.74,1.54,2.46,2.34l-0.84,1.34c-0.36-0.54-1.02-1.38-1.62-2.06v9.84h-1.48V299.23z M380.8,302.01
				c1.28,1.84,2.96,3.32,5.1,4.52l-0.94,1.4c-2.1-1.32-3.96-3.16-5.16-5.12v6.34h-1.42v-6.22c-1.26,2.14-2.96,3.9-5.14,5.28l-1-1.22
				c2.18-1.22,3.92-2.86,5.24-4.98h-3.7v-7.12h4.6v-1.48h-5.64v-1.3h5.64v-1.96h1.42v1.96h5.76v1.3h-5.76v1.48h4.74v7.12H380.8z
				 M375.2,296.11v1.7h3.18v-1.7H375.2z M375.2,299.03v1.74h3.18v-1.74H375.2z M379.8,297.81h3.34v-1.7h-3.34V297.81z M379.8,300.77
				h3.34v-1.74h-3.34V300.77z"/>
		</g>
		<g>
			<path d="M460.76,348.46c2.86,0,4.44-1.04,4.44-2.92c0-1.66-1.34-2.7-3.5-2.7c-1.62,0-2.7,0.48-3.92,1.74l-1.18-1.12
				c1.24-1.38,3.16-2.2,5.14-2.2c3.22,0,5.46,1.7,5.46,4.14c0,2.02-1.48,3.4-3.94,3.7v0.08c2.9,0.2,4.58,1.76,4.58,4.22
				c0,2.86-2.36,4.68-6.12,4.68c-2.44,0-4.28-0.72-5.7-2.26l1.18-1.18c1.2,1.2,2.7,1.8,4.5,1.8c2.56,0,4.1-1.2,4.1-3.18
				c0-2.24-1.6-3.28-5.08-3.28h-1.3v-1.52H460.76z"/>
			<path d="M477.58,349.9c-0.2,0.72-0.44,1.4-0.66,1.96h11.24c-0.16,2.44-0.56,4.62-1.06,5.72c-0.5,1.12-1.14,1.44-2.94,1.44
				c-1.06,0-2.48-0.06-3.46-0.14l-0.36-1.52c1.38,0.12,2.72,0.2,3.68,0.2c1,0,1.3-0.16,1.58-0.8c0.24-0.62,0.56-2.02,0.76-3.54
				h-9.98c-0.26,0.56-0.54,1.14-0.84,1.7l-1.62-0.46c0.72-1.28,1.38-2.8,1.98-4.56h-4.46v-1.36h19v1.36H477.58z M487.46,346.72
				H474.4v-5.68h13.06V346.72z M476.02,345.44h9.82v-3.08h-9.82V345.44z"/>
			<path d="M495.6,349.24c-0.64,2.04-1.46,3.88-2.42,5.42l-0.74-1.6c1.3-1.94,2.32-4.36,3.02-7.22h-2.74v-1.4h2.88v-4.28h1.48v4.28
				h2.08v1.4h-2.08v1.86c0.9,0.74,1.74,1.54,2.46,2.34l-0.84,1.34c-0.36-0.54-1.02-1.38-1.62-2.06v9.84h-1.48V349.24z
				 M506.76,352.02c1.28,1.84,2.96,3.32,5.1,4.52l-0.94,1.4c-2.1-1.32-3.96-3.16-5.16-5.12v6.34h-1.42v-6.22
				c-1.26,2.14-2.96,3.9-5.14,5.28l-1-1.22c2.18-1.22,3.92-2.86,5.24-4.98h-3.7v-7.12h4.6v-1.48h-5.64v-1.3h5.64v-1.96h1.42v1.96
				h5.76v1.3h-5.76v1.48h4.74v7.12H506.76z M501.16,346.12v1.7h3.18v-1.7H501.16z M501.16,349.04v1.74h3.18v-1.74H501.16z
				 M505.76,347.82h3.34v-1.7h-3.34V347.82z M505.76,350.78h3.34v-1.74h-3.34V350.78z"/>
		</g>
		<g>
			<path d="M484.95,244.62v10.82h3.1v1.54h-3.1v3.94h-1.76v-3.94h-8.24v-1.52l7.8-10.84H484.95z M483.19,249.68
				c0-0.92,0.04-2.48,0.1-3.46h-0.08c-0.54,1.06-1.06,1.98-1.46,2.54l-4.76,6.68h6.2V249.68z"/>
			<path d="M497.23,253.06c-0.2,0.72-0.44,1.4-0.66,1.96h11.24c-0.16,2.44-0.56,4.62-1.06,5.72c-0.5,1.12-1.14,1.44-2.94,1.44
				c-1.06,0-2.48-0.06-3.46-0.14l-0.36-1.52c1.38,0.12,2.72,0.2,3.68,0.2c1,0,1.3-0.16,1.58-0.8c0.24-0.62,0.56-2.02,0.76-3.54
				h-9.98c-0.26,0.56-0.54,1.14-0.84,1.7l-1.62-0.46c0.72-1.28,1.38-2.8,1.98-4.56h-4.46v-1.36h19v1.36H497.23z M507.11,249.88
				h-13.06v-5.68h13.06V249.88z M495.66,248.6h9.82v-3.08h-9.82V248.6z"/>
			<path d="M515.24,252.4c-0.64,2.04-1.46,3.88-2.42,5.42l-0.74-1.6c1.3-1.94,2.32-4.36,3.02-7.22h-2.74v-1.4h2.88v-4.28h1.48v4.28
				h2.08v1.4h-2.08v1.86c0.9,0.74,1.74,1.54,2.46,2.34l-0.84,1.34c-0.36-0.54-1.02-1.38-1.62-2.06v9.84h-1.48V252.4z M526.41,255.18
				c1.28,1.84,2.96,3.32,5.1,4.52l-0.94,1.4c-2.1-1.32-3.96-3.16-5.16-5.12v6.34h-1.42v-6.22c-1.26,2.14-2.96,3.9-5.14,5.28l-1-1.22
				c2.18-1.22,3.92-2.86,5.24-4.98h-3.7v-7.12h4.6v-1.48h-5.64v-1.3h5.64v-1.96h1.42v1.96h5.76v1.3h-5.76v1.48h4.74v7.12H526.41z
				 M520.81,249.28v1.7h3.18v-1.7H520.81z M520.81,252.2v1.74h3.18v-1.74H520.81z M525.41,250.98h3.34v-1.7h-3.34V250.98z
				 M525.41,253.94h3.34v-1.74h-3.34V253.94z"/>
		</g>
	</g>
</g>
</svg>
