<?xml version="1.0" encoding="utf-8"?>
<!-- Generator: Adobe Illustrator 23.0.3, SVG Export Plug-In . SVG Version: 6.00 Build 0)  -->
<svg version="1.1" xmlns="http://www.w3.org/2000/svg" xmlns:xlink="http://www.w3.org/1999/xlink" x="0px" y="0px"
	 viewBox="0 0 700 500" style="enable-background:new 0 0 700 500;" xml:space="preserve">
<style type="text/css">
	.グラフィックスタイル{fill:none;stroke:#000000;stroke-width:2;stroke-miterlimit:10;}
	.グラフィックスタイル_x0020_2{fill:#D8EACC;stroke:#000000;stroke-width:2;}
	.グラフィックスタイル_x0020_3{fill:#FFFFFF;stroke:#000000;stroke-width:2;stroke-miterlimit:10;}
	.st0{fill:#FFFFFF;}
	.st1{fill:#D8EACC;stroke:#000000;stroke-width:2;}
	.st2{fill:none;stroke:#000000;stroke-width:1.4318;stroke-linecap:round;stroke-linejoin:round;}
	.st3{fill:none;stroke:#000000;stroke-width:1.8264;stroke-linecap:round;stroke-linejoin:round;}
	.st4{fill:#FFFFFF;stroke:#000000;stroke-width:1.2664;stroke-miterlimit:10;}
	.st5{fill:#030201;}
	.st6{fill:#242323;}
	.st7{fill:none;stroke:#000000;stroke-width:2;stroke-linejoin:round;stroke-miterlimit:10;}
	.st8{fill:none;stroke:#000000;stroke-width:2;stroke-miterlimit:10;}
	.st9{fill:none;stroke:#000000;stroke-width:2;stroke-linejoin:bevel;stroke-miterlimit:10;}
	.st10{fill:#E83589;}
	.st11{fill:none;stroke:#000000;stroke-width:2;stroke-miterlimit:10;stroke-dasharray:5.901,5.901;}
	.st12{fill:none;stroke:#000000;stroke-width:1.5;stroke-linejoin:bevel;stroke-miterlimit:10;}
	.st13{fill:#D8EACC;stroke:#000000;stroke-width:1.5;}
	.st14{fill:none;stroke:#000000;stroke-width:1.5;stroke-miterlimit:10;}
	.st15{fill:none;stroke:#000000;stroke-linejoin:bevel;stroke-miterlimit:10;}
	.st16{fill:#FFFFFF;stroke:#000000;stroke-width:1.5;stroke-miterlimit:10;}
	.st17{fill:#FFFFFF;stroke:#DE0000;stroke-width:2;stroke-miterlimit:10;}
	.st18{fill:#DE0000;}
	.st19{fill:none;stroke:#000000;stroke-miterlimit:10;}
	.st20{fill:none;stroke:#000000;stroke-miterlimit:10;stroke-dasharray:3.0312,3.0312;}
	.st21{fill:url(#);stroke:#000000;stroke-width:1.1494;}
	.st22{fill:#FFFFFF;stroke:#000000;stroke-miterlimit:10;}
	.st23{fill:none;stroke:#000000;stroke-width:3;stroke-miterlimit:10;stroke-dasharray:5;}
	.st24{fill:none;stroke:#FFFFFF;stroke-width:0.75;stroke-linejoin:round;}
	.st25{fill:none;stroke:#000000;stroke-miterlimit:10;stroke-dasharray:5;}
	.st26{fill:none;stroke:#FFFFFF;stroke-width:3;stroke-linejoin:round;}
	.st27{fill:none;stroke:#000000;stroke-width:1.3;stroke-linejoin:bevel;stroke-miterlimit:10;}
	.st28{fill:none;stroke:#000000;stroke-width:1.5;stroke-miterlimit:10;stroke-dasharray:5;}
	.st29{fill:none;stroke:#47738A;stroke-linejoin:bevel;stroke-miterlimit:10;}
	.st30{fill:none;}
	.st31{fill:none;stroke:#FFFFFF;stroke-width:5;stroke-linejoin:round;}
	.st32{fill:#D8EACC;}
	.st33{fill:#D8EACC;stroke:#000000;stroke-width:0.25;}
	.st34{fill:none;stroke:#000000;stroke-width:2;}
	.st35{fill:none;stroke:#FFFFFF;stroke-linejoin:round;}
	.st36{fill:none;stroke:#000000;stroke-width:1.9773;stroke-linecap:round;stroke-linejoin:round;}
	.st37{fill:none;stroke:#000000;stroke-width:2.5222;stroke-linecap:round;stroke-linejoin:round;}
	.st38{fill:#FFFFFF;stroke:#000000;stroke-width:2;stroke-miterlimit:10;}
	.st39{fill:#FFFFFF;stroke:#000000;stroke-width:1.0238;stroke-miterlimit:10;}
	.st40{fill:#FFFFFF;stroke:#000000;stroke-width:1.089;stroke-miterlimit:10;}
	.st41{fill:#FFFFFF;stroke:#000000;stroke-width:1.2553;stroke-miterlimit:10;}
	.st42{fill:url(#);}
	.st43{fill:none;stroke:#000000;stroke-width:1.7765;stroke-linejoin:bevel;stroke-miterlimit:10;}
	.st44{fill:none;stroke:#000000;stroke-width:2.3687;stroke-miterlimit:10;}
	.st45{fill:#D8EACC;stroke:#000000;stroke-width:2.0455;}
	.st46{fill:none;stroke:#000000;stroke-width:2.0455;stroke-linecap:round;stroke-miterlimit:10;stroke-dasharray:0,6.1366;}
	.st47{fill:#FFFFFF;stroke:#000000;stroke-width:2.3687;stroke-miterlimit:10;}
	.st48{fill:#FFFFFF;stroke:#000000;stroke-width:1.4998;stroke-miterlimit:10;}
	.st49{fill:#FFFFFF;stroke:#000000;stroke-width:0.6137;stroke-miterlimit:10;}
	.st50{fill:url(#);stroke:#000000;stroke-width:1.0228;}
	.st51{fill:none;stroke:#FFFFFF;stroke-width:4.0911;stroke-linejoin:round;}
	.st52{fill:none;stroke:#000000;stroke-width:2.4559;stroke-linecap:round;stroke-linejoin:round;}
	.st53{fill:none;stroke:#000000;stroke-width:3.1327;stroke-linecap:round;stroke-linejoin:round;}
	.st54{fill:none;stroke:#FFFFFF;stroke-width:4;stroke-linejoin:round;}
</style>
<g id="レイヤー_5">
	<rect x="-369.06" y="-4357.26" class="st0" width="5667.56" height="5248"/>
</g>
<g id="レイヤー_1">
</g>
<g id="レイヤー_3">
</g>
<g id="レイヤー_4">
</g>
<g id="レイヤー_2">
	<rect class="st0" width="700" height="500"/>
	<g>
		
			<rect x="103.22" y="103.24" transform="matrix(6.123234e-17 -1 1 6.123234e-17 -28.1321 273.8788)" class="st10" width="39.3" height="95.53"/>
		<g>
			<path class="st0" d="M92.34,156.85h15.55v2.09H92.34v1.41h-2.32V141.8h17.34v2.01H92.34V156.85z M93.02,154.51
				c2.12-1.08,3.67-2.24,5.41-4.02c-1.33-1.12-3.09-2.38-4.83-3.52l1.41-1.58c1.72,1.08,3.21,2.14,4.85,3.4
				c1.02-1.35,1.85-2.72,2.7-4.44l2.09,1.02c-0.93,1.84-1.97,3.5-3.01,4.85c1.16,0.95,2.7,2.32,4.25,3.79l-1.64,1.72
				c-1.35-1.35-2.86-2.74-4.08-3.79c-1.74,1.85-3.55,3.19-5.76,4.35L93.02,154.51z"/>
			<path class="st0" d="M121.5,143.62h-8.69v-1.87h19.7v1.87h-8.81v1.99h4.44v10.35h-10.97v-10.35h4.33V143.62z M129.71,157.31
				v-11.7h2.12v14.74h-2.12v-1.14h-14.12v1.14h-2.09v-14.74h2.09v11.7H129.71z M119.14,147.31v2.51h2.45v-2.51H119.14z
				 M119.14,151.42v2.8h2.45v-2.8H119.14z M123.62,149.82h2.55v-2.51h-2.55V149.82z M123.62,154.22h2.55v-2.8h-2.55V154.22z"/>
			<path class="st0" d="M155.7,160.36h-2.26v-1.06h-13.44v1.06h-2.24v-18.75h17.94V160.36z M140.01,157.35h13.44V143.5h-13.44
				V157.35z M151.51,156.46c-1.31-0.81-2.84-1.68-4.23-2.38c-1.51,1.26-3.34,2.28-5.37,3.01l-1.29-1.56
				c1.89-0.6,3.23-1.31,4.67-2.45l-0.54-0.25c-1.35-0.66-2.34-1.1-4.11-1.83l0.93-1.53c2.09,0.77,3.3,1.24,5.29,2.18
				c1.68-1.78,3.09-4.33,3.86-7.03l2.01,0.62c-0.85,2.63-2.38,5.5-3.94,7.34c0.1,0.06,0.1,0.06,0.19,0.1
				c1.04,0.52,2.18,1.14,3.75,2.07L151.51,156.46z M142.78,149.68c-0.48-1.62-1.04-2.99-1.66-4.06l1.91-0.77
				c0.66,1.16,1.22,2.49,1.72,4.04L142.78,149.68z M146.35,148.87c-0.5-1.58-1.06-2.92-1.68-4.08l1.82-0.73
				c0.75,1.33,1.39,2.8,1.72,4L146.35,148.87z"/>
		</g>
	</g>
	<polyline class="st2" points="98.53,210.19 98.53,198.45 105.43,210.19 105.43,198.45 	"/>
	<g>
		<circle class="st3" cx="123.59" cy="236.82" r="24.35"/>
		<polygon points="131.31,248.08 125.9,260.31 110.17,217.22 144.67,247.46 		"/>
	</g>
	<rect x="201.93" y="46.02" class="グラフィックスタイル_x0020_2" width="131.02" height="333.01"/>
	<rect x="464.91" y="46.02" class="グラフィックスタイル_x0020_2" width="131.02" height="333.01"/>
	<rect x="332.95" y="46.02" class="グラフィックスタイル_x0020_2" width="131.96" height="333.01"/>
	<g>
		<path d="M396.94,397.86v1.73h-10.55v3.07h8.13v9.57c0,1.39-0.62,1.9-2.33,1.9c-0.98,0-1.97-0.05-2.95-0.14l-0.31-1.82
			c1.2,0.17,2.11,0.24,2.9,0.24c0.62,0,0.77-0.12,0.77-0.7v-7.36h-6.21v13.02h-1.9v-13.02h-5.9v10.05h-1.89v-11.73h7.79v-3.07
			h-10.34v-1.73h10.34v-3.29h1.9v3.29H396.94z"/>
		<path d="M404.95,412.37c1.94,1.94,4.17,2.69,8.2,2.71h9.43c-0.24,0.53-0.43,1.08-0.58,1.7h-9.12c-4.2-0.05-6.52-0.84-8.59-2.93
			c-1.08,1.27-2.45,2.57-3.74,3.53l-1.06-1.7c1.13-0.67,2.4-1.63,3.62-2.76v-6.43h-3.55v-1.63h5.37V412.37z M403.92,400.4
			c-1.13-1.61-2.35-3.05-3.5-4.08l1.32-1.1c1.39,1.22,2.61,2.54,3.6,3.91L403.92,400.4z M406.27,399.13v-1.51h4.25
			c-0.41-0.77-0.94-1.56-1.54-2.3l1.68-0.65c0.77,1.08,1.25,1.92,1.73,2.95h3.12c0.46-0.84,1.01-2.11,1.32-3l1.9,0.48
			c-0.38,0.84-0.89,1.8-1.37,2.52h4.49v1.51h-6.93c-0.12,0.41-0.5,1.42-0.74,1.99h6.02v12.23h-12.21v-12.23h4.41
			c0.29-0.79,0.5-1.44,0.62-1.99H406.27z M409.75,404.69h8.63v-2.21h-8.63V404.69z M409.75,408.17h8.63v-2.18h-8.63V408.17z
			 M409.75,411.94h8.63v-2.4h-8.63V411.94z"/>
		<path d="M290.76,432.64c-1.18-1.39-2.5-2.69-3.74-3.69l1.27-1.32c1.37,1.01,2.73,2.3,3.81,3.6L290.76,432.64z M287.59,442.4
			c1.42-1.87,2.93-4.68,4.22-7.87l1.51,1.17c-1.18,3-2.69,5.95-4.2,8.11L287.59,442.4z M291.62,426.53
			c-0.91-1.2-2.35-2.66-3.65-3.74l1.25-1.25c1.29,0.96,2.71,2.3,3.74,3.57L291.62,426.53z M301.12,433.34l-0.02,0.05
			c-0.7,2.04-2.18,5.25-3.41,7.44l-0.1,0.22l1.78-0.14c1.77-0.14,4.49-0.43,6.62-0.72c-0.74-1.25-1.61-2.54-2.52-3.81l1.51-0.84
			c1.94,2.47,3.57,4.96,4.73,7.27l-1.7,1.08c-0.55-1.13-0.79-1.61-1.2-2.33l-0.24,0.05c-2.66,0.53-8.32,1.27-12.26,1.61l-0.62-1.9
			l0.96-0.05l0.29-0.02c0.05,0,0.34-0.02,0.65-0.05c1.27-2.3,2.61-5.28,3.55-7.96h-6.04v-1.61h7.32v-4.85h-6.02v-1.65h6.02v-3.86
			h1.87v3.86h6.38v1.65h-6.38v4.85h7.63v1.61h-8.73L301.12,433.34z"/>
		<path d="M324.84,422.81v12.98h3.72v1.85h-3.72v4.73h-2.11v-4.73h-9.88v-1.82l9.36-13H324.84z M322.72,428.88
			c0-1.1,0.05-2.97,0.12-4.15h-0.1c-0.65,1.27-1.27,2.37-1.75,3.05l-5.71,8.01h7.44V428.88z"/>
		<path d="M333.82,440.46c0.62-2.57,2.73-5.13,5.97-7.29l0.62-0.41c3.36-2.18,4.25-3.24,4.25-4.99c0-1.97-1.63-3.29-4.1-3.29
			c-2.01,0-3.43,0.74-4.96,2.57l-1.51-1.27c1.82-2.25,3.77-3.21,6.57-3.21c3.74,0,6.48,2.21,6.48,5.25c0,2.42-0.93,3.55-5.23,6.29
			l-0.86,0.55c-2.85,1.87-4.65,3.93-4.87,5.66h11.25v2.04h-13.6V440.46z"/>
		<path d="M364.09,444.04h-1.85v-7.68c-2.18,2.74-5.54,5.18-9.33,6.72l-1.1-1.54c3.6-1.34,6.57-3.24,8.88-5.64h-8.78v-1.61h10.34
			v-2.61h1.85v2.61h10.51v1.61h-8.88c2.21,2.06,5.18,3.74,9.02,5.08l-1.18,1.68c-4.1-1.7-7.17-3.77-9.47-6.45V444.04z M370.59,423.5
			c-1.29,1.75-3.26,3.53-5.52,5.01c2.18,1.15,4.87,1.99,9.12,2.83l-0.98,1.63c-3.43-0.7-7.12-1.99-9.76-3.43
			c-2.83,1.66-6.43,2.95-10.05,3.67l-0.96-1.49c3.65-0.65,7.15-1.8,9.52-3.14c-0.94-0.67-2.3-1.89-3.41-3.02
			c-1.34,1.06-2.61,1.85-4.17,2.57l-1.17-1.25c2.9-1.2,5.71-3.45,7.17-5.73l1.82,0.36c-0.36,0.55-0.46,0.65-0.79,1.1h8.2
			L370.59,423.5z M360.13,424.1c-0.17,0.19-0.24,0.24-0.38,0.38c1.01,1.13,2.38,2.25,3.77,3.14c2.04-1.37,3.41-2.5,4.29-3.53H360.13
			z"/>
		<path d="M384.02,425.01c-1.13,0.48-3.07,1.06-4.7,1.42l-0.48-1.73c2.21-0.53,4.68-1.44,5.78-2.13h1.56v19.79h-2.16V425.01z"/>
		<path d="M399,436.43l0.14-0.05l0.1-0.05c0.89-0.29,2.01-0.72,2.71-1.03l0.19,1.7c-2.01,0.91-5.25,2.11-7.75,2.83l-0.67-1.85
			c1.34-0.36,1.54-0.41,2.83-0.79l0.58-0.17v-11.27h-3.12v-1.7h7.6v1.7H399V436.43z M400.71,442.72c1.89-0.74,3.77-1.97,5.04-3.31
			l1.46,0.98c-1.49,1.54-3.41,2.93-5.18,3.72L400.71,442.72z M414.64,426.33v12.79h-11.51v-12.79h3.74
			c0.26-0.79,0.48-1.63,0.65-2.45h-6v-1.58h14.82v1.58h-6.96c-0.26,0.98-0.58,1.87-0.82,2.45H414.64z M404.9,427.8v2.33h7.94v-2.33
			H404.9z M404.9,433.77h7.94v-2.23h-7.94V433.77z M404.9,437.63h7.94v-2.47h-7.94V437.63z M415.03,444.01
			c-1.42-1.29-3.14-2.59-4.8-3.6l1.32-1.06c2.06,1.17,3.48,2.13,4.89,3.31L415.03,444.01z"/>
		<path d="M425.98,425.01c-1.13,0.48-3.07,1.06-4.7,1.42l-0.48-1.73c2.21-0.53,4.68-1.44,5.78-2.13h1.56v19.79h-2.16V425.01z"/>
		<path d="M443.15,432.93c-0.24,0.86-0.53,1.68-0.79,2.35h13.48c-0.19,2.93-0.67,5.54-1.27,6.86c-0.6,1.34-1.37,1.73-3.53,1.73
			c-1.27,0-2.97-0.07-4.15-0.17l-0.43-1.82c1.66,0.14,3.26,0.24,4.41,0.24c1.2,0,1.56-0.19,1.89-0.96c0.29-0.74,0.67-2.42,0.91-4.25
			h-11.97c-0.31,0.67-0.65,1.37-1.01,2.04l-1.94-0.55c0.86-1.54,1.66-3.36,2.38-5.47h-5.35v-1.63h22.79v1.63H443.15z M455,429.12
			h-15.66v-6.81H455V429.12z M441.28,427.58h11.78v-3.69h-11.78V427.58z"/>
		<path d="M466.58,439.05c1.94,1.94,4.17,2.69,8.2,2.71h9.43c-0.24,0.53-0.43,1.08-0.58,1.7h-9.12c-4.2-0.05-6.52-0.84-8.59-2.93
			c-1.08,1.27-2.45,2.57-3.74,3.53l-1.06-1.7c1.13-0.67,2.4-1.63,3.62-2.76v-6.43h-3.55v-1.63h5.37V439.05z M465.55,427.08
			c-1.13-1.61-2.35-3.05-3.5-4.08l1.32-1.1c1.39,1.22,2.61,2.54,3.6,3.91L465.55,427.08z M467.9,425.81v-1.51h4.25
			c-0.41-0.77-0.94-1.56-1.54-2.3l1.68-0.65c0.77,1.08,1.25,1.92,1.73,2.95h3.12c0.46-0.84,1.01-2.11,1.32-3l1.9,0.48
			c-0.38,0.84-0.89,1.8-1.37,2.52h4.49v1.51h-6.93c-0.12,0.41-0.5,1.42-0.74,1.99h6.02v12.23H469.6V427.8h4.41
			c0.29-0.79,0.5-1.44,0.62-1.99H467.9z M471.37,431.37h8.63v-2.21h-8.63V431.37z M471.37,434.85h8.63v-2.18h-8.63V434.85z
			 M471.37,438.61h8.63v-2.4h-8.63V438.61z"/>
		<path d="M495.88,430.03h-3.09v3.79h3.12v1.58h-3.12v5.01c0.65-0.17,2.47-0.7,3.67-1.08l0.17,1.56c-2.85,1.01-6.31,1.99-9.45,2.69
			l-0.62-1.7l1.27-0.26v-9.36h1.63v9l0.6-0.14l0.58-0.14l0.5-0.12v-10.82h-3.5v-7.8h8.25V430.03z M489.33,428.47h4.84v-4.63h-4.84
			V428.47z M507.68,423.77c-0.91,2.23-2.09,4.15-3.53,5.78c1.51,1.32,3.38,2.47,5.49,3.33l-0.91,1.58
			c-2.16-0.96-4.17-2.28-5.73-3.74c-1.75,1.66-3.81,2.97-6.21,3.96l-0.96-1.49c2.16-0.7,4.25-1.99,6-3.67
			c-0.79-0.89-1.61-2.01-2.16-3.05l-0.1,0.12l-0.05,0.07c-0.62,0.79-1.37,1.56-2.11,2.18l-1.17-1.27c1.8-1.37,3.55-3.91,4.39-6.36
			l1.77,0.29c-0.26,0.62-0.34,0.82-0.53,1.22h4.65L507.68,423.77z M507.59,444.04h-1.75v-1.42h-6.12v1.42h-1.75v-9.45h9.62V444.04z
			 M499.72,441.04h6.12v-4.85h-6.12V441.04z M500.56,425.18c0.67,1.2,1.32,2.09,2.38,3.21c1.08-1.25,1.89-2.52,2.59-4.05h-4.46
			c-0.1,0.17-0.19,0.33-0.41,0.7L500.56,425.18z"/>
	</g>
	<g>
		<g>
			<path d="M176.62,435.87h10.33v-2.96h1.47v2.96h3.76v1.68h-3.76v7.86h-1.45l-10.35-7.44V435.87z M181.44,437.55
				c-0.88,0-2.37-0.04-3.3-0.1v0.08c1.01,0.52,1.89,1.01,2.42,1.39l6.38,4.54v-5.92H181.44z"/>
			<path d="M189.44,428.14h2.73v2.73h-2.73V428.14z"/>
			<path d="M190.66,424.64c-2.04-0.5-4.08-2.18-5.8-4.75l-0.32-0.5c-1.74-2.67-2.58-3.38-3.97-3.38c-1.57,0-2.62,1.3-2.62,3.26
				c0,1.6,0.59,2.73,2.04,3.95l-1.01,1.2c-1.79-1.45-2.56-3-2.56-5.23c0-2.98,1.76-5.15,4.18-5.15c1.93,0,2.83,0.74,5,4.16
				l0.44,0.69c1.49,2.27,3.13,3.7,4.5,3.88v-8.95h1.62v10.82H190.66z"/>
			<path d="M184.44,399.49c4.96,0,8.02,2.2,8.02,5.73s-3.07,5.73-8.02,5.73c-4.96,0-8.02-2.2-8.02-5.75
				C176.42,401.69,179.5,399.49,184.44,399.49z M184.44,409.08c4.01,0,6.49-1.47,6.49-3.88c0-2.37-2.48-3.84-6.49-3.84
				c-4.05,0-6.51,1.47-6.51,3.88C177.93,407.61,180.43,409.08,184.44,409.08z"/>
			<path d="M184.44,385.56c4.96,0,8.02,2.2,8.02,5.73s-3.07,5.73-8.02,5.73c-4.96,0-8.02-2.2-8.02-5.75
				C176.42,387.75,179.5,385.56,184.44,385.56z M184.44,395.14c4.01,0,6.49-1.47,6.49-3.88c0-2.37-2.48-3.84-6.49-3.84
				c-4.05,0-6.51,1.47-6.51,3.88C177.93,393.67,180.43,395.14,184.44,395.14z"/>
		</g>
	</g>
	<g>
		<g>
			<g>
				<path class="st0" d="M255.12,290.27c4.47-0.59,8.94-0.59,13.41,0c5.15,0.72,9,6.52,8.72,11.82
					c-0.79,17.35-0.78,34.69,0.02,52.04c0.27,5.03-3.39,10.53-8.28,11.26c-4.78,0.67-9.57,0.67-14.35,0
					c-4.89-0.73-8.54-6.23-8.28-11.26c0.81-17.35,0.81-34.69,0.02-52.04C246.12,296.8,249.97,290.99,255.12,290.27z"/>
				<path class="st5" d="M261.83,289.64c2.25,0,4.49,0.15,6.73,0.44c5.03,0.7,9.17,6.32,8.88,12.02
					c-0.79,17.26-0.78,34.76,0.02,52.02c0.29,5.4-3.65,10.75-8.43,11.46c-4.78,0.67-9.62,0.67-14.39,0
					c-4.78-0.71-8.71-6.07-8.43-11.46c0.8-17.26,0.81-34.76,0.02-52.02c-0.3-5.7,3.85-11.32,8.87-12.02h0
					C257.33,289.79,259.58,289.64,261.83,289.64z M261.83,365.7c2.39,0,4.78-0.17,7.15-0.5c4.6-0.68,8.4-5.85,8.13-11.06
					c-0.8-17.28-0.81-34.79-0.02-52.06c0.29-5.51-3.72-10.94-8.57-11.62c-4.43-0.58-8.93-0.58-13.37,0
					c-4.86,0.68-8.86,6.11-8.57,11.62c0.79,17.27,0.78,34.79-0.02,52.06c-0.28,5.21,3.52,10.38,8.13,11.06
					C257.05,365.54,259.44,365.7,261.83,365.7z"/>
			</g>
		</g>
		<g>
			<path class="st6" d="M251.13,300.03h21.39c-0.03-0.28-0.06-0.56-0.09-0.83h-21.22C251.19,299.48,251.16,299.76,251.13,300.03z"/>
		</g>
		<g>
			<path class="st5" d="M248.95,308.54l0.19,0.71c1.33,5.07,2.06,11.8,2.06,18.94c0,0.78-0.01,1.58-0.03,2.37l-0.01,0.05l-3.24,8.48
				l-0.01-0.67c-0.04-1.97-0.06-3.92-0.06-5.8c0-8.02,0.35-15.88,1.05-23.36L248.95,308.54z M250.91,330.53
				c0.02-0.78,0.03-1.57,0.03-2.34c0-6.77-0.66-13.17-1.86-18.13c-0.65,7.24-0.98,14.83-0.98,22.57c0,1.66,0.02,3.38,0.05,5.12
				L250.91,330.53z"/>
		</g>
		<g>
			<path class="st5" d="M274.7,308.54l0.07,0.73c0.7,7.48,1.05,15.34,1.05,23.36c0,1.86-0.02,3.81-0.06,5.8l-0.01,0.67l-3.25-8.54
				c-0.02-0.79-0.03-1.59-0.03-2.37c0-7.14,0.73-13.87,2.06-18.94L274.7,308.54z M275.51,337.76c0.03-1.75,0.05-3.47,0.05-5.12
				c0-7.74-0.33-15.33-0.98-22.57c-1.2,4.96-1.86,11.35-1.86,18.13c0,0.77,0.01,1.55,0.03,2.34L275.51,337.76z"/>
		</g>
		<g>
			<path class="st0" d="M248.14,340.73v12.48c0,7.33,5.39,13.32,11.97,13.32h3.44c6.58,0,11.97-5.99,11.97-13.32v-12.48
				c-4.48,1.14-9.08,1.73-13.69,1.72C257.22,342.46,252.62,341.87,248.14,340.73z"/>
			<path d="M248.01,340.55l0.16,0.04c4.51,1.15,9.1,1.74,13.66,1.71c0.06,0,0.12,0,0.18,0c4.49,0,9.02-0.58,13.48-1.71l0.16-0.04
				v12.66c0,7.42-5.43,13.46-12.1,13.46h-3.44c-6.67,0-12.1-6.04-12.1-13.46V340.55z M263.55,366.38c6.53,0,11.84-5.91,11.84-13.18
				v-12.3c-4.42,1.12-8.92,1.68-13.38,1.68c-0.12,0-0.24,0-0.36,0c-4.46,0-8.95-0.57-13.38-1.68v12.3c0,7.26,5.31,13.18,11.84,13.18
				H263.55z"/>
		</g>
		<g>
			<path class="st0" d="M251.94,311.51c6.59,1.11,13.19,1.11,19.78,0c0.91-3.83,1.19-7.66,0.84-11.49h-21.47
				C250.74,303.85,251.02,307.68,251.94,311.51z"/>
			<path d="M250.98,299.88h21.7l0.01,0.13c0.35,3.83,0.06,7.71-0.85,11.54l-0.02,0.09l-0.08,0.01c-6.58,1.1-13.24,1.1-19.82,0
				l-0.08-0.01l-0.02-0.09c-0.91-3.83-1.2-7.71-0.85-11.54L250.98,299.88z M272.44,300.17h-21.23c-0.33,3.72-0.05,7.5,0.83,11.22
				c6.49,1.08,13.08,1.08,19.57,0C272.49,307.66,272.77,303.89,272.44,300.17z"/>
		</g>
		<g>
			<path class="st6" d="M251.09,300.03h21.47c-0.03-0.28-0.06-0.56-0.09-0.83h-21.29C251.15,299.47,251.12,299.75,251.09,300.03z"/>
		</g>
		<g>
			<path class="st0" d="M272.47,299.19v-5.99c-2.62-1.57-6.42-2.56-10.65-2.56c-4.23,0-8.03,0.99-10.65,2.56v5.99H272.47z"/>
			<path d="M261.83,290.5c4.07,0,7.98,0.94,10.71,2.58l0.07,0.04v6.22h-21.55v-6.22l0.07-0.04
				C253.85,291.44,257.75,290.5,261.83,290.5z M272.34,293.29c-2.69-1.59-6.52-2.5-10.52-2.5c-4,0-7.82,0.91-10.52,2.5v5.76h21.03
				V293.29z"/>
		</g>
		<g>
			<path class="st6" d="M248.23,340.81l-0.26,0.81c9.06,2.78,18.67,2.78,27.73,0l-0.26-0.81
				C266.53,343.48,257.12,343.48,248.23,340.81z"/>
		</g>
		<g>
			<path class="st0" d="M275.04,340.85l-3.33-10.12h-19.78l-3.33,10.12C257.25,343.45,266.4,343.45,275.04,340.85z"/>
			<path d="M251.85,330.59h19.96l3.41,10.36l-0.14,0.04c-8.67,2.61-17.83,2.61-26.5,0l-0.14-0.04L251.85,330.59z M271.63,330.87
				h-19.6l-3.25,9.88c8.54,2.54,17.55,2.54,26.09,0L271.63,330.87z"/>
		</g>
		<g>
			<g>
				<path class="st5" d="M251.22,293.21h-0.14c-1.61,0-2.93,1.46-2.93,3.26v0.24C248.83,295.2,249.9,293.97,251.22,293.21z"/>
			</g>
			<g>
				<path class="st5" d="M272.43,293.21h0.14c1.61,0,2.93,1.46,2.93,3.26v0.24C274.83,295.2,273.75,293.97,272.43,293.21z"/>
			</g>
		</g>
		<g>
			<g>
				<path class="st0" d="M244.5,332.82c-0.09,0.44,0,0.97,0.21,1.17l2.39,2.29c0.04,0.04,0.08,0.06,0.13,0.07v-2.14l-2.66-1.66
					L244.5,332.82z"/>
				<path class="st5" d="M244.47,332.33l2.88,1.8v2.4l-0.16-0.03c-0.07-0.01-0.13-0.05-0.18-0.1l-2.39-2.29
					c-0.25-0.24-0.35-0.81-0.25-1.31L244.47,332.33z M247.09,334.3l-2.45-1.53l-0.02,0.08c-0.09,0.42,0.01,0.88,0.17,1.02l2.3,2.21
					V334.3z"/>
			</g>
			<g>
				<path class="st0" d="M279.15,332.82c0.09,0.44,0,0.97-0.21,1.17l-2.39,2.29c-0.04,0.04-0.08,0.06-0.13,0.07v-2.14l2.66-1.66
					L279.15,332.82z"/>
				<path class="st5" d="M279.18,332.33l0.1,0.45c0.11,0.5,0,1.07-0.25,1.31l-2.39,2.29c-0.06,0.05-0.12,0.09-0.18,0.1l-0.16,0.03
					v-2.4L279.18,332.33z M276.56,336.08l2.3-2.21c0.15-0.14,0.26-0.6,0.17-1.02l-0.02-0.08l-2.45,1.53V336.08z"/>
			</g>
		</g>
		<g>
			<g>
				<path class="st5" d="M254.78,348.43c0,4.79,0.76,9,1.92,11.43c-0.86-2.5-1.4-6.11-1.4-10.13c0-1.94,0.13-3.79,0.35-5.46h-0.68
					C254.85,345.58,254.78,346.98,254.78,348.43z"/>
			</g>
			<g>
				<path class="st5" d="M268.87,348.43c0,4.79-0.76,9-1.92,11.43c0.86-2.5,1.4-6.11,1.4-10.13c0-1.94-0.13-3.79-0.35-5.46h0.68
					C268.8,345.58,268.87,346.98,268.87,348.43z"/>
			</g>
		</g>
		<g>
			
				<rect x="251.94" y="311.51" transform="matrix(-1 -1.224647e-16 1.224647e-16 -1 523.6524 642.2386)" class="st0" width="19.78" height="19.22"/>
			<path d="M251.81,311.36h20.04v19.51h-20.04V311.36z M271.59,311.65h-19.52v18.93h19.52V311.65z"/>
		</g>
	</g>
	<g>
		<g>
			<g>
				<path class="st0" d="M300.74,290.27c4.47-0.59,8.94-0.59,13.41,0c5.15,0.72,9,6.52,8.72,11.82
					c-0.79,17.35-0.78,34.69,0.02,52.04c0.27,5.03-3.39,10.53-8.28,11.26c-4.78,0.67-9.57,0.67-14.35,0
					c-4.89-0.73-8.54-6.23-8.28-11.26c0.81-17.35,0.81-34.69,0.02-52.04C291.74,296.8,295.6,290.99,300.74,290.27z"/>
				<path class="st5" d="M307.45,289.64c2.25,0,4.49,0.15,6.73,0.44c5.03,0.7,9.17,6.32,8.88,12.02
					c-0.79,17.26-0.78,34.76,0.02,52.02c0.29,5.4-3.65,10.75-8.43,11.46c-4.78,0.67-9.62,0.67-14.39,0
					c-4.78-0.71-8.71-6.07-8.43-11.46c0.8-17.26,0.81-34.76,0.02-52.02c-0.3-5.7,3.85-11.32,8.87-12.02h0
					C302.96,289.79,305.2,289.64,307.45,289.64z M307.45,365.7c2.39,0,4.78-0.17,7.15-0.5c4.6-0.68,8.4-5.85,8.13-11.06
					c-0.8-17.28-0.81-34.79-0.02-52.06c0.29-5.51-3.72-10.94-8.57-11.62c-4.43-0.58-8.93-0.58-13.37,0
					c-4.86,0.68-8.86,6.11-8.57,11.62c0.79,17.27,0.78,34.79-0.02,52.06c-0.28,5.21,3.52,10.38,8.13,11.06
					C302.67,365.54,305.06,365.7,307.45,365.7z"/>
			</g>
		</g>
		<g>
			<path class="st6" d="M296.75,300.03h21.39c-0.03-0.28-0.06-0.56-0.09-0.83h-21.22C296.81,299.48,296.78,299.76,296.75,300.03z"/>
		</g>
		<g>
			<path class="st5" d="M294.57,308.54l0.19,0.71c1.33,5.07,2.06,11.8,2.06,18.94c0,0.78-0.01,1.58-0.03,2.37l-0.01,0.05l-3.24,8.48
				l-0.01-0.67c-0.04-1.97-0.06-3.92-0.06-5.8c0-8.02,0.35-15.88,1.05-23.36L294.57,308.54z M296.53,330.53
				c0.02-0.78,0.03-1.57,0.03-2.34c0-6.77-0.66-13.17-1.86-18.13c-0.65,7.24-0.98,14.83-0.98,22.57c0,1.66,0.02,3.38,0.05,5.12
				L296.53,330.53z"/>
		</g>
		<g>
			<path class="st5" d="M320.32,308.54l0.07,0.73c0.7,7.48,1.05,15.34,1.05,23.36c0,1.86-0.02,3.81-0.06,5.8l-0.01,0.67l-3.25-8.54
				c-0.02-0.79-0.03-1.59-0.03-2.37c0-7.14,0.73-13.87,2.06-18.94L320.32,308.54z M321.13,337.76c0.03-1.75,0.05-3.47,0.05-5.12
				c0-7.74-0.33-15.33-0.98-22.57c-1.2,4.96-1.86,11.35-1.86,18.13c0,0.77,0.01,1.55,0.03,2.34L321.13,337.76z"/>
		</g>
		<g>
			<path class="st0" d="M293.76,340.73v12.48c0,7.33,5.39,13.32,11.97,13.32h3.44c6.58,0,11.97-5.99,11.97-13.32v-12.48
				c-4.48,1.14-9.08,1.73-13.69,1.72C302.84,342.46,298.24,341.87,293.76,340.73z"/>
			<path d="M293.63,340.55l0.16,0.04c4.51,1.15,9.1,1.74,13.66,1.71c0.06,0,0.12,0,0.18,0c4.49,0,9.02-0.58,13.48-1.71l0.16-0.04
				v12.66c0,7.42-5.43,13.46-12.1,13.46h-3.44c-6.67,0-12.1-6.04-12.1-13.46V340.55z M309.17,366.38c6.53,0,11.84-5.91,11.84-13.18
				v-12.3c-4.42,1.12-8.92,1.68-13.38,1.68c-0.12,0-0.24,0-0.36,0c-4.46,0-8.95-0.57-13.38-1.68v12.3c0,7.26,5.31,13.18,11.84,13.18
				H309.17z"/>
		</g>
		<g>
			<path class="st0" d="M297.56,311.51c6.59,1.11,13.19,1.11,19.78,0c0.91-3.83,1.19-7.66,0.84-11.49h-21.47
				C296.37,303.85,296.65,307.68,297.56,311.51z"/>
			<path d="M296.6,299.88h21.7l0.01,0.13c0.35,3.83,0.06,7.71-0.85,11.54l-0.02,0.09l-0.08,0.01c-6.58,1.1-13.24,1.1-19.82,0
				l-0.08-0.01l-0.02-0.09c-0.91-3.83-1.2-7.71-0.85-11.54L296.6,299.88z M318.07,300.17h-21.23c-0.33,3.72-0.05,7.5,0.83,11.22
				c6.49,1.08,13.08,1.08,19.57,0C318.11,307.66,318.39,303.89,318.07,300.17z"/>
		</g>
		<g>
			<path class="st6" d="M296.72,300.03h21.47c-0.03-0.28-0.06-0.56-0.09-0.83H296.8C296.77,299.47,296.74,299.75,296.72,300.03z"/>
		</g>
		<g>
			<path class="st0" d="M318.1,299.19v-5.99c-2.62-1.57-6.42-2.56-10.65-2.56c-4.23,0-8.03,0.99-10.65,2.56v5.99H318.1z"/>
			<path d="M307.45,290.5c4.07,0,7.98,0.94,10.71,2.58l0.07,0.04v6.22h-21.55v-6.22l0.07-0.04
				C299.47,291.44,303.38,290.5,307.45,290.5z M317.97,293.29c-2.69-1.59-6.52-2.5-10.52-2.5s-7.82,0.91-10.52,2.5v5.76h21.03
				V293.29z"/>
		</g>
		<g>
			<path class="st6" d="M293.85,340.81l-0.26,0.81c9.06,2.78,18.67,2.78,27.73,0l-0.26-0.81
				C312.16,343.48,302.74,343.48,293.85,340.81z"/>
		</g>
		<g>
			<path class="st0" d="M320.67,340.85l-3.33-10.12h-19.78l-3.33,10.12C302.87,343.45,312.03,343.45,320.67,340.85z"/>
			<path d="M297.47,330.59h19.96l3.41,10.36l-0.14,0.04c-8.67,2.61-17.83,2.61-26.5,0l-0.14-0.04L297.47,330.59z M317.25,330.87
				h-19.6l-3.25,9.88c8.54,2.54,17.55,2.54,26.09,0L317.25,330.87z"/>
		</g>
		<g>
			<g>
				<path class="st5" d="M296.84,293.21h-0.14c-1.61,0-2.93,1.46-2.93,3.26v0.24C294.45,295.2,295.53,293.97,296.84,293.21z"/>
			</g>
			<g>
				<path class="st5" d="M318.06,293.21h0.14c1.61,0,2.93,1.46,2.93,3.26v0.24C320.45,295.2,319.37,293.97,318.06,293.21z"/>
			</g>
		</g>
		<g>
			<g>
				<path class="st0" d="M290.12,332.82c-0.09,0.44,0,0.97,0.21,1.17l2.39,2.29c0.04,0.04,0.08,0.06,0.13,0.07v-2.14l-2.66-1.66
					L290.12,332.82z"/>
				<path class="st5" d="M290.09,332.33l2.88,1.8v2.4l-0.16-0.03c-0.07-0.01-0.13-0.05-0.18-0.1l-2.39-2.29
					c-0.25-0.24-0.35-0.81-0.25-1.31L290.09,332.33z M292.71,334.3l-2.45-1.53l-0.02,0.08c-0.09,0.42,0.01,0.88,0.17,1.02l2.3,2.21
					V334.3z"/>
			</g>
			<g>
				<path class="st0" d="M324.78,332.82c0.09,0.44,0,0.97-0.21,1.17l-2.39,2.29c-0.04,0.04-0.08,0.06-0.13,0.07v-2.14l2.66-1.66
					L324.78,332.82z"/>
				<path class="st5" d="M324.81,332.33l0.1,0.45c0.11,0.5,0,1.07-0.25,1.31l-2.39,2.29c-0.06,0.05-0.12,0.09-0.18,0.1l-0.16,0.03
					v-2.4L324.81,332.33z M322.19,336.08l2.3-2.21c0.15-0.14,0.26-0.6,0.17-1.02l-0.02-0.08l-2.45,1.53V336.08z"/>
			</g>
		</g>
		<g>
			<g>
				<path class="st5" d="M300.4,348.43c0,4.79,0.76,9,1.92,11.43c-0.86-2.5-1.4-6.11-1.4-10.13c0-1.94,0.13-3.79,0.35-5.46h-0.68
					C300.47,345.58,300.4,346.98,300.4,348.43z"/>
			</g>
			<g>
				<path class="st5" d="M314.5,348.43c0,4.79-0.76,9-1.92,11.43c0.86-2.5,1.4-6.11,1.4-10.13c0-1.94-0.13-3.79-0.35-5.46h0.68
					C314.42,345.58,314.5,346.98,314.5,348.43z"/>
			</g>
		</g>
		<g>
			
				<rect x="297.56" y="311.51" transform="matrix(-1 -1.224647e-16 1.224647e-16 -1 614.8995 642.2386)" class="st0" width="19.78" height="19.22"/>
			<path d="M297.43,311.36h20.04v19.51h-20.04V311.36z M317.21,311.65h-19.52v18.93h19.52V311.65z"/>
		</g>
	</g>
	<g>
		<g>
			<g>
				<path class="st0" d="M384.5,290.27c4.47-0.59,8.94-0.59,13.41,0c5.15,0.72,9,6.52,8.72,11.82c-0.79,17.35-0.78,34.69,0.02,52.04
					c0.27,5.03-3.39,10.53-8.28,11.26c-4.78,0.67-9.57,0.67-14.35,0c-4.89-0.73-8.54-6.23-8.28-11.26
					c0.81-17.35,0.81-34.69,0.02-52.04C375.5,296.8,379.36,290.99,384.5,290.27z"/>
				<path class="st5" d="M391.21,289.64c2.25,0,4.49,0.15,6.73,0.44c5.03,0.7,9.17,6.32,8.88,12.02
					c-0.79,17.26-0.78,34.76,0.02,52.02c0.29,5.4-3.65,10.75-8.43,11.46c-4.78,0.67-9.62,0.67-14.39,0
					c-4.78-0.71-8.71-6.07-8.43-11.46c0.8-17.26,0.81-34.76,0.02-52.02c-0.3-5.7,3.85-11.32,8.87-12.02h0
					C386.72,289.79,388.96,289.64,391.21,289.64z M391.21,365.7c2.39,0,4.78-0.17,7.15-0.5c4.6-0.68,8.4-5.85,8.13-11.06
					c-0.8-17.28-0.81-34.79-0.02-52.06c0.29-5.51-3.72-10.94-8.57-11.62c-4.43-0.58-8.93-0.58-13.37,0
					c-4.86,0.68-8.86,6.11-8.57,11.62c0.79,17.27,0.78,34.79-0.02,52.06c-0.28,5.21,3.52,10.38,8.13,11.06
					C386.43,365.54,388.82,365.7,391.21,365.7z"/>
			</g>
		</g>
		<g>
			<path class="st6" d="M380.51,300.03h21.39c-0.03-0.28-0.06-0.56-0.09-0.83H380.6C380.57,299.48,380.54,299.76,380.51,300.03z"/>
		</g>
		<g>
			<path class="st5" d="M378.33,308.54l0.19,0.71c1.33,5.07,2.06,11.8,2.06,18.94c0,0.78-0.01,1.58-0.03,2.37l-0.01,0.05l-3.24,8.48
				l-0.01-0.67c-0.04-1.97-0.06-3.92-0.06-5.8c0-8.02,0.35-15.88,1.05-23.36L378.33,308.54z M380.29,330.53
				c0.02-0.78,0.03-1.57,0.03-2.34c0-6.77-0.66-13.17-1.86-18.13c-0.65,7.24-0.98,14.83-0.98,22.57c0,1.66,0.02,3.38,0.05,5.12
				L380.29,330.53z"/>
		</g>
		<g>
			<path class="st5" d="M404.09,308.54l0.07,0.73c0.7,7.48,1.05,15.34,1.05,23.36c0,1.86-0.02,3.81-0.06,5.8l-0.01,0.67l-3.25-8.54
				c-0.02-0.79-0.03-1.59-0.03-2.37c0-7.14,0.73-13.87,2.06-18.94L404.09,308.54z M404.89,337.76c0.03-1.75,0.05-3.47,0.05-5.12
				c0-7.74-0.33-15.33-0.98-22.57c-1.2,4.96-1.86,11.35-1.86,18.13c0,0.77,0.01,1.55,0.03,2.34L404.89,337.76z"/>
		</g>
		<g>
			<path class="st0" d="M377.52,340.73v12.48c0,7.33,5.39,13.32,11.97,13.32h3.44c6.58,0,11.97-5.99,11.97-13.32v-12.48
				c-4.48,1.14-9.08,1.73-13.69,1.72C386.6,342.46,382,341.87,377.52,340.73z"/>
			<path d="M377.39,340.55l0.16,0.04c4.51,1.15,9.1,1.74,13.66,1.71c0.06,0,0.12,0,0.18,0c4.49,0,9.02-0.58,13.48-1.71l0.16-0.04
				v12.66c0,7.42-5.43,13.46-12.1,13.46h-3.44c-6.67,0-12.1-6.04-12.1-13.46V340.55z M392.93,366.38c6.53,0,11.84-5.91,11.84-13.18
				v-12.3c-4.42,1.12-8.92,1.68-13.38,1.68c-0.12,0-0.24,0-0.36,0c-4.46,0-8.95-0.57-13.38-1.68v12.3c0,7.26,5.31,13.18,11.84,13.18
				H392.93z"/>
		</g>
		<g>
			<path class="st0" d="M381.32,311.51c6.59,1.11,13.19,1.11,19.78,0c0.91-3.83,1.19-7.66,0.84-11.49h-21.47
				C380.13,303.85,380.41,307.68,381.32,311.51z"/>
			<path d="M380.36,299.88h21.7l0.01,0.13c0.35,3.83,0.06,7.71-0.85,11.54l-0.02,0.09l-0.08,0.01c-6.58,1.1-13.24,1.1-19.82,0
				l-0.08-0.01l-0.02-0.09c-0.91-3.83-1.2-7.71-0.85-11.54L380.36,299.88z M401.83,300.17h-21.23c-0.33,3.72-0.05,7.5,0.83,11.22
				c6.49,1.08,13.08,1.08,19.57,0C401.87,307.66,402.15,303.89,401.83,300.17z"/>
		</g>
		<g>
			<path class="st6" d="M380.48,300.03h21.47c-0.03-0.28-0.06-0.56-0.09-0.83h-21.29C380.53,299.47,380.5,299.75,380.48,300.03z"/>
		</g>
		<g>
			<path class="st0" d="M401.86,299.19v-5.99c-2.62-1.57-6.42-2.56-10.65-2.56c-4.23,0-8.03,0.99-10.65,2.56v5.99H401.86z"/>
			<path d="M391.21,290.5c4.07,0,7.98,0.94,10.71,2.58l0.07,0.04v6.22h-21.55v-6.22l0.07-0.04
				C383.23,291.44,387.14,290.5,391.21,290.5z M401.73,293.29c-2.69-1.59-6.52-2.5-10.52-2.5c-4,0-7.82,0.91-10.52,2.5v5.76h21.03
				V293.29z"/>
		</g>
		<g>
			<path class="st6" d="M377.61,340.81l-0.26,0.81c9.06,2.78,18.67,2.78,27.73,0l-0.26-0.81
				C395.92,343.48,386.5,343.48,377.61,340.81z"/>
		</g>
		<g>
			<path class="st0" d="M404.43,340.85l-3.33-10.12h-19.78l-3.33,10.12C386.63,343.45,395.79,343.45,404.43,340.85z"/>
			<path d="M381.23,330.59h19.96l3.41,10.36l-0.14,0.04c-8.67,2.61-17.83,2.61-26.5,0l-0.14-0.04L381.23,330.59z M401.01,330.87
				h-19.6l-3.25,9.88c8.54,2.54,17.55,2.54,26.09,0L401.01,330.87z"/>
		</g>
		<g>
			<g>
				<path class="st5" d="M380.6,293.21h-0.14c-1.61,0-2.93,1.46-2.93,3.26v0.24C378.21,295.2,379.29,293.97,380.6,293.21z"/>
			</g>
			<g>
				<path class="st5" d="M401.82,293.21h0.14c1.61,0,2.93,1.46,2.93,3.26v0.24C404.21,295.2,403.13,293.97,401.82,293.21z"/>
			</g>
		</g>
		<g>
			<g>
				<path class="st0" d="M373.88,332.82c-0.09,0.44,0,0.97,0.21,1.17l2.39,2.29c0.04,0.04,0.08,0.06,0.13,0.07v-2.14l-2.66-1.66
					L373.88,332.82z"/>
				<path class="st5" d="M373.85,332.33l2.88,1.8v2.4l-0.16-0.03c-0.07-0.01-0.13-0.05-0.18-0.1L374,334.1
					c-0.25-0.24-0.35-0.81-0.25-1.31L373.85,332.33z M376.47,334.3l-2.45-1.53l-0.02,0.08c-0.09,0.42,0.01,0.88,0.17,1.02l2.3,2.21
					V334.3z"/>
			</g>
			<g>
				<path class="st0" d="M408.54,332.82c0.09,0.44,0,0.97-0.21,1.17l-2.39,2.29c-0.04,0.04-0.08,0.06-0.13,0.07v-2.14l2.66-1.66
					L408.54,332.82z"/>
				<path class="st5" d="M408.57,332.33l0.1,0.45c0.11,0.5,0,1.07-0.25,1.31l-2.39,2.29c-0.06,0.05-0.12,0.09-0.18,0.1l-0.16,0.03
					v-2.4L408.57,332.33z M405.95,336.08l2.3-2.21c0.15-0.14,0.26-0.6,0.17-1.02l-0.02-0.08l-2.45,1.53V336.08z"/>
			</g>
		</g>
		<g>
			<g>
				<path class="st5" d="M384.16,348.43c0,4.79,0.76,9,1.92,11.43c-0.86-2.5-1.4-6.11-1.4-10.13c0-1.94,0.13-3.79,0.35-5.46h-0.68
					C384.24,345.58,384.16,346.98,384.16,348.43z"/>
			</g>
			<g>
				<path class="st5" d="M398.26,348.43c0,4.79-0.76,9-1.92,11.43c0.86-2.5,1.4-6.11,1.4-10.13c0-1.94-0.13-3.79-0.35-5.46h0.68
					C398.18,345.58,398.26,346.98,398.26,348.43z"/>
			</g>
		</g>
		<g>
			
				<rect x="381.32" y="311.51" transform="matrix(-1 -1.224647e-16 1.224647e-16 -1 782.4198 642.2386)" class="st0" width="19.78" height="19.22"/>
			<path d="M381.19,311.36h20.04v19.51h-20.04V311.36z M400.97,311.65h-19.52v18.93h19.52V311.65z"/>
		</g>
	</g>
	<g>
		<g>
			<g>
				<path class="st0" d="M430.85,290.27c4.47-0.59,8.94-0.59,13.41,0c5.15,0.72,9,6.52,8.72,11.82
					c-0.79,17.35-0.78,34.69,0.02,52.04c0.27,5.03-3.39,10.53-8.28,11.26c-4.78,0.67-9.57,0.67-14.35,0
					c-4.89-0.73-8.54-6.23-8.28-11.26c0.81-17.35,0.81-34.69,0.02-52.04C421.85,296.8,425.7,290.99,430.85,290.27z"/>
				<path class="st5" d="M437.55,289.64c2.25,0,4.49,0.15,6.73,0.44c5.03,0.7,9.17,6.32,8.88,12.02
					c-0.79,17.26-0.78,34.76,0.02,52.02c0.29,5.4-3.65,10.75-8.43,11.46c-4.78,0.67-9.62,0.67-14.39,0
					c-4.78-0.71-8.71-6.07-8.43-11.46c0.8-17.26,0.81-34.76,0.02-52.02c-0.3-5.7,3.85-11.32,8.87-12.02h0
					C433.06,289.79,435.31,289.64,437.55,289.64z M437.55,365.7c2.39,0,4.78-0.17,7.15-0.5c4.6-0.68,8.4-5.85,8.13-11.06
					c-0.8-17.28-0.81-34.79-0.02-52.06c0.29-5.51-3.72-10.94-8.57-11.62c-4.43-0.58-8.93-0.58-13.37,0
					c-4.86,0.68-8.86,6.11-8.57,11.62c0.79,17.27,0.78,34.79-0.02,52.06c-0.28,5.21,3.52,10.38,8.13,11.06
					C432.77,365.54,435.16,365.7,437.55,365.7z"/>
			</g>
		</g>
		<g>
			<path class="st6" d="M426.86,300.03h21.39c-0.03-0.28-0.06-0.56-0.09-0.83h-21.22C426.91,299.48,426.88,299.76,426.86,300.03z"/>
		</g>
		<g>
			<path class="st5" d="M424.68,308.54l0.19,0.71c1.33,5.07,2.06,11.8,2.06,18.94c0,0.78-0.01,1.58-0.03,2.37l-0.01,0.05l-3.24,8.48
				l-0.01-0.67c-0.04-1.97-0.06-3.92-0.06-5.8c0-8.02,0.35-15.88,1.05-23.36L424.68,308.54z M426.64,330.53
				c0.02-0.78,0.03-1.57,0.03-2.34c0-6.77-0.66-13.17-1.86-18.13c-0.65,7.24-0.98,14.83-0.98,22.57c0,1.66,0.02,3.38,0.05,5.12
				L426.64,330.53z"/>
		</g>
		<g>
			<path class="st5" d="M450.43,308.54l0.07,0.73c0.7,7.48,1.05,15.34,1.05,23.36c0,1.86-0.02,3.81-0.06,5.8l-0.01,0.67l-3.25-8.54
				c-0.02-0.79-0.03-1.59-0.03-2.37c0-7.14,0.73-13.87,2.06-18.94L450.43,308.54z M451.24,337.76c0.03-1.75,0.05-3.47,0.05-5.12
				c0-7.74-0.33-15.33-0.98-22.57c-1.2,4.96-1.86,11.35-1.86,18.13c0,0.77,0.01,1.55,0.03,2.34L451.24,337.76z"/>
		</g>
		<g>
			<path class="st0" d="M423.87,340.73v12.48c0,7.33,5.39,13.32,11.97,13.32h3.44c6.58,0,11.97-5.99,11.97-13.32v-12.48
				c-4.48,1.14-9.08,1.73-13.69,1.72C432.95,342.46,428.34,341.87,423.87,340.73z"/>
			<path d="M423.74,340.55l0.16,0.04c4.51,1.15,9.1,1.74,13.66,1.71c0.06,0,0.12,0,0.18,0c4.49,0,9.02-0.58,13.48-1.71l0.16-0.04
				v12.66c0,7.42-5.43,13.46-12.1,13.46h-3.44c-6.67,0-12.1-6.04-12.1-13.46V340.55z M439.27,366.38c6.53,0,11.84-5.91,11.84-13.18
				v-12.3c-4.42,1.12-8.92,1.68-13.38,1.68c-0.12,0-0.24,0-0.36,0c-4.46,0-8.95-0.57-13.38-1.68v12.3c0,7.26,5.31,13.18,11.84,13.18
				H439.27z"/>
		</g>
		<g>
			<path class="st0" d="M427.66,311.51c6.59,1.11,13.19,1.11,19.78,0c0.91-3.83,1.19-7.66,0.84-11.49h-21.47
				C426.47,303.85,426.75,307.68,427.66,311.51z"/>
			<path d="M426.7,299.88h21.7l0.01,0.13c0.35,3.83,0.06,7.71-0.85,11.54l-0.02,0.09l-0.08,0.01c-6.58,1.1-13.24,1.1-19.82,0
				l-0.08-0.01l-0.02-0.09c-0.91-3.83-1.2-7.71-0.85-11.54L426.7,299.88z M448.17,300.17h-21.23c-0.33,3.72-0.05,7.5,0.83,11.22
				c6.49,1.08,13.08,1.08,19.57,0C448.22,307.66,448.5,303.89,448.17,300.17z"/>
		</g>
		<g>
			<path class="st6" d="M426.82,300.03h21.47c-0.03-0.28-0.06-0.56-0.09-0.83h-21.29C426.88,299.47,426.85,299.75,426.82,300.03z"/>
		</g>
		<g>
			<path class="st0" d="M448.2,299.19v-5.99c-2.62-1.57-6.42-2.56-10.65-2.56c-4.23,0-8.03,0.99-10.65,2.56v5.99H448.2z"/>
			<path d="M437.55,290.5c4.07,0,7.98,0.94,10.71,2.58l0.07,0.04v6.22h-21.55v-6.22l0.07-0.04
				C429.58,291.44,433.48,290.5,437.55,290.5z M448.07,293.29c-2.69-1.59-6.52-2.5-10.52-2.5c-4,0-7.82,0.91-10.52,2.5v5.76h21.03
				V293.29z"/>
		</g>
		<g>
			<path class="st6" d="M423.96,340.81l-0.26,0.81c9.06,2.78,18.67,2.78,27.73,0l-0.26-0.81
				C442.26,343.48,432.85,343.48,423.96,340.81z"/>
		</g>
		<g>
			<path class="st0" d="M450.77,340.85l-3.33-10.12h-19.78l-3.33,10.12C432.98,343.45,442.13,343.45,450.77,340.85z"/>
			<path d="M427.57,330.59h19.96l3.41,10.36l-0.14,0.04c-8.67,2.61-17.83,2.61-26.5,0l-0.14-0.04L427.57,330.59z M447.35,330.87
				h-19.6l-3.25,9.88c8.54,2.54,17.55,2.54,26.09,0L447.35,330.87z"/>
		</g>
		<g>
			<g>
				<path class="st5" d="M426.95,293.21h-0.14c-1.61,0-2.93,1.46-2.93,3.26v0.24C424.55,295.2,425.63,293.97,426.95,293.21z"/>
			</g>
			<g>
				<path class="st5" d="M448.16,293.21h0.14c1.61,0,2.93,1.46,2.93,3.26v0.24C450.55,295.2,449.48,293.97,448.16,293.21z"/>
			</g>
		</g>
		<g>
			<g>
				<path class="st0" d="M420.23,332.82c-0.09,0.44,0,0.97,0.21,1.17l2.39,2.29c0.04,0.04,0.08,0.06,0.13,0.07v-2.14l-2.66-1.66
					L420.23,332.82z"/>
				<path class="st5" d="M420.2,332.33l2.88,1.8v2.4l-0.16-0.03c-0.07-0.01-0.13-0.05-0.18-0.1l-2.39-2.29
					c-0.25-0.24-0.35-0.81-0.25-1.31L420.2,332.33z M422.82,334.3l-2.45-1.53l-0.02,0.08c-0.09,0.42,0.01,0.88,0.17,1.02l2.3,2.21
					V334.3z"/>
			</g>
			<g>
				<path class="st0" d="M454.88,332.82c0.09,0.44,0,0.97-0.21,1.17l-2.39,2.29c-0.04,0.04-0.08,0.06-0.13,0.07v-2.14l2.66-1.66
					L454.88,332.82z"/>
				<path class="st5" d="M454.91,332.33l0.1,0.45c0.11,0.5,0,1.07-0.25,1.31l-2.39,2.29c-0.06,0.05-0.12,0.09-0.18,0.1l-0.16,0.03
					v-2.4L454.91,332.33z M452.29,336.08l2.3-2.21c0.15-0.14,0.26-0.6,0.17-1.02l-0.02-0.08l-2.45,1.53V336.08z"/>
			</g>
		</g>
		<g>
			<g>
				<path class="st5" d="M430.51,348.43c0,4.79,0.76,9,1.92,11.43c-0.86-2.5-1.4-6.11-1.4-10.13c0-1.94,0.13-3.79,0.35-5.46h-0.68
					C430.58,345.58,430.51,346.98,430.51,348.43z"/>
			</g>
			<g>
				<path class="st5" d="M444.6,348.43c0,4.79-0.76,9-1.92,11.43c0.86-2.5,1.4-6.11,1.4-10.13c0-1.94-0.13-3.79-0.35-5.46h0.68
					C444.53,345.58,444.6,346.98,444.6,348.43z"/>
			</g>
		</g>
		<g>
			
				<rect x="427.66" y="311.51" transform="matrix(-1 -1.224647e-16 1.224647e-16 -1 875.1083 642.2386)" class="st0" width="19.78" height="19.22"/>
			<path d="M427.53,311.36h20.04v19.51h-20.04V311.36z M447.31,311.65h-19.52v18.93h19.52V311.65z"/>
		</g>
	</g>
	<g>
		<g>
			<g>
				<path class="st0" d="M490.74,290.27c4.47-0.59,8.94-0.59,13.41,0c5.15,0.72,9,6.52,8.72,11.82
					c-0.79,17.35-0.78,34.69,0.02,52.04c0.27,5.03-3.39,10.53-8.28,11.26c-4.78,0.67-9.57,0.67-14.35,0
					c-4.89-0.73-8.54-6.23-8.28-11.26c0.81-17.35,0.81-34.69,0.02-52.04C481.74,296.8,485.6,290.99,490.74,290.27z"/>
				<path class="st5" d="M497.45,289.64c2.25,0,4.49,0.15,6.73,0.44c5.03,0.7,9.17,6.32,8.88,12.02
					c-0.79,17.26-0.78,34.76,0.02,52.02c0.29,5.4-3.65,10.75-8.43,11.46c-4.78,0.67-9.62,0.67-14.39,0
					c-4.78-0.71-8.71-6.07-8.43-11.46c0.8-17.26,0.81-34.76,0.02-52.02c-0.3-5.7,3.85-11.32,8.87-12.02h0
					C492.96,289.79,495.2,289.64,497.45,289.64z M497.45,365.7c2.39,0,4.78-0.17,7.15-0.5c4.6-0.68,8.4-5.85,8.13-11.06
					c-0.8-17.28-0.81-34.79-0.02-52.06c0.29-5.51-3.72-10.94-8.57-11.62c-4.43-0.58-8.93-0.58-13.37,0
					c-4.86,0.68-8.86,6.11-8.57,11.62c0.79,17.27,0.78,34.79-0.02,52.06c-0.28,5.21,3.52,10.38,8.13,11.06
					C492.67,365.54,495.06,365.7,497.45,365.7z"/>
			</g>
		</g>
		<g>
			<path class="st6" d="M486.75,300.03h21.39c-0.03-0.28-0.06-0.56-0.09-0.83h-21.22C486.81,299.48,486.78,299.76,486.75,300.03z"/>
		</g>
		<g>
			<path class="st5" d="M484.57,308.54l0.19,0.71c1.33,5.07,2.06,11.8,2.06,18.94c0,0.78-0.01,1.58-0.03,2.37l-0.01,0.05l-3.24,8.48
				l-0.01-0.67c-0.04-1.97-0.06-3.92-0.06-5.8c0-8.02,0.35-15.88,1.05-23.36L484.57,308.54z M486.53,330.53
				c0.02-0.78,0.03-1.57,0.03-2.34c0-6.77-0.66-13.17-1.86-18.13c-0.65,7.24-0.98,14.83-0.98,22.57c0,1.66,0.02,3.38,0.05,5.12
				L486.53,330.53z"/>
		</g>
		<g>
			<path class="st5" d="M510.32,308.54l0.07,0.73c0.7,7.48,1.05,15.34,1.05,23.36c0,1.86-0.02,3.81-0.06,5.8l-0.01,0.67l-3.25-8.54
				c-0.02-0.79-0.03-1.59-0.03-2.37c0-7.14,0.73-13.87,2.06-18.94L510.32,308.54z M511.13,337.76c0.03-1.75,0.05-3.47,0.05-5.12
				c0-7.74-0.33-15.33-0.98-22.57c-1.2,4.96-1.86,11.35-1.86,18.13c0,0.77,0.01,1.55,0.03,2.34L511.13,337.76z"/>
		</g>
		<g>
			<path class="st0" d="M483.76,340.73v12.48c0,7.33,5.39,13.32,11.97,13.32h3.44c6.58,0,11.97-5.99,11.97-13.32v-12.48
				c-4.48,1.14-9.08,1.73-13.69,1.72C492.84,342.46,488.24,341.87,483.76,340.73z"/>
			<path d="M483.63,340.55l0.16,0.04c4.51,1.15,9.1,1.74,13.66,1.71c0.06,0,0.12,0,0.18,0c4.49,0,9.02-0.58,13.48-1.71l0.16-0.04
				v12.66c0,7.42-5.43,13.46-12.1,13.46h-3.44c-6.67,0-12.1-6.04-12.1-13.46V340.55z M499.17,366.38c6.53,0,11.84-5.91,11.84-13.18
				v-12.3c-4.42,1.12-8.92,1.68-13.38,1.68c-0.12,0-0.24,0-0.36,0c-4.46,0-8.95-0.57-13.38-1.68v12.3c0,7.26,5.31,13.18,11.84,13.18
				H499.17z"/>
		</g>
		<g>
			<path class="st0" d="M487.56,311.51c6.59,1.11,13.19,1.11,19.78,0c0.91-3.83,1.19-7.66,0.84-11.49h-21.47
				C486.37,303.85,486.65,307.68,487.56,311.51z"/>
			<path d="M486.6,299.88h21.7l0.01,0.13c0.35,3.83,0.06,7.71-0.85,11.54l-0.02,0.09l-0.08,0.01c-6.58,1.1-13.24,1.1-19.82,0
				l-0.08-0.01l-0.02-0.09c-0.91-3.83-1.2-7.71-0.85-11.54L486.6,299.88z M508.07,300.17h-21.23c-0.33,3.72-0.05,7.5,0.83,11.22
				c6.49,1.08,13.08,1.08,19.57,0C508.11,307.66,508.39,303.89,508.07,300.17z"/>
		</g>
		<g>
			<path class="st6" d="M486.72,300.03h21.47c-0.03-0.28-0.06-0.56-0.09-0.83H486.8C486.77,299.47,486.74,299.75,486.72,300.03z"/>
		</g>
		<g>
			<path class="st0" d="M508.1,299.19v-5.99c-2.62-1.57-6.42-2.56-10.65-2.56c-4.23,0-8.03,0.99-10.65,2.56v5.99H508.1z"/>
			<path d="M497.45,290.5c4.07,0,7.98,0.94,10.71,2.58l0.07,0.04v6.22h-21.55v-6.22l0.07-0.04
				C489.47,291.44,493.38,290.5,497.45,290.5z M507.97,293.29c-2.69-1.59-6.52-2.5-10.52-2.5c-4,0-7.82,0.91-10.52,2.5v5.76h21.03
				V293.29z"/>
		</g>
		<g>
			<path class="st6" d="M483.85,340.81l-0.26,0.81c9.06,2.78,18.67,2.78,27.73,0l-0.26-0.81
				C502.16,343.48,492.74,343.48,483.85,340.81z"/>
		</g>
		<g>
			<path class="st0" d="M510.67,340.85l-3.33-10.12h-19.78l-3.33,10.12C492.87,343.45,502.03,343.45,510.67,340.85z"/>
			<path d="M487.47,330.59h19.96l3.41,10.36l-0.14,0.04c-8.67,2.61-17.83,2.61-26.5,0l-0.14-0.04L487.47,330.59z M507.25,330.87
				h-19.6l-3.25,9.88c8.54,2.54,17.55,2.54,26.09,0L507.25,330.87z"/>
		</g>
		<g>
			<g>
				<path class="st5" d="M486.84,293.21h-0.14c-1.61,0-2.93,1.46-2.93,3.26v0.24C484.45,295.2,485.53,293.97,486.84,293.21z"/>
			</g>
			<g>
				<path class="st5" d="M508.06,293.21h0.14c1.61,0,2.93,1.46,2.93,3.26v0.24C510.45,295.2,509.37,293.97,508.06,293.21z"/>
			</g>
		</g>
		<g>
			<g>
				<path class="st0" d="M480.12,332.82c-0.09,0.44,0,0.97,0.21,1.17l2.39,2.29c0.04,0.04,0.08,0.06,0.13,0.07v-2.14l-2.66-1.66
					L480.12,332.82z"/>
				<path class="st5" d="M480.09,332.33l2.88,1.8v2.4l-0.16-0.03c-0.07-0.01-0.13-0.05-0.18-0.1l-2.39-2.29
					c-0.25-0.24-0.35-0.81-0.25-1.31L480.09,332.33z M482.71,334.3l-2.45-1.53l-0.02,0.08c-0.09,0.42,0.01,0.88,0.17,1.02l2.3,2.21
					V334.3z"/>
			</g>
			<g>
				<path class="st0" d="M514.78,332.82c0.09,0.44,0,0.97-0.21,1.17l-2.39,2.29c-0.04,0.04-0.08,0.06-0.13,0.07v-2.14l2.66-1.66
					L514.78,332.82z"/>
				<path class="st5" d="M514.81,332.33l0.1,0.45c0.11,0.5,0,1.07-0.25,1.31l-2.39,2.29c-0.06,0.05-0.12,0.09-0.18,0.1l-0.16,0.03
					v-2.4L514.81,332.33z M512.19,336.08l2.3-2.21c0.15-0.14,0.26-0.6,0.17-1.02l-0.02-0.08l-2.45,1.53V336.08z"/>
			</g>
		</g>
		<g>
			<g>
				<path class="st5" d="M490.4,348.43c0,4.79,0.76,9,1.92,11.43c-0.86-2.5-1.4-6.11-1.4-10.13c0-1.94,0.13-3.79,0.35-5.46h-0.68
					C490.47,345.58,490.4,346.98,490.4,348.43z"/>
			</g>
			<g>
				<path class="st5" d="M504.5,348.43c0,4.79-0.76,9-1.92,11.43c0.86-2.5,1.4-6.11,1.4-10.13c0-1.94-0.13-3.79-0.35-5.46h0.68
					C504.42,345.58,504.5,346.98,504.5,348.43z"/>
			</g>
		</g>
		<g>
			
				<rect x="487.56" y="311.51" transform="matrix(-1 -1.224647e-16 1.224647e-16 -1 994.8994 642.2386)" class="st0" width="19.78" height="19.22"/>
			<path d="M487.43,311.36h20.04v19.51h-20.04V311.36z M507.21,311.65h-19.52v18.93h19.52V311.65z"/>
		</g>
	</g>
	<g>
		<g>
			<g>
				<path class="st0" d="M561.84,290.27c4.47-0.59,8.94-0.59,13.41,0c5.15,0.72,9,6.52,8.72,11.82
					c-0.79,17.35-0.78,34.69,0.02,52.04c0.27,5.03-3.39,10.53-8.28,11.26c-4.78,0.67-9.57,0.67-14.35,0
					c-4.89-0.73-8.54-6.23-8.28-11.26c0.81-17.35,0.81-34.69,0.02-52.04C552.84,296.8,556.69,290.99,561.84,290.27z"/>
				<path class="st5" d="M568.55,289.64c2.25,0,4.49,0.15,6.73,0.44c5.03,0.7,9.17,6.32,8.88,12.02
					c-0.79,17.26-0.78,34.76,0.02,52.02c0.29,5.4-3.65,10.75-8.43,11.46c-4.78,0.67-9.62,0.67-14.39,0
					c-4.78-0.71-8.71-6.07-8.43-11.46c0.8-17.26,0.81-34.76,0.02-52.02c-0.3-5.7,3.85-11.32,8.87-12.02h0
					C564.05,289.79,566.3,289.64,568.55,289.64z M568.55,365.7c2.39,0,4.78-0.17,7.15-0.5c4.6-0.68,8.4-5.85,8.13-11.06
					c-0.8-17.28-0.81-34.79-0.02-52.06c0.29-5.51-3.72-10.94-8.57-11.62c-4.43-0.58-8.93-0.58-13.37,0
					c-4.86,0.68-8.86,6.11-8.57,11.62c0.79,17.27,0.78,34.79-0.02,52.06c-0.28,5.21,3.52,10.38,8.13,11.06
					C563.77,365.54,566.16,365.7,568.55,365.7z"/>
			</g>
		</g>
		<g>
			<path class="st6" d="M557.85,300.03h21.39c-0.03-0.28-0.06-0.56-0.09-0.83h-21.22C557.91,299.48,557.88,299.76,557.85,300.03z"/>
		</g>
		<g>
			<path class="st5" d="M555.67,308.54l0.19,0.71c1.33,5.07,2.06,11.8,2.06,18.94c0,0.78-0.01,1.58-0.03,2.37l-0.01,0.05l-3.24,8.48
				l-0.01-0.67c-0.04-1.97-0.06-3.92-0.06-5.8c0-8.02,0.35-15.88,1.05-23.36L555.67,308.54z M557.63,330.53
				c0.02-0.78,0.03-1.57,0.03-2.34c0-6.77-0.66-13.17-1.86-18.13c-0.65,7.24-0.98,14.83-0.98,22.57c0,1.66,0.02,3.38,0.05,5.12
				L557.63,330.53z"/>
		</g>
		<g>
			<path class="st5" d="M581.42,308.54l0.07,0.73c0.7,7.48,1.05,15.34,1.05,23.36c0,1.86-0.02,3.81-0.06,5.8l-0.01,0.67l-3.25-8.54
				c-0.02-0.79-0.03-1.59-0.03-2.37c0-7.14,0.73-13.87,2.06-18.94L581.42,308.54z M582.23,337.76c0.03-1.75,0.05-3.47,0.05-5.12
				c0-7.74-0.33-15.33-0.98-22.57c-1.2,4.96-1.86,11.35-1.86,18.13c0,0.77,0.01,1.55,0.03,2.34L582.23,337.76z"/>
		</g>
		<g>
			<path class="st0" d="M554.86,340.73v12.48c0,7.33,5.39,13.32,11.97,13.32h3.44c6.58,0,11.97-5.99,11.97-13.32v-12.48
				c-4.48,1.14-9.08,1.73-13.69,1.72C563.94,342.46,559.34,341.87,554.86,340.73z"/>
			<path d="M554.73,340.55l0.16,0.04c4.51,1.15,9.1,1.74,13.66,1.71c0.06,0,0.12,0,0.18,0c4.49,0,9.02-0.58,13.48-1.71l0.16-0.04
				v12.66c0,7.42-5.43,13.46-12.1,13.46h-3.44c-6.67,0-12.1-6.04-12.1-13.46V340.55z M570.27,366.38c6.53,0,11.84-5.91,11.84-13.18
				v-12.3c-4.42,1.12-8.92,1.68-13.38,1.68c-0.12,0-0.24,0-0.36,0c-4.46,0-8.95-0.57-13.38-1.68v12.3c0,7.26,5.31,13.18,11.84,13.18
				H570.27z"/>
		</g>
		<g>
			<path class="st0" d="M558.66,311.51c6.59,1.11,13.19,1.11,19.78,0c0.91-3.83,1.19-7.66,0.84-11.49h-21.47
				C557.46,303.85,557.75,307.68,558.66,311.51z"/>
			<path d="M557.7,299.88h21.7l0.01,0.13c0.35,3.83,0.06,7.71-0.85,11.54l-0.02,0.09l-0.08,0.01c-6.58,1.1-13.24,1.1-19.82,0
				l-0.08-0.01l-0.02-0.09c-0.91-3.83-1.2-7.71-0.85-11.54L557.7,299.88z M579.16,300.17h-21.23c-0.33,3.72-0.05,7.5,0.83,11.22
				c6.49,1.08,13.08,1.08,19.57,0C579.21,307.66,579.49,303.89,579.16,300.17z"/>
		</g>
		<g>
			<path class="st6" d="M557.81,300.03h21.47c-0.03-0.28-0.06-0.56-0.09-0.83H557.9C557.87,299.47,557.84,299.75,557.81,300.03z"/>
		</g>
		<g>
			<path class="st0" d="M579.19,299.19v-5.99c-2.62-1.57-6.42-2.56-10.65-2.56c-4.23,0-8.03,0.99-10.65,2.56v5.99H579.19z"/>
			<path d="M568.55,290.5c4.07,0,7.98,0.94,10.71,2.58l0.07,0.04v6.22h-21.55v-6.22l0.07-0.04
				C560.57,291.44,564.47,290.5,568.55,290.5z M579.06,293.29c-2.69-1.59-6.52-2.5-10.52-2.5s-7.82,0.91-10.52,2.5v5.76h21.03
				V293.29z"/>
		</g>
		<g>
			<path class="st6" d="M554.95,340.81l-0.26,0.81c9.06,2.78,18.67,2.78,27.73,0l-0.26-0.81
				C573.26,343.48,563.84,343.48,554.95,340.81z"/>
		</g>
		<g>
			<path class="st0" d="M581.76,340.85l-3.33-10.12h-19.78l-3.33,10.12C563.97,343.45,573.12,343.45,581.76,340.85z"/>
			<path d="M558.57,330.59h19.96l3.41,10.36l-0.14,0.04c-8.67,2.61-17.83,2.61-26.5,0l-0.14-0.04L558.57,330.59z M578.35,330.87
				h-19.6l-3.25,9.88c8.54,2.54,17.55,2.54,26.09,0L578.35,330.87z"/>
		</g>
		<g>
			<g>
				<path class="st5" d="M557.94,293.21h-0.14c-1.61,0-2.93,1.46-2.93,3.26v0.24C555.55,295.2,556.62,293.97,557.94,293.21z"/>
			</g>
			<g>
				<path class="st5" d="M579.15,293.21h0.14c1.61,0,2.93,1.46,2.93,3.26v0.24C581.55,295.2,580.47,293.97,579.15,293.21z"/>
			</g>
		</g>
		<g>
			<g>
				<path class="st0" d="M551.22,332.82c-0.09,0.44,0,0.97,0.21,1.17l2.39,2.29c0.04,0.04,0.08,0.06,0.13,0.07v-2.14l-2.66-1.66
					L551.22,332.82z"/>
				<path class="st5" d="M551.19,332.33l2.88,1.8v2.4l-0.16-0.03c-0.07-0.01-0.13-0.05-0.18-0.1l-2.39-2.29
					c-0.25-0.24-0.35-0.81-0.25-1.31L551.19,332.33z M553.81,334.3l-2.45-1.53l-0.02,0.08c-0.09,0.42,0.01,0.88,0.17,1.02l2.3,2.21
					V334.3z"/>
			</g>
			<g>
				<path class="st0" d="M585.88,332.82c0.09,0.44,0,0.97-0.21,1.17l-2.39,2.29c-0.04,0.04-0.08,0.06-0.13,0.07v-2.14l2.66-1.66
					L585.88,332.82z"/>
				<path class="st5" d="M585.91,332.33l0.1,0.45c0.11,0.5,0,1.07-0.25,1.31l-2.39,2.29c-0.06,0.05-0.12,0.09-0.18,0.1l-0.16,0.03
					v-2.4L585.91,332.33z M583.28,336.08l2.3-2.21c0.15-0.14,0.26-0.6,0.17-1.02l-0.02-0.08l-2.45,1.53V336.08z"/>
			</g>
		</g>
		<g>
			<g>
				<path class="st5" d="M561.5,348.43c0,4.79,0.76,9,1.92,11.43c-0.86-2.5-1.4-6.11-1.4-10.13c0-1.94,0.13-3.79,0.35-5.46h-0.68
					C561.57,345.58,561.5,346.98,561.5,348.43z"/>
			</g>
			<g>
				<path class="st5" d="M575.59,348.43c0,4.79-0.76,9-1.92,11.43c0.86-2.5,1.4-6.11,1.4-10.13c0-1.94-0.13-3.79-0.35-5.46h0.68
					C575.52,345.58,575.59,346.98,575.59,348.43z"/>
			</g>
		</g>
		<g>
			
				<rect x="558.66" y="311.51" transform="matrix(-1 -1.224647e-16 1.224647e-16 -1 1137.0948 642.2386)" class="st0" width="19.78" height="19.22"/>
			<path d="M558.53,311.36h20.04v19.51h-20.04V311.36z M578.31,311.65h-19.52v18.93h19.52V311.65z"/>
		</g>
	</g>
	<line class="グラフィックスタイル" x1="161.07" y1="379.03" x2="609.66" y2="379.03"/>
	<line class="グラフィックスタイル" x1="161.07" y1="458.18" x2="609.66" y2="458.18"/>
	<polyline class="st12" points="211.29,392.12 201.93,379.03 201.93,458.18 194.68,448.74 	"/>
	<rect x="213.08" y="64.33" class="グラフィックスタイル_x0020_3" width="108.84" height="187.79"/>
	<rect x="346.06" y="64.33" class="グラフィックスタイル_x0020_3" width="108.84" height="187.79"/>
	<rect x="476" y="64.33" class="グラフィックスタイル_x0020_3" width="108.84" height="182.35"/>
	<g>
		
			<rect x="213.08" y="262.78" transform="matrix(-1 3.085195e-13 -3.085195e-13 -1 461.5229 531.8384)" class="st22" width="35.35" height="6.27"/>
		
			<rect x="213.08" y="269.05" transform="matrix(-1 3.085195e-13 -3.085195e-13 -1 461.5229 544.3812)" class="st22" width="35.35" height="6.27"/>
		
			<rect x="213.08" y="275.33" transform="matrix(-1 -1.224647e-16 1.224647e-16 -1 461.5229 556.924)" class="st22" width="35.35" height="6.27"/>
		
			<rect x="213.08" y="243.19" transform="matrix(-1 -2.572501e-13 2.572501e-13 -1 461.5229 505.9781)" class="st22" width="35.35" height="19.59"/>
		<polygon points="230.76,247.46 225.53,255.81 235.99,255.81 		"/>
	</g>
	<g>
		
			<rect x="346.09" y="254.87" transform="matrix(-1 2.570052e-13 -2.570052e-13 -1 727.525 516.0085)" class="st22" width="35.35" height="6.27"/>
		
			<rect x="346.09" y="261.14" transform="matrix(-1 3.085195e-13 -3.085195e-13 -1 727.525 528.5514)" class="st22" width="35.35" height="6.27"/>
		
			<rect x="346.09" y="235.28" transform="matrix(-1 -3.087645e-13 3.087645e-13 -1 727.525 490.1483)" class="st22" width="35.35" height="19.59"/>
		<polygon points="363.76,239.55 358.53,247.89 368.99,247.89 		"/>
	</g>
	<g>
		
			<rect x="475.26" y="247.04" transform="matrix(-1 -3.069881e-13 3.069881e-13 -1 986.0935 517.9642)" class="st22" width="35.58" height="23.89"/>
		
			<rect x="511.12" y="247.04" transform="matrix(-1 -1.224647e-16 1.224647e-16 -1 1028.8593 517.9642)" class="st22" width="6.62" height="23.89"/>
		
			<rect x="517.67" y="247.04" transform="matrix(-1 -1.224647e-16 1.224647e-16 -1 1041.9614 517.9642)" class="st22" width="6.62" height="23.89"/>
		<polygon points="492.93,251.02 487.7,259.36 498.16,259.36 		"/>
	</g>
	<g>
		<path d="M265.58,107.86c-1.42,0.63-4.2,1.48-6.13,1.89l-0.7-2.37c2.91-0.6,6.16-1.8,7.64-2.81h2.12v26.06h-2.94V107.86z"/>
		<path d="M259.95,151.94c-0.32,1.14-0.69,2.21-1.04,3.09h17.75c-0.25,3.85-0.88,7.3-1.67,9.03c-0.79,1.77-1.8,2.27-4.64,2.27
			c-1.67,0-3.92-0.09-5.46-0.22l-0.57-2.4c2.18,0.19,4.29,0.32,5.81,0.32c1.58,0,2.05-0.25,2.5-1.26c0.38-0.98,0.88-3.19,1.2-5.59
			h-15.76c-0.41,0.88-0.85,1.8-1.33,2.68l-2.56-0.73c1.14-2.02,2.18-4.42,3.13-7.2h-7.04v-2.15h30.01v2.15H259.95z M275.56,146.91
			h-20.63v-8.97h20.63V146.91z M257.49,144.89H273v-4.86h-15.51V144.89z"/>
		<path d="M255.88,184.61c-1.01,3.22-2.31,6.13-3.82,8.56l-1.17-2.53c2.05-3.06,3.66-6.89,4.77-11.4h-4.33v-2.21h4.55v-6.76h2.34
			v6.76h3.29v2.21h-3.29v2.94c1.42,1.17,2.75,2.43,3.88,3.7l-1.33,2.12c-0.57-0.85-1.61-2.18-2.56-3.25v15.54h-2.34V184.61z
			 M273.5,189c2.02,2.91,4.67,5.24,8.05,7.14l-1.48,2.21c-3.32-2.08-6.25-4.99-8.15-8.09v10.01h-2.24v-9.82
			c-1.99,3.38-4.67,6.16-8.12,8.34l-1.58-1.93c3.44-1.93,6.19-4.52,8.28-7.87h-5.84v-11.24h7.26v-2.34h-8.91v-2.05h8.91v-3.1h2.24
			v3.1h9.1v2.05h-9.1v2.34h7.49V189H273.5z M264.66,179.68v2.68h5.02v-2.68H264.66z M264.66,184.29v2.75h5.02v-2.75H264.66z
			 M271.92,182.36h5.27v-2.68h-5.27V182.36z M271.92,187.04h5.27v-2.75h-5.27V187.04z"/>
	</g>
	<g>
		<path d="M391.91,128.14c0.82-3.38,3.6-6.76,7.87-9.6l0.82-0.54c4.42-2.87,5.59-4.26,5.59-6.57c0-2.59-2.15-4.33-5.4-4.33
			c-2.65,0-4.52,0.98-6.54,3.38l-1.99-1.67c2.4-2.97,4.96-4.23,8.65-4.23c4.93,0,8.53,2.91,8.53,6.92c0,3.19-1.23,4.67-6.89,8.28
			l-1.14,0.73c-3.76,2.46-6.13,5.18-6.41,7.45h14.81v2.69h-17.91V128.14z"/>
		<path d="M394.72,151.94c-0.32,1.14-0.69,2.21-1.04,3.09h17.75c-0.25,3.85-0.88,7.3-1.67,9.03c-0.79,1.77-1.8,2.27-4.64,2.27
			c-1.67,0-3.92-0.09-5.46-0.22l-0.57-2.4c2.18,0.19,4.29,0.32,5.81,0.32c1.58,0,2.05-0.25,2.5-1.26c0.38-0.98,0.88-3.19,1.2-5.59
			h-15.76c-0.41,0.88-0.85,1.8-1.33,2.68l-2.56-0.73c1.14-2.02,2.18-4.42,3.13-7.2h-7.04v-2.15h30.01v2.15H394.72z M410.32,146.91
			h-20.63v-8.97h20.63V146.91z M392.25,144.89h15.51v-4.86h-15.51V144.89z"/>
		<path d="M390.64,184.61c-1.01,3.22-2.31,6.13-3.82,8.56l-1.17-2.53c2.05-3.06,3.66-6.89,4.77-11.4h-4.33v-2.21h4.55v-6.76h2.34
			v6.76h3.29v2.21h-3.29v2.94c1.42,1.17,2.75,2.43,3.88,3.7l-1.33,2.12c-0.57-0.85-1.61-2.18-2.56-3.25v15.54h-2.34V184.61z
			 M408.27,189c2.02,2.91,4.67,5.24,8.05,7.14l-1.48,2.21c-3.32-2.08-6.25-4.99-8.15-8.09v10.01h-2.24v-9.82
			c-1.99,3.38-4.67,6.16-8.12,8.34l-1.58-1.93c3.44-1.93,6.19-4.52,8.28-7.87h-5.84v-11.24h7.26v-2.34h-8.91v-2.05h8.91v-3.1h2.24
			v3.1h9.1v2.05h-9.1v2.34h7.49V189H408.27z M399.42,179.68v2.68h5.02v-2.68H399.42z M399.42,184.29v2.75h5.02v-2.75H399.42z
			 M406.69,182.36h5.27v-2.68h-5.27V182.36z M406.69,187.04h5.27v-2.75h-5.27V187.04z"/>
	</g>
	<g>
		<path d="M528.24,115.95c4.52,0,7.01-1.64,7.01-4.61c0-2.62-2.12-4.26-5.53-4.26c-2.56,0-4.26,0.76-6.19,2.75l-1.86-1.77
			c1.96-2.18,4.99-3.47,8.12-3.47c5.08,0,8.62,2.68,8.62,6.54c0,3.19-2.34,5.37-6.22,5.84v0.13c4.58,0.32,7.23,2.78,7.23,6.67
			c0,4.52-3.73,7.39-9.67,7.39c-3.85,0-6.76-1.14-9-3.57l1.86-1.86c1.89,1.9,4.26,2.84,7.11,2.84c4.04,0,6.48-1.9,6.48-5.02
			c0-3.54-2.53-5.18-8.02-5.18h-2.05v-2.4H528.24z"/>
		<path d="M524.17,151.94c-0.32,1.14-0.69,2.21-1.04,3.09h17.75c-0.25,3.85-0.88,7.3-1.67,9.03c-0.79,1.77-1.8,2.27-4.64,2.27
			c-1.67,0-3.92-0.09-5.46-0.22l-0.57-2.4c2.18,0.19,4.29,0.32,5.81,0.32c1.58,0,2.05-0.25,2.5-1.26c0.38-0.98,0.88-3.19,1.2-5.59
			h-15.76c-0.41,0.88-0.85,1.8-1.33,2.68l-2.56-0.73c1.14-2.02,2.18-4.42,3.13-7.2h-7.04v-2.15h30.01v2.15H524.17z M539.77,146.91
			h-20.63v-8.97h20.63V146.91z M521.7,144.89h15.51v-4.86H521.7V144.89z"/>
		<path d="M520.09,184.61c-1.01,3.22-2.31,6.13-3.82,8.56l-1.17-2.53c2.05-3.06,3.66-6.89,4.77-11.4h-4.33v-2.21h4.55v-6.76h2.34
			v6.76h3.29v2.21h-3.29v2.94c1.42,1.17,2.75,2.43,3.88,3.7l-1.33,2.12c-0.57-0.85-1.61-2.18-2.56-3.25v15.54h-2.34V184.61z
			 M537.72,189c2.02,2.91,4.67,5.24,8.05,7.14l-1.48,2.21c-3.32-2.08-6.25-4.99-8.15-8.09v10.01h-2.24v-9.82
			c-1.99,3.38-4.67,6.16-8.12,8.34l-1.58-1.93c3.44-1.93,6.19-4.52,8.28-7.87h-5.84v-11.24h7.26v-2.34h-8.91v-2.05h8.91v-3.1h2.24
			v3.1h9.1v2.05h-9.1v2.34h7.49V189H537.72z M528.87,179.68v2.68h5.02v-2.68H528.87z M528.87,184.29v2.75h5.02v-2.75H528.87z
			 M536.14,182.36h5.28v-2.68h-5.28V182.36z M536.14,187.04h5.28v-2.75h-5.28V187.04z"/>
	</g>
</g>
</svg>
