<?xml version="1.0" encoding="utf-8"?>
<!-- Generator: Adobe Illustrator 23.0.3, SVG Export Plug-In . SVG Version: 6.00 Build 0)  -->
<svg version="1.1" xmlns="http://www.w3.org/2000/svg" xmlns:xlink="http://www.w3.org/1999/xlink" x="0px" y="0px"
	 viewBox="0 0 700 278.25" style="enable-background:new 0 0 700 278.25;" xml:space="preserve">
<style type="text/css">
	.st0{fill:#980051;}
	.st1{fill:none;stroke:#980051;stroke-width:1.7614;stroke-miterlimit:10;}
</style>
<g id="レイヤー_1">
</g>
<g id="レイヤー_3">
</g>
<g id="レイヤー_4">
</g>
<g id="レイヤー_2">
	<g>
		<g>
			<path d="M177.51,52.2c0.4,0.09,1.02,0.22,1.02,0.8c0,0.31-0.27,0.53-0.44,0.62c-0.27,0.18-0.62,0.35-0.93,0.49
				c0,6.51-0.75,14.84-13.47,17.46l-0.22-0.22c4.39-1.95,8.11-4.92,9.7-10.86c-2.13,1.15-3.01,1.55-10.94,4.79
				c-0.22,0.84-0.44,1.59-0.98,1.59c-0.4,0-0.53-0.27-0.66-0.53l-2.39-4.56c0.66,0.09,1.24,0.13,1.91,0.13c0.44,0,0.58,0,1.59-0.09
				c0-10.19,0-10.68-0.58-12.41l4.43,2.08c3.59-1.64,7.09-3.5,7.8-5.54l3.01,2.7c0.22,0.18,0.31,0.44,0.31,0.71
				c0,0.84-1.06,0.71-1.68,0.62c-3.28,1.24-7.4,2.13-9.93,2.35v9.04c0.35-0.04,4.43-0.66,8.24-1.42c0.31-1.37,0.49-2.92,0.49-4.43
				c0-2.66-0.31-3.54-0.49-4.12L177.51,52.2z M187.92,33.54l1.11-1.42c0.27-0.35,0.49-0.58,0.71-0.58c0.18,0,0.44,0.18,0.89,0.49
				l1.95,1.33c0.44,0.31,0.66,0.58,0.66,0.93c0,0.67-0.8,1.11-1.51,1.42v5.85c0,0.58,0.09,3.23,0.09,3.77
				c0,2.13-1.91,2.13-2.13,2.13c-1.55,0-1.55-0.93-1.51-2.22h-18.88c0,0.53,0.04,2.08-1.77,2.08c-1.73,0-1.73-0.93-1.73-1.73
				c0-1.59,0.18-8.51,0.18-9.93c0-1.11-0.04-3.1-0.22-4.12l3.99,1.99H187.92z M169.31,34.61v4.3h18.88v-4.3H169.31z M169.31,39.97
				v4.21h18.88v-4.21H169.31z M191.91,51.05l1.29-1.51c0.35-0.44,0.53-0.66,0.8-0.66c0.18,0,0.44,0.18,0.8,0.4l1.91,1.29
				c0.35,0.27,0.58,0.53,0.58,0.89c0,0.67-0.75,1.15-1.6,1.73c-0.04,1.64,0.04,8.82,0,10.28c0,1.37-0.13,5.23-5.27,5.54
				c-0.27-1.55-0.44-1.91-3.85-4.39v-0.27c0.62,0.09,3.9,0.4,4.25,0.4c0.84,0,1.2-0.18,1.33-0.58c0.18-0.49,0.18-4.17,0.18-5.1
				c0-0.49-0.04-5.85-0.04-6.96h-7.98c0,13.96,0.04,15.51,0.04,16.13c0.04,1.42,0.04,3.19-2.13,3.19c-0.89,0-1.64-0.09-1.64-1.37
				c0-1.91,0.35-12.45,0.35-14.53c0-4.34-0.13-5.63-0.22-6.51l4.12,2.04H191.91z"/>
			<path d="M233.38,43.69c-0.75,0.58-0.93,0.8-1.11,1.64c-0.62,2.53-0.8,3.54-2.3,12.72c0.8,0.22,2.13,0.93,2.13,2.08
				c0,1.33-1.55,1.33-3.06,1.33c-0.89,0-4.83-0.13-5.67-0.13c-4.96,0-8.64,0.75-11.12,1.46c-0.4,0.13-2.08,0.71-2.44,0.71
				c-1.2,0-4.03-3.32-4.03-5.58c0-0.62,0.09-0.93,0.27-1.42c0.44,0.44,3.06,2.97,5.72,2.97c1.86,0,11.34-0.97,15.15-1.37
				c1.06-6.56,1.77-14.4,1.77-14.89s-0.31-0.58-0.75-0.58c-4.25,0-10.46,1.02-15.38,2.04c-0.35,0.09-1.86,0.71-2.22,0.71
				c-1.82,0-3.54-3.06-3.72-3.37c-0.58-0.98-0.71-1.2-0.71-2.39c0-0.53,0.09-0.84,0.13-1.24c1.73,2.39,4.34,3.06,6.12,3.06
				c1.82,0,14.84-0.97,15.95-1.51c0.35-0.18,1.99-1.29,2.35-1.29c0.62,0,3.94,2.88,3.94,3.77C234.4,42.94,234.14,43.16,233.38,43.69
				z"/>
			<path d="M273.88,53.13c-0.71,0-1.82-0.04-2.7-0.13c-0.84-0.04-11.65-0.13-12.41-0.13c-2.57,0-9.35,0.13-11.39,0.71
				c-0.8,0.22-1.15,0.31-1.51,0.31c-1.64,0-4.12-3.5-4.12-5.27c0-0.58,0.18-1.33,0.71-2.48c1.55,3.1,2.61,3.63,7.89,3.63
				c2.57,0,17.95-0.04,19.45-0.58c0.66-0.22,1.2-0.44,1.77-0.44c0.09,0,5.27,0.4,5.27,2.75C276.85,52.24,276.01,53.13,273.88,53.13z
				"/>
			<path d="M285.35,62.83c-0.66,0-1.91-0.58-1.91-1.99c0-1.77,1.55-2.79,2.84-3.68c2.7-1.77,4.74-4.34,6.43-7.09
				C292.27,55.7,289.03,62.83,285.35,62.83z M315.62,47.1c-0.58,0-3.28-0.4-3.81-0.44c-0.71-0.09-3.54-0.27-6.47-0.27
				c-1.68,0-2.79,0.09-3.5,0.13c-0.09,1.59-0.09,10.01,0.13,12.67c0.04,0.44,0.31,3.72,0.31,3.81c0,0.58,0,2.04-0.67,3.94
				c-0.4,1.2-0.89,1.82-1.82,1.82c-0.84,0-0.98-0.22-2.08-2.44c-0.97-1.91-1.55-2.35-4.52-4.56v-0.27c0.8,0.18,2.7,0.58,4.12,0.58
				c1.15,0,1.2-0.18,1.28-0.35c0.09-0.27,0.31-2.79,0.31-7.67c0-2.17,0-3.94-0.09-7.27c-1.73,0.22-7.98,1.15-9.17,1.95
				c-0.71,0.49-1.2,0.53-1.42,0.53c-1.95,0-4.25-3.32-4.25-5.27c0-0.58,0.13-1.24,0.31-2.04c0.4,0.62,2.17,3.32,4.56,3.32
				c0.67,0,8.33-0.75,9.93-0.89c-0.18-5.58-0.18-6.51-0.71-7.44c-0.58-1.02-1.33-1.29-3.59-2.08c0.62-0.53,1.46-1.24,3.01-1.24
				c2.22,0,5.5,1.82,5.5,3.1c0,0.31-0.18,0.8-0.53,1.68c-0.35,0.89-0.53,4.56-0.53,5.72c1.06-0.09,5.76-0.44,6.69-0.53
				c0.49-0.04,1.11-0.09,2.22-0.49c0.53-0.18,0.89-0.31,1.37-0.31c1.24,0,4.43,1.24,4.43,3.15C316.64,47.1,316.02,47.1,315.62,47.1z
				 M314.78,61.73c-0.89,0-1.15-0.4-3.5-4.08c-3.1-4.83-5.18-6.47-6.38-7.44c3.01,0.27,5.58,2.04,8.02,3.81
				c1.15,0.84,3.63,2.66,3.63,5.18C316.55,60.62,315.57,61.73,314.78,61.73z M314.82,41.25c-2.26,0-4.17-1.82-4.17-4.17
				c0-2.22,1.73-4.17,4.08-4.21c2.3,0,4.34,1.82,4.34,4.21C319.08,39.44,317.13,41.25,314.82,41.25z M314.87,34.7
				c-1.33,0-2.39,1.11-2.39,2.44c0,1.29,1.06,2.35,2.35,2.35s2.48-0.93,2.48-2.3C317.3,35.85,316.24,34.7,314.87,34.7z"/>
			<path d="M333.78,64.39c-1.6,0.84-1.91,1.15-2.61,1.86c-0.4,0.4-0.58,0.4-0.71,0.4c-1.11,0-3.5-4.43-3.5-4.7
				c0-0.27,0.49-1.2,0.58-1.37c0.35-0.97,0.44-2.39,0.49-2.92c0.09-1.42,0.09-6.87,0.09-8.55c0-1.33-0.04-9.97-0.35-10.81
				c-0.18-0.4-0.49-0.66-1.33-1.02c-0.27-0.09-1.95-0.71-2.39-0.84c1.55-0.84,2.3-1.24,3.28-1.24c1.46,0,5.49,1.59,5.49,2.66
				c0,0.4-0.66,2.17-0.75,2.53c-0.49,2.22-0.84,14-0.84,17.1c0,1.51,0.04,2.48,0.09,3.46c8.91-3.32,19.05-12.05,22.86-15.78
				l0.31,0.31C350.18,52.29,346.32,57.61,333.78,64.39z"/>
			<path d="M391.39,53.13c-0.71,0-1.82-0.04-2.7-0.13c-0.84-0.04-11.65-0.13-12.41-0.13c-2.57,0-9.35,0.13-11.39,0.71
				c-0.8,0.22-1.15,0.31-1.51,0.31c-1.64,0-4.12-3.5-4.12-5.27c0-0.58,0.18-1.33,0.71-2.48c1.55,3.1,2.61,3.63,7.89,3.63
				c2.57,0,17.95-0.04,19.45-0.58c0.66-0.22,1.2-0.44,1.77-0.44c0.09,0,5.27,0.4,5.27,2.75C394.35,52.24,393.51,53.13,391.39,53.13z
				"/>
			<path d="M412.92,51.27c-0.58,0-0.75-0.09-2.35-1.24c-3.94-2.84-5.63-3.68-8.51-4.61c1.55-0.22,2.79-0.36,4.74-0.36
				c5.58,0,7.71,2.39,7.71,4.21C414.51,49.54,414.47,51.27,412.92,51.27z M416.29,41.17c-0.66,0-0.93-0.22-3.5-2.39
				c-2.97-2.48-4.43-3.37-6.56-3.99c1.02-0.13,1.91-0.27,3.1-0.27c5.72,0,8.51,2.7,8.51,4.74
				C417.84,39.57,417.75,41.17,416.29,41.17z M419.03,61.06c-1.64,1.29-3.72,2.84-5.58,4.25c-0.27,0.18-1.2,1.2-1.37,1.42
				c-0.35,0.35-0.71,0.53-1.11,0.53c-0.89,0-4.43-2.57-4.43-6.16c0-0.49,0.04-0.66,0.18-1.06c0.53,0.58,2.79,2.3,3.5,2.3
				c3.5,0,18.39-13.56,23.4-20.38l0.27,0.13C431.62,48.65,424.88,56.41,419.03,61.06z"/>
			<path d="M443.93,56.59c-0.31,0.09-1.51,0.71-1.82,0.71c-0.58,0-2.79-1.77-2.79-3.94c0-0.4,0.09-0.71,0.18-1.2
				c0.75,1.11,1.68,2.04,3.06,2.04c1.06,0,4.61-0.31,5.94-0.44c3.1-0.27,3.19-0.31,6.78-0.49c0.18-3.1,0.18-3.37,0.27-6.12
				c-1.91,0.13-10.63,0.97-11.92,1.29c-0.31,0.09-1.68,0.53-1.99,0.53c-1.02,0-2.44-2.39-2.44-3.59c0-0.58,0.13-1.24,0.31-1.73
				c1.28,2.22,1.99,2.22,4.12,2.22c1.73,0,10.46-0.27,11.65-1.2c0.13-0.09,0.75-0.62,0.89-0.75c0.18-0.13,0.31-0.27,0.53-0.27
				c0.44,0,3.41,2.57,3.41,3.15c0,0.35-0.13,0.4-1.15,1.11c-0.44,0.31-0.44,0.44-0.53,1.55c-0.13,2.35-0.53,12.89-0.93,15.02
				c-0.27,1.46-0.93,2.26-1.73,2.26c-1.11,0-1.42-1.15-1.77-2.44c-3.46,0.22-8.82,0.93-10.01,1.29c-0.35,0.09-1.77,0.84-2.08,0.84
				c-0.93,0-2.92-2.7-2.92-4.21c0-0.49,0.09-0.84,0.31-1.37c0.4,0.67,1.29,2.22,3.28,2.22c0.4,0,11.17-0.8,12.1-0.89
				c0.31-3.54,0.31-3.94,0.49-6.65C451.73,55.52,445.53,56.23,443.93,56.59z"/>
			<path d="M477.03,44.36c-0.75,0-1.33-0.62-2.84-2.13c-3.63-3.68-5.8-4.65-7.4-5.41c0.8-0.09,1.33-0.13,2.17-0.13
				c1.51,0,9.79,0.62,9.79,5.54C478.76,43.6,477.74,44.36,477.03,44.36z M481.02,59.11c-1.64,1.29-4.3,3.19-5.8,4.56
				c-0.27,0.22-1.29,1.42-1.55,1.55c-0.22,0.13-0.44,0.18-0.62,0.18c-1.6,0-4.74-4.03-4.74-6.2c0-0.75,0.18-1.51,0.31-2.08
				c1.42,2.39,2.75,3.01,3.5,3.01c1.24,0,8.64-5.41,10.24-6.65c7.22-5.63,11.48-10.41,13.87-13.16l0.18,0.09
				C495.69,43.25,491.26,51.14,481.02,59.11z"/>
			<path d="M506.14,71.34c-1.91-2.08-7.31-9.75-7.31-20.25c0-10.5,5.41-18.17,7.31-20.25l0.49,0.35c-1.55,2.44-1.64,2.57-2.22,3.77
				c-3.68,7.71-3.68,14.05-3.68,16.13c0,2.08,0,8.42,3.68,16.13c0.58,1.2,0.66,1.33,2.22,3.77L506.14,71.34z M509.87,37.58
				c0-1.11-0.09-2.79-0.35-5.05l2.92,0.75c0.49,0.13,1.24,0.35,1.24,0.71c0,0.53-0.67,0.84-1.24,1.33v6.03h0.75l0.93-1.46
				c0.13-0.22,0.4-0.62,0.62-0.62c0.22,0,0.62,0.44,0.71,0.58l0.97,1.42c0.09,0.13,0.22,0.53,0.22,0.71c0,0.31-0.18,0.35-0.35,0.35
				h-3.86v4.34c1.33,0.8,4.03,2.44,4.03,4.79c0,1.24-0.84,1.91-1.6,1.91c-1.42,0-1.64-1.99-1.68-3.06
				c-0.09-1.46-0.22-2.17-0.75-3.06v7.89c0,1.73,0.13,10.06,0.13,11.92c0,0.58,0,2.53-2.13,2.53c-1.24,0-1.24-1.37-1.24-1.86
				c0-0.84,0.4-5.01,0.44-5.94c0.13-2.17,0.22-4.3,0.22-7.58v-4.34c-0.8,1.99-2.39,6.12-6.43,10.19l-0.35-0.35
				c3.9-6.29,5.89-13.91,6.51-17.37c-1.82,0-2.75,0-4.39,0.27l-0.66-1.6c1.77,0.22,3.9,0.35,4.52,0.35h0.8V37.58z M538.36,62.48
				c-1.86,0.53-2.97,1.73-3.59,2.53c-4.08-4.21-6.03-8.6-7.67-13.38v5.18c0,1.55,0,3.19,0.04,4.79c0.04,0.8,0.31,4.74,0.31,5.63
				c0,1.68-1.11,2.39-2.17,2.39c-0.71,0-1.11-0.35-1.11-1.46c0-0.67,0.13-3.81,0.13-4.52c0.09-2.88,0.09-4.65,0.09-6.2v-4.21
				c-2.92,5.23-5.76,8.06-10.06,11.21l-0.27-0.44c3.41-3.46,7.13-9.35,9.04-13.6c-1.68,0-3.54,0-5.63,0.22l-0.71-1.55
				c1.33,0.13,4.92,0.31,5.76,0.31h1.86v-6.69h-4.48c-1.15,2.04-2.35,3.86-4.03,5.54l-0.35-0.31c0.44-0.97,3.41-6.91,3.46-12.5
				l3.54,1.73c0.18,0.04,0.44,0.22,0.44,0.44c0,0.49-0.53,0.58-1.2,1.06c-0.44,1.15-0.93,2.22-1.33,3.01h3.94v-3.68
				c0-0.53-0.09-3.01-0.58-5.36l3.81,0.84c0.31,0.09,0.62,0.22,0.62,0.44c0,0.31-0.53,0.84-1.15,1.64v6.12h3.32l1.29-1.77
				c0.18-0.22,0.4-0.53,0.62-0.53c0.22,0,0.62,0.35,0.71,0.49l1.77,1.77c0.22,0.22,0.49,0.53,0.49,0.71c0,0.27-0.18,0.35-0.35,0.35
				h-7.84v6.69h5.05l1.33-1.86c0.13-0.13,0.4-0.49,0.53-0.49c0.27,0,0.53,0.31,0.71,0.44l2.26,1.99c0.13,0.13,0.35,0.4,0.35,0.62
				c0,0.31-0.31,0.31-0.44,0.31h-9.62c4.17,9.53,10.68,11.48,11.12,11.56L538.36,62.48z M534.86,30.84
				c2.22,2.44,7.31,10.06,7.31,20.25c0,10.19-5.1,17.81-7.31,20.25l-0.49-0.35c1.55-2.44,1.64-2.57,2.22-3.77
				c3.68-7.71,3.68-14.05,3.68-16.13c0-2.08,0-8.42-3.68-16.13c-0.58-1.2-0.66-1.33-2.22-3.77L534.86,30.84z"/>
		</g>
	</g>
	<g>
		<g>
			<path d="M125.48,180.17v-1.76h14.26v1.76H125.48z M133.58,184.73v9.75h-1.94v-9.75h-6.16v-1.74h14.26v1.74H133.58z"/>
			<path d="M148.54,195.23c-2.75,0-5.35-1.41-5.35-3.94c0-2.4,2.13-3.54,4.4-4.71c-1.3-0.66-3.7-1.91-3.7-4.31
				c0-2.16,1.91-3.94,4.95-3.94c3.45,0,4.55,2.31,4.55,3.5c0,1.85-2.07,3.23-3.1,3.92c2.35,1.3,4.07,2.38,4.07,4.64
				C154.37,192.96,152.1,195.23,148.54,195.23z M148.32,186.93c-1.1,0.77-3.04,2.09-3.04,4.27c0,1.96,1.65,3.28,3.54,3.28
				c2.16,0,3.78-1.69,3.78-3.32C152.61,189.06,150.19,187.85,148.32,186.93z M148.51,179.07c-1.76,0-2.93,1.19-2.93,2.6
				c0,1.56,1.45,2.35,3.98,3.7c0.7-0.53,2-1.5,2-3.32C151.57,180.35,150.3,179.07,148.51,179.07z"/>
			<path d="M159.4,194.81v-0.7h1.36c1.23,0,1.74-0.4,1.74-1.34v-11.97c0-0.73-0.81-0.81-1.19-0.81h-1.89v-0.59h0.44
				c1.91,0,3.74-0.77,4.05-0.92c0.18-0.09,0.26-0.13,0.35-0.13c0.2,0,0.26,0.13,0.26,0.31v14.13c0,0.99,0.57,1.34,1.74,1.34h1.36
				v0.7H159.4z"/>
			<path d="M177.84,195.23c-2.66,0-4.93-1.34-4.93-3.1c0-0.99,0.73-1.41,1.41-1.41c0.86,0,1.21,0.64,1.21,1.1
				c0,0.18-0.22,1.03-0.22,1.23c0,0.81,1.08,1.43,2.22,1.43c1.94,0,3.85-1.69,3.85-3.89c0-2.27-1.87-4.03-3.87-4.03
				c-0.13,0-0.84,0.09-0.99,0.09c-0.37,0-0.55-0.22-0.55-0.46c0-0.29,0.24-0.51,0.57-0.51c0.15,0,0.9,0.13,1.08,0.13
				c2.07,0,3.37-1.65,3.37-3.43c0-1.72-1.14-3.3-3.1-3.3c-1.3,0-2,0.81-2,1.5c0,0.11,0.15,0.7,0.15,0.84c0,0.66-0.55,1.21-1.28,1.21
				c-0.79,0-1.23-0.62-1.23-1.21c0-1.21,1.58-3.08,4.75-3.08c2.99,0,4.95,1.74,4.95,3.7c0,0.53-0.13,1.34-0.9,2.24
				c-1.01,1.21-2.22,1.58-3.15,1.87c1.1,0.29,4.42,1.17,4.42,4.45C183.6,193.29,181.1,195.23,177.84,195.23z"/>
			<path d="M188.2,187.35v-1.12h12.01v1.12H188.2z"/>
			<path d="M210.16,195.23c-2.79,0-5.59-2.62-5.59-8.69c0-4.69,2.31-8.21,5.59-8.19c2.53,0,5.57,2.35,5.57,8.43
				C215.72,192.3,213.08,195.23,210.16,195.23z M210.16,179.07c-1.96,0-3.34,2.66-3.34,7.7c0,5.06,1.41,7.7,3.34,7.7
				c2.02,0,3.34-2.82,3.34-7.7C213.5,181.36,211.94,179.07,210.16,179.07z"/>
			<path d="M224.9,195.23c-2.79,0-5.59-2.62-5.59-8.69c0-4.69,2.31-8.21,5.59-8.19c2.53,0,5.57,2.35,5.57,8.43
				C230.46,192.3,227.82,195.23,224.9,195.23z M224.9,179.07c-1.96,0-3.34,2.66-3.34,7.7c0,5.06,1.41,7.7,3.34,7.7
				c2.02,0,3.34-2.82,3.34-7.7C228.24,181.36,226.68,179.07,224.9,179.07z"/>
			<path d="M239.84,195.23c-2.82,0-5.7-2.82-5.7-7.59c0-5.04,3.21-9.31,7-9.31c1.67,0,2.84,0.9,2.84,1.94
				c0,0.79-0.68,1.14-1.28,1.14c-0.46,0-1.3-0.24-1.36-1.54c-0.02-0.48-0.07-0.79-0.73-0.79c-0.68,0-1.32,0.33-1.8,0.79
				c-2.18,2.16-2.33,5.41-2.42,7.37c0.44-0.66,1.8-2.66,4.31-2.66c2.44,0,4.44,2.18,4.44,4.88
				C245.14,192.47,242.72,195.23,239.84,195.23z M240.08,185.57c-0.9,0-2.49,0.55-3.67,2.99c0.11,1.25,0.29,3.32,1.32,4.73
				c0.46,0.62,1.08,1.19,2,1.19c1.23,0,3.19-1.12,3.19-4.84C242.92,188.51,242.57,185.57,240.08,185.57z"/>
			<path d="M258.73,194.81h-9.88v-0.55c0.84-2.05,1.67-2.88,5.7-7c1.32-1.32,2.97-3.04,2.97-5.17c0-1.65-1.21-3.01-3.3-3.01
				c-1.76,0-2.79,0.92-2.79,1.72c0,0.07,0,0.35,0.24,0.68c0.31,0.4,0.53,0.66,0.53,1.1c0,0.64-0.57,1.23-1.32,1.23
				c-0.88,0-1.41-0.73-1.41-1.54c0-1.58,1.74-3.92,5.32-3.92c3.04,0,4.95,1.69,4.95,4.05c0,2.27-1.47,3.46-3.67,5.15
				c-0.88,0.68-3.98,3.04-5.43,5.52h3.81c3.59,0,4.29-1.34,4.97-2.93l0.48,0.15L258.73,194.81z"/>
			<path d="M277.28,180.55l0.62-0.55c0.11-0.11,0.26-0.26,0.35-0.26c0.07,0,0.26,0.15,0.33,0.22l0.86,0.64
				c0.11,0.09,0.26,0.22,0.26,0.37c0,0.2-0.24,0.33-0.97,0.59c-0.44,0.66-1.19,1.87-2.49,3.34v0.15c1.58,0.29,3.23,1.1,3.23,2.31
				c0,0.55-0.51,0.84-0.84,0.84c-0.4,0-0.66-0.22-0.95-0.86c-0.37-0.79-0.64-1.34-1.45-2.02v5.15c0,0.33,0.09,4.71,0.09,4.86
				c0,0.73-0.24,1.12-1.12,1.12c-0.59,0-0.59-0.33-0.59-0.64c0-1.34,0.2-7.99,0.24-9.5c-1.91,1.72-3.45,2.46-4.29,2.86l-0.09-0.13
				c2.53-2.11,5.79-6.12,6.65-7.97h-2.6c-0.15,0-1.56,0-2.57,0.2l-0.44-0.88c0.92,0.09,2.27,0.15,3.23,0.15
				c0.04-2.35-0.22-3.48-0.48-4.27l2.22,0.62c0.11,0.02,0.35,0.11,0.35,0.31s-0.2,0.35-0.64,0.62c0,0.37-0.02,2.18,0,2.73H277.28z
				 M288.3,177.97l0.73-0.7c0.09-0.07,0.29-0.29,0.35-0.29c0.11,0,0.26,0.13,0.42,0.24l0.92,0.7c0.13,0.11,0.24,0.22,0.24,0.33
				c0,0.22-0.2,0.24-0.35,0.24h-8.25c-0.35,0-1.52,0-2.57,0.2l-0.44-0.88c1.61,0.13,2.99,0.15,3.39,0.15H288.3z M288.28,187.39
				l0.62-0.68c0.09-0.11,0.2-0.22,0.29-0.22c0.07,0,0.2,0.09,0.31,0.18l1.01,0.73c0.11,0.09,0.22,0.2,0.22,0.33s-0.2,0.33-0.66,0.68
				c-0.02,0.18-0.04,0.48-0.04,0.64c0,0.79,0.18,5.21,0.18,6.12c0,0.57-0.51,0.86-1.06,0.86c-0.59,0-0.59-0.26-0.55-1.03h-6.91
				c0.04,0.77-0.24,1.23-1.03,1.23c-0.55,0-0.55-0.33-0.55-0.53c0-0.77,0.09-4.14,0.09-4.82c0-1.25,0-3.5-0.24-4.64l2,1.17H288.28z
				 M287.09,180.68l0.53-0.53c0.11-0.11,0.22-0.24,0.31-0.24s0.18,0.09,0.26,0.15l0.9,0.73c0.11,0.09,0.22,0.22,0.22,0.35
				c0,0.15-0.2,0.31-0.62,0.53c0,0.51,0.11,2.68,0.11,3.12c0,0.53-0.37,0.95-1.03,0.95c-0.53,0-0.53-0.31-0.53-0.84h-4.75
				c0,0.35,0.02,1.01-0.92,1.01c-0.44,0-0.62-0.2-0.62-0.77c0-0.29,0.04-2.29,0.04-2.73c0-0.86-0.07-1.98-0.15-2.73l1.8,0.99H287.09
				z M281.66,187.92v2.91h2.71v-2.91H281.66z M281.66,191.35v3.1h2.71v-3.1H281.66z M282.47,181.21v3.17h4.8v-3.17H282.47z
				 M288.59,190.82v-2.91h-2.79v2.91H288.59z M288.59,194.45v-3.1h-2.79v3.1H288.59z"/>
			<path d="M312.2,179.25c-0.04,0.81,0.11,12.67,0.11,14.28c0,1.41,0,2.62-2.49,3.08c-0.31-1.21-1.1-1.63-2.22-2.22l0.02-0.15
				c0.44,0.04,1.78,0.18,2.18,0.18c0.55,0,0.73-0.09,0.79-0.35c0.09-0.33,0.09-6.82,0.09-7.7c0-0.7-0.02-7.26-0.02-7.9h-13.11
				c-0.02,0.79-0.02,9.37-0.02,10.91c0,0.95,0.09,5.13,0.09,5.96c0,0.64-0.31,1.21-1.19,1.21c-0.33,0-0.64-0.11-0.64-0.84
				c0-0.31,0.15-1.69,0.15-1.96c0.07-1.5,0.09-9.66,0.09-11.13c0-3.48-0.07-4.09-0.24-5.72l2.11,1.03h12.54l0.57-0.64
				c0.09-0.11,0.15-0.18,0.29-0.18c0.07,0,0.18,0.07,0.26,0.13l1.19,0.86c0.15,0.11,0.26,0.18,0.26,0.35S312.92,178.77,312.2,179.25
				z M309.82,184.35h-5.06v6.95h2.13c0.02-2.55,0.04-2.9-0.02-3.85c-0.02-0.55-0.09-0.77-0.33-1.45l1.94,0.33
				c0.2,0.04,0.46,0.11,0.46,0.37c0,0.22-0.09,0.29-0.55,0.55c0.02,0.35,0,2.02,0,2.42c0,0.35,0.07,2.05,0.07,2.42
				c0,0.97-0.86,0.97-1.01,0.97c-0.62,0-0.59-0.31-0.57-1.23h-5.68c0,0.15,0.02,0.86,0.02,1.01c0,1.03-0.84,1.06-0.97,1.06
				c-0.46,0-0.62-0.31-0.62-0.62c0-0.24,0.11-0.95,0.11-3.19c0-3.12-0.07-3.34-0.29-4.18l2.05,0.48c0.18,0.04,0.37,0.09,0.37,0.31
				c0,0.22,0,0.22-0.66,0.62v3.98h2.09v-6.95h-2.2c-0.51,0-1.61,0.02-2.57,0.2l-0.44-0.88c1.76,0.15,3.04,0.15,3.39,0.15h2.53
				c0.22-0.4,1.41-2.97,1.32-4.97l2.24,1.28c0.09,0.04,0.22,0.13,0.22,0.29c0,0.29-0.33,0.37-0.95,0.48
				c-0.59,0.66-1.61,1.94-2.38,2.93h2.93l0.75-0.86c0.13-0.13,0.24-0.26,0.33-0.26c0.13,0,0.26,0.11,0.42,0.22l1.03,0.86
				c0.09,0.07,0.22,0.18,0.22,0.33C310.15,184.33,309.93,184.35,309.82,184.35z M302.23,183.26c-0.55,0-0.7-0.46-1.01-1.39
				c-0.44-1.32-0.68-1.74-1.21-2.38l0.11-0.13c0.29,0.11,3.04,1.25,3.04,2.9C303.15,182.99,302.56,183.26,302.23,183.26z"/>
			<path d="M336.31,180.64h-10.36l1.83,0.59c0.13,0.04,0.29,0.13,0.29,0.29c0,0.18-0.15,0.33-0.59,0.64
				c-0.02,0.35-0.07,1.5-0.11,2.24h4.4l0.64-0.68c0.18-0.18,0.24-0.24,0.35-0.24c0.11,0,0.24,0.09,0.4,0.22l0.88,0.7
				c0.18,0.13,0.29,0.26,0.29,0.4c0,0.29-0.42,0.55-0.66,0.73c0,1.03,0.11,5.65,0.11,6.6c0,0.64,0,2.16-2.49,2.62
				c-0.4-1.12-1.3-1.78-1.85-2.09v-0.15c0.4,0.04,0.81,0.09,1.45,0.09c0.75,0,1.19-0.09,1.25-0.42c0.07-0.35,0.04-5.98,0.02-7.24
				h-4.8c0,2.44,0,6.82,0.09,9.11c0,0.24,0.07,1.32,0.07,1.54c0,1.01-1.17,1.08-1.25,1.08c-0.64,0-0.64-0.48-0.64-0.66
				c0-1.85,0.22-4.82,0.24-6.67c0.02-1.85,0.02-2.53,0-4.4h-4.44c0,0.7-0.02,3.76-0.02,4.4c0,0.66,0.07,3.54,0.07,4.14
				c0,1.17-1.01,1.17-1.17,1.17c-0.51,0-0.62-0.26-0.62-0.55c0-0.04,0-0.2,0.02-0.44c0.07-0.95,0.18-5,0.18-7.04
				c0-1.52-0.04-2.11-0.29-3.28l2.18,1.08h4.09c-0.02-2.51-0.02-2.79-0.26-3.76h-5.92c-0.29,0-1.52,0-2.6,0.2l-0.44-0.86
				c1.47,0.11,2.97,0.13,3.39,0.13h5.88c0.04-2.38-0.35-3.28-0.57-3.83l2.42,0.53c0.2,0.04,0.42,0.11,0.42,0.33
				c0,0.15,0,0.24-0.73,0.66c0,0.37,0.02,1.98,0.02,2.31h5.74l1.06-1.23c0.15-0.2,0.24-0.26,0.35-0.26c0.11,0,0.24,0.07,0.4,0.22
				l1.41,1.23c0.13,0.11,0.22,0.2,0.22,0.35C336.64,180.61,336.46,180.64,336.31,180.64z"/>
			<path d="M350.65,188.45c1.98,2.31,5.5,4.45,9.46,4.62v0.18c-1.3,0.33-1.98,1.21-2.35,2c-0.68-0.22-5.59-2.75-7.5-6.69
				c0.02,0.99,0.04,5.32,0.09,6.21c0,0.11,0.02,0.64,0.02,0.75c0,0.77-0.7,1.08-1.23,1.08c-0.46,0-0.57-0.33-0.57-0.62
				c0-0.07,0-0.24,0.02-0.48c0.11-1.52,0.24-3.41,0.24-5.98c-2.02,2.42-6.03,5.04-9.29,5.81l-0.07-0.18
				c3.32-1.34,7.9-5.96,8.34-6.69h-2.95c0,0.75-0.15,1.3-1.14,1.3c-0.46,0-0.55-0.22-0.55-0.48c0-0.24,0.11-1.32,0.11-1.54
				c0.04-0.73,0.07-1.92,0.07-3.1c0-2-0.07-2.71-0.29-3.59l2.05,0.9h3.74c0-0.51-0.02-1.72-0.04-2.27h-5.98c-0.4,0-1.54,0-2.6,0.2
				l-0.44-0.88c1.63,0.13,3.06,0.15,3.39,0.15h5.61c-0.07-1.34-0.13-2.13-0.44-2.86l2.29,0.59c0.2,0.04,0.37,0.13,0.37,0.31
				c0,0.24-0.53,0.59-0.73,0.73v1.23h5.98l0.95-1.1c0.15-0.18,0.24-0.29,0.35-0.29c0.11,0,0.24,0.11,0.4,0.24l1.34,1.1
				c0.15,0.13,0.22,0.22,0.22,0.33c0,0.2-0.2,0.24-0.33,0.24h-8.93v2.27h3.76l0.73-0.64c0.04-0.04,0.18-0.15,0.26-0.15
				c0.11,0,0.24,0.09,0.31,0.15l0.99,0.79c0.13,0.11,0.22,0.22,0.22,0.35c0,0.2-0.13,0.29-0.7,0.64c-0.02,0.48-0.02,1.12,0.04,2.75
				c0.02,0.31,0.13,2.66,0.13,2.86c0,0.7-0.64,0.92-1.12,0.92c-0.59,0-0.57-0.46-0.53-1.17H350.65z M344.84,182.46v2.38h3.98
				l0.02-2.38H344.84z M348.82,187.92v-2.55h-3.98v2.55H348.82z M354.35,187.92v-2.55h-4.09c0,0.35-0.02,2.16-0.02,2.55H354.35z
				 M354.35,184.84v-2.38h-4.09v2.38H354.35z"/>
			<path d="M381.65,194.98h-15.67c0.02,0.55-0.15,1.32-1.28,1.32c-0.55,0-0.59-0.29-0.59-0.53c0-0.09,0.09-1.85,0.11-2.2
				c0.13-2.84,0.2-12.12,0.2-12.32c0-2.64-0.07-3.3-0.29-4.42l2.24,1.12h11.82l0.92-1.06c0.13-0.13,0.22-0.26,0.33-0.26
				s0.24,0.11,0.42,0.24l1.28,1.03c0.11,0.09,0.22,0.2,0.22,0.33c0,0.22-0.2,0.24-0.35,0.24h-14.96c0,1.23-0.09,6.64-0.09,7.75
				c0,2.53,0,7.08,0.02,8.23h12.65l1.01-1.14c0.15-0.18,0.24-0.26,0.35-0.26c0.09,0,0.26,0.11,0.4,0.22l1.39,1.14
				c0.09,0.09,0.22,0.2,0.22,0.33C382,194.96,381.8,194.98,381.65,194.98z M378.11,181.58c-1.19,2-2.22,3.5-3.17,4.67
				c1.5,1.3,3.52,3.3,3.52,4.77c0,0.57-0.4,0.9-0.86,0.9c-0.59,0-0.81-0.42-1.23-1.19c-0.53-1.01-1.32-2.18-2.33-3.39
				c-3.48,3.98-5.92,4.97-7.11,5.43l-0.07-0.18c2.71-1.83,5.46-5.3,6.23-6.29c-1.76-1.87-3.56-3.21-5.04-4.29l0.09-0.15
				c2.77,1.06,5.1,2.95,5.7,3.43c1.34-1.83,2.73-3.98,2.88-5.83l1.96,1.34c0.09,0.07,0.22,0.18,0.22,0.33
				C378.9,181.49,378.53,181.54,378.11,181.58z"/>
			<path d="M393.15,181.78h-2.88l-0.02,2.68c1.14,0.22,2.84,1.23,2.84,2.33c0,0.44-0.26,0.88-0.73,0.88c-0.57,0-0.7-0.35-1.19-1.58
				c-0.18-0.42-0.44-1.01-0.92-1.3c-0.02,1.63,0.04,8.82,0.04,10.28c0,0.66,0,1.43-0.99,1.43c-0.48,0-0.7-0.22-0.7-0.77
				c0-0.66,0.18-3.5,0.2-4.07c0.07-2.2,0.13-4.8,0.13-5.85c-1.45,3.17-3.28,4.75-4.09,5.46l-0.15-0.15
				c1.87-2.64,3.89-7.26,4.16-9.33h-0.4c-0.57,0-1.61,0.02-2.6,0.2l-0.44-0.88c1.43,0.13,2.93,0.15,3.5,0.15
				c-0.04-1.58-0.11-3.21-0.18-3.74c-0.02-0.31-0.09-0.44-0.31-1.1l2.33,0.77c0.15,0.04,0.33,0.15,0.33,0.37
				c0,0.15-0.07,0.22-0.77,0.75c0,0.33-0.02,1.98-0.02,2.95h0.62l0.66-0.9c0.11-0.15,0.24-0.26,0.35-0.26c0.09,0,0.29,0.11,0.4,0.22
				l0.97,0.9c0.13,0.13,0.22,0.2,0.22,0.35C393.51,181.76,393.31,181.78,393.15,181.78z M402.95,195.51c-0.84,0-1.08-0.75-1.25-1.32
				c-0.35-1.06-0.44-1.34-0.66-1.8c-1.25,0.55-3.12,0.99-3.76,1.14c-1.3,0.31-2.86,0.7-4.22,1.1c-0.09,0.13-0.24,0.42-0.29,0.48
				c-0.07,0.09-0.15,0.15-0.29,0.15c-0.18,0-0.31-0.2-0.37-0.35l-0.86-2.27c0.86,0.29,1.47,0.31,1.69,0.31
				c0.35,0,0.97-0.04,1.25-0.07c0.81-1.89,2.16-5.99,2.16-7.2c0-0.37-0.04-0.57-0.11-0.86l2.24,0.88c0.22,0.09,0.4,0.18,0.4,0.42
				c0,0.35-0.35,0.46-0.75,0.59c-0.4,0.68-1.12,2.05-1.67,3.1c-0.35,0.66-1.03,1.94-1.78,2.99c1.08-0.07,4.73-0.46,6.18-0.81
				c-0.26-0.51-1.21-1.89-1.89-2.66l0.18-0.18c1.91,0.99,4.69,3.45,4.69,5.21C403.83,194.61,403.78,195.51,402.95,195.51z
				 M397.27,179.85c-0.09,0.04-0.42,0.13-0.55,0.2c-1.39,2.88-2.66,4.51-3.96,5.74l-0.15-0.09c2.51-4.58,2.64-6.73,2.68-7.75
				l1.87,1.17c0.2,0.13,0.31,0.33,0.31,0.42C397.47,179.71,397.36,179.8,397.27,179.85z M403.89,187.06
				c-3.19-2.22-4.18-6.09-4.49-8.54c-0.79,0-1.19,0.02-1.69,0.13l-0.29-0.77c0.81,0.07,0.86,0.07,1.5,0.07l0.77-0.7
				c0.13-0.13,0.22-0.2,0.35-0.2c0.09,0,0.2,0.07,0.26,0.13l0.99,0.79c0.18,0.13,0.22,0.24,0.22,0.33c0,0.26-0.29,0.42-0.48,0.51
				c-0.26,0.13-0.75,0.35-0.95,0.44c0.33,2.57,2.71,5.1,6.14,6.25v0.11C405.04,185.79,404.44,186.45,403.89,187.06z"/>
			<path d="M420.28,193.29c0.04-0.79,0.07-2.38-0.2-3.08l2,0.4c0.18,0.04,0.33,0.07,0.33,0.26c0,0.2-0.42,0.46-0.59,0.59
				c0,0.37,0.04,2.02,0.02,2.29c-0.02,0.59-0.84,0.77-1.12,0.77c-0.51,0-0.48-0.29-0.46-0.7h-8.78c0,0.29,0.04,1.58,0,1.78
				c-0.09,0.4-0.59,0.57-0.92,0.57s-0.68-0.13-0.68-0.55c0-0.11,0.02-0.33,0.04-0.44c0.09-0.86,0.09-2.31,0.09-2.77
				c0-1.36-0.07-1.72-0.26-2.27l2.11,0.62c0.22,0.07,0.33,0.13,0.33,0.31c0,0.13-0.46,0.44-0.7,0.62c0.02,0.26,0,1.39,0,1.61h3.61
				c0-0.75,0-2.68-0.02-3.37h-1.67c-0.04,0.51-0.51,0.7-0.92,0.7c-0.53,0-0.66-0.26-0.66-0.97c0-2.11,0.09-5.46,0.09-7.57
				c0-2.95-0.09-3.5-0.18-4.05l2.07,1.06h2.95c0.57-1.36,0.66-2.11,0.59-2.86l2.18,0.79c0.13,0.04,0.26,0.09,0.26,0.31
				c0,0.29-0.24,0.37-0.84,0.48c-0.24,0.18-1.32,1.1-1.54,1.28h5.02l0.57-0.62c0.13-0.13,0.18-0.2,0.31-0.2
				c0.09,0,0.15,0.07,0.29,0.15l1.06,0.75c0.18,0.13,0.26,0.18,0.26,0.33c0,0.15-0.11,0.24-0.18,0.31
				c-0.09,0.11-0.59,0.42-0.68,0.51c0,0.7,0.13,3.81,0.13,4.45c0,0.97-1.08,0.97-1.19,0.97c-0.44,0-0.44-0.26-0.42-0.81h-9.18v1.85
				h10.89l0.9-1.03c0.15-0.18,0.22-0.26,0.35-0.26c0.11,0,0.22,0.09,0.44,0.24l1.47,1.01c0.11,0.07,0.22,0.18,0.22,0.33
				c0,0.2-0.18,0.24-0.33,0.24h-13.95v2.09h11.66l0.7-0.79c0.02-0.04,0.18-0.2,0.29-0.2c0.13,0,0.22,0.07,0.33,0.18l1.1,0.97
				c0.09,0.07,0.2,0.2,0.2,0.33c0,0.2-0.29,0.35-0.68,0.51c-0.42,4.62-1.12,5.96-4.18,6.36c-0.09-1.1-1.39-1.92-1.56-2l0.02-0.15
				c0.33,0.04,1.34,0.15,2.07,0.15c0.92,0,1.19-0.44,1.32-0.73c0.62-1.32,0.66-2.82,0.68-4.09h-8.29c0.07,0.22-0.04,0.35-0.46,0.64
				v2.73H420.28z M413.39,179.62v2.09h9.18v-2.09H413.39z M413.39,182.24v2.16h9.18v-2.16H413.39z"/>
			<path d="M436.67,195.23c-2.66,0-4.93-1.34-4.93-3.1c0-0.99,0.73-1.41,1.41-1.41c0.86,0,1.21,0.64,1.21,1.1
				c0,0.18-0.22,1.03-0.22,1.23c0,0.81,1.08,1.43,2.22,1.43c1.94,0,3.85-1.69,3.85-3.89c0-2.27-1.87-4.03-3.87-4.03
				c-0.13,0-0.84,0.09-0.99,0.09c-0.37,0-0.55-0.22-0.55-0.46c0-0.29,0.24-0.51,0.57-0.51c0.15,0,0.9,0.13,1.08,0.13
				c2.07,0,3.37-1.65,3.37-3.43c0-1.72-1.14-3.3-3.1-3.3c-1.3,0-2,0.81-2,1.5c0,0.11,0.15,0.7,0.15,0.84c0,0.66-0.55,1.21-1.28,1.21
				c-0.79,0-1.23-0.62-1.23-1.21c0-1.21,1.58-3.08,4.75-3.08c2.99,0,4.95,1.74,4.95,3.7c0,0.53-0.13,1.34-0.9,2.24
				c-1.01,1.21-2.22,1.58-3.15,1.87c1.1,0.29,4.42,1.17,4.42,4.45C442.44,193.29,439.93,195.23,436.67,195.23z"/>
			<path d="M465.34,179.19h-8.58c0,0.62,0.09,12.7,0.09,13.36c0,1.89,0,3.48-3.06,3.78c-0.11-0.92-0.26-1.36-2.73-2.71l0.04-0.15
				c0.92,0.15,2.16,0.31,2.93,0.31c0.68,0,1.01-0.09,1.1-0.44c0.07-0.26,0.07-1.23,0.07-1.61c0-1.98,0.02-10.74,0-12.54h-6.25
				c-0.4,0-1.52,0-2.6,0.2l-0.44-0.86c1.36,0.09,2.73,0.13,3.39,0.13h12.54l1.23-1.3c0.09-0.09,0.22-0.26,0.35-0.26
				c0.11,0,0.24,0.09,0.4,0.22l1.63,1.3c0.13,0.11,0.22,0.22,0.22,0.35C465.67,179.16,465.47,179.19,465.34,179.19z"/>
			<path d="M480.14,178.08l0.62-0.64c0.13-0.15,0.24-0.26,0.37-0.26c0.11,0,0.24,0.09,0.4,0.22l1.08,0.9
				c0.2,0.18,0.24,0.29,0.24,0.4c0,0.26-0.31,0.46-0.81,0.81c-0.04,0.99-0.04,1.36-0.04,2.33c0,5.32,0.11,8.14,0.24,12.21
				c0,0.02,0.02,0.37,0.02,0.46c0,0.92-1.14,0.99-1.23,0.99c-0.64,0-0.59-0.55-0.57-0.92h-8.36c0.04,0.44,0.04,0.57-0.09,0.77
				c-0.24,0.35-0.75,0.53-1.17,0.53c-0.57,0-0.59-0.31-0.59-0.57c0-0.42,0.13-2.18,0.15-2.53c0.09-2.11,0.11-7.46,0.11-9.66
				c0-4.12-0.11-4.93-0.29-6.12l2.2,1.08H480.14z M472.09,178.61v4.73h8.38v-4.73H472.09z M472.09,183.87v4.75h8.38v-4.75H472.09z
				 M472.09,189.15v4.91h8.38v-4.91H472.09z"/>
			<path d="M491.98,195.23c-2.77,0-4.69-1.85-4.69-3.26c0-0.7,0.53-1.34,1.45-1.34c0.73,0,1.3,0.42,1.3,1.14
				c0,0.2-0.22,1.08-0.22,1.28c0,0.95,1.12,1.43,2.11,1.43c1.98,0,3.89-1.67,3.89-4.64c0-2.84-1.72-4.33-3.45-4.33
				c-0.97,0-2.49,0.44-3.87,1.91l-0.37-0.18l0.37-8.49h8.6l-0.48,1.74h-7.39l-0.24,5.54c1.06-0.84,1.98-1.52,3.83-1.52
				c3.56,0,5.3,2.64,5.3,5.04C498.12,192.74,495.26,195.23,491.98,195.23z"/>
			<path d="M519.88,188.32c-3.12-0.95-6.4-3.83-7.7-5.85v1.76c0,0.35,0.07,1.96,0.07,2.2c0,1.12-0.92,1.14-1.06,1.14
				c-0.4,0-0.59-0.22-0.59-0.64c0-0.44,0.11-2.29,0.11-2.66v-1.47c-1.8,2.29-6.16,5.59-9.46,6.31l-0.04-0.13
				c2.97-1.56,6.56-4.86,7.97-6.64h-4.47c-0.4,0-1.52,0-2.6,0.2l-0.42-0.88c1.39,0.11,2.75,0.15,3.37,0.15h5.68v-3.43
				c-0.75,0.07-2.11,0.18-3.87,0.18c-1.78,0-2.75-0.11-3.26-0.18v-0.18c4.82-0.29,8.85-1.1,11.02-1.72
				c0.66-0.18,0.81-0.26,1.21-0.55l1.32,1.14c0.11,0.11,0.24,0.24,0.24,0.35c0,0.31-0.42,0.31-0.53,0.31
				c-0.24,0-0.55-0.04-0.75-0.09c-1.85,0.35-2.49,0.42-3.94,0.59v3.56h1.36c0.62-0.79,1.45-2.29,1.69-3.56l1.63,1.01
				c0.11,0.07,0.29,0.22,0.29,0.37c0,0.35-0.42,0.42-0.95,0.48c-0.77,0.68-1.45,1.25-2.16,1.69h4.11l0.99-1.12
				c0.11-0.13,0.22-0.26,0.35-0.26s0.26,0.13,0.4,0.24l1.23,1.1c0.13,0.11,0.22,0.22,0.22,0.33c0,0.22-0.2,0.24-0.33,0.24h-8.52
				c2.66,2.53,6.05,4.05,9.22,3.89v0.2C520.78,187,520.34,187.39,519.88,188.32z M517.06,189.28c0,1.52-0.02,3.81,0.02,4.6
				c0,0.24,0.11,1.32,0.11,1.56c0,0.59-0.48,1.01-1.14,1.01c-0.55,0-0.55-0.24-0.51-1.1h-8.08c0.02,0.42,0.04,1.21-1.08,1.21
				c-0.57,0-0.57-0.37-0.57-0.53c0-0.09,0.04-0.53,0.04-0.64c0.09-1.63,0.13-3.43,0.13-4.69c0-2.49-0.11-3.01-0.22-3.54l1.89,0.92
				h7.59l0.53-0.59c0.13-0.13,0.2-0.22,0.31-0.22c0.11,0,0.24,0.11,0.35,0.2l1.12,0.81c0.09,0.07,0.18,0.18,0.18,0.31
				C517.74,188.91,517.24,189.17,517.06,189.28z M507.86,181.58c-0.55,0-0.7-0.42-0.84-0.79c-0.07-0.22-0.46-1.21-1.06-1.91
				l0.11-0.15c2.18,0.59,2.66,1.5,2.66,2.02C508.74,181.32,508.21,181.58,507.86,181.58z M510.74,188.62h-3.28v2.79h3.28V188.62z
				 M510.74,191.95h-3.28v2.88h3.28V191.95z M515.54,188.62h-3.32v2.79h3.32V188.62z M515.54,191.95h-3.32v2.88h3.32V191.95z"/>
			<path d="M526.21,194.81v-0.7h1.36c1.23,0,1.74-0.4,1.74-1.34v-11.97c0-0.73-0.81-0.81-1.19-0.81h-1.89v-0.59h0.44
				c1.91,0,3.74-0.77,4.05-0.92c0.18-0.09,0.26-0.13,0.35-0.13c0.2,0,0.26,0.13,0.26,0.31v14.13c0,0.99,0.57,1.34,1.74,1.34h1.36
				v0.7H526.21z"/>
			<path d="M544.65,195.23c-2.66,0-4.93-1.34-4.93-3.1c0-0.99,0.73-1.41,1.41-1.41c0.86,0,1.21,0.64,1.21,1.1
				c0,0.18-0.22,1.03-0.22,1.23c0,0.81,1.08,1.43,2.22,1.43c1.94,0,3.85-1.69,3.85-3.89c0-2.27-1.87-4.03-3.87-4.03
				c-0.13,0-0.84,0.09-0.99,0.09c-0.37,0-0.55-0.22-0.55-0.46c0-0.29,0.24-0.51,0.57-0.51c0.15,0,0.9,0.13,1.08,0.13
				c2.07,0,3.37-1.65,3.37-3.43c0-1.72-1.14-3.3-3.1-3.3c-1.3,0-2,0.81-2,1.5c0,0.11,0.15,0.7,0.15,0.84c0,0.66-0.55,1.21-1.28,1.21
				c-0.79,0-1.23-0.62-1.23-1.21c0-1.21,1.58-3.08,4.75-3.08c2.99,0,4.95,1.74,4.95,3.7c0,0.53-0.13,1.34-0.9,2.24
				c-1.01,1.21-2.22,1.58-3.15,1.87c1.1,0.29,4.42,1.17,4.42,4.45C550.41,193.29,547.9,195.23,544.65,195.23z"/>
			<path d="M573.6,185.19h-10.91c-0.57,1.06-1.21,2.51-1.5,3.17h6.16l0.79-0.68c0.11-0.09,0.22-0.18,0.33-0.18
				c0.11,0,0.24,0.13,0.35,0.24l1.1,1.01c0.09,0.09,0.2,0.22,0.2,0.35c0,0.29-0.42,0.4-1.1,0.59c-0.99,4.6-1.5,7.02-5.68,6.93
				c-0.26-1.47-1.63-2.22-2.2-2.51l0.02-0.13c1.94,0.51,3.65,0.57,3.72,0.57c1.1,0,1.78-0.73,2.6-5.68h-6.51
				c-0.31,0.7-0.9,2.07-1.21,2.51c-0.18,0.24-0.46,0.37-0.86,0.37c-0.37,0-0.86-0.2-0.86-0.55c0-0.13,0.07-0.33,0.13-0.44
				c1.32-2.51,1.47-2.82,2.75-5.59h-4.11c-0.59,0-1.63,0.02-2.6,0.2l-0.44-0.86c1.74,0.13,2.99,0.13,3.39,0.13h13.44l0.99-1.21
				c0.11-0.13,0.22-0.26,0.35-0.26c0.11,0,0.29,0.13,0.4,0.22l1.36,1.23c0.11,0.09,0.22,0.2,0.22,0.33
				C573.93,185.19,573.71,185.19,573.6,185.19z M569.09,178.5c0,0.86,0.02,3.04,0.02,3.85c0,0.31,0,0.9-0.95,0.9
				c-0.7,0-0.75-0.33-0.68-1.08h-7.61c0,0.55-0.02,1.23-1.08,1.23c-0.35,0-0.59-0.26-0.59-0.57c0-0.15,0.09-0.86,0.09-1.01
				c0.04-0.77,0.11-1.8,0.11-2.88c0-1.14-0.07-1.61-0.26-2.49l2.05,0.97h7.13l0.44-0.53c0.09-0.11,0.22-0.24,0.31-0.24
				s0.26,0.11,0.35,0.18l1.06,0.64c0.13,0.09,0.24,0.24,0.24,0.37S569.55,178.15,569.09,178.5z M567.51,177.95h-7.61v3.7h7.61
				V177.95z"/>
		</g>
	</g>
	<g>
		<g>
			<path d="M212.82,219.78l0.49-0.45c0.09-0.09,0.21-0.22,0.28-0.22c0.05,0,0.21,0.13,0.26,0.18l0.68,0.52
				c0.09,0.07,0.21,0.18,0.21,0.31c0,0.16-0.19,0.27-0.77,0.49c-0.35,0.54-0.94,1.53-1.97,2.74v0.13c1.26,0.23,2.57,0.9,2.57,1.89
				c0,0.45-0.4,0.69-0.66,0.69c-0.31,0-0.52-0.18-0.75-0.7c-0.3-0.65-0.51-1.1-1.15-1.66v4.21c0,0.27,0.07,3.85,0.07,3.98
				c0,0.59-0.19,0.92-0.89,0.92c-0.47,0-0.47-0.27-0.47-0.52c0-1.1,0.16-6.54,0.19-7.78c-1.52,1.4-2.74,2.02-3.4,2.34l-0.07-0.11
				c2.01-1.73,4.59-5.01,5.27-6.52h-2.06c-0.12,0-1.24,0-2.04,0.16l-0.35-0.72c0.73,0.07,1.8,0.13,2.57,0.13
				c0.03-1.93-0.17-2.84-0.38-3.49l1.76,0.5c0.09,0.02,0.28,0.09,0.28,0.25s-0.16,0.29-0.51,0.5c0,0.31-0.02,1.78,0,2.23H212.82z
				 M221.56,217.67l0.58-0.58c0.07-0.05,0.23-0.23,0.28-0.23c0.09,0,0.21,0.11,0.33,0.2l0.73,0.58c0.1,0.09,0.19,0.18,0.19,0.27
				c0,0.18-0.16,0.2-0.28,0.2h-6.55c-0.28,0-1.2,0-2.04,0.16l-0.35-0.72c1.27,0.11,2.37,0.13,2.69,0.13H221.56z M221.54,225.38
				l0.49-0.56c0.07-0.09,0.16-0.18,0.23-0.18c0.05,0,0.16,0.07,0.24,0.14l0.8,0.59c0.09,0.07,0.17,0.16,0.17,0.27
				c0,0.11-0.16,0.27-0.52,0.56c-0.02,0.14-0.04,0.4-0.04,0.52c0,0.65,0.14,4.27,0.14,5.01c0,0.47-0.4,0.7-0.84,0.7
				c-0.47,0-0.47-0.21-0.44-0.85h-5.48c0.03,0.63-0.19,1.01-0.82,1.01c-0.44,0-0.44-0.27-0.44-0.43c0-0.63,0.07-3.38,0.07-3.94
				c0-1.03,0-2.86-0.19-3.8l1.59,0.95H221.54z M220.6,219.89l0.42-0.43c0.09-0.09,0.17-0.2,0.24-0.2s0.14,0.07,0.21,0.13l0.72,0.59
				c0.09,0.07,0.17,0.18,0.17,0.29c0,0.13-0.16,0.25-0.49,0.43c0,0.41,0.09,2.2,0.09,2.56c0,0.43-0.3,0.77-0.82,0.77
				c-0.42,0-0.42-0.25-0.42-0.68h-3.77c0,0.29,0.02,0.83-0.73,0.83c-0.35,0-0.49-0.16-0.49-0.63c0-0.23,0.03-1.87,0.03-2.23
				c0-0.7-0.05-1.62-0.12-2.23l1.43,0.81H220.6z M216.29,225.81v2.38h2.15v-2.38H216.29z M216.29,228.62v2.54h2.15v-2.54H216.29z
				 M216.93,220.32v2.59h3.81v-2.59H216.93z M221.79,228.19v-2.38h-2.22v2.38H221.79z M221.79,231.16v-2.54h-2.22v2.54H221.79z"/>
			<path d="M242.97,218.72c-0.04,0.67,0.09,10.37,0.09,11.69c0,1.15,0,2.14-1.97,2.52c-0.24-0.99-0.87-1.33-1.76-1.82l0.02-0.13
				c0.35,0.04,1.41,0.14,1.73,0.14c0.44,0,0.58-0.07,0.63-0.29c0.07-0.27,0.07-5.58,0.07-6.3c0-0.58-0.02-5.94-0.02-6.46h-10.4
				c-0.02,0.65-0.02,7.67-0.02,8.93c0,0.78,0.07,4.2,0.07,4.88c0,0.52-0.24,0.99-0.94,0.99c-0.26,0-0.51-0.09-0.51-0.68
				c0-0.25,0.12-1.39,0.12-1.6c0.05-1.22,0.07-7.9,0.07-9.11c0-2.84-0.05-3.35-0.19-4.68l1.68,0.85h9.95l0.45-0.52
				c0.07-0.09,0.12-0.14,0.23-0.14c0.05,0,0.14,0.05,0.21,0.11l0.94,0.7c0.12,0.09,0.21,0.14,0.21,0.29
				C243.61,218.21,243.54,218.32,242.97,218.72z M241.08,222.89h-4.02v5.69h1.69c0.02-2.09,0.03-2.38-0.02-3.15
				c-0.02-0.45-0.07-0.63-0.26-1.19l1.54,0.27c0.16,0.04,0.37,0.09,0.37,0.31c0,0.18-0.07,0.23-0.44,0.45c0.02,0.29,0,1.66,0,1.98
				c0,0.29,0.05,1.68,0.05,1.98c0,0.79-0.68,0.79-0.8,0.79c-0.49,0-0.47-0.25-0.45-1.01h-4.5c0,0.13,0.02,0.7,0.02,0.83
				c0,0.85-0.66,0.86-0.77,0.86c-0.37,0-0.49-0.25-0.49-0.5c0-0.2,0.09-0.77,0.09-2.61c0-2.56-0.05-2.74-0.23-3.42l1.62,0.4
				c0.14,0.04,0.3,0.07,0.3,0.25c0,0.18,0,0.18-0.52,0.5v3.26h1.66v-5.69h-1.75c-0.4,0-1.27,0.02-2.04,0.16l-0.35-0.72
				c1.4,0.13,2.41,0.13,2.69,0.13h2.01c0.17-0.32,1.12-2.43,1.05-4.07l1.78,1.04c0.07,0.04,0.17,0.11,0.17,0.23
				c0,0.23-0.26,0.31-0.75,0.4c-0.47,0.54-1.27,1.58-1.89,2.39h2.32l0.59-0.7c0.1-0.11,0.19-0.22,0.26-0.22
				c0.1,0,0.21,0.09,0.33,0.18l0.82,0.7c0.07,0.05,0.17,0.14,0.17,0.27C241.34,222.87,241.17,222.89,241.08,222.89z M235.06,221.99
				c-0.44,0-0.56-0.38-0.8-1.13c-0.35-1.08-0.54-1.42-0.96-1.95l0.09-0.11c0.23,0.09,2.41,1.03,2.41,2.38
				C235.79,221.78,235.32,221.99,235.06,221.99z"/>
			<path d="M253.76,229.25c-0.65,0.63-2.29,2.21-4.78,2.84l-0.03-0.11c1.1-0.7,2.43-2.05,3-2.7c0.82-0.94,0.91-1.22,0.98-1.62
				l1.38,0.94c0.14,0.09,0.23,0.18,0.23,0.31C254.53,229.12,254.18,229.23,253.76,229.25z M264.62,227.34h-7.14
				c0,0.34,0,1.17,0.02,2.25c0.02,0.72,0.09,1.85,0.09,2.57c0,0.9-0.87,0.9-0.96,0.9c-0.31,0-0.51-0.13-0.51-0.56
				c0-0.45,0.1-2.45,0.1-2.86c0.03-1.28,0.02-1.96,0.02-2.3h-4.7c0.02,0.83-0.89,0.83-0.96,0.83c-0.38,0-0.44-0.27-0.44-0.5
				c0-0.23,0.1-1.67,0.12-2c0.04-1.31,0.05-2.48,0.05-3.89c0-3.51-0.07-3.87-0.19-4.47l1.64,0.52c0.17,0.05,0.35,0.11,0.35,0.27
				s-0.23,0.34-0.54,0.56c-0.05,1.15-0.07,2.34-0.07,3.49c0,0.52,0.04,4.11,0.04,4.75h10.65l0.86-0.95c0.1-0.13,0.17-0.22,0.3-0.22
				c0.1,0,0.23,0.13,0.3,0.18l1.08,0.96c0.1,0.09,0.17,0.18,0.17,0.29C264.9,227.32,264.74,227.34,264.62,227.34z M261.42,218.27
				c-0.02,0.74-0.07,2.21,0.09,6c0,0.05,0.02,0.47,0.02,0.5c0,0.83-0.75,0.83-0.86,0.83c-0.51,0-0.49-0.34-0.49-0.83h-5.22
				c0,0.27,0.02,0.88-0.87,0.88c-0.45,0-0.47-0.23-0.47-0.43c0-0.07,0.02-0.31,0.02-0.38c0.02-0.41,0.12-3.62,0.12-5.49
				c0-1.37-0.07-1.96-0.26-2.93l1.73,0.85h4.85l0.51-0.5c0.12-0.13,0.17-0.2,0.3-0.2c0.09,0,0.21,0.11,0.26,0.16l0.72,0.61
				c0.12,0.11,0.19,0.21,0.19,0.32C262.05,217.83,261.65,218.1,261.42,218.27z M260.2,217.69h-5.25v1.93h5.25V217.69z M260.2,220.05
				h-5.25v1.87h5.25V220.05z M260.2,222.35h-5.25v1.98h5.25V222.35z M262.78,232.06c-0.45,0-0.65-0.32-1.12-1.1
				c-0.52-0.9-1.61-2.12-2.57-2.59l0.05-0.13c2.43,0.41,4.38,1.91,4.38,3.06C263.53,231.86,263.08,232.06,262.78,232.06z"/>
			<path d="M278.18,225.02h-3.16c-0.07,0.88-0.12,1.58-0.45,2.72c1.94,0.72,3.28,1.93,3.28,3.03c0,0.56-0.4,0.88-0.72,0.88
				c-0.47,0-0.77-0.56-0.96-1.08c-0.61-1.66-1.41-2.34-1.68-2.58c-0.37,1.13-1.26,3.58-4.8,4.92l-0.05-0.13
				c1.43-1.03,2.36-2.11,3.14-3.67c0.63-1.28,0.96-2.67,1.06-4.09h-1.66c-0.14,0-1.24,0-2.06,0.16l-0.35-0.72
				c1.38,0.13,2.57,0.13,2.69,0.13h1.41c0.07-0.77,0.1-1.48,0.1-2.65c0-0.78-0.02-1.3-0.03-1.62h-1.1
				c-0.59,1.21-1.27,2.39-2.39,3.49l-0.1-0.09c0.86-1.57,2.37-5.4,2.23-7.47l1.68,0.79c0.17,0.07,0.31,0.18,0.31,0.32
				c0,0.18-0.26,0.31-0.73,0.45c-0.16,0.49-0.35,1.1-0.79,2.07h2.76l0.59-0.76c0.16-0.2,0.19-0.25,0.3-0.25
				c0.09,0,0.23,0.11,0.33,0.2l0.85,0.77c0.09,0.09,0.17,0.16,0.17,0.27c0,0.2-0.17,0.2-0.26,0.2h-2.67c0,1.84-0.04,3.13-0.1,4.27
				h1.13l0.49-0.72c0.1-0.16,0.19-0.29,0.3-0.29c0.09,0,0.14,0.04,0.33,0.2l0.98,0.77c0.07,0.05,0.17,0.16,0.17,0.27
				C278.45,225,278.27,225.02,278.18,225.02z M284.49,220.7c-0.05,1.67-0.02,5.47,0.03,7.9c0.02,0.43,0.14,2.29,0.14,2.66
				c0,0.86-0.77,0.92-0.89,0.92c-0.54,0-0.52-0.25-0.47-1.55h-3.16c0,0.22,0.02,1.28-0.02,1.39c-0.05,0.22-0.38,0.52-0.87,0.52
				c-0.54,0-0.54-0.32-0.54-0.47c0-0.38,0.07-0.99,0.09-1.37c0.04-1.15,0.14-4.99,0.14-7.2c0-1.57,0-3.21-0.23-4.65l1.59,0.81h2.86
				l0.54-0.49c0.09-0.09,0.14-0.14,0.21-0.14s0.14,0.05,0.21,0.13l0.8,0.72c0.1,0.09,0.17,0.18,0.17,0.29
				C285.1,220.32,284.92,220.48,284.49,220.7z M283.3,220.1h-3.16v10.1h3.16V220.1z"/>
			<path d="M306.19,226.76h-2.76c0,0.07,0,0.85,0.02,1.01c0.02,0.29,0.09,1.33,0.09,1.46c0,0.58-0.59,0.78-0.89,0.78
				c-0.49,0-0.47-0.31-0.42-1.04h-3.49c0.02,2.14,0.02,2.3-0.12,2.68c-0.35,1.01-1.43,1.33-1.85,1.46c-0.31-1.1-1-1.55-2.2-2.02
				l0.02-0.13c0.35,0.04,1.47,0.16,2.13,0.16c0.16,0,0.59,0,0.7-0.21c0.09-0.2,0.09-0.36,0.12-1.95h-3.23c-0.42,0-1.26,0-2.04,0.16
				l-0.35-0.72c1.08,0.09,2.16,0.13,2.69,0.13h2.93l0.04-1.77h-5.13c-0.23,0-1.2,0-2.06,0.16l-0.35-0.72
				c1.17,0.11,2.36,0.13,2.69,0.13h4.85v-1.8h-3.44c-0.17,0-1.26,0-2.06,0.18l-0.35-0.72c1.22,0.11,2.53,0.11,2.69,0.11h3.16v-1.69
				h-3.37c0,0.34-0.02,0.4-0.07,0.5c-0.12,0.23-0.45,0.4-0.77,0.4c-0.21,0-0.44-0.11-0.44-0.4c0-0.11,0.09-1.46,0.09-1.75
				c0-1.37-0.04-1.57-0.12-1.98l1.4,0.67h3.28v-1.37h-4.54c-0.31,0-1.2,0-2.06,0.16l-0.33-0.72c1.08,0.09,2.16,0.13,2.67,0.13h4.26
				c-0.02-0.36-0.09-1.21-0.33-2.07l1.85,0.58c0.19,0.05,0.28,0.14,0.28,0.27c0,0.2-0.3,0.34-0.61,0.49c0,0.16-0.02,0.47-0.02,0.74
				h4.19l0.72-0.86c0.12-0.16,0.17-0.22,0.26-0.22s0.16,0.04,0.33,0.18l1.12,0.86c0.14,0.11,0.17,0.18,0.17,0.27
				c0,0.16-0.16,0.2-0.26,0.2h-6.55c0,0.11,0,1.17-0.02,1.37h3.3l0.38-0.38c0.12-0.13,0.17-0.18,0.24-0.18
				c0.09,0,0.12,0.04,0.24,0.13l0.73,0.61c0.12,0.09,0.16,0.16,0.16,0.25c0,0.2-0.35,0.36-0.47,0.41c-0.02,0.25,0.02,1.35,0.02,1.58
				c0,0.74-0.66,0.83-0.82,0.83c-0.42,0-0.4-0.34-0.38-0.7h-3.42c0,0.43,0,0.56,0.02,1.69h3.33l0.49-0.54
				c0.12-0.13,0.17-0.2,0.26-0.2c0.07,0,0.12,0.02,0.3,0.18l0.7,0.61c0.12,0.11,0.16,0.21,0.16,0.25c0,0.09-0.05,0.18-0.51,0.5v1.42
				h0.72l0.7-0.88c0.14-0.16,0.17-0.23,0.26-0.23c0.1,0,0.17,0.05,0.31,0.2l0.87,0.88c0.12,0.13,0.16,0.2,0.16,0.27
				C306.45,226.75,306.29,226.76,306.19,226.76z M297.57,220.28h-3.37v1.69h3.37V220.28z M302.1,220.28h-3.4v1.69h3.4V220.28z
				 M302.24,224.53h-3.54v1.8h3.54V224.53z M302.24,226.76h-3.53l0.02,1.77h3.51V226.76z"/>
			<path d="M317.84,220.28h-4.22c-0.23,0-1.2,0-2.06,0.16l-0.35-0.72c1.15,0.11,2.36,0.13,2.69,0.13H316l0.52-0.68
				c0.07-0.09,0.17-0.22,0.28-0.22c0.09,0,0.17,0.05,0.31,0.18l0.8,0.67c0.12,0.11,0.17,0.2,0.17,0.29
				C318.1,220.25,317.96,220.28,317.84,220.28z M316.91,218.14h-2.72c-0.17,0-1.26,0-2.06,0.16l-0.35-0.7
				c1.2,0.11,2.55,0.11,2.69,0.11h0.75l0.44-0.58c0.05-0.07,0.17-0.23,0.28-0.23c0.09,0,0.19,0.11,0.31,0.2l0.75,0.58
				c0.1,0.09,0.17,0.18,0.17,0.29C317.17,218.12,317.02,218.14,316.91,218.14z M316.39,222.46h-2.13c-0.31,0-1.2,0-2.06,0.16
				l-0.35-0.7c0.96,0.07,1.9,0.11,2.95,0.11l0.44-0.61c0.03-0.05,0.16-0.23,0.28-0.23c0.1,0,0.23,0.13,0.31,0.2l0.66,0.61
				c0.07,0.07,0.16,0.18,0.16,0.29C316.65,222.44,316.53,222.46,316.39,222.46z M317.26,226.82c-0.05,0.07-0.33,0.32-0.38,0.38
				c-0.02,0.97,0.14,2.54,0.14,3.53c0,0.59-0.47,0.85-0.84,0.85c-0.51,0-0.51-0.31-0.47-1.12h-2.5c0,0.16,0.03,0.88,0.03,1.03
				c0,0.4-0.17,0.83-0.92,0.83c-0.31,0-0.42-0.13-0.42-0.52c0-0.34,0.03-0.9,0.05-1.24c0.05-1.49,0.07-2.66,0.07-3.17
				c0-0.16-0.02-1.39-0.09-1.95l1.41,0.87h2.18l0.4-0.54c0.09-0.13,0.14-0.16,0.26-0.16c0.05,0,0.17,0.07,0.23,0.11l0.73,0.59
				c0.09,0.07,0.21,0.16,0.21,0.31C317.36,226.69,317.31,226.76,317.26,226.82z M316.56,224.66h-2.15c-0.17,0-1.26,0-2.06,0.16
				l-0.35-0.72c1.22,0.11,2.53,0.13,2.69,0.13h0.31l0.45-0.56c0.12-0.14,0.14-0.22,0.28-0.22c0.1,0,0.21,0.07,0.31,0.18l0.59,0.56
				c0.16,0.14,0.17,0.22,0.17,0.27C316.82,224.64,316.67,224.66,316.56,224.66z M315.72,226.73h-2.51v3.29h2.51V226.73z M326.81,225
				h-4.38c0.02,1.42,0.02,1.58,0.02,1.82c0.02,1.35,0.14,3.49,0.14,4.83c0,0.38-0.12,1.06-0.94,1.06c-0.52,0-0.59-0.34-0.59-0.85
				c0-0.34,0.09-1.98,0.09-2.36c0.02-0.61,0.04-1.69,0.07-4.5h-1.47c-0.47,0-1.29,0.02-2.06,0.16l-0.35-0.7
				c0.91,0.07,1.8,0.11,2.69,0.11h1.19l0.02-3.85h-1.54c-0.38,0.58-1.38,2.03-2.22,2.72l-0.12-0.09c1.45-2.3,2.71-5.73,2.71-6.39
				c0-0.14-0.02-0.31-0.05-0.58l1.69,0.76c0.09,0.04,0.26,0.11,0.26,0.27c0,0.11-0.07,0.21-0.66,0.45
				c-0.21,0.49-0.54,1.24-1.33,2.43h3.91l0.72-0.87c0.1-0.13,0.16-0.23,0.26-0.23s0.23,0.11,0.31,0.18l1.06,0.88
				c0.05,0.05,0.17,0.16,0.17,0.29c0,0.18-0.17,0.18-0.26,0.18h-3.77l0.03,3.85h1.97l0.77-0.97c0.12-0.16,0.17-0.22,0.28-0.22
				c0.09,0,0.19,0.07,0.31,0.18l1.15,0.97c0.07,0.07,0.17,0.16,0.17,0.29C327.07,225,326.9,225,326.81,225z"/>
			<path d="M346.84,218.59h-3.11c0,0.96,0,12.1-0.02,12.33c-0.1,1.03-1.13,1.51-1.94,1.67c-0.09-0.58-0.16-0.97-2.25-2.07v-0.11
				c0.23,0.04,1.64,0.16,2.08,0.16c0.45,0,0.77,0,0.84-0.29c0.05-0.23,0.05-3.82,0.05-4.39c0-1.17-0.05-6.27-0.02-7.31h-8.54
				c-0.17,0-1.26,0-2.06,0.16l-0.35-0.72c1.22,0.11,2.53,0.13,2.69,0.13h10.26l0.8-0.96c0.09-0.11,0.19-0.23,0.28-0.23
				c0.09,0,0.19,0.09,0.31,0.2l1.06,0.95c0.09,0.09,0.17,0.16,0.17,0.27C347.11,218.57,346.96,218.59,346.84,218.59z M339.17,222.1
				c0,0.52,0.02,2.2,0.02,2.74c0,0.4,0.05,2.14,0.05,2.5c0,0.92-0.63,0.96-0.82,0.96c-0.52,0-0.51-0.45-0.51-1.03h-2.57
				c0.03,0.97,0.09,1.71-0.84,1.71c-0.33,0-0.56-0.16-0.56-0.56c0-0.14,0.05-0.83,0.05-0.97c0.05-1.87,0.05-3.26,0.05-4.79
				c0-1.13-0.02-1.53-0.26-2.34l1.62,0.9h2.39l0.47-0.47c0.14-0.14,0.23-0.21,0.3-0.21c0.07,0,0.12,0.02,0.3,0.16l0.7,0.58
				c0.14,0.13,0.21,0.18,0.21,0.3C339.78,221.74,339.5,221.9,339.17,222.1z M337.92,221.65h-2.57v5.19h2.57V221.65z"/>
			<path d="M355.08,234.38c-1-1.19-3.11-3.67-3.11-8.03c0-4.36,2.09-6.84,3.11-8.05h0.47c-0.56,1.15-1.87,3.91-1.87,8.05
				c0,1.51,0.17,2.92,0.51,4.29c0.42,1.8,0.91,2.81,1.36,3.75H355.08z"/>
			<path d="M361.15,231.44v-0.58h1.08c0.98,0,1.38-0.32,1.38-1.1v-9.79c0-0.59-0.65-0.67-0.94-0.67h-1.5v-0.49h0.35
				c1.52,0,2.97-0.63,3.21-0.76c0.14-0.07,0.21-0.11,0.28-0.11c0.16,0,0.21,0.11,0.21,0.25v11.56c0,0.81,0.45,1.1,1.38,1.1h1.08
				v0.58H361.15z"/>
			<path d="M373.31,234.38c0.44-0.94,0.92-1.95,1.34-3.75c0.33-1.37,0.52-2.77,0.52-4.29c0-4.14-1.33-6.9-1.87-8.05h0.45
				c1.01,1.21,3.11,3.69,3.11,8.05c0,4.36-2.09,6.84-3.11,8.03H373.31z"/>
			<path d="M389.3,219.35h-3.04c0.96,0.63,1.43,0.94,1.43,1.6c0,0.38-0.23,0.79-0.66,0.79c-0.49,0-0.52-0.27-0.65-1.06
				s-0.31-1.19-0.38-1.33h-0.77c-0.8,1.17-1.57,2.13-3.07,3.12l-0.07-0.09c1.08-1.3,2.6-3.93,3.04-5.17
				c0.05-0.14,0.12-0.45,0.1-0.97l1.61,0.86c0.12,0.07,0.16,0.14,0.16,0.23c0,0.18-0.26,0.27-0.7,0.41
				c-0.23,0.34-0.68,1.03-0.77,1.17h1.96l0.52-0.67c0.09-0.11,0.19-0.23,0.26-0.23c0.09,0,0.19,0.09,0.33,0.2l0.79,0.67
				c0.09,0.07,0.17,0.18,0.17,0.27C389.56,219.31,389.4,219.35,389.3,219.35z M396.3,227.45c-0.49,2.36-0.73,3.62-3.16,3.91
				c-0.03-0.68-0.63-1.39-1.33-1.91l0.02-0.11c0.7,0.14,1.48,0.3,1.97,0.3c0.54,0,1.03-0.16,1.31-2.63h-5.08
				c0.02,0.63,0.05,3.71,0.07,4.41c0,0.09,0.03,0.61,0.03,0.74c0,0.52-0.45,0.76-0.85,0.76c-0.23,0-0.47-0.07-0.47-0.54
				c0-0.88,0.09-3.87,0.1-4.81c-1.73,2.14-3.96,3.78-6.53,4.7l-0.03-0.14c1.17-0.65,3.74-2.77,5.53-5.11h-3.46
				c-0.21,0.83-0.3,1.15-0.89,1.15c-0.4,0-0.61-0.14-0.61-0.43c0-0.05,0.19-0.61,0.31-0.94c0.65-1.87,0.68-2.38,0.73-3.4l1.41,0.83
				h3.56c0-0.16-0.02-1.5-0.02-1.78h-2.64c-0.14,0-1.24,0-2.06,0.18l-0.35-0.72c0.85,0.07,1.83,0.11,2.69,0.11h7.07l0.47-0.47
				c0.05-0.05,0.12-0.11,0.19-0.11c0.09,0,0.17,0.05,0.24,0.11l0.82,0.65c0.05,0.05,0.14,0.11,0.14,0.22c0,0.16-0.19,0.31-0.56,0.56
				c0,0.27,0.07,1.51,0.07,1.69c0,0.61-0.7,0.68-0.82,0.68c-0.45,0-0.44-0.4-0.42-0.68h-3.75v1.93h4.96l0.61-0.65
				c0.07-0.07,0.16-0.18,0.23-0.18s0.19,0.11,0.26,0.18l0.8,0.76c0.07,0.05,0.12,0.14,0.12,0.22
				C397.02,227.14,396.74,227.23,396.3,227.45z M388.95,224.66h-3.91c-0.17,0.56-0.19,0.7-0.49,1.93h4.4V224.66z M396.96,219.53
				h-5.08c1.31,0.52,1.82,0.74,1.82,1.49c0,0.49-0.37,0.67-0.63,0.67c-0.44,0-0.51-0.27-0.79-1.06c-0.1-0.32-0.4-0.79-0.68-1.1
				h-0.66c-0.56,0.81-1.22,1.62-2.04,2.23l-0.09-0.07c1.1-1.91,2.11-3.82,2.06-5.38l1.69,0.79c0.1,0.05,0.16,0.13,0.16,0.22
				c0,0.18-0.24,0.31-0.75,0.47c-0.17,0.34-0.33,0.65-0.75,1.31h3.68l0.58-0.85c0.07-0.11,0.16-0.22,0.26-0.22
				c0.12,0,0.24,0.11,0.33,0.18l0.98,0.85c0.09,0.07,0.17,0.16,0.17,0.27C397.22,219.49,397.09,219.53,396.96,219.53z M393.8,222.44
				h-3.77v1.78h3.77V222.44z"/>
			<path d="M403.57,231.44v-0.58h1.08c0.98,0,1.38-0.32,1.38-1.1v-9.79c0-0.59-0.65-0.67-0.94-0.67h-1.5v-0.49h0.35
				c1.52,0,2.97-0.63,3.21-0.76c0.14-0.07,0.21-0.11,0.28-0.11c0.16,0,0.21,0.11,0.21,0.25v11.56c0,0.81,0.45,1.1,1.38,1.1h1.08
				v0.58H403.57z"/>
			<path d="M420.4,231.79c-2.2,0-3.72-1.51-3.72-2.67c0-0.58,0.42-1.1,1.15-1.1c0.58,0,1.03,0.34,1.03,0.94
				c0,0.16-0.17,0.88-0.17,1.04c0,0.77,0.89,1.17,1.68,1.17c1.57,0,3.09-1.37,3.09-3.8c0-2.32-1.36-3.55-2.74-3.55
				c-0.77,0-1.97,0.36-3.07,1.57l-0.3-0.14l0.3-6.95h6.83l-0.38,1.42h-5.87l-0.19,4.54c0.84-0.68,1.57-1.24,3.04-1.24
				c2.83,0,4.21,2.16,4.21,4.12C425.27,229.75,423,231.79,420.4,231.79z"/>
			<path d="M434.99,230.19c-0.04,0.5-0.1,1.6-1.12,1.6c-0.49,0-1-0.38-1-0.99c0-0.76,0.35-1.69,0.77-2.74
				c1.31-3.22,3.18-5.96,4.8-8.34h-3.49c-2.83,0-3.28,1.21-3.7,2.36l-0.51-0.13l0.8-3.66h7.92v0.95
				C436.13,223.97,435.27,226.37,434.99,230.19z"/>
			<path d="M451.6,227.7v2.07c0,0.85,0.51,1.1,1.38,1.1h0.3v0.58h-4.97v-0.58h0.31c0.87,0,1.38-0.25,1.38-1.1v-2.07h-5.31v-0.65
				l6.11-9.09h0.8v9.15h2.23v0.59H451.6z M449.99,220.34l-4.56,6.77h4.56V220.34z"/>
			<path d="M463.28,230.19c-0.04,0.5-0.1,1.6-1.12,1.6c-0.49,0-1-0.38-1-0.99c0-0.76,0.35-1.69,0.77-2.74
				c1.31-3.22,3.18-5.96,4.8-8.34h-3.49c-2.83,0-3.28,1.21-3.7,2.36l-0.51-0.13l0.8-3.66h7.92v0.95
				C464.41,223.97,463.56,226.37,463.28,230.19z"/>
			<path d="M488.49,223.58h-8.66c-0.45,0.86-0.96,2.05-1.19,2.59h4.89l0.63-0.56c0.09-0.07,0.17-0.14,0.26-0.14
				c0.09,0,0.19,0.11,0.28,0.2l0.87,0.83c0.07,0.07,0.16,0.18,0.16,0.29c0,0.23-0.33,0.32-0.87,0.49c-0.79,3.76-1.19,5.74-4.5,5.67
				c-0.21-1.21-1.29-1.82-1.75-2.05l0.02-0.11c1.54,0.41,2.9,0.47,2.95,0.47c0.87,0,1.41-0.59,2.06-4.65h-5.17
				c-0.24,0.58-0.72,1.69-0.96,2.05c-0.14,0.2-0.37,0.31-0.68,0.31c-0.3,0-0.68-0.16-0.68-0.45c0-0.11,0.05-0.27,0.1-0.36
				c1.05-2.05,1.17-2.3,2.18-4.57h-3.26c-0.47,0-1.29,0.02-2.06,0.16l-0.35-0.7c1.38,0.11,2.37,0.11,2.69,0.11h10.67l0.79-0.99
				c0.09-0.11,0.17-0.21,0.28-0.21c0.09,0,0.23,0.11,0.31,0.18l1.08,1.01c0.09,0.07,0.17,0.16,0.17,0.27
				C488.75,223.58,488.58,223.58,488.49,223.58z M484.91,218.1c0,0.7,0.02,2.48,0.02,3.15c0,0.25,0,0.74-0.75,0.74
				c-0.56,0-0.59-0.27-0.54-0.88h-6.04c0,0.45-0.02,1.01-0.86,1.01c-0.28,0-0.47-0.22-0.47-0.47c0-0.13,0.07-0.7,0.07-0.83
				c0.03-0.63,0.09-1.48,0.09-2.36c0-0.94-0.05-1.31-0.21-2.03l1.62,0.79h5.66l0.35-0.43c0.07-0.09,0.17-0.2,0.24-0.2
				c0.07,0,0.21,0.09,0.28,0.14l0.84,0.52c0.1,0.07,0.19,0.2,0.19,0.31S485.28,217.82,484.91,218.1z M483.65,217.65h-6.04v3.02h6.04
				V217.65z"/>
			<path d="M228.04,241.62l0.46-0.42c0.08-0.08,0.2-0.2,0.26-0.2c0.05,0,0.2,0.12,0.25,0.17l0.64,0.49c0.08,0.07,0.2,0.17,0.2,0.29
				c0,0.15-0.18,0.25-0.73,0.46c-0.33,0.51-0.89,1.44-1.86,2.58v0.12c1.19,0.22,2.42,0.85,2.42,1.79c0,0.43-0.38,0.65-0.63,0.65
				c-0.3,0-0.49-0.17-0.71-0.66c-0.28-0.61-0.48-1.04-1.09-1.56v3.98c0,0.26,0.07,3.64,0.07,3.76c0,0.56-0.18,0.87-0.84,0.87
				c-0.45,0-0.45-0.25-0.45-0.49c0-1.04,0.15-6.17,0.18-7.34c-1.44,1.33-2.59,1.9-3.22,2.21l-0.07-0.1c1.9-1.63,4.34-4.73,4.98-6.15
				h-1.95c-0.12,0-1.17,0-1.93,0.15l-0.33-0.68c0.69,0.07,1.7,0.12,2.42,0.12c0.03-1.82-0.17-2.69-0.36-3.3l1.67,0.48
				c0.08,0.02,0.26,0.08,0.26,0.24c0,0.15-0.15,0.27-0.48,0.48c0,0.29-0.02,1.68,0,2.11H228.04z M236.3,239.63l0.54-0.54
				c0.07-0.05,0.21-0.22,0.26-0.22c0.08,0,0.2,0.1,0.31,0.19l0.69,0.54c0.1,0.08,0.18,0.17,0.18,0.25c0,0.17-0.15,0.19-0.26,0.19
				h-6.19c-0.26,0-1.14,0-1.93,0.15l-0.33-0.68c1.2,0.1,2.24,0.12,2.54,0.12H236.3z M236.28,246.91l0.46-0.53
				c0.07-0.08,0.15-0.17,0.21-0.17c0.05,0,0.15,0.07,0.23,0.14l0.76,0.56c0.08,0.07,0.17,0.15,0.17,0.25c0,0.1-0.15,0.26-0.5,0.53
				c-0.02,0.14-0.03,0.37-0.03,0.49c0,0.61,0.13,4.03,0.13,4.73c0,0.44-0.38,0.66-0.79,0.66c-0.45,0-0.45-0.2-0.41-0.8h-5.18
				c0.03,0.6-0.18,0.95-0.78,0.95c-0.41,0-0.41-0.26-0.41-0.41c0-0.6,0.07-3.2,0.07-3.72c0-0.97,0-2.7-0.18-3.59l1.5,0.9H236.28z
				 M235.39,241.72l0.4-0.41c0.08-0.08,0.17-0.19,0.23-0.19s0.13,0.07,0.2,0.12l0.68,0.56c0.08,0.07,0.17,0.17,0.17,0.27
				c0,0.12-0.15,0.24-0.46,0.41c0,0.39,0.08,2.07,0.08,2.41c0,0.41-0.28,0.73-0.78,0.73c-0.4,0-0.4-0.24-0.4-0.65h-3.56
				c0,0.27,0.02,0.78-0.69,0.78c-0.33,0-0.46-0.15-0.46-0.6c0-0.22,0.03-1.77,0.03-2.11c0-0.66-0.05-1.53-0.12-2.11l1.35,0.76
				H235.39z M231.32,247.31v2.24h2.03v-2.24H231.32z M231.32,249.96v2.4h2.03v-2.4H231.32z M231.93,242.13v2.45h3.6v-2.45H231.93z
				 M236.51,249.56v-2.24h-2.09v2.24H236.51z M236.51,252.36v-2.4h-2.09v2.4H236.51z"/>
			<path d="M255.2,240.62c-0.03,0.63,0.08,9.79,0.08,11.03c0,1.09,0,2.02-1.86,2.38c-0.23-0.93-0.83-1.26-1.67-1.72l0.02-0.12
				c0.33,0.03,1.34,0.14,1.63,0.14c0.41,0,0.54-0.07,0.59-0.27c0.07-0.26,0.07-5.27,0.07-5.95c0-0.54-0.02-5.61-0.02-6.1h-9.83
				c-0.02,0.61-0.02,7.24-0.02,8.43c0,0.73,0.07,3.96,0.07,4.61c0,0.49-0.23,0.93-0.89,0.93c-0.25,0-0.48-0.08-0.48-0.65
				c0-0.24,0.12-1.31,0.12-1.51c0.05-1.16,0.07-7.46,0.07-8.6c0-2.69-0.05-3.16-0.18-4.42l1.58,0.8h9.4l0.43-0.49
				c0.07-0.08,0.12-0.14,0.21-0.14c0.05,0,0.13,0.05,0.2,0.1l0.89,0.66c0.12,0.08,0.2,0.14,0.2,0.27
				C255.81,240.14,255.74,240.24,255.2,240.62z M253.42,244.56h-3.79v5.37h1.6c0.02-1.97,0.03-2.24-0.02-2.97
				c-0.02-0.43-0.07-0.6-0.25-1.12l1.45,0.25c0.15,0.03,0.35,0.08,0.35,0.29c0,0.17-0.07,0.22-0.41,0.42c0.02,0.27,0,1.56,0,1.87
				c0,0.27,0.05,1.58,0.05,1.87c0,0.75-0.64,0.75-0.76,0.75c-0.46,0-0.45-0.24-0.43-0.95h-4.26c0,0.12,0.02,0.66,0.02,0.78
				c0,0.8-0.63,0.82-0.73,0.82c-0.35,0-0.46-0.24-0.46-0.48c0-0.19,0.08-0.73,0.08-2.46c0-2.41-0.05-2.58-0.21-3.23l1.53,0.37
				c0.13,0.03,0.28,0.07,0.28,0.24s0,0.17-0.49,0.48v3.08h1.57v-5.37h-1.65c-0.38,0-1.2,0.02-1.93,0.15l-0.33-0.68
				c1.32,0.12,2.28,0.12,2.54,0.12h1.9c0.17-0.31,1.06-2.29,0.99-3.84l1.68,0.99c0.07,0.03,0.17,0.1,0.17,0.22
				c0,0.22-0.25,0.29-0.71,0.37c-0.45,0.51-1.2,1.5-1.78,2.26h2.19l0.56-0.66c0.1-0.1,0.18-0.2,0.25-0.2c0.1,0,0.2,0.08,0.31,0.17
				l0.77,0.66c0.07,0.05,0.17,0.14,0.17,0.25C253.66,244.54,253.5,244.56,253.42,244.56z M247.73,243.71
				c-0.41,0-0.53-0.36-0.76-1.07c-0.33-1.02-0.51-1.34-0.91-1.84l0.08-0.1c0.21,0.09,2.28,0.97,2.28,2.24
				C248.42,243.51,247.97,243.71,247.73,243.71z"/>
			<path d="M264.07,250.56c-0.61,0.59-2.16,2.09-4.52,2.69l-0.03-0.1c1.04-0.66,2.29-1.94,2.84-2.55c0.77-0.88,0.86-1.16,0.92-1.53
				l1.3,0.88c0.13,0.08,0.21,0.17,0.21,0.29C264.79,250.44,264.46,250.54,264.07,250.56z M274.33,248.76h-6.75
				c0,0.32,0,1.1,0.02,2.12c0.02,0.68,0.08,1.75,0.08,2.43c0,0.85-0.82,0.85-0.91,0.85c-0.3,0-0.48-0.12-0.48-0.53
				c0-0.42,0.1-2.31,0.1-2.7c0.03-1.21,0.02-1.85,0.02-2.18h-4.44c0.02,0.78-0.84,0.78-0.91,0.78c-0.36,0-0.41-0.26-0.41-0.48
				s0.1-1.58,0.12-1.89c0.03-1.24,0.05-2.35,0.05-3.67c0-3.31-0.07-3.65-0.18-4.21l1.55,0.49c0.17,0.05,0.33,0.1,0.33,0.26
				c0,0.15-0.21,0.32-0.51,0.53c-0.05,1.09-0.07,2.21-0.07,3.3c0,0.49,0.03,3.88,0.03,4.49h10.06l0.81-0.9
				c0.1-0.12,0.16-0.2,0.28-0.2c0.1,0,0.21,0.12,0.28,0.17l1.02,0.9c0.1,0.09,0.17,0.17,0.17,0.27
				C274.59,248.74,274.44,248.76,274.33,248.76z M271.31,240.19c-0.02,0.7-0.07,2.09,0.08,5.66c0,0.05,0.02,0.44,0.02,0.48
				c0,0.78-0.71,0.78-0.81,0.78c-0.48,0-0.46-0.32-0.46-0.78h-4.93c0,0.25,0.02,0.83-0.82,0.83c-0.43,0-0.45-0.22-0.45-0.41
				c0-0.07,0.02-0.29,0.02-0.36c0.02-0.39,0.12-3.42,0.12-5.19c0-1.29-0.07-1.85-0.25-2.77l1.63,0.8h4.59l0.48-0.48
				c0.12-0.12,0.17-0.19,0.28-0.19c0.08,0,0.2,0.1,0.25,0.15l0.68,0.58c0.12,0.1,0.18,0.2,0.18,0.31
				C271.9,239.78,271.52,240.04,271.31,240.19z M270.15,239.65h-4.96v1.82h4.96V239.65z M270.15,241.87h-4.96v1.77h4.96V241.87z
				 M270.15,244.05h-4.96v1.87h4.96V244.05z M272.6,253.21c-0.43,0-0.61-0.31-1.06-1.04c-0.5-0.85-1.52-2.01-2.42-2.45l0.05-0.12
				c2.29,0.39,4.14,1.8,4.14,2.89C273.3,253.02,272.88,253.21,272.6,253.21z"/>
			<path d="M291.11,242.28c-0.53,0.27-1.01,0.63-1.48,0.99l-0.08-0.05c0.45-1.31,0.46-1.43,0.51-1.75h-9.6
				c0.05,1.9-0.96,2.8-1.67,2.8c-0.46,0-0.71-0.38-0.71-0.66c0-0.42,0.38-0.73,0.84-1.1c0.78-0.61,1.09-1.11,1.27-2.11h0.1
				c0.07,0.2,0.1,0.36,0.13,0.66h4.26c0.03-1.6-0.1-1.99-0.33-2.7l1.72,0.51c0.18,0.05,0.25,0.15,0.25,0.26
				c0,0.15-0.12,0.25-0.49,0.53v1.41h4.17l0.51-0.49c0.1-0.08,0.2-0.17,0.31-0.17c0.12,0,0.23,0.12,0.31,0.2l0.96,0.95
				c0.17,0.17,0.2,0.32,0.2,0.43C292.28,242.15,292.2,242.28,291.11,242.28z M292.07,252.87c-0.71,0.53-2.72,0.54-3.66,0.54
				c-3.74,0-4.5-0.03-4.57-1.67c-0.02-0.27-0.02-2.62-0.02-3.04l-3.4,0.65c-0.82,0.15-1.42,0.32-1.88,0.51l-0.45-0.61
				c0.84-0.09,1.68-0.19,2.52-0.34l3.2-0.61c0-0.42,0.02-2.53,0.03-3.01c-1.47,0.39-3.41,0.94-5.31,0.95v-0.12
				c0.25-0.05,7.49-2.09,8.71-3.83l1.1,1.12c0.1,0.08,0.12,0.22,0.12,0.29c0,0.15-0.17,0.22-0.25,0.22s-0.49-0.02-0.59-0.02
				c-0.45,0.2-1.07,0.48-2.62,1c0,0.46-0.03,2.67-0.03,3.16l4.98-0.93l0.61-1.02c0.08-0.14,0.15-0.25,0.25-0.25
				c0.08,0,0.21,0.07,0.3,0.12l1.12,0.66c0.1,0.05,0.21,0.17,0.21,0.27c0,0.14-0.1,0.17-0.21,0.19l-7.27,1.38
				c-0.02,1.29,0,2.23,0.03,3.09c0.02,0.27,0.08,0.44,0.33,0.54c0.3,0.12,1.06,0.13,3.03,0.13c2.51,0,2.79-0.03,3.3-3.18h0.1
				c0.08,0.46,0.2,1.16,0.31,1.73c0.12,0.58,0.13,0.65,0.33,0.83c0.23,0.22,0.26,0.24,0.26,0.41
				C292.66,252.41,292.32,252.7,292.07,252.87z"/>
			<path d="M301.76,244.51h-1.93v5.47c1.34-0.41,1.72-0.56,2.09-0.7l0.07,0.14c-0.58,0.44-1.35,0.9-2.38,1.45
				c-0.68,0.36-1.53,0.8-2.03,1.05c-0.15,0.36-0.21,0.54-0.41,0.54c-0.12,0-0.21-0.12-0.26-0.21l-0.86-1.51
				c0.56,0.03,0.84,0.07,2.71-0.46c0-0.58,0.02-3.16,0.02-3.69v-2.09h-0.33c-0.3,0-1.14,0-1.95,0.15l-0.31-0.68
				c0.97,0.08,1.96,0.12,2.59,0.12c0-0.85,0-1.7-0.02-2.55c-0.02-1.43-0.05-1.8-0.21-2.52l1.67,0.58c0.08,0.03,0.23,0.1,0.23,0.26
				c0,0.2-0.33,0.46-0.56,0.61c-0.03,1.19-0.03,1.77-0.05,3.62h0.4l0.5-0.56c0.15-0.17,0.2-0.22,0.28-0.22c0.1,0,0.2,0.12,0.28,0.19
				l0.58,0.56c0.08,0.09,0.15,0.15,0.15,0.26C302.01,244.49,301.86,244.51,301.76,244.51z M309.14,253.21
				c-0.38,0.07-3.3,0.07-3.76,0.07c-2.71,0-3.18-0.14-3.18-1.99c0-0.66,0.05-3.59,0.05-4.18c0-0.17-0.02-0.93-0.02-1.09
				c-0.66,0.31-1.02,0.49-1.6,0.9l-0.56-0.48c0.89-0.31,1.91-0.77,2.16-0.88v-3.01c0-0.8-0.03-1.17-0.18-1.97l1.53,0.54
				c0.12,0.03,0.25,0.1,0.25,0.24c0,0.15-0.13,0.27-0.53,0.56c-0.02,0.51-0.03,2.72-0.03,3.16l1.8-0.83c0.02-1.7,0.02-2.91-0.03-4.1
				c-0.03-0.63-0.15-1.22-0.2-1.5l1.58,0.54c0.17,0.05,0.28,0.14,0.28,0.26c0,0.15-0.23,0.36-0.58,0.63
				c-0.03,1.53-0.03,1.75-0.03,3.69l1.6-0.73l0.4-0.68c0.08-0.14,0.17-0.29,0.28-0.29c0.12,0,0.21,0.07,0.31,0.14l0.78,0.49
				c0.07,0.03,0.17,0.15,0.17,0.27c0,0.21-0.18,0.38-0.41,0.6c0,5.1-0.03,6.27-1.96,6.8c-0.15-0.85-0.76-1.27-0.99-1.43v-0.08
				c0.28,0.03,0.38,0.03,0.51,0.03c1.15,0,1.34-0.15,1.34-3.74c0-1.16-0.02-1.34-0.03-1.83l-1.96,0.92c0.02,2.5,0.03,4.13,0.05,4.59
				c0,0.22,0.05,1.22,0.05,1.43c0,0.82-0.69,0.85-0.84,0.85c-0.23,0-0.4-0.08-0.4-0.44c0-0.19,0.05-1.05,0.05-1.22
				c0.03-1.09,0.03-1.73,0.05-4.73l-1.8,0.83c-0.02,0.68,0,5.9,0.02,6.1c0.02,0.22,0.18,0.41,0.4,0.48
				c0.21,0.07,2.57,0.07,2.89,0.07c1.7,0,2.21,0,2.56-0.63c0.31-0.59,0.66-1.85,0.73-2.06h0.12c0.03,0.61,0.08,1.62,0.31,2.02
				c0.1,0.17,0.38,0.32,0.38,0.49C310.65,252.26,310.37,252.99,309.14,253.21z"/>
			<path d="M327.87,253.38c-5.99-0.09-8.56-0.12-10.79-2.35c-1.01,1.53-1.95,2.21-3.36,2.94l-0.1-0.1c1.3-1.16,2.13-2.06,2.85-3.54
				c-1.06-1.36-1.39-2.67-1.53-3.28l0.17-0.14c0.53,1.55,1.4,2.52,1.67,2.79c0.51-1.22,0.92-2.79,0.92-4.62h-1.39
				c-0.33,0.95-0.41,1.21-0.96,1.21c-0.12,0-0.59-0.02-0.59-0.39c0-0.1,0.25-0.8,0.4-1.21c0.86-2.28,1.53-4.13,1.73-4.88h-0.59
				c-0.28,0-1.2,0-1.95,0.15l-0.31-0.68c0.84,0.07,1.68,0.12,2.52,0.12h0.3l0.43-0.36c0.15-0.12,0.23-0.17,0.31-0.17
				c0.07,0,0.16,0.07,0.28,0.17l0.64,0.56c0.13,0.1,0.17,0.2,0.17,0.31c0,0.2-0.33,0.36-0.76,0.54c-0.36,0.95-0.58,1.53-1.48,4.22
				h1.12l0.45-0.36c0.13-0.1,0.23-0.17,0.31-0.17c0.12,0,0.2,0.07,0.31,0.19l0.51,0.54c0.13,0.14,0.2,0.26,0.2,0.36
				c0,0.15-0.17,0.25-0.51,0.48c-0.15,1.63-0.56,3.21-1.35,4.67c1.58,1.31,3.71,1.68,5.74,1.68c1.96,0,4.27-0.22,5.81-0.49
				l0.03,0.14C328.1,252.21,327.97,252.91,327.87,253.38z M328.84,242.79h-2.28c0.07,2.02,0.07,2.02,0.07,2.14
				c0,0.34,0,0.87-0.79,0.87c-0.45,0-0.43-0.27-0.41-0.56h-2.03v1.77h2.47l0.49-0.65c0.12-0.13,0.18-0.22,0.28-0.22
				c0.1,0,0.18,0.09,0.31,0.19l0.74,0.65c0.08,0.08,0.16,0.19,0.16,0.25c0,0.15-0.12,0.19-0.25,0.19h-4.22l0.02,1.8h2.94l0.63-0.75
				c0.13-0.15,0.2-0.22,0.28-0.22c0.1,0,0.18,0.07,0.3,0.19l0.77,0.75c0.12,0.1,0.17,0.2,0.17,0.29c0,0.1-0.1,0.15-0.25,0.15h-4.83
				c0,0.21,0.03,1.21,0,1.43c-0.02,0.22-0.31,0.61-0.73,0.61c-0.53,0-0.53-0.31-0.53-0.49c0-0.22,0.08-1.29,0.08-1.55h-1.12
				c-0.12,0-1.17,0-1.93,0.15l-0.33-0.66c1.29,0.1,2.51,0.1,2.54,0.1h0.86c0.02-0.46,0.02-0.88,0.03-1.8h-0.49
				c-0.43,0-1.22,0.02-1.93,0.15l-0.33-0.66c0.49,0.03,1.42,0.1,2.77,0.1v-1.77h-0.33c-0.13,0-1.17,0-1.95,0.15l-0.33-0.66
				c1.19,0.08,2.44,0.1,2.61,0.1l0.02-2.04h-1.53c-0.43,0-1.22,0.02-1.93,0.15l-0.33-0.68c0.84,0.08,1.68,0.12,2.52,0.12h1.27
				l-0.02-1.99h-0.4c-0.28,0-1.17,0.02-1.95,0.15l-0.31-0.68c1.15,0.1,2.23,0.12,2.64,0.12c0-0.85-0.02-1.04-0.25-1.58l1.58,0.39
				c0.18,0.05,0.28,0.12,0.28,0.27c0,0.17-0.2,0.3-0.46,0.46v0.46h1.91l0.41-0.38c0.12-0.1,0.2-0.17,0.3-0.17
				c0.1,0,0.18,0.09,0.3,0.19l0.46,0.46c0.12,0.1,0.2,0.22,0.2,0.32c0,0.14-0.13,0.24-0.46,0.48c-0.03,0.32-0.03,0.34,0,1.5h0.59
				l0.48-0.63c0.1-0.14,0.18-0.21,0.26-0.21c0.1,0,0.2,0.07,0.31,0.17l0.71,0.63c0.08,0.09,0.17,0.17,0.17,0.26
				C329.09,242.71,329.01,242.79,328.84,242.79z M325.46,242.79h-2.05l-0.02,2.04h2.06V242.79z M325.46,240.4h-2.01l-0.03,1.99h2.05
				V240.4z"/>
			<path d="M336.48,247.62c0,2.06,0,2.41,0.03,3.4c0.02,0.59,0.07,1.55,0.07,2.14c0,0.7-0.71,0.78-0.86,0.78
				c-0.36,0-0.45-0.22-0.45-0.48c0-0.07,0.03-0.7,0.03-0.82c0.07-1.27,0.07-1.73,0.1-4.45c-1.2,0.65-1.68,0.83-2.03,0.97
				c-0.02,0.31-0.05,0.6-0.31,0.6c-0.18,0-0.28-0.19-0.33-0.29l-0.78-1.53c1.02,0.05,1.3,0.03,3.46-0.65c0-1.5,0.02-3.18,0-4.47
				h-1.48c-0.5,2.06-1.2,3.3-1.47,3.76l-0.1-0.03c0.63-2.52,0.74-5.17,0.74-5.9c0-0.63-0.07-0.85-0.16-1.16l1.58,0.39
				c0.13,0.03,0.28,0.07,0.28,0.25c0,0.24-0.23,0.34-0.5,0.44c-0.08,0.8-0.16,1.31-0.28,1.84h1.37c-0.03-2.4-0.08-3.09-0.45-3.94
				l1.81,0.54c0.1,0.03,0.25,0.12,0.25,0.24c0,0.2-0.28,0.36-0.53,0.49c-0.02,0.36-0.02,2.16-0.02,2.67h0.33l0.46-0.65
				c0.08-0.1,0.17-0.22,0.25-0.22c0.1,0,0.21,0.1,0.3,0.19l0.66,0.65c0.07,0.07,0.15,0.15,0.15,0.25c0,0.15-0.15,0.19-0.25,0.19
				h-1.9c0,1.09-0.02,2.99,0,4.08c0.33-0.12,1.86-0.66,2.16-0.78l0.05,0.12C338.22,246.58,337.71,246.92,336.48,247.62z
				 M346.21,243.01c-0.13,3.55-0.26,6.78-1.3,8.99c-0.63,1.34-1.81,1.56-2.56,1.72c-0.12-0.77-0.38-1.24-1.4-2.01l0.05-0.12
				c1.09,0.32,1.72,0.36,2,0.36c0.4,0,0.66,0,1.12-1.21c0.58-1.56,1.04-5.29,0.92-8.23h-0.94c-0.48,3.84-2.06,8.79-6.83,10.64
				l-0.05-0.12c3.5-2.7,4.98-5.58,5.67-10.52h-0.92c-0.68,3.59-2.54,6.68-4.93,7.84l-0.05-0.1c2.03-2.09,3.33-4.96,3.78-7.73h-0.82
				c-0.53,1.22-1.25,2.41-2.23,3.38l-0.08-0.08c1.62-3.13,2.13-6.22,2.13-6.94c0-0.19-0.02-0.32-0.08-0.58l1.65,0.68
				c0.16,0.07,0.25,0.17,0.25,0.27c0,0.22-0.31,0.31-0.58,0.37c-0.43,1.36-0.71,2.06-0.87,2.48h4.75l0.4-0.42
				c0.1-0.12,0.18-0.19,0.25-0.19s0.18,0.07,0.3,0.15l0.78,0.59c0.12,0.09,0.18,0.14,0.18,0.24
				C346.77,242.74,346.39,242.93,346.21,243.01z"/>
			<path d="M364.25,253.23c-1.65-0.87-2.74-2.19-3.45-3.4c-1.48,1.97-3.07,2.7-3.84,3.01c0.02,0.61,0.02,1.22-0.84,1.22
				c-0.51,0-0.51-0.32-0.51-0.65c0-0.27,0.08-1.67,0.1-1.99c0-0.32,0.02-2.04,0.02-2.43c-0.84,0.44-3.05,1.45-4.31,1.82
				c-0.13,0.42-0.23,0.56-0.4,0.56c-0.15,0-0.23-0.12-0.3-0.29l-0.63-1.67c0.48,0.08,0.54,0.1,0.74,0.1c0.36,0,1.1-0.12,1.3-0.15
				v-9.4c-0.96,0.05-1.24,0.1-1.52,0.15l-0.33-0.68c1.3,0.12,2.52,0.12,2.54,0.12h4.35l0.71-0.8c0.13-0.15,0.2-0.2,0.28-0.2
				c0.1,0,0.18,0.05,0.33,0.19l0.82,0.78c0.08,0.07,0.15,0.2,0.15,0.27c0,0.14-0.1,0.17-0.25,0.17h-2.36
				c-0.03,6.44-0.05,7.16,0.08,12.66c1.09-0.65,2.33-2.06,3.3-3.84c-1.02-2.31-1.52-4.83-1.55-7.36c-0.51,0.03-0.64,0.07-0.84,0.12
				l-0.33-0.68c1.29,0.1,2.51,0.1,2.52,0.1h2.28l0.46-0.54c0.15-0.17,0.2-0.22,0.28-0.22c0.1,0,0.18,0.05,0.35,0.19l0.76,0.59
				c0.13,0.1,0.23,0.24,0.23,0.31c0,0.12,0,0.19-0.15,0.29c-0.3,0.22-0.53,0.37-0.74,0.48c-0.64,3.93-1.8,6.31-2.14,6.87
				c0.79,1.09,2.06,2.31,4.32,3.06v0.08C365.07,252.26,364.64,252.6,364.25,253.23z M355.72,239.97h-2.44v2.72h2.44V239.97z
				 M355.72,243.1h-2.44v2.75h2.44V243.1z M355.72,246.26h-2.44v2.92c0.86-0.17,2.08-0.39,2.44-0.49V246.26z M359.79,241.38
				c-0.15,0-0.43,0.02-0.76,0.04c0.26,2.18,0.73,4.4,1.7,6.42c1.35-2.97,1.55-5.58,1.6-6.46H359.79z"/>
			<path d="M371.14,243.06h2.9v-3.11h-3.23c-0.15,0-1.17,0-1.95,0.15l-0.31-0.66c1.09,0.09,2.21,0.1,2.52,0.1h2.89l0.38-0.42
				c0.08-0.09,0.15-0.19,0.26-0.19c0.07,0,0.18,0.07,0.25,0.1l0.64,0.43c0.08,0.05,0.25,0.14,0.25,0.32c0,0.15-0.16,0.31-0.58,0.6
				c-0.02,0.51,0.07,2.77,0.07,3.21c0,0.17-0.03,0.34-0.15,0.47c-0.15,0.19-0.43,0.27-0.68,0.27c-0.36,0-0.46-0.17-0.38-0.87h-3.15
				c-0.07,0.39-0.45,2.74-0.46,2.82h3.36l0.46-0.53c0.07-0.09,0.15-0.19,0.28-0.19c0.1,0,0.18,0.07,0.26,0.12l0.68,0.51
				c0.07,0.05,0.18,0.15,0.18,0.31c0,0.2-0.23,0.36-0.5,0.49c-0.18,2.21-0.81,4.5-1.7,5.56c-0.73,0.85-1.83,1.07-2.61,1.11
				c-0.18-0.83-0.59-1.33-1.27-1.92v-0.1c0.71,0.17,1.47,0.36,2.23,0.36c0.35,0,0.74,0,1.14-0.77c0.41-0.82,0.89-2.07,1.04-4.54
				h-3.61c-0.03,0.43-0.08,0.95-0.2,1.26c-0.12,0.31-0.56,0.48-0.82,0.48c-0.25,0-0.45-0.14-0.45-0.39c0-0.15,0.46-2.13,0.53-2.48
				c0.28-1.56,0.33-2.46,0.3-3.25L371.14,243.06z M381.51,239.17c0.15,0.03,0.3,0.05,0.3,0.24c0,0.17-0.15,0.34-0.56,0.58
				c0,0.32-0.02,4.49,0.02,7.72c0,0.82,0.13,4.45,0.13,5.2c0,0.2,0,0.48-0.21,0.66c-0.21,0.17-0.54,0.27-0.74,0.27
				c-0.38,0-0.45-0.31-0.45-0.56c0-0.1,0.02-0.2,0.03-0.42c0.08-1.38,0.08-3.14,0.08-3.84c0-6.34-0.02-7.97-0.07-8.55
				c-0.05-0.59-0.13-1.02-0.3-1.7L381.51,239.17z"/>
			<path d="M400.72,242.28h-5.15l0.86,0.53c0.07,0.05,0.17,0.15,0.17,0.24c0,0.21-0.31,0.24-0.61,0.26
				c-0.46,0.51-1.14,1.1-1.45,1.38h2.82l0.64-0.75c0.08-0.1,0.18-0.21,0.26-0.21s0.23,0.1,0.3,0.17l0.76,0.75
				c0.08,0.09,0.15,0.15,0.15,0.26c0,0.17-0.13,0.19-0.25,0.19h-5.26c0,0.2,0.02,1.14,0.02,1.33h2.33l0.58-0.61
				c0.1-0.1,0.2-0.2,0.28-0.2s0.17,0.08,0.31,0.19l0.81,0.58c0.08,0.07,0.18,0.15,0.18,0.27c0,0.15-0.13,0.19-0.25,0.19h-4.24v1.48
				h4.24l0.74-0.87c0.12-0.14,0.17-0.2,0.26-0.2c0.12,0,0.21,0.1,0.3,0.17l0.91,0.87c0.08,0.08,0.16,0.15,0.16,0.27
				c0,0.15-0.15,0.17-0.26,0.17h-6.02c1.14,1.39,3.63,3.08,6.43,3.28l0.02,0.1c-0.53,0.26-1.1,0.54-1.52,1.38
				c-2.13-0.82-4.19-2.75-5.21-4.76h-0.05c0.02,1.55,0.03,1.85,0.03,2.18c0.02,0.39,0.1,2.07,0.1,2.43c0,0.51-0.49,0.7-0.84,0.7
				c-0.45,0-0.48-0.27-0.48-0.53c0-0.37,0.05-1,0.07-1.39c0.02-0.56,0.02-0.82,0.05-3.18c-1.19,1.63-3.4,3.74-6.55,4.59l-0.03-0.1
				c2.23-1.22,3.74-2.6,5.28-4.69h-2.92c-0.17,0-1.19,0-1.95,0.15l-0.33-0.68c1.11,0.1,2.23,0.12,2.54,0.12h3.96v-1.48h-2.89
				c-0.43,0-1.2,0.02-1.95,0.15l-0.33-0.68c1.14,0.1,2.33,0.12,2.54,0.12h2.62v-1.33h-3.46c-0.15,0-1.17,0-1.93,0.15l-0.33-0.68
				c1.11,0.1,2.26,0.12,2.54,0.12h4.49c0.21-0.39,0.73-1.6,0.82-2.4h-4.68c0.96,0.32,1.83,0.83,1.83,1.65c0,0.49-0.4,0.68-0.66,0.68
				c-0.38,0-0.43-0.1-0.82-1.12c-0.08-0.22-0.3-0.76-0.68-1.21h-1.72c-0.41,0-1.2,0-1.95,0.15l-0.31-0.68
				c1.12,0.1,2.29,0.12,2.52,0.12h3.1c-0.05-2.45-0.05-2.63-0.28-3.5l1.6,0.48c0.15,0.05,0.23,0.1,0.23,0.25
				c0,0.19-0.18,0.29-0.49,0.41v2.36h1.22c0-2.16,0-2.65-0.35-3.5l1.68,0.46c0.1,0.03,0.28,0.08,0.28,0.25
				c0,0.26-0.4,0.39-0.54,0.44v2.35h0.71c0.38-0.75,0.79-2.01,0.86-2.38c0.07-0.29,0.08-0.54,0.08-0.82l1.47,0.76
				c0.1,0.05,0.2,0.12,0.2,0.24c0,0.25-0.4,0.31-0.58,0.32c-0.51,0.56-1.39,1.53-1.72,1.87h2.59l0.71-0.77
				c0.13-0.14,0.2-0.22,0.26-0.22c0.1,0,0.21,0.08,0.33,0.19l0.86,0.75c0.1,0.08,0.18,0.15,0.18,0.27
				C400.97,242.25,400.82,242.28,400.72,242.28z M390,241.5c-0.4,0-0.51-0.27-0.82-1.04c-0.05-0.12-0.31-0.76-0.96-1.34l0.07-0.12
				c0.66,0.17,2.31,0.63,2.31,1.82C390.6,241.04,390.48,241.5,390,241.5z"/>
			<path d="M409.26,242.86h-2.33c-0.03,3.72-0.03,4.54-0.03,5.58c0,0.75,0.05,4.06,0.05,4.74c0,0.31,0,0.83-0.81,0.83
				c-0.18,0-0.48-0.07-0.48-0.48c0-0.25,0.1-1.43,0.12-1.68c0.05-1.22,0.05-1.75,0.07-5c0.02-2.4,0.02-2.53,0.03-4
				c-0.59,0-1.29,0.05-1.88,0.15l-0.33-0.66c0.46,0.04,1.04,0.09,2.21,0.1c0-2.52-0.03-3.38-0.38-4.1l1.81,0.53
				c0.1,0.03,0.21,0.1,0.21,0.24c0,0.17-0.05,0.2-0.58,0.51c0,0.46-0.02,2.43-0.02,2.82h0.77l0.5-0.54c0.08-0.1,0.18-0.22,0.26-0.22
				c0.07,0,0.2,0.08,0.3,0.19l0.59,0.56c0.08,0.08,0.15,0.15,0.15,0.25C409.51,242.84,409.38,242.86,409.26,242.86z M413.07,248.08
				c-0.43,4.76-0.92,5.44-2.67,5.63c-0.17-0.95-0.21-1.14-0.87-1.68l0.05-0.14c0.76,0.27,1.19,0.29,1.32,0.29
				c0.43,0,0.53-0.1,0.79-1.43c0.12-0.56,0.33-1.67,0.36-3.14h-1.2c-0.31,2.04-1.15,4.71-3.56,5.93l-0.07-0.08
				c1.24-1.12,2.31-3.08,2.57-5.83c-0.53,0-1.14,0.05-1.65,0.15l-0.33-0.68c0.61,0.05,1.09,0.08,2.01,0.1
				c0.08-1.29-0.05-1.8-0.1-2.06l1.5,0.54c0.15,0.05,0.21,0.15,0.21,0.24c0,0.14-0.36,0.37-0.45,0.42
				c-0.03,0.32-0.03,0.46-0.08,0.85h0.99l0.4-0.43c0.12-0.12,0.16-0.17,0.23-0.17c0.07,0,0.15,0.09,0.21,0.15l0.68,0.61
				c0.07,0.07,0.13,0.14,0.13,0.24C413.55,247.72,413.5,247.76,413.07,248.08z M416.88,241.18c-0.73,3.43-1.86,3.55-2.85,3.67
				c-0.08-0.58-0.15-1.04-1.04-1.8l0.07-0.1c0.63,0.31,1.37,0.41,1.48,0.41c0.84,0,1.22-1.96,1.4-2.89h-2.42
				c-0.71,2.13-1.75,3.88-4.57,4.76l-0.02-0.1c1.65-1.14,3-2.63,3.48-4.66h-0.86c-0.41,0-1.2,0-1.95,0.15l-0.33-0.68
				c1.14,0.1,2.31,0.12,2.54,0.12h0.69c0.07-0.42,0.12-0.78,0.12-1.19c0-0.36-0.05-0.49-0.12-0.66l1.68,0.53
				c0.07,0.02,0.15,0.07,0.15,0.17c0,0.1-0.26,0.27-0.53,0.44c-0.1,0.41-0.13,0.53-0.18,0.71h2.13l0.26-0.34
				c0.08-0.1,0.2-0.15,0.28-0.15c0.1,0,0.15,0.03,0.23,0.1l0.87,0.75c0.07,0.05,0.13,0.12,0.13,0.22
				C417.54,240.82,417.13,241.04,416.88,241.18z M418.65,247.79c-0.15,0.09-0.23,0.15-0.35,0.24c-0.03,1.79-0.25,4.08-0.76,4.93
				c-0.1,0.17-0.53,0.87-1.98,1c-0.35-1.05-0.36-1.09-0.94-1.67l0.05-0.14c0.84,0.29,1.32,0.29,1.4,0.29c0.66,0,0.71-0.31,0.91-1.43
				c0.12-0.73,0.31-2.79,0.25-3.37h-1.22c-0.43,2.46-1.06,4.67-3.84,6.1l-0.05-0.08c0.94-0.92,2.39-2.57,2.87-5.97
				c-0.36,0.02-0.56,0.07-0.76,0.1l-0.33-0.68c0.56,0.05,0.81,0.07,1.15,0.08c0.02-0.17,0.05-0.59,0.05-1.24
				c0-0.82-0.07-1.04-0.13-1.27l1.57,0.58c0.13,0.05,0.21,0.17,0.21,0.26c0,0.19-0.43,0.41-0.51,0.46c-0.07,0.63-0.1,0.92-0.16,1.24
				c0.13,0.02,0.2,0.02,0.36,0.02h0.64l0.41-0.49c0.07-0.08,0.15-0.17,0.2-0.17c0.07,0,0.17,0.05,0.25,0.12l0.79,0.61
				c0.07,0.05,0.15,0.15,0.15,0.22C418.88,247.65,418.76,247.72,418.65,247.79z"/>
			<path d="M435.87,245.56c-2.85-1.31-4.95-3.84-6.02-6.12l-0.07,0.02c-1.8,3.23-5.71,6.05-7.55,6.82l-0.05-0.1
				c2.47-1.78,4.49-4.15,6.07-6.78c0.38-0.61,0.43-0.85,0.49-1.16l1.67,0.54c0.08,0.03,0.26,0.12,0.26,0.29
				c0,0.2-0.17,0.24-0.51,0.32c1.01,1.73,3.63,4.11,7.29,4.76v0.12C436.87,244.52,436.28,244.88,435.87,245.56z M436,247.94h-6.61
				c-0.89,1.72-2.56,3.69-2.72,3.89c2.03-0.14,4.59-0.39,6.45-0.63c-0.1-0.19-0.64-1.21-1.81-2.35l0.1-0.1
				c2.26,1.05,4.06,2.77,4.06,4.2c0,0.27-0.18,0.83-0.73,0.83s-0.76-0.46-0.97-1.05c-0.2-0.6-0.26-0.78-0.5-1.24
				c-1.34,0.42-7.41,1.75-8.35,1.9c-0.1,0.22-0.15,0.37-0.3,0.37c-0.13,0-0.21-0.17-0.26-0.31l-0.69-1.72
				c0.36,0.07,0.74,0.15,1.47,0.15c0.35,0,0.68-0.02,1.19-0.05c0.54-1.26,1.01-2.52,1.35-3.91h-2.33c-0.38,0-1.2,0.02-1.93,0.15
				l-0.33-0.66c1.3,0.1,2.24,0.1,2.52,0.1h7.92l0.84-0.94c0.12-0.14,0.2-0.2,0.28-0.2s0.18,0.08,0.3,0.17l1.14,0.93
				c0.07,0.05,0.17,0.15,0.17,0.25C436.24,247.94,436.08,247.94,436,247.94z M432.38,245h-4.24c-0.41,0-1.2,0.02-1.95,0.15
				l-0.33-0.68c1.14,0.1,2.33,0.12,2.54,0.12h1.85l0.74-0.85c0.08-0.08,0.17-0.2,0.26-0.2c0.08,0,0.21,0.1,0.3,0.17l0.91,0.85
				c0.08,0.08,0.17,0.15,0.17,0.27C432.63,244.98,432.48,245,432.38,245z"/>
			<path d="M454,245.56c-2.85-1.31-4.95-3.84-6.02-6.12l-0.07,0.02c-1.8,3.23-5.71,6.05-7.55,6.82l-0.05-0.1
				c2.47-1.78,4.49-4.15,6.07-6.78c0.38-0.61,0.43-0.85,0.49-1.16l1.67,0.54c0.08,0.03,0.26,0.12,0.26,0.29
				c0,0.2-0.17,0.24-0.51,0.32c1.01,1.73,3.63,4.11,7.29,4.76v0.12C455.01,244.52,454.42,244.88,454,245.56z M454.14,247.94h-6.61
				c-0.89,1.72-2.56,3.69-2.72,3.89c2.03-0.14,4.59-0.39,6.45-0.63c-0.1-0.19-0.64-1.21-1.81-2.35l0.1-0.1
				c2.26,1.05,4.06,2.77,4.06,4.2c0,0.27-0.18,0.83-0.73,0.83s-0.76-0.46-0.97-1.05c-0.2-0.6-0.26-0.78-0.5-1.24
				c-1.34,0.42-7.41,1.75-8.35,1.9c-0.1,0.22-0.15,0.37-0.3,0.37c-0.13,0-0.21-0.17-0.26-0.31l-0.69-1.72
				c0.36,0.07,0.74,0.15,1.47,0.15c0.35,0,0.68-0.02,1.19-0.05c0.54-1.26,1.01-2.52,1.35-3.91h-2.33c-0.38,0-1.2,0.02-1.93,0.15
				l-0.33-0.66c1.3,0.1,2.24,0.1,2.52,0.1h7.92l0.84-0.94c0.12-0.14,0.2-0.2,0.28-0.2s0.18,0.08,0.3,0.17l1.14,0.93
				c0.07,0.05,0.17,0.15,0.17,0.25C454.38,247.94,454.22,247.94,454.14,247.94z M450.52,245h-4.24c-0.41,0-1.2,0.02-1.95,0.15
				l-0.33-0.68c1.14,0.1,2.33,0.12,2.54,0.12h1.85l0.74-0.85c0.08-0.08,0.17-0.2,0.26-0.2c0.08,0,0.21,0.1,0.3,0.17l0.91,0.85
				c0.08,0.08,0.17,0.15,0.17,0.27C450.77,244.98,450.62,245,450.52,245z"/>
			<path d="M458.47,253.87c0.78-0.29,2.13-0.97,3.78-2.18c0.69-0.49,0.84-0.78,1.09-1.19l1.42,0.92c0.07,0.05,0.18,0.15,0.18,0.27
				c0,0.26-0.41,0.27-0.94,0.29c-1.58,1.02-3.79,1.87-5.51,2.01L458.47,253.87z M469.52,243.64l0.41-0.43
				c0.07-0.07,0.17-0.2,0.26-0.2c0.08,0,0.13,0.05,0.25,0.14l0.71,0.56c0.12,0.08,0.21,0.2,0.21,0.32c0,0.15-0.23,0.32-0.61,0.54
				c-0.03,0.71,0.1,5.22,0.1,5.64c0,0.46-0.35,0.83-0.79,0.83c-0.46,0-0.45-0.41-0.43-0.66h-7.44c-0.03,0.41-0.07,0.9-0.79,0.9
				c-0.48,0-0.48-0.37-0.48-0.51c0-0.24,0.07-0.82,0.07-0.95c0.02-0.48,0.07-2.33,0.07-4.17c0-1.7-0.03-1.96-0.18-2.6l1.53,0.58
				H469.52z M469.11,239.37l0.48-0.49c0.08-0.08,0.16-0.19,0.23-0.19c0.08,0,0.15,0.05,0.23,0.12l0.71,0.56
				c0.08,0.07,0.15,0.15,0.15,0.26c0,0.15-0.17,0.31-0.54,0.56c-0.02,0.31,0.03,1.7,0.03,1.97c0,0.51-0.41,0.7-0.69,0.7
				c-0.53,0-0.51-0.37-0.48-0.68h-6.56c0,0.26,0,0.78-0.73,0.78c-0.48,0-0.48-0.31-0.48-0.51c0-0.07,0.07-1.63,0.07-1.94
				c0-1.07-0.03-1.58-0.15-2.02l1.53,0.88H469.11z M462.21,244.05v1.61h7.42v-1.61H462.21z M462.21,246.07v1.6h7.42v-1.6H462.21z
				 M462.21,248.08v1.9h7.42v-1.9H462.21z M462.66,239.78v1.99h6.56v-1.99H462.66z M467.19,250.8c2.14,0.14,4.8,1.22,4.8,2.52
				c0,0.48-0.33,0.68-0.66,0.68c-0.41,0-0.63-0.22-1.09-0.71c-0.94-1.02-1.6-1.6-3.07-2.41L467.19,250.8z"/>
		</g>
	</g>
	<g>
		<g>
			<g>
				<path class="st0" d="M155.98,152.42c-11.25,0-17.95-12.48-17.95-26.63c0-13.94,6.54-26.56,17.95-26.56
					c11.25,0,17.95,12.48,17.95,26.56C173.93,139.94,167.23,152.42,155.98,152.42z M155.98,101.17c-6.06,0-12.04,6.59-12.04,24.62
					c0,18.45,6.14,24.69,12.04,24.69c5.58,0,12.04-5.69,12.04-24.69C168.03,106.93,161.57,101.17,155.98,101.17z"/>
				<path class="st0" d="M195.7,152.42c-5.82,0-9.49-2.71-9.49-6.03c0-2.43,1.6-3.33,3.67-3.33c3.67,0,4.15,2.77,4.15,3.61
					c0,1.67,0.16,3.61,3.27,3.61c2.63,0,5.1-1.25,6.54-2.64c6.94-6.52,7.58-16.37,7.9-23.93c-3.75,4.65-7.18,9.02-14.44,9.02
					c-8.61,0-14.28-7-14.28-15.67c0-10.33,7.9-17.82,16.83-17.82c9.33,0,18.42,8.67,18.42,24.06
					C218.27,136.33,210.54,152.42,195.7,152.42z M208.06,106.16c-2.71-4.02-4.94-4.65-8.14-4.65c-8.69,0-10.77,9.71-10.77,15.6
					c0,3.74,0.8,12.48,9.49,12.48c8.22,0,11.88-8.18,13.08-10.96C211.01,112.68,210.22,109.42,208.06,106.16z"/>
				<path class="st0" d="M259.19,151.1h-31.66v-1.87c4.63-8.6,10.85-14.36,18.03-20.74c5.02-4.44,10.85-9.99,10.85-17.62
					c0-3.61-1.44-9.57-10.53-9.57c-6.94,0-10.29,3.26-10.29,5.48c0,0.69,0.4,1.6,0.72,2.08c0.96,1.87,0.96,2.64,0.96,3.19
					c0,2.43-1.75,3.54-3.91,3.54c-2.79,0-3.67-1.73-3.67-3.88c0-6.31,6.78-12.48,17.31-12.48c9.49,0,15.55,4.99,15.55,12.83
					c0,4.65-1.91,7.42-5.9,11.37c-1.91,1.94-11.72,9.36-13.64,10.96c-1.04,0.9-6.94,6.1-10.69,12.07h15.95
					c9.41,0,11.88-5.96,13.32-9.36l1.52,0.35L259.19,151.1z"/>
				<path class="st0" d="M271.95,136.61v-3.81h16.83v3.81H271.95z"/>
				<path class="st0" d="M316.21,152.42c-9.41,0-18.42-8.81-18.42-24.07c0-13.04,7.74-29.13,22.57-29.13c5.82,0,9.49,2.63,9.49,6.03
					c0,2.84-2.23,3.26-3.67,3.26c-3.99,0-4.15-3.19-4.15-3.61c-0.08-1.8-0.16-3.61-3.27-3.61c-2.63,0-5.1,1.25-6.54,2.64
					c-6.94,6.52-7.5,16.3-7.9,23.93c3.75-4.58,7.18-8.95,14.44-8.95c8.61,0,14.28,6.94,14.28,15.6
					C333.04,144.93,325.15,152.42,316.21,152.42z M317.41,122.04c-8.22,0-11.88,8.18-13.08,10.96c0.72,5.9,1.52,9.15,3.67,12.41
					c2.71,4.09,4.94,4.65,8.06,4.65c8.77,0,10.85-9.71,10.85-15.6C326.9,130.71,326.1,122.04,317.41,122.04z"/>
				<path class="st0" d="M355.13,152.42c-5.82,0-9.49-2.71-9.49-6.03c0-2.43,1.6-3.33,3.67-3.33c3.67,0,4.15,2.77,4.15,3.61
					c0,1.67,0.16,3.61,3.27,3.61c2.63,0,5.1-1.25,6.54-2.64c6.94-6.52,7.58-16.37,7.9-23.93c-3.75,4.65-7.18,9.02-14.44,9.02
					c-8.61,0-14.28-7-14.28-15.67c0-10.33,7.9-17.82,16.83-17.82c9.33,0,18.42,8.67,18.42,24.06
					C377.71,136.33,369.97,152.42,355.13,152.42z M367.5,106.16c-2.71-4.02-4.94-4.65-8.14-4.65c-8.69,0-10.77,9.71-10.77,15.6
					c0,3.74,0.8,12.48,9.49,12.48c8.22,0,11.88-8.18,13.08-10.96C370.45,112.68,369.65,109.42,367.5,106.16z"/>
				<path class="st0" d="M418.62,151.1h-31.66v-1.87c4.63-8.6,10.85-14.36,18.03-20.74c5.02-4.44,10.85-9.99,10.85-17.62
					c0-3.61-1.44-9.57-10.53-9.57c-6.94,0-10.29,3.26-10.29,5.48c0,0.69,0.4,1.6,0.72,2.08c0.96,1.87,0.96,2.64,0.96,3.19
					c0,2.43-1.75,3.54-3.91,3.54c-2.79,0-3.67-1.73-3.67-3.88c0-6.31,6.78-12.48,17.31-12.48c9.49,0,15.55,4.99,15.55,12.83
					c0,4.65-1.91,7.42-5.9,11.37c-1.91,1.94-11.72,9.36-13.64,10.96c-1.04,0.9-6.94,6.1-10.69,12.07h15.95
					c9.41,0,11.88-5.96,13.32-9.36l1.52,0.35L418.62,151.1z"/>
				<path class="st0" d="M431.38,136.61v-3.81h16.83v3.81H431.38z"/>
				<path class="st0" d="M462.01,151.1v-2.22h2.79c5.26,0,7.82-2.08,7.82-6.8v-31.21c0-4.51-1.83-6.52-7.9-6.52h-2.71v-1.87h1.28
					c4.87,0,10.69-1.87,12.2-2.64c0.56-0.28,1.2-0.62,1.67-0.62c0.4,0,0.56,0.35,0.56,0.69v42.17c0,3.95,1.83,6.8,7.02,6.8h3.59
					v2.22H462.01z"/>
				<path class="st0" d="M519.27,147.77c0,1.32-0.08,4.65-4.31,4.65c-1.83,0-3.91-0.56-3.91-4.37c0-8.46,12.36-27.6,22.41-43.07
					h-18.34c-7.18,0-9.41,5.06-11.33,9.92l-1.67-0.21l3.43-14.22h31.98v2.36C527.41,117.74,519.43,130.71,519.27,147.77z"/>
				<path class="st0" d="M563.54,152.42c-8.45,0-17.31-3.95-17.31-12.55c0-7,5.98-10.33,14.44-14.42
					c-4.47-1.94-12.28-5.41-12.28-13.18c0-7.28,7.42-13.04,16.27-13.04c7.98,0,14.52,4.58,14.52,11.03c0,6.66-6.3,10.4-10.05,12.69
					c4.87,2.36,13,6.17,13,14.63C582.12,145.69,574.94,152.42,563.54,152.42z M562.74,126.27c-4.39,2.63-10.61,6.38-10.61,13.38
					c0,6.66,5.26,10.61,12.04,10.61c6.46,0,13.24-3.81,13.24-11.03C577.42,132.72,571.35,129.88,562.74,126.27z M564.02,101.31
					c-4.79,0-11.01,2.91-11.01,9.09c0,3.4,1.75,5.27,4.63,7.14c2.39,1.6,5.74,3.19,9.25,4.44c2.23-1.46,7.74-5.06,7.74-10.96
					C574.62,106.51,571.03,101.31,564.02,101.31z"/>
				<path class="st0" d="M608.6,147.77c0,1.32-0.08,4.65-4.31,4.65c-1.83,0-3.91-0.56-3.91-4.37c0-8.46,12.36-27.6,22.41-43.07
					h-18.34c-7.18,0-9.41,5.06-11.33,9.92l-1.67-0.21l3.43-14.22h31.98v2.36C616.73,117.74,608.76,130.71,608.6,147.77z"/>
			</g>
		</g>
		<g>
			<path class="st1" d="M67.09,121.76c3.31-15.08,18.21-24.63,33.3-21.33c15.08,3.31,24.63,18.21,21.33,33.3
				c-3.3,15.08-18.21,24.63-33.29,21.33C73.33,151.75,63.79,136.84,67.09,121.76z"/>
			<path class="st0" d="M89.11,120.54c1.97-1.17,3.58-2.25,4.13-2.57c0.55-0.33,0.53-1.17,0.06-1.96c-0.47-0.79-4.37-7.33-4.37-7.33
				c-0.61-1.02-1.28-2.07-2.23-1.5c-0.95,0.56-1.66,0.98-4.1,2.44c-2.45,1.45-5.69,9.64,2.81,23.9
				c8.5,14.27,17.24,15.32,19.69,13.86c2.44-1.46,3.15-1.88,4.1-2.44c0.95-0.57,0.35-1.65-0.26-2.68c0,0-3.9-6.54-4.37-7.33
				c-0.47-0.79-1.2-1.21-1.76-0.88c-0.55,0.33-2.25,1.24-4.22,2.41c-1.97,1.17-4.17-1.79-7.03-6.6
				C88.7,125.05,87.13,121.71,89.11,120.54z"/>
		</g>
	</g>
</g>
</svg>
