<?xml version="1.0" encoding="utf-8"?>
<!-- Generator: Adobe Illustrator 23.0.3, SVG Export Plug-In . SVG Version: 6.00 Build 0)  -->
<svg version="1.1" xmlns="http://www.w3.org/2000/svg" xmlns:xlink="http://www.w3.org/1999/xlink" x="0px" y="0px"
	 viewBox="0 0 650 155" style="enable-background:new 0 0 650 155;" xml:space="preserve">
<style type="text/css">
	.st0{fill:none;stroke:#F8F400;stroke-width:9.1554;stroke-miterlimit:10;}
	.st1{fill:#00AF20;}
	.st2{fill:none;stroke:#00AF20;stroke-width:1.8936;}
	.st3{fill:#FFFFFF;}
</style>
<g id="レイヤー_1">
</g>
<g id="レイヤー_2">
</g>
<g id="レイヤー_3">
	<line class="st0" x1="24.17" y1="128.69" x2="349.01" y2="128.69"/>
	<g>
		<path class="st1" d="M25.43,81.1c4.5,0,8.33-0.8,11.48-2.41c3.15-1.6,5.06-4.06,5.74-7.39h7.85v59.09H39.95V88.7H25.43V81.1z"/>
		<path class="st1" d="M89.67,72.87c2.7,1.83,4.8,4.25,6.29,7.26c1.49,3.01,2.53,6.26,3.12,9.75c0.59,3.49,0.89,7.15,0.89,10.97
			c0,3.77-0.3,7.41-0.89,10.93c-0.59,3.52-1.63,6.78-3.12,9.79c-1.49,3.01-3.59,5.43-6.29,7.26s-6.08,2.74-10.13,2.74
			c-4.05,0-7.43-0.91-10.13-2.74s-4.8-4.25-6.29-7.26c-1.49-3.01-2.53-6.27-3.12-9.79c-0.59-3.52-0.89-7.16-0.89-10.93
			c0-3.83,0.29-7.48,0.89-10.97c0.59-3.49,1.63-6.74,3.12-9.75c1.49-3.01,3.59-5.43,6.29-7.26c2.7-1.83,6.08-2.74,10.13-2.74
			C83.59,70.13,86.97,71.04,89.67,72.87z M84.69,121.83c1.41-1.15,2.52-2.77,3.33-4.85c0.82-2.08,1.41-4.46,1.77-7.13
			c0.37-2.67,0.55-5.67,0.55-8.99s-0.17-6.32-0.51-8.99c-0.34-2.67-0.93-5.05-1.77-7.13c-0.84-2.08-1.97-3.7-3.38-4.85
			c-1.41-1.15-3.12-1.73-5.15-1.73c-2.03,0-3.74,0.58-5.15,1.73c-1.41,1.15-2.52,2.77-3.33,4.85c-0.82,2.08-1.41,4.46-1.77,7.13
			c-0.37,2.67-0.55,5.67-0.55,8.99s0.18,6.32,0.55,8.99c0.37,2.67,0.96,5.05,1.77,7.13c0.82,2.08,1.93,3.7,3.33,4.85
			c1.41,1.15,3.12,1.73,5.15,1.73C81.56,123.56,83.28,122.98,84.69,121.83z"/>
		<path class="st1" d="M107.48,81.1c4.5,0,8.33-0.8,11.48-2.41c3.15-1.6,5.06-4.06,5.74-7.39h7.85v59.09h-10.55V88.7h-14.52V81.1z"
			/>
		<path class="st1" d="M141.77,112.91h10.76v10.45c-0.05,3.15-1.03,5.82-2.94,8.01c-1.91,2.19-4.41,3.6-7.51,4.22v-4.72
			c1.6-0.41,2.84-1.32,3.71-2.71c0.88-1.39,1.32-2.99,1.32-4.8h-5.34V112.91z"/>
		<path class="st1" d="M166.78,71.31h30.56v8.61h-23.38l-3.04,15.02l0.17,0.17c1.29-1.41,2.93-2.5,4.9-3.29
			c1.97-0.79,3.97-1.18,5.99-1.18c5.74,0,10.26,1.84,13.55,5.53c3.29,3.69,4.94,8.43,4.94,14.22c0,2.48-0.39,4.95-1.18,7.43
			c-0.79,2.48-2.01,4.76-3.67,6.84c-1.66,2.08-3.8,3.76-6.42,5.02c-2.62,1.27-5.67,1.9-9.16,1.9c-5.91,0-10.78-1.56-14.6-4.68
			c-3.83-3.12-5.85-7.55-6.08-13.29h9.62c0.28,3.15,1.38,5.6,3.29,7.34s4.45,2.62,7.6,2.62c3.83,0,6.61-1.18,8.36-3.54
			c1.74-2.36,2.62-5.51,2.62-9.45c0-3.49-0.96-6.42-2.87-8.78c-1.91-2.36-4.7-3.54-8.36-3.54c-2.25,0-4.22,0.42-5.91,1.27
			c-1.69,0.84-2.9,2.22-3.63,4.14h-9.62L166.78,71.31z"/>
		<path class="st1" d="M213.71,71.31h30.56v8.61h-23.38l-3.04,15.02l0.17,0.17c1.29-1.41,2.92-2.5,4.9-3.29
			c1.97-0.79,3.97-1.18,5.99-1.18c5.74,0,10.26,1.84,13.55,5.53c3.29,3.69,4.94,8.43,4.94,14.22c0,2.48-0.39,4.95-1.18,7.43
			c-0.79,2.48-2.01,4.76-3.67,6.84c-1.66,2.08-3.8,3.76-6.42,5.02c-2.62,1.27-5.67,1.9-9.16,1.9c-5.91,0-10.78-1.56-14.6-4.68
			c-3.83-3.12-5.85-7.55-6.08-13.29h9.62c0.28,3.15,1.38,5.6,3.29,7.34s4.44,2.62,7.6,2.62c3.83,0,6.61-1.18,8.36-3.54
			c1.74-2.36,2.62-5.51,2.62-9.45c0-3.49-0.96-6.42-2.87-8.78c-1.91-2.36-4.7-3.54-8.36-3.54c-2.25,0-4.22,0.42-5.91,1.27
			c-1.69,0.84-2.9,2.22-3.63,4.14h-9.62L213.71,71.31z"/>
		<path class="st1" d="M253.22,71.31h40.43v8.02c-6.53,7.37-11.65,15.18-15.36,23.42c-3.71,8.25-5.94,17.46-6.67,27.64h-10.55
			c0.34-4.56,1.13-9.12,2.36-13.67c1.24-4.56,2.87-8.99,4.9-13.29s4.35-8.43,6.96-12.37c2.62-3.94,5.47-7.65,8.57-11.14h-30.64
			V71.31z"/>
	</g>
	<g>
		<path class="st1" d="M342.54,125.17c0,3.72-1.38,4.97-5.36,4.97c-2.08,0-5.23-0.13-7.31-0.26l-1.17-5.93
			c1.6,0.22,3.85,0.35,5.62,0.35c1.47,0,1.77-0.26,1.77-1.43v-9.43h-23.84v17h-6.45V91.56h36.73V125.17z M312.26,107.99h8.7V97.01
			h-8.7V107.99z M336.1,97.01h-8.96v10.99h8.96V97.01z"/>
	</g>
	<g>
		<path class="st1" d="M406.77,101.22c2.9,0,5.25-0.56,7.05-1.67c1.81-1.11,2.71-2.87,2.71-5.26c0-1.85-0.64-3.35-1.92-4.5
			c-1.28-1.16-2.93-1.73-4.94-1.73c-2.31,0-4.11,0.87-5.39,2.61c-1.28,1.74-1.92,3.87-1.92,6.39h-7.18
			c0.21-4.41,1.62-8.01,4.22-10.8c2.6-2.79,6.07-4.19,10.39-4.19c1.76,0,3.47,0.25,5.13,0.76c1.66,0.5,3.15,1.26,4.47,2.27
			c1.32,1.01,2.37,2.25,3.15,3.72c0.78,1.47,1.16,3.15,1.16,5.04c0,2.27-0.53,4.22-1.57,5.86c-1.05,1.64-2.6,2.83-4.66,3.59v0.13
			c2.48,0.5,4.43,1.75,5.86,3.75c1.43,2,2.14,4.42,2.14,7.28c0,2.02-0.41,3.86-1.23,5.54s-1.95,3.11-3.4,4.28
			c-1.45,1.18-3.12,2.08-5.01,2.71c-1.89,0.63-3.88,0.95-5.98,0.95c-4.96,0-8.76-1.38-11.4-4.13s-4.01-6.5-4.09-11.24h7.18
			c0,2.86,0.72,5.13,2.17,6.83c1.45,1.7,3.5,2.55,6.14,2.55c2.48,0,4.5-0.7,6.08-2.11c1.58-1.41,2.36-3.33,2.36-5.76
			c0-1.51-0.27-2.76-0.82-3.75c-0.55-0.99-1.27-1.75-2.17-2.3c-0.9-0.55-1.93-0.93-3.09-1.17c-1.16-0.23-2.45-0.35-3.87-0.35
			c-0.25,0-0.5,0.02-0.76,0.06c-0.29,0-0.57,0-0.82,0V101.22z"/>
		<path class="st1" d="M431.42,114h8.03v7.8c-0.04,2.35-0.77,4.34-2.19,5.98c-1.42,1.64-3.29,2.69-5.6,3.15v-3.52
			c1.19-0.31,2.12-0.98,2.77-2.02c0.65-1.04,0.98-2.23,0.98-3.58h-3.99V114z"/>
		<path class="st1" d="M450.94,124.18c-2.9-2.5-4.35-5.87-4.35-10.11c0-2.73,0.72-5.05,2.17-6.96s3.41-3.18,5.89-3.81v-0.13
			c-1.97-0.76-3.51-1.92-4.6-3.5c-1.09-1.58-1.64-3.43-1.64-5.57c0-3.78,1.2-6.73,3.59-8.85c2.39-2.12,5.77-3.18,10.14-3.18
			s7.75,1.06,10.14,3.18c2.39,2.12,3.59,5.07,3.59,8.85c0,2.14-0.55,4-1.64,5.57s-2.63,2.74-4.6,3.5v0.13
			c2.48,0.63,4.44,1.9,5.89,3.81c1.45,1.91,2.17,4.23,2.17,6.96c0,4.24-1.45,7.61-4.35,10.11c-2.9,2.5-6.64,3.75-11.21,3.75
			C457.57,127.93,453.84,126.68,450.94,124.18z M468.17,120.05c1.57-1.47,2.36-3.46,2.36-5.98c0-2.39-0.79-4.28-2.36-5.67
			c-1.57-1.39-3.58-2.08-6.02-2.08s-4.44,0.69-6.01,2.08c-1.58,1.38-2.36,3.28-2.36,5.67c0,2.52,0.79,4.51,2.36,5.98
			c1.57,1.47,3.58,2.2,6.01,2.2S466.59,121.52,468.17,120.05z M457.18,89.54c-1.3,1.2-1.95,2.84-1.95,4.94
			c0,2.02,0.64,3.6,1.92,4.76c1.28,1.15,2.95,1.73,5.01,1.73c2.06,0,3.73-0.58,5.01-1.73s1.92-2.74,1.92-4.76
			c0-2.1-0.65-3.75-1.95-4.94c-1.3-1.2-2.96-1.8-4.98-1.8C460.14,87.74,458.48,88.34,457.18,89.54z"/>
		<path class="st1" d="M489.8,115.9c0.17,1.81,0.82,3.27,1.95,4.38c1.13,1.11,2.62,1.67,4.47,1.67c1.85,0,3.36-0.48,4.54-1.45
			c1.17-0.97,2.08-2.21,2.71-3.72s1.07-3.08,1.32-4.69s0.44-3.37,0.57-5.26l-0.13-0.13c-0.92,1.68-2.24,2.98-3.94,3.91
			c-1.7,0.92-3.56,1.39-5.57,1.39c-4.16,0-7.52-1.35-10.08-4.06c-2.56-2.71-3.84-6.31-3.84-10.8c0-4.41,1.35-8.02,4.06-10.83
			c2.71-2.81,6.41-4.22,11.12-4.22c3.02,0,5.55,0.58,7.59,1.73c2.04,1.15,3.63,2.76,4.79,4.82c1.15,2.06,1.97,4.46,2.46,7.21
			c0.48,2.75,0.72,5.85,0.72,9.29c0,2.81-0.29,5.55-0.88,8.22c-0.59,2.67-1.54,5.1-2.87,7.31c-1.32,2.21-3.05,3.97-5.2,5.29
			s-4.7,1.98-7.68,1.98c-1.72,0-3.37-0.28-4.95-0.85c-1.57-0.57-2.97-1.4-4.19-2.49s-2.19-2.37-2.93-3.84
			c-0.73-1.47-1.14-3.09-1.23-4.85H489.8z M490.97,90.64c-1.32,1.72-1.98,3.86-1.98,6.42c0,2.56,0.66,4.75,1.98,6.55
			c1.32,1.81,3.22,2.71,5.7,2.71c2.56,0,4.53-0.89,5.92-2.68c1.39-1.78,2.08-3.98,2.08-6.58c0-2.52-0.69-4.65-2.08-6.39
			s-3.36-2.61-5.92-2.61C494.19,88.06,492.29,88.92,490.97,90.64z"/>
		<path class="st1" d="M524.82,115.9c0.17,1.81,0.82,3.27,1.95,4.38c1.13,1.11,2.62,1.67,4.47,1.67s3.36-0.48,4.54-1.45
			c1.18-0.97,2.08-2.21,2.71-3.72c0.63-1.51,1.07-3.08,1.32-4.69s0.44-3.37,0.57-5.26l-0.13-0.13c-0.92,1.68-2.24,2.98-3.94,3.91
			c-1.7,0.92-3.56,1.39-5.57,1.39c-4.16,0-7.52-1.35-10.08-4.06c-2.56-2.71-3.84-6.31-3.84-10.8c0-4.41,1.35-8.02,4.06-10.83
			c2.71-2.81,6.41-4.22,11.12-4.22c3.02,0,5.55,0.58,7.59,1.73s3.63,2.76,4.79,4.82c1.15,2.06,1.97,4.46,2.46,7.21
			c0.48,2.75,0.72,5.85,0.72,9.29c0,2.81-0.29,5.55-0.88,8.22c-0.59,2.67-1.54,5.1-2.87,7.31c-1.32,2.21-3.05,3.97-5.2,5.29
			c-2.14,1.32-4.7,1.98-7.68,1.98c-1.72,0-3.37-0.28-4.94-0.85c-1.58-0.57-2.97-1.4-4.19-2.49c-1.22-1.09-2.2-2.37-2.93-3.84
			c-0.73-1.47-1.14-3.09-1.23-4.85H524.82z M525.99,90.64c-1.32,1.72-1.98,3.86-1.98,6.42c0,2.56,0.66,4.75,1.98,6.55
			c1.32,1.81,3.22,2.71,5.7,2.71c2.56,0,4.54-0.89,5.92-2.68c1.39-1.78,2.08-3.98,2.08-6.58c0-2.52-0.69-4.65-2.08-6.39
			c-1.38-1.74-3.36-2.61-5.92-2.61C529.21,88.06,527.31,88.92,525.99,90.64z"/>
	</g>
	<g>
		<path class="st1" d="M579.26,107.36c-0.23,7.49-0.87,13.91-1.61,16.14c-0.77,2.32-2.19,3.23-5.03,3.23c-1.9,0-4.2-0.13-6.16-0.35
			l-0.77-4.45c1.71,0.29,3.84,0.52,5.23,0.52c1.32,0,1.78-0.29,2.13-1.45c0.48-1.49,0.94-5,1.23-9.46h-9.07
			c-1.29,6.49-4.49,11.46-9.94,15.39l-3.55-3.62c3.78-2.42,6.68-6.04,8.1-9.97c0.9-2.58,1.52-6.39,1.74-10.52l0.03-0.48h-9.78v-4.16
			h29.98v4.16h-15.52c-0.13,2.36-0.23,3.42-0.42,5.03H579.26z"/>
		<path class="st1" d="M614.06,123.14c0,2.78-1.03,3.71-4,3.71c-1.55,0-3.9-0.1-5.45-0.19l-0.87-4.42c1.19,0.16,2.87,0.26,4.2,0.26
			c1.1,0,1.32-0.19,1.32-1.06v-7.04h-17.78v12.68h-4.81V98.06h27.4V123.14z M591.47,110.33h6.49v-8.2h-6.49V110.33z M609.25,102.13
			h-6.68v8.2h6.68V102.13z"/>
	</g>
	<g>
		<path class="st1" d="M582.33,93.98c-0.95-0.85-1.53-1.65-2.14-2.87c-0.66-1.34-1.02-2.79-1.02-4.06c0-2.45,1.3-5.28,3.17-6.93
			h1.06c-2.13,2.44-3.02,4.49-3.02,6.94c0,2.44,0.9,4.49,3.02,6.92H582.33z"/>
		<path class="st1" d="M587.8,87.28c-0.55,1.5-1.21,2.77-1.96,3.76l-0.61-1.08c1.05-1.31,1.91-2.98,2.44-4.73h-2.26v-1.01h2.39
			v-2.36c-0.76,0.17-1.21,0.26-1.81,0.35l-0.45-0.88c1.69-0.25,3.34-0.67,4.57-1.17l0.67,0.82c-0.54,0.22-1.11,0.39-1.82,0.58
			l-0.07,0.03v2.63h1.92v1.01h-1.92v1.12c0.74,0.53,1.5,1.2,2.09,1.82l-0.69,0.93c-0.39-0.55-0.85-1.08-1.4-1.62v6.48h-1.08V87.28z
			 M591.43,88.07v-4.84h3.92c0.53-1.04,0.93-2.03,1.3-3.14l1.09,0.41c-0.42,1.01-0.96,2.13-1.33,2.73h1.91v4.84h-2.01v4.08
			c0,0.42,0.1,0.47,1.02,0.47c0.54,0,0.67-0.06,0.76-0.32c0.07-0.28,0.13-0.86,0.15-1.81l1.02,0.39c-0.06,1.46-0.13,1.98-0.32,2.28
			c-0.26,0.42-0.71,0.55-1.93,0.55c-1.36,0-1.75-0.25-1.75-1.09v-4.55h-1.21v0.38c-0.01,2.86-0.93,4.35-3.38,5.49l-0.74-0.88
			c2.22-0.88,3.06-2.14,3.06-4.62v-0.37H591.43z M592.96,83.05c-0.35-1.02-0.71-1.81-1.09-2.41l0.92-0.45
			c0.48,0.73,0.85,1.49,1.2,2.39L592.96,83.05z M597.23,84.2h-4.73v2.9h4.73V84.2z"/>
		<path class="st1" d="M604.23,90.72c1.14,1.28,2.41,1.74,4.89,1.75h5.35c-0.18,0.39-0.28,0.69-0.38,1.09h-4.96
			c-2.7-0.02-4.14-0.54-5.4-1.98c-0.85,0.98-1.66,1.75-2.49,2.39l-0.69-1.08c0.77-0.48,1.69-1.2,2.54-1.98v-3.53h-2.52v-1.01h3.66
			V90.72z M603.62,83.69c-0.69-0.88-1.55-1.81-2.35-2.52l0.82-0.7c0.77,0.61,1.62,1.44,2.41,2.39L603.62,83.69z M610.23,82.23
			c-0.01,3.21,1.31,6.1,3.84,8.31l-0.74,1.01c-1.68-1.39-3.24-4-3.71-6.23c-0.42,2.39-1.72,4.58-3.73,6.18l-0.8-0.93
			c2.45-1.75,3.71-4.42,4.01-8.46H606V81.1h4.23V82.23z"/>
		<path class="st1" d="M616.35,93.98c2.12-2.44,3.02-4.49,3.02-6.93c0-2.44-0.89-4.48-3.02-6.93h1.07c0.95,0.86,1.53,1.65,2.14,2.87
			c0.66,1.34,1.02,2.79,1.02,4.05c0,2.45-1.3,5.28-3.17,6.93H616.35z"/>
	</g>
	<g>
		<path class="st1" d="M305.25,87.47c-1.04-0.93-1.68-1.8-2.35-3.15c-0.72-1.47-1.12-3.05-1.12-4.44c0-2.68,1.42-5.78,3.47-7.59
			h1.17c-2.33,2.67-3.31,4.92-3.31,7.6c0,2.67,0.99,4.92,3.31,7.57H305.25z"/>
		<path class="st1" d="M311.24,80.13c-0.61,1.64-1.33,3.04-2.14,4.12l-0.67-1.18c1.15-1.44,2.09-3.26,2.67-5.18h-2.48v-1.1h2.62
			v-2.59c-0.83,0.19-1.33,0.29-1.98,0.38l-0.5-0.96c1.85-0.27,3.66-0.74,5-1.28l0.74,0.9c-0.59,0.24-1.21,0.43-2,0.64l-0.08,0.03
			v2.88h2.11v1.1h-2.11v1.23c0.82,0.58,1.65,1.31,2.29,2l-0.75,1.02c-0.43-0.61-0.93-1.18-1.53-1.77v7.09h-1.18V80.13z M315.22,81
			v-5.3h4.3c0.58-1.13,1.02-2.22,1.42-3.44l1.2,0.45c-0.46,1.1-1.05,2.33-1.45,2.99h2.09V81h-2.21v4.47c0,0.46,0.11,0.51,1.12,0.51
			c0.59,0,0.74-0.06,0.83-0.35c0.08-0.3,0.14-0.94,0.16-1.98l1.12,0.43c-0.06,1.6-0.14,2.17-0.35,2.49
			c-0.29,0.46-0.78,0.61-2.11,0.61c-1.49,0-1.92-0.27-1.92-1.2V81h-1.33v0.42c-0.02,3.13-1.02,4.76-3.71,6.01l-0.82-0.96
			c2.43-0.96,3.36-2.35,3.36-5.06V81H315.22z M316.9,75.5c-0.38-1.12-0.78-1.98-1.2-2.64l1.01-0.5c0.53,0.8,0.93,1.63,1.31,2.62
			L316.9,75.5z M321.58,76.76h-5.18v3.18h5.18V76.76z"/>
		<path class="st1" d="M329.24,83.9c1.25,1.41,2.64,1.9,5.35,1.92h5.86c-0.19,0.43-0.3,0.75-0.42,1.2h-5.43
			c-2.96-0.02-4.54-0.59-5.91-2.17c-0.93,1.07-1.82,1.92-2.73,2.62l-0.75-1.18c0.85-0.53,1.85-1.31,2.78-2.17v-3.87h-2.76v-1.1h4.01
			V83.9z M328.57,76.2c-0.75-0.96-1.69-1.98-2.57-2.76l0.89-0.77c0.85,0.67,1.77,1.58,2.64,2.62L328.57,76.2z M335.81,74.61
			c-0.02,3.51,1.44,6.68,4.2,9.11l-0.81,1.1c-1.84-1.52-3.55-4.38-4.06-6.82c-0.46,2.62-1.88,5.02-4.09,6.77l-0.88-1.02
			c2.68-1.92,4.06-4.84,4.39-9.27h-3.39v-1.12h4.63V74.61z"/>
		<path class="st1" d="M342.51,87.47c2.32-2.67,3.31-4.92,3.31-7.59s-0.97-4.9-3.31-7.59h1.17c1.04,0.94,1.68,1.81,2.35,3.15
			c0.72,1.47,1.12,3.05,1.12,4.44c0,2.68-1.42,5.78-3.47,7.59H342.51z"/>
	</g>
	<line class="st2" x1="358.2" y1="41.5" x2="358.2" y2="130.39"/>
	<g>
		<rect x="367.83" y="70.88" class="st1" width="17.8" height="59.17"/>
		<g>
			<path class="st3" d="M370.9,86.07c0.58-0.51,1.1-1.21,1.46-2.02l0.99,0.55c-0.33,0.84-0.9,1.68-1.53,2.29L370.9,86.07z
				 M375.72,83.9h-4.11v-7.79h4.11V83.9z M372.71,78.41h1.95v-1.25h-1.95V78.41z M372.71,80.57h1.95v-1.24h-1.95V80.57z
				 M372.71,82.86h1.95v-1.4h-1.95V82.86z M374.79,83.94c0.37,0.45,0.73,0.98,0.99,1.47c0.53-1.24,0.75-2.86,0.75-5.4v-3.86h5.81
				v1.16h-4.64v1.82h3.87l0.58,0.45c-0.31,1.79-0.8,3.19-1.53,4.38c0.53,0.65,1.16,1.18,1.97,1.65l-0.71,1.16
				c-0.91-0.65-1.35-1.04-1.98-1.8c-0.53,0.67-1.21,1.31-2.01,1.92l-0.75-1.05c0.77-0.43,1.49-1.08,2.07-1.85
				c-0.66-1.1-1.09-2.35-1.28-3.76h-0.24c0,3.31-0.33,5.03-1.27,6.58l-0.88-0.85l-0.5,0.44c-0.32-0.78-0.68-1.38-1.09-1.9
				L374.79,83.94z M378.99,80.22c0.17,1,0.48,1.91,0.91,2.69c0.42-0.75,0.74-1.73,0.9-2.69H378.99z"/>
			<path class="st3" d="M370.99,98.9c2.74-0.31,3.6-1.18,3.61-3.66h1.3c0.02,3.08-1,4.25-4.22,4.8L370.99,98.9z M376.06,88.63h1.28
				v1.09h5.01v1.03h-5.01v0.93h4.23v1.02h-9.47v-1.02h3.97v-0.93h-4.93v-1.03h4.93V88.63z M382.05,96.1h-1.29v-1.49h-8.05v1.57
				h-1.29v-2.56h10.63V96.1z M378.68,95.2v2.98c0,0.41,0.14,0.47,1.04,0.47c0.86,0,1.05-0.07,1.15-0.42
				c0.07-0.25,0.07-0.3,0.12-1.33l1.29,0.36c-0.02,1.09-0.11,1.66-0.3,2.03c-0.24,0.48-0.6,0.55-2.63,0.55
				c-1.67,0-1.98-0.17-1.98-1.09V95.2H378.68z"/>
			<path class="st3" d="M373.4,113.12h-1.18v-5.96c-0.31,0.56-0.48,0.84-0.85,1.39l-0.54-1.33c0.92-1.3,1.6-3.11,2.09-5.52l1.18,0.3
				c-0.24,0.98-0.42,1.59-0.7,2.42V113.12z M376.49,103.6h-2.45v-1.12h8.38v1.12h-2.62v1.85h2.23v7.67h-1.12v-0.81h-5.48v0.81h-1.12
				v-7.67h2.19V103.6z M375.42,111.26h1.09v-4.75h-1.09V111.26z M377.6,105.45h1.09v-1.85h-1.09V105.45z M377.6,111.26h1.09v-4.75
				h-1.09V111.26z M380.91,106.5h-1.13v4.75h1.13V106.5z"/>
			<path class="st3" d="M381.46,126.26h-1.18v-0.71h-3.04v0.71h-1.18v-4.6c-0.2,0.11-0.3,0.16-0.66,0.31l-0.35-0.67l-0.5,0.86
				c-0.18-0.32-0.36-0.61-0.59-0.92v5.02h-1.22v-5.13c-0.35,1.02-0.74,1.91-1.24,2.77l-0.65-1.31c0.8-1.16,1.46-2.67,1.77-4.04
				h-1.55v-1.17h1.67v-2.47h1.22v2.47h1.18v0.56c0.96-0.68,1.88-1.88,2.38-3.08l1.22,0.2c-0.07,0.17-0.17,0.36-0.28,0.57h2.52
				l0.69,0.62c-0.67,1.34-1.17,2.07-2.02,2.94c0.85,0.61,1.84,1.06,2.99,1.39l-0.5,1.11c-1.37-0.45-2.35-0.97-3.32-1.73
				c-0.73,0.58-1.48,1.05-2.54,1.59h5.17V126.26z M373.97,119.74c0.32,0.3,0.68,0.67,1,1.06c1.02-0.32,2.09-0.88,3.02-1.6
				c-0.37-0.38-0.72-0.81-1.05-1.34c-0.33,0.36-0.68,0.68-1.08,0.98l-0.72-0.72v0.43h-1.18V119.74z M377.24,124.49h3.04v-1.88h-3.04
				V124.49z M377.82,116.73c-0.02,0.04-0.05,0.07-0.07,0.12l-0.06,0.07l-0.08,0.12c0.33,0.53,0.73,0.99,1.19,1.46
				c0.6-0.57,1.04-1.17,1.34-1.77H377.82z"/>
		</g>
	</g>
	
		<rect x="101" y="-45.11" transform="matrix(6.123234e-17 -1 1 6.123234e-17 75.372 157.3082)" class="st1" width="30.68" height="172.15"/>
	<g>
		<path class="st3" d="M72.23,49.46c0,1.74-0.66,2.29-2.71,2.29c-1.47,0-2.82-0.07-4.27-0.2l-0.48-2.35
			c1.67,0.18,3.19,0.26,4.29,0.26c0.55,0,0.68-0.13,0.68-0.62v-4.49h-9.46c-0.22,3.26-1.21,5.59-3.26,7.68l-1.91-1.85
			c1.91-2.09,2.73-4.31,2.73-7.39v-11h14.39V49.46z M60.35,36.92h9.4v-3.08h-9.4V36.92z M60.35,42.29h9.4v-3.3h-9.4V42.29z"/>
		<path class="st3" d="M91.64,37.12c-2.02,3.87-4.18,7.13-6.14,9.24c1.1,0.95,1.76,1.56,2.64,2.44l-1.85,1.89
			c-1.76-2-4.18-4.16-7.22-6.4l1.63-1.72c1.1,0.77,1.8,1.3,3.04,2.29c1.74-1.92,3.7-4.8,4.75-6.95h-8.18
			c-1.43,2.29-2.95,4.07-4.71,5.54l-1.74-1.63c3.1-2.4,5.48-5.96,6.56-9.86l2.4,0.53c-0.44,1.3-0.79,2.16-1.34,3.28h8.76
			L91.64,37.12z"/>
		<path class="st3" d="M103.66,48.67c4.25-1.08,6.31-3.43,6.31-7.24c0-2.64-1.19-4.86-3.21-5.98c-0.7-0.4-1.34-0.62-2.38-0.81
			c-0.66,5.11-1.54,8.36-3.15,11.51c-0.62,1.21-1.1,1.96-1.63,2.49c-0.73,0.77-1.63,1.19-2.49,1.19c-2.53,0-4.58-3.17-4.58-7.04
			c0-3.59,1.87-6.93,4.95-8.84c1.56-0.99,3.48-1.5,5.54-1.5c5.61,0,9.46,3.61,9.46,8.89c0,4.99-2.53,8.16-7.57,9.51L103.66,48.67z
			 M102.06,34.54c-1.89,0.22-3.15,0.79-4.4,2.02c-1.72,1.67-2.64,3.81-2.64,6.12c0,2.38,0.99,4.55,2.09,4.55
			c0.55,0,1.06-0.51,1.74-1.72c1.54-2.69,2.64-6.4,3.17-10.61L102.06,34.54z"/>
		<path class="st3" d="M131.74,49.81c-2.09,0.31-5.04,0.53-7.37,0.53c-3.1,0-6.01-0.44-7.26-1.1c-1.52-0.79-2.16-1.78-2.16-3.32
			c0-1.45,0.57-2.75,1.69-3.85l1.87,1.23c-0.73,0.86-1.03,1.54-1.03,2.29c0,0.79,0.44,1.32,1.36,1.67c0.92,0.37,3.26,0.64,5.48,0.64
			c2.33,0,5-0.2,7.08-0.55L131.74,49.81z M128.24,33.73v2.33h-11.09v-2.33H128.24z M130.27,35.4c-0.46-1.14-1.34-2.66-2.16-3.76
			l1.65-0.59c0.84,1.1,1.63,2.44,2.16,3.67L130.27,35.4z M133.24,34.85c-0.46-1.17-1.25-2.6-2.11-3.76l1.58-0.55
			c0.77,0.9,1.47,2.05,2.16,3.59L133.24,34.85z"/>
		<path class="st3" d="M140.86,46.91c1.69,1.72,3.23,2.27,6.75,2.33h8.91c-0.37,0.86-0.51,1.34-0.62,2.25h-8.89
			c-3.48-0.09-5.7-0.95-7.2-2.77l-0.29,0.35c-0.88,1.1-1.94,2.2-2.84,2.93l-1.36-2.42c0.97-0.57,2.07-1.39,3.19-2.4v-5.02h-2.99
			v-2.24h5.33V46.91z M139.51,37.05c-1.06-1.72-2.16-3.1-3.45-4.36l1.85-1.41c1.23,1.12,2.31,2.4,3.52,4.11L139.51,37.05z
			 M145.48,36.96h8.47l1.21,1.1c-0.77,2.49-1.91,4.69-3.19,6.14c1.25,0.92,2.66,1.69,4.14,2.24l-1.34,2.07
			c-1.67-0.77-3.21-1.74-4.38-2.75c-1.54,1.34-3.17,2.33-4.73,2.88l-1.25-1.8c1.96-0.75,3.48-1.58,4.55-2.49l-0.11-0.13
			c-1.12-1.32-2.16-3.17-2.73-4.88l-0.13-0.4h-0.51c-0.09,4.75-0.57,6.91-2.13,9.15l-1.72-1.65c1.21-1.94,1.61-4.07,1.61-9.02v-5.48
			h12.41v2.07h-10.17V36.96z M150.54,42.64l0.07-0.07c0.79-0.99,1.61-2.51,1.96-3.63h-4.53c0.59,1.61,1.34,2.84,2.35,3.89
			L150.54,42.64z"/>
		<path class="st3" d="M160.73,41.63c-1.1-1.41-2.11-2.44-3.32-3.46l1.63-1.61c1.32,0.95,2.51,2.11,3.43,3.34L160.73,41.63z
			 M157.67,50.08c1.47-1.8,2.84-4.18,4.36-7.55l1.8,1.45c-1.12,2.86-2.55,5.57-4.16,7.9L157.67,50.08z M161.43,36.09
			c-1.17-1.39-2.29-2.51-3.32-3.35l1.65-1.54c1.21,0.88,2.42,2.02,3.34,3.21L161.43,36.09z M176.07,34.98
			c-0.97,1.25-1.85,2.09-3.28,3.17c1.65,0.62,3.79,1.17,6.05,1.52l-1.1,1.98c-0.42-0.09-0.53-0.11-0.77-0.18l-0.64-0.15v10.61h-2.27
			v-4.66h-6.84c-0.44,2.05-1.41,3.45-3.26,4.73l-1.67-1.72c2.11-1.28,2.95-2.95,2.95-5.83v-2.84c-0.51,0.13-0.9,0.24-1.52,0.35
			l-1.23-1.8c2.24-0.33,4.58-0.99,6.4-1.83c-1.5-0.97-2.71-2.09-3.67-3.34h-1.87v-1.85h6.12v-2.11h2.33v2.11h6.47v1.85H176.07z
			 M167.48,43.61v0.46c0,0.55,0,0.88-0.04,1.34h6.62v-1.8H167.48z M174.07,40.68c-1.47-0.48-2.16-0.75-3.24-1.28
			c-1.06,0.57-1.96,0.99-3.34,1.5v0.95h6.58V40.68z M167.75,34.98c0.73,0.75,1.98,1.69,3.04,2.27c1.08-0.75,2.02-1.58,2.64-2.27
			H167.75z"/>
	</g>
	<g>
		<path class="st1" d="M431.55,41.86c0.99,0.67,1.75,1.55,2.3,2.65c0.54,1.1,0.93,2.29,1.14,3.57c0.22,1.28,0.32,2.61,0.32,4.01
			c0,1.38-0.11,2.71-0.32,4c-0.22,1.29-0.6,2.48-1.14,3.58s-1.31,1.99-2.3,2.66c-0.99,0.67-2.22,1-3.71,1s-2.72-0.33-3.71-1
			c-0.99-0.67-1.75-1.55-2.3-2.66c-0.55-1.1-0.93-2.29-1.14-3.58c-0.22-1.29-0.32-2.62-0.32-4c0-1.4,0.11-2.74,0.32-4.01
			c0.22-1.28,0.6-2.46,1.14-3.57c0.54-1.1,1.31-1.99,2.3-2.65c0.99-0.67,2.22-1,3.71-1S430.57,41.19,431.55,41.86z M429.73,59.77
			c0.51-0.42,0.92-1.01,1.22-1.78c0.3-0.76,0.51-1.63,0.65-2.61c0.13-0.98,0.2-2.07,0.2-3.29c0-1.21-0.06-2.31-0.19-3.29
			s-0.34-1.85-0.65-2.61s-0.72-1.35-1.23-1.78c-0.52-0.42-1.14-0.63-1.88-0.63s-1.37,0.21-1.88,0.63s-0.92,1.01-1.22,1.78
			c-0.3,0.76-0.52,1.63-0.65,2.61c-0.13,0.98-0.2,2.07-0.2,3.29c0,1.21,0.07,2.31,0.2,3.29c0.13,0.98,0.35,1.85,0.65,2.61
			c0.3,0.76,0.7,1.35,1.22,1.78s1.14,0.63,1.88,0.63S429.22,60.19,429.73,59.77z"/>
	</g>
	<g>
		<path class="st1" d="M452.42,61.25c0,1.36-0.51,1.82-1.96,1.82c-0.76,0-1.92-0.05-2.67-0.09l-0.43-2.17
			c0.58,0.08,1.41,0.13,2.06,0.13c0.54,0,0.65-0.1,0.65-0.52v-3.45h-8.72v6.22h-2.36V48.95h13.43V61.25z M441.34,54.96h3.18v-4.02
			h-3.18V54.96z M450.06,50.94h-3.28v4.02h3.28V50.94z"/>
	</g>
	<g>
		<path class="st1" d="M611.92,61.25c0,1.36-0.51,1.82-1.96,1.82c-0.76,0-1.91-0.05-2.67-0.09l-0.43-2.17
			c0.59,0.08,1.41,0.13,2.06,0.13c0.54,0,0.65-0.1,0.65-0.52v-3.45h-8.72v6.22h-2.36V48.95h13.43V61.25z M600.84,54.96h3.18v-4.02
			h-3.18V54.96z M609.56,50.94h-3.28v4.02h3.28V50.94z"/>
	</g>
	<g>
		<path class="st1" d="M381.86,50v12.66H369.2V50H381.86z"/>
		<path class="st1" d="M384.68,61.66c1.36-0.27,2.04-0.41,2.72-0.57c0.44-0.1,0.62-0.14,1.25-0.29c0.38-1.01,0.74-2.29,0.98-3.46
			l1.54,0.4c-0.27,1-0.54,1.77-0.92,2.69c0.85-0.21,1.39-0.35,1.65-0.41l0.08,1.33c-1.84,0.63-4.15,1.27-6.79,1.85L384.68,61.66z
			 M391.67,49.41v1.39h-6.88v-1.39H391.67z M391.31,57.05h-6.01v-4.71h6.01V57.05z M386.28,60.95c-0.21-0.96-0.52-2.07-0.89-2.97
			l1.46-0.49c0.33,0.79,0.65,1.85,0.9,2.96L386.28,60.95z M386.83,55.76h2.96v-2.11h-2.96V55.76z M390.99,62.89
			c0.98-0.47,2.07-1.33,2.82-2.2l1.28,0.74c-0.9,1.11-1.95,1.99-3.02,2.56L390.99,62.89z M399.17,52.17v8.45h-6.58v-8.45h1.98
			c0.08-0.3,0.17-0.67,0.33-1.38h-2.72v-1.38h7.64v1.38h-3.32c-0.19,0.62-0.27,0.85-0.49,1.38H399.17z M394.09,53.38v1.22h3.51
			v-1.22H394.09z M394.09,56.94h3.51v-1.19h-3.51V56.94z M394.09,59.38h3.51V58.1h-3.51V59.38z M398.73,63.89
			c-0.74-0.95-1.54-1.71-2.42-2.34l1.17-0.89c0.98,0.63,1.68,1.22,2.5,2.12L398.73,63.89z"/>
		<path class="st1" d="M409.87,56.33h5.87v1.42h-5.87v3.97h2.82l-1.27-0.52c0.54-0.9,1.01-1.96,1.42-3.17l1.69,0.58
			c-0.51,1.17-1.08,2.25-1.64,3.1h3.29v1.49h-14.21v-1.49h2.93c-0.35-1.09-0.74-2.01-1.31-2.97l1.54-0.62
			c0.52,0.82,1,1.82,1.44,3.04l-1.55,0.55h3.17v-3.97h-5.74v-1.42h5.74v-1.79h-3.12v-0.78c-0.85,0.54-1.76,1.01-2.77,1.44
			l-0.95-1.39c2.94-1.09,4.98-2.63,6.71-5h1.88c1.44,1.95,3.75,3.48,6.9,4.56l-1.01,1.5c-1.11-0.44-1.87-0.81-2.83-1.38v1.04h-3.12
			V56.33z M412.31,53.08c-1.36-0.9-2.47-1.9-3.31-2.97c-0.73,1.04-1.69,2.04-2.75,2.83l-0.19,0.14H412.31z"/>
	</g>
	<g>
		<path class="st1" d="M590.67,41.86c0.99,0.67,1.75,1.55,2.3,2.66c0.54,1.1,0.93,2.29,1.14,3.57c0.22,1.28,0.32,2.61,0.32,4.01
			c0,1.38-0.11,2.71-0.32,4c-0.22,1.29-0.6,2.48-1.14,3.58c-0.55,1.1-1.31,1.99-2.3,2.65c-0.99,0.67-2.22,1-3.71,1
			s-2.72-0.33-3.71-1c-0.99-0.67-1.76-1.55-2.3-2.65s-0.93-2.29-1.14-3.58c-0.21-1.29-0.32-2.62-0.32-4c0-1.4,0.11-2.74,0.32-4.01
			c0.22-1.28,0.6-2.46,1.14-3.57s1.31-1.99,2.3-2.66s2.22-1,3.71-1S589.68,41.19,590.67,41.86z M588.85,59.77
			c0.51-0.42,0.92-1.01,1.22-1.78c0.3-0.76,0.51-1.63,0.65-2.61c0.13-0.98,0.2-2.07,0.2-3.29s-0.06-2.31-0.19-3.29
			c-0.12-0.98-0.34-1.85-0.65-2.61c-0.31-0.76-0.72-1.35-1.24-1.78c-0.51-0.42-1.14-0.63-1.88-0.63c-0.74,0-1.37,0.21-1.88,0.63
			c-0.52,0.42-0.92,1.01-1.22,1.78c-0.3,0.76-0.51,1.63-0.65,2.61c-0.13,0.98-0.2,2.07-0.2,3.29s0.07,2.31,0.2,3.29
			c0.13,0.98,0.35,1.85,0.65,2.61c0.3,0.76,0.71,1.35,1.22,1.78c0.51,0.42,1.14,0.63,1.88,0.63
			C587.71,60.4,588.33,60.19,588.85,59.77z"/>
	</g>
	<g>
		<path class="st1" d="M477.89,50v12.66h-12.66V50H477.89z"/>
		<path class="st1" d="M480.77,61.12c1.03-1.3,1.96-3.67,2.29-5.84l1.69,0.46c-0.43,2.63-1.36,5.13-2.45,6.57L480.77,61.12z
			 M488.66,49.24v2.85h5.82v1.55h-5.82v9.7h-1.74v-9.7h-5.7v-1.55h5.7v-2.85H488.66z M493.38,62.1c-1.01-1.47-2.22-4.16-2.88-6.5
			l1.66-0.55c0.55,1.95,1.68,4.38,2.78,6.03L493.38,62.1z M492.32,51.63c-0.24-0.74-0.78-1.72-1.44-2.66l1.25-0.36
			c0.58,0.84,1.06,1.71,1.44,2.64L492.32,51.63z M494.53,51.42c-0.33-0.92-0.89-1.98-1.41-2.67l1.17-0.32
			c0.54,0.65,1.03,1.5,1.44,2.55L494.53,51.42z"/>
		<path class="st1" d="M510.8,55.19v1.74h-13.61v-1.74H510.8z"/>
		<path class="st1" d="M520.7,49.24v3.62h5.85v1.61h-5.85c0,2.96-0.27,4.37-1.12,5.79c-0.81,1.3-2.25,2.48-3.92,3.18l-1.09-1.44
			c3.45-1.54,4.46-3.28,4.37-7.53h-6.17v-1.61h6.17v-3.62H520.7z"/>
		<path class="st1" d="M539.23,50.39l1.03,0.9c-0.87,2.09-1.87,3.89-3.12,5.62c1.64,1.28,3.43,2.93,4.89,4.53l-1.28,1.46
			c-1.49-1.69-3.07-3.31-4.64-4.68c-1.58,1.93-3.94,3.66-6.41,4.73l-0.93-1.6c4-1.47,7.37-4.86,9.32-9.37h-8.18v-1.58H539.23z"/>
		<path class="st1" d="M546.83,48.81h1.68v2.8h2.23v1.5h-2.23v2.67c0.63-0.16,1.09-0.29,2.04-0.57l0.13,1.44
			c-0.9,0.3-0.96,0.33-2.17,0.68v5.02c0,1.08-0.38,1.41-1.6,1.41c-0.63,0-1.25-0.03-1.74-0.11l-0.3-1.68
			c0.93,0.13,1.14,0.14,1.57,0.14c0.32,0,0.4-0.08,0.4-0.43V57.8c-0.87,0.21-1.68,0.41-2.41,0.57l-0.44-1.61
			c0.76-0.11,1.66-0.29,2.64-0.51l0.21-0.05v-3.08h-2.67v-1.5h2.67V48.81z M550.05,61.23c0.03-0.11,0.05-0.14,0.08-0.22
			c1.01-3.31,1.99-7.47,2.75-11.8l1.72,0.35c-0.97,5.03-1.79,8.35-2.82,11.47c1.14-0.16,3.84-0.62,4.72-0.81
			c-0.76-1.95-1-2.5-1.55-3.69l1.55-0.6c1.03,1.91,1.99,4.22,2.75,6.68l-1.64,0.85c-0.22-0.73-0.35-1.12-0.62-1.88l-0.29,0.08
			c-1.91,0.52-4.54,1.06-7.09,1.46l-0.49-1.79L550.05,61.23z"/>
		<path class="st1" d="M568.14,58.91c-0.41,1.23-1,2.45-1.54,3.2c-0.46,0.65-1.06,1.01-1.66,1.01c-0.82,0-1.58-0.62-2.17-1.79
			c-0.44-0.85-0.79-1.98-0.97-3.02c-0.17-1.14-0.32-3.28-0.32-4.89c0-0.68,0.03-1.8,0.1-3.21l1.82,0.14
			c-0.06,1.2-0.09,1.95-0.09,2.97c0,3.28,0.32,5.63,0.92,6.92c0.22,0.46,0.54,0.81,0.73,0.81c0.38,0,1.17-1.42,1.8-3.26
			L568.14,58.91z M573.03,60.74c-0.43-3.85-1.15-6.55-2.58-9.73l1.64-0.39c1.65,3.37,2.26,5.55,2.74,9.7L573.03,60.74z"/>
	</g>
</g>
</svg>
